<svg xmlns="http://www.w3.org/2000/svg" xmlns:xlink="http://www.w3.org/1999/xlink" width="190" height="236" viewBox="0 0 190 236">
  <defs>
    <linearGradient id="linear-gradient" x1="-128.533" y1="0.5" x2="-127.533" y2="0.5" gradientUnits="objectBoundingBox">
      <stop offset="0.051" stop-color="#3d4555"/>
      <stop offset="0.583" stop-color="#3d4555"/>
      <stop offset="0.645" stop-color="#373d4a"/>
      <stop offset="0.716" stop-color="#353b47"/>
    </linearGradient>
  </defs>
  <g id="Grupo_58635" data-name="Grupo 58635" transform="translate(-1020 -1140)">
    <ellipse id="Elipse_4123" data-name="Elipse 4123" cx="90.5" cy="91" rx="90.5" ry="91" transform="translate(1020 1194)" fill="#fff"/>
    <g id="Grupo_58622" data-name="Grupo 58622" transform="translate(681.94 899.389)">
      <g id="Grupo_58621" data-name="Grupo 58621" transform="translate(348.387 240.611)">
        <g id="Grupo_58567" data-name="Grupo 58567" transform="translate(74.117)">
          <g id="Grupo_58563" data-name="Grupo 58563" transform="translate(8.684 98.684)">
            <path id="Trazado_105513" data-name="Trazado 105513" d="M371.871,275.247l11.646-6.767a2.892,2.892,0,0,1,2.926.286L374.8,275.534a2.9,2.9,0,0,0-2.926-.286Z" transform="translate(-370.673 -268.201)" fill="#202734"/>
            <path id="Trazado_105514" data-name="Trazado 105514" d="M372.689,275.126l11.646-6.767a9.019,9.019,0,0,1,4.1,7.1,2.869,2.869,0,0,1-1.2,2.633l-11.646,6.771a2.88,2.88,0,0,0,1.2-2.636,9.02,9.02,0,0,0-4.1-7.1Z" transform="translate(-368.565 -267.794)" fill="#202734"/>
            <path id="Trazado_105515" data-name="Trazado 105515" d="M375.66,270.657a9.02,9.02,0,0,1,4.1,7.1c-.007,2.608-1.853,3.659-4.124,2.346a9.027,9.027,0,0,1-4.1-7.093C371.543,270.4,373.389,269.348,375.66,270.657Z" transform="translate(-371.536 -263.324)" fill="#27303f"/>
          </g>
          <g id="Grupo_58566" data-name="Grupo 58566">
            <g id="Grupo_58564" data-name="Grupo 58564" transform="translate(8.604 60.001)">
              <path id="Trazado_105516" data-name="Trazado 105516" d="M374.091,261.068l3.387-2.024c.73-.44,1.059-.941.984-1.37l6.86,38.705c.075.429-.254.93-.984,1.37l-3.387,2.025a5.738,5.738,0,0,1-1.348.565l-6.86-38.705A5.747,5.747,0,0,0,374.091,261.068Z" transform="translate(-368.346 -256.645)" fill="#2c323d"/>
              <path id="Trazado_105517" data-name="Trazado 105517" d="M374.408,258.781l6.86,38.705a7.284,7.284,0,0,1-2.311.283L372.1,259.063a7.284,7.284,0,0,0,2.311-.282Z" transform="translate(-370.01 -253.792)" fill="#3d4555"/>
              <path id="Trazado_105518" data-name="Trazado 105518" d="M373.591,259.6l6.861,38.705a4.328,4.328,0,0,1-1.112-.186c-.583-.19-.9-.49-.966-.837l-6.857-38.705c.061.347.379.647.962.837a4.485,4.485,0,0,0,1.112.186Z" transform="translate(-371.505 -254.326)" fill="#2e3440"/>
              <path id="Trazado_105519" data-name="Trazado 105519" d="M380.664,257.578c1.309.426,1.3,1.416-.018,2.207l-3.387,2.024a6.69,6.69,0,0,1-4.772.662c-1.306-.426-1.3-1.417.018-2.207l3.391-2.025A6.677,6.677,0,0,1,380.664,257.578Z" transform="translate(-371.514 -257.386)" fill="#313744"/>
            </g>
            <g id="Grupo_58565" data-name="Grupo 58565">
              <path id="Trazado_105520" data-name="Trazado 105520" d="M370.335,245.055l2.539-3.223c.594-.358.93-.962,1.177-.962l10.638,60.077c.061.351-.2.755-.8,1.112l-2.468,1.474a4.759,4.759,0,0,1-1.095.461L370.1,246.16C370.5,246.046,370.017,245.244,370.335,245.055Z" transform="translate(-366.555 -239.945)" fill="#2c323d"/>
              <path id="Trazado_105521" data-name="Trazado 105521" d="M371.447,242.349l10.23,57.831a5.925,5.925,0,0,1-1.871.229l-10.23-57.831a5.948,5.948,0,0,0,1.871-.229Z" transform="translate(-367.902 -236.134)" fill="#3d4555"/>
              <path id="Trazado_105522" data-name="Trazado 105522" d="M370.779,242.967l10.23,57.831a3.444,3.444,0,0,1-.9-.15c-.472-.154-.733-.4-.783-.676L369.109,242.2c.05.279.3.465.766.615a3.583,3.583,0,0,0,.9.154Z" transform="translate(-369.106 -236.523)" fill="#2e3440"/>
              <path id="Trazado_105523" data-name="Trazado 105523" d="M375.829,240.939c1.059.343.984.8.154,1.874l-2.572,3.555c-.694,1.055-2.815.9-3.867.533-.469-.161-.691-.891.014-1.785l2.4-3.641C372.856,240.235,374.766,240.6,375.829,240.939Z" transform="translate(-369.108 -240.611)" fill="#383f4e"/>
            </g>
          </g>
        </g>
        <g id="Grupo_58573" data-name="Grupo 58573" transform="translate(135.073 57.446)">
          <g id="Grupo_58569" data-name="Grupo 58569" transform="translate(0 71.418)">
            <path id="Trazado_105524" data-name="Trazado 105524" d="M398.131,276.915a2.909,2.909,0,0,1,2.926.286,9.04,9.04,0,0,1,4.1,7.1,2.88,2.88,0,0,1-1.2,2.636L392.308,293.7a2.88,2.88,0,0,0,1.2-2.636,9.028,9.028,0,0,0-4.1-7.093,2.9,2.9,0,0,0-2.926-.29Z" transform="translate(-385.287 -276.639)" fill="#202734"/>
            <g id="Grupo_58568" data-name="Grupo 58568" transform="translate(0 6.768)">
              <path id="Trazado_105525" data-name="Trazado 105525" d="M390.274,279.1a9.028,9.028,0,0,1,4.1,7.093c-.007,2.608-1.853,3.659-4.124,2.35a9.04,9.04,0,0,1-4.1-7.1C386.157,278.835,388,277.783,390.274,279.1Z" transform="translate(-386.15 -278.531)" fill="#27303f"/>
            </g>
          </g>
          <g id="Grupo_58572" data-name="Grupo 58572" transform="translate(9.277)">
            <g id="Grupo_58570" data-name="Grupo 58570" transform="translate(0 43.056)">
              <path id="Trazado_105526" data-name="Trazado 105526" d="M400.61,272.853l3.377-2.032a2.025,2.025,0,0,0,.887-1.037l-10.291,27.738a2.049,2.049,0,0,1-.891,1.037l-3.377,2.032Z" transform="translate(-384.692 -265.941)" fill="#20242d"/>
              <path id="Trazado_105527" data-name="Trazado 105527" d="M404.662,273.108l-10.294,27.738a4.15,4.15,0,0,1-4.693-.794,2.5,2.5,0,0,1-.812-2.629l10.294-27.738a2.489,2.489,0,0,0,.808,2.629,4.156,4.156,0,0,0,4.7.794Z" transform="translate(-388.744 -266.196)" fill="#2e3440"/>
              <path id="Trazado_105528" data-name="Trazado 105528" d="M400.7,269.924c1.27,1.227,1.234,2.876-.079,3.666l-3.377,2.032a4.156,4.156,0,0,1-4.7-.794c-1.27-1.227-1.234-2.876.079-3.666l3.377-2.032A4.156,4.156,0,0,1,400.7,269.924Z" transform="translate(-381.329 -268.709)" fill="#383f4e"/>
            </g>
            <g id="Grupo_58571" data-name="Grupo 58571" transform="translate(11.674)">
              <path id="Trazado_105529" data-name="Trazado 105529" d="M409.078,260.089l2-1.842c.372-.215,1.119-.469,1.241-.808L396.5,301.4a1.632,1.632,0,0,1-.74.855l-2.479,1.438Z" transform="translate(-388.731 -254.695)" fill="#20252d"/>
              <path id="Trazado_105530" data-name="Trazado 105530" d="M412.354,258.915l-15.8,43.605a3.408,3.408,0,0,1-3.809-.665,1.993,1.993,0,0,1-.647-2.082l15.066-41.588a.9.9,0,0,1,1.381.061,3.409,3.409,0,0,0,3.809.669Z" transform="translate(-392.008 -253.521)" fill="#2e3440"/>
              <path id="Trazado_105531" data-name="Trazado 105531" d="M404.04,257.663c1.023.994.991,1.735-.093,2.937l-3.1,3.2a3.4,3.4,0,0,1-3.809-.669c-1.019-.991-1.163-1.7.043-2.926l2.761-2.811a2.308,2.308,0,0,1,1.488-.719A3.656,3.656,0,0,1,404.04,257.663Z" transform="translate(-381.135 -256.672)" fill="#383f4e"/>
            </g>
          </g>
        </g>
        <g id="Grupo_58620" data-name="Grupo 58620" transform="translate(0 91.973)">
          <g id="Grupo_58574" data-name="Grupo 58574" transform="translate(1.946 51.534)">
            <path id="Trazado_105532" data-name="Trazado 105532" d="M437.286,371.2,352.44,322.215c-5.2-3-4.546-8.245,1.456-11.711l45.762-26.419c6-3.466,13.231-5.015,20.277-.841l84.846,48.985c5.2,3,4.546,8.245-1.456,11.711L457.567,370.36C451.565,373.822,442.484,374.2,437.286,371.2Z" transform="translate(-348.931 -280.732)" fill="#f0f4f7" style="mix-blend-mode: multiply;isolation: isolate"/>
            <path id="Trazado_105533" data-name="Trazado 105533" d="M433.007,365.221c4.325,2.25,11.525,1.856,16.2-.848l42.861-24.745c4.5-2.6-12.995-16.915-16.893-19.165-.154-.093-63.886-36.845-63.969-36.845-5.519-3.13-11.292-1.846-16.164.966l-42.861,24.748c-4.5,2.6,12.9,16.858,16.8,19.108C369.042,328.455,432.81,365.221,433.007,365.221Z" transform="translate(-342.448 -277.99)" fill="#e6edf2" style="mix-blend-mode: multiply;isolation: isolate"/>
            <path id="Trazado_105534" data-name="Trazado 105534" d="M431.368,359.244A14.98,14.98,0,0,0,443.5,358.4l39.961-23.074c3-1.731-32.642-25.12-35.239-26.619-.315-.186-42.929-24.705-43.09-24.705-4-2.085-8.309-1.066-12.054,1.095l-39.961,23.071c-3,1.735,32.449,25.009,35.05,26.512C388.284,334.7,430.978,359.244,431.368,359.244Z" transform="translate(-338.609 -275.254)" fill="#dde6ed" style="mix-blend-mode: multiply;isolation: isolate"/>
            <path id="Trazado_105535" data-name="Trazado 105535" d="M430.026,353.29a11.447,11.447,0,0,0,8.059-.855l37.06-21.4c1.5-.866-52.286-33.329-53.588-34.077-.469-.279-21.969-12.565-22.212-12.565-2.472-1.044-5.326-.286-7.937,1.22l-37.063,21.4c-1.5.866,52,33.161,53.3,33.908C407.821,340.971,429.436,353.29,430.026,353.29Z" transform="translate(-335.064 -272.537)" fill="#d3dfe8" style="mix-blend-mode: multiply;isolation: isolate"/>
            <path id="Trazado_105536" data-name="Trazado 105536" d="M428.766,347.46a8.864,8.864,0,0,0,3.985-.858l34.166-19.726-71.938-41.534a2.469,2.469,0,0,0-1.338-.422,8.665,8.665,0,0,0-3.824,1.348L355.655,305.99,427.206,347.3A6.646,6.646,0,0,0,428.766,347.46Z" transform="translate(-331.604 -269.944)" fill="#cad8e3" style="mix-blend-mode: multiply;isolation: isolate"/>
          </g>
          <path id="Trazado_105537" data-name="Trazado 105537" d="M488,317.616l-69.8-40.3c-3.616-2.089-9.933-1.828-14.107.583l-43.13,25.66c-7.844-.511-12.576-1.524-12.576-.951,0,3.366,3.638,6.9,8.677,9.808l84.761,48.938c3.616,2.085,9.933,1.824,14.107-.587l46.016-26.565s9.69-5.451,9.69-11.042C511.638,321.822,502.26,319.945,488,317.616Z" transform="translate(-348.387 -241.629)" fill="#505a71"/>
          <path id="Trazado_105538" data-name="Trazado 105538" d="M511.638,328.361l-9.683-1.227L421.126,275.2c-5.326-3.076-14.626-2.69-20.774.862l-46.828,32.3-5.136-.651v2.06h0c.025,1.932,1.2,3.774,3.591,5.154L438.9,365.113c5.326,3.073,14.626,2.686,20.774-.862l46.878-27.066c3.4-1.96,5.118-4.478,5.083-6.857h0Z" transform="translate(-348.387 -248.793)" fill="#7d879e"/>
          <path id="Trazado_105539" data-name="Trazado 105539" d="M438.9,368.492l-86.918-50.183c-5.326-3.072-4.657-9.972,1.491-13.521l46.878-30.8c6.149-3.552,15.449-3.938,20.774-.862l86.918,55.445c5.326,3.076,4.657,8.445-1.492,11.993L459.674,367.63C453.525,371.178,444.226,371.564,438.9,368.492Z" transform="translate(-348.387 -254.15)" fill="#828ca3"/>
          <path id="Trazado_105540" data-name="Trazado 105540" d="M509.457,314.712l-23.375-3-66.5-38.4a17.17,17.17,0,0,0-8.388-1.907,22.872,22.872,0,0,0-11.12,2.768l-37.5,21.651-13.828-1.778v18.142h0v.021h0c.011,1.563,1.034,2.976,2.962,4.088l86.917,50.183a17.172,17.172,0,0,0,8.388,1.9,22.887,22.887,0,0,0,11.117-2.765L505,338.552c2.829-1.631,4.453-3.706,4.453-5.684l0-.039h0Z" transform="translate(-347.472 -253.236)" fill="url(#linear-gradient)"/>
          <path id="Trazado_105541" data-name="Trazado 105541" d="M381.463,310.5a21.382,21.382,0,0,1-6.317-.236V293.655a28.8,28.8,0,0,0,6.317.122Z" transform="translate(-279.432 -195.899)" fill="#505766"/>
          <path id="Trazado_105542" data-name="Trazado 105542" d="M511.638,318.508l-9.683-1.223-80.83-46.667c-5.326-3.072-14.626-2.69-20.774.862l-46.828,27.037-5.136-.651v3.094h0c.025,1.932,1.2,3.774,3.591,5.154l86.917,50.18c5.326,3.076,14.626,2.69,20.774-.858l46.878-27.066c3.4-1.96,5.118-4.478,5.083-6.857l0,0Z" transform="translate(-348.387 -260.609)" fill="#505a71"/>
          <path id="Trazado_105543" data-name="Trazado 105543" d="M511.638,319.616l-9.683-2.761-80.83-46.667c-5.326-3.072-14.626-2.686-20.774.862l-46.828,27.038-5.136.887v1.556h0c.025,1.932,1.2,3.774,3.591,5.154L438.9,355.867c5.326,3.073,14.626,2.686,20.774-.862l46.878-27.066c3.4-1.96,5.118-4.478,5.083-6.857h0Z" transform="translate(-348.387 -261.716)" fill="#768097"/>
          <path id="Trazado_105544" data-name="Trazado 105544" d="M438.9,359l-86.918-50.183c-5.326-3.076-4.657-8.445,1.491-11.993l46.878-27.066c6.149-3.548,13.556-5.136,20.774-.862l86.918,50.183c5.326,3.073,4.657,8.445-1.492,11.993L459.674,358.14C453.525,361.688,444.226,362.074,438.9,359Z" transform="translate(-348.387 -266.325)" fill="#7d879e"/>
          <path id="Trazado_105545" data-name="Trazado 105545" d="M437.332,352.074l-84.761-48.939c-3.616-2.085-3.162-5.734,1.016-8.145L399.6,268.426c4.174-2.411,10.491-2.672,14.107-.587l84.76,48.938c3.616,2.085,3.162,5.734-1.012,8.144l-46.016,26.565C447.265,353.9,440.948,354.159,437.332,352.074Z" transform="translate(-343.893 -266.05)" fill="#828ca3"/>
          <path id="Trazado_105546" data-name="Trazado 105546" d="M435.514,346.352l-82.042-47.368c-2.668-1.542-2.336-4.231.744-6.009l42.976-24.813c3.08-1.778,7.74-1.971,10.405-.429L489.642,315.1c2.668,1.538,2.332,4.231-.748,6.009l-42.972,24.809C442.843,347.7,438.182,347.89,435.514,346.352Z" transform="translate(-339.929 -265.379)" fill="#828ca3"/>
          <g id="Grupo_58576" data-name="Grupo 58576" transform="translate(24.634 63.552)">
            <g id="Grupo_58575" data-name="Grupo 58575">
              <path id="Trazado_105547" data-name="Trazado 105547" d="M358.643,287.876l-2.536-1.463a2,2,0,0,1-.833-1.592h0c0-.612.372-.894.833-.63l2.536,1.463a2,2,0,0,1,.83,1.592h0C359.473,287.858,359.1,288.14,358.643,287.876Z" transform="translate(-355.274 -284.092)" fill="#63d643"/>
              <path id="Trazado_105548" data-name="Trazado 105548" d="M360.578,288.992l-2.532-1.463a1.986,1.986,0,0,1-.833-1.588h0c0-.615.372-.894.833-.629l2.532,1.463a1.986,1.986,0,0,1,.833,1.588h0C361.411,288.977,361.039,289.26,360.578,288.992Z" transform="translate(-350.28 -281.209)" fill="#16892e"/>
              <path id="Trazado_105549" data-name="Trazado 105549" d="M362.518,290.113l-2.536-1.463a2,2,0,0,1-.833-1.592h0c0-.612.376-.894.833-.63l2.536,1.467a2,2,0,0,1,.833,1.588h0C363.352,290.1,362.976,290.377,362.518,290.113Z" transform="translate(-345.289 -278.328)" fill="#16892e"/>
              <path id="Trazado_105550" data-name="Trazado 105550" d="M364.456,291.232l-2.536-1.463a2,2,0,0,1-.833-1.592h0c0-.612.372-.894.833-.63l2.536,1.463a2,2,0,0,1,.83,1.592h0C365.286,291.214,364.914,291.5,364.456,291.232Z" transform="translate(-340.295 -275.444)" fill="#16892e"/>
              <path id="Trazado_105551" data-name="Trazado 105551" d="M366.391,292.348l-2.536-1.463a1.993,1.993,0,0,1-.83-1.588h0c0-.615.372-.894.83-.63l2.536,1.463a1.988,1.988,0,0,1,.833,1.592h0C367.224,292.333,366.852,292.616,366.391,292.348Z" transform="translate(-335.301 -272.561)" fill="#63d643"/>
              <path id="Trazado_105552" data-name="Trazado 105552" d="M368.331,293.469l-2.536-1.463a2,2,0,0,1-.833-1.592h0c0-.612.375-.894.833-.63l2.536,1.466a1.993,1.993,0,0,1,.83,1.588h0C369.161,293.454,368.789,293.733,368.331,293.469Z" transform="translate(-330.309 -269.68)" fill="#d88d43"/>
              <path id="Trazado_105553" data-name="Trazado 105553" d="M370.266,294.588l-2.532-1.463a2,2,0,0,1-.833-1.592h0c0-.612.372-.894.833-.63l2.532,1.463a2,2,0,0,1,.833,1.592h0C371.1,294.57,370.727,294.852,370.266,294.588Z" transform="translate(-325.315 -266.796)" fill="#63d643"/>
            </g>
          </g>
          <g id="Grupo_58619" data-name="Grupo 58619" transform="translate(15.748 3.552)">
            <g id="Grupo_58618" data-name="Grupo 58618">
              <g id="Grupo_58579" data-name="Grupo 58579">
                <g id="Grupo_58577" data-name="Grupo 58577">
                  <path id="Trazado_105554" data-name="Trazado 105554" d="M365.649,268.27a1.512,1.512,0,0,0,1.363,0,.416.416,0,0,0,0-.787,1.5,1.5,0,0,0-1.363,0A.415.415,0,0,0,365.649,268.27Z" transform="translate(-320.379 -267.318)" fill="#2c323d"/>
                  <path id="Trazado_105555" data-name="Trazado 105555" d="M364.39,269a1.511,1.511,0,0,0,1.363,0,.416.416,0,0,0,0-.787,1.512,1.512,0,0,0-1.363,0A.416.416,0,0,0,364.39,269Z" transform="translate(-323.62 -265.446)" fill="#2c323d"/>
                  <path id="Trazado_105556" data-name="Trazado 105556" d="M363.132,269.721a1.5,1.5,0,0,0,1.363,0,.415.415,0,0,0,0-.787,1.511,1.511,0,0,0-1.363,0C362.76,269.152,362.756,269.507,363.132,269.721Z" transform="translate(-326.862 -263.575)" fill="#2c323d"/>
                  <path id="Trazado_105557" data-name="Trazado 105557" d="M361.873,270.447a1.511,1.511,0,0,0,1.363,0,.416.416,0,0,0,.007-.787,1.5,1.5,0,0,0-1.363,0C361.5,269.878,361.5,270.232,361.873,270.447Z" transform="translate(-330.103 -261.704)" fill="#2c323d"/>
                  <path id="Trazado_105558" data-name="Trazado 105558" d="M360.618,271.172a1.5,1.5,0,0,0,1.363,0c.376-.218.379-.572,0-.787a1.511,1.511,0,0,0-1.363,0A.415.415,0,0,0,360.618,271.172Z" transform="translate(-333.343 -259.832)" fill="#2c323d"/>
                  <path id="Trazado_105559" data-name="Trazado 105559" d="M359.36,271.9a1.511,1.511,0,0,0,1.363,0c.376-.218.379-.572,0-.787a1.5,1.5,0,0,0-1.363,0A.415.415,0,0,0,359.36,271.9Z" transform="translate(-336.585 -257.961)" fill="#2c323d"/>
                  <path id="Trazado_105560" data-name="Trazado 105560" d="M358.1,272.626a1.512,1.512,0,0,0,1.363,0,.415.415,0,0,0,0-.787,1.512,1.512,0,0,0-1.363,0A.416.416,0,0,0,358.1,272.626Z" transform="translate(-339.826 -256.089)" fill="#2c323d"/>
                  <path id="Trazado_105561" data-name="Trazado 105561" d="M356.843,273.352a1.5,1.5,0,0,0,1.363,0,.415.415,0,0,0,0-.787,1.511,1.511,0,0,0-1.363,0A.416.416,0,0,0,356.843,273.352Z" transform="translate(-343.067 -254.219)" fill="#2c323d"/>
                  <path id="Trazado_105562" data-name="Trazado 105562" d="M355.583,274.078a1.5,1.5,0,0,0,1.363,0,.415.415,0,0,0,.007-.787,1.511,1.511,0,0,0-1.363,0A.416.416,0,0,0,355.583,274.078Z" transform="translate(-346.308 -252.348)" fill="#2c323d"/>
                  <path id="Trazado_105563" data-name="Trazado 105563" d="M354.329,274.8a1.5,1.5,0,0,0,1.363,0c.376-.218.379-.572,0-.787a1.5,1.5,0,0,0-1.363,0A.415.415,0,0,0,354.329,274.8Z" transform="translate(-349.549 -250.477)" fill="#2c323d"/>
                  <path id="Trazado_105564" data-name="Trazado 105564" d="M353.07,275.529a1.5,1.5,0,0,0,1.363,0c.376-.218.379-.572,0-.787a1.5,1.5,0,0,0-1.363,0A.413.413,0,0,0,353.07,275.529Z" transform="translate(-352.79 -248.605)" fill="#2c323d"/>
                </g>
                <g id="Grupo_58578" data-name="Grupo 58578" transform="translate(0.781 0.452)">
                  <path id="Trazado_105565" data-name="Trazado 105565" d="M367.052,268.4a1.512,1.512,0,0,0,1.363,0,.416.416,0,0,0,0-.787,1.511,1.511,0,0,0-1.363,0A.416.416,0,0,0,367.052,268.4Z" transform="translate(-317.542 -267.444)" fill="#2c323d"/>
                  <path id="Trazado_105566" data-name="Trazado 105566" d="M365.8,269.117a1.5,1.5,0,0,0,1.363,0c.376-.218.379-.572,0-.787a1.5,1.5,0,0,0-1.363,0A.415.415,0,0,0,365.8,269.117Z" transform="translate(-320.766 -265.583)" fill="#2c323d"/>
                  <path id="Trazado_105567" data-name="Trazado 105567" d="M364.55,269.841a1.512,1.512,0,0,0,1.363,0,.416.416,0,0,0,0-.787,1.5,1.5,0,0,0-1.363,0A.415.415,0,0,0,364.55,269.841Z" transform="translate(-323.99 -263.722)" fill="#2c323d"/>
                  <path id="Trazado_105568" data-name="Trazado 105568" d="M363.3,270.562a1.5,1.5,0,0,0,1.363,0,.415.415,0,0,0,0-.787,1.512,1.512,0,0,0-1.363,0C362.926,269.993,362.922,270.347,363.3,270.562Z" transform="translate(-327.215 -261.86)" fill="#2c323d"/>
                  <path id="Trazado_105569" data-name="Trazado 105569" d="M362.047,271.283a1.5,1.5,0,0,0,1.363,0,.415.415,0,0,0,0-.787,1.5,1.5,0,0,0-1.363,0A.413.413,0,0,0,362.047,271.283Z" transform="translate(-330.439 -259.998)" fill="#2c323d"/>
                  <path id="Trazado_105570" data-name="Trazado 105570" d="M360.8,272.007a1.512,1.512,0,0,0,1.363,0,.416.416,0,0,0,0-.787,1.511,1.511,0,0,0-1.363,0A.415.415,0,0,0,360.8,272.007Z" transform="translate(-333.663 -258.136)" fill="#2c323d"/>
                  <path id="Trazado_105571" data-name="Trazado 105571" d="M359.545,272.729a1.5,1.5,0,0,0,1.363,0c.376-.218.379-.572,0-.787a1.5,1.5,0,0,0-1.363,0A.415.415,0,0,0,359.545,272.729Z" transform="translate(-336.887 -256.276)" fill="#2c323d"/>
                  <path id="Trazado_105572" data-name="Trazado 105572" d="M358.292,273.453a1.511,1.511,0,0,0,1.363,0,.416.416,0,0,0,.007-.787,1.5,1.5,0,0,0-1.363,0C357.92,272.884,357.917,273.235,358.292,273.453Z" transform="translate(-340.112 -254.414)" fill="#2c323d"/>
                  <path id="Trazado_105573" data-name="Trazado 105573" d="M357.042,274.174a1.5,1.5,0,0,0,1.363,0,.415.415,0,0,0,0-.787,1.511,1.511,0,0,0-1.363,0C356.67,273.605,356.666,273.959,357.042,274.174Z" transform="translate(-343.336 -252.552)" fill="#2c323d"/>
                  <path id="Trazado_105574" data-name="Trazado 105574" d="M355.791,274.895a1.5,1.5,0,0,0,1.363,0c.376-.218.379-.572,0-.787a1.512,1.512,0,0,0-1.363,0C355.419,274.326,355.415,274.68,355.791,274.895Z" transform="translate(-346.56 -250.691)" fill="#2c323d"/>
                  <path id="Trazado_105575" data-name="Trazado 105575" d="M354.541,275.619a1.512,1.512,0,0,0,1.363,0,.416.416,0,0,0,0-.787,1.512,1.512,0,0,0-1.363,0A.415.415,0,0,0,354.541,275.619Z" transform="translate(-349.784 -248.829)" fill="#2c323d"/>
                  <path id="Trazado_105576" data-name="Trazado 105576" d="M353.286,276.341a1.512,1.512,0,0,0,1.363,0c.379-.218.383-.572.007-.787a1.5,1.5,0,0,0-1.363,0A.416.416,0,0,0,353.286,276.341Z" transform="translate(-353.008 -246.968)" fill="#2c323d"/>
                </g>
              </g>
              <g id="Grupo_58582" data-name="Grupo 58582" transform="translate(6.517 3.764)">
                <g id="Grupo_58580" data-name="Grupo 58580">
                  <path id="Trazado_105577" data-name="Trazado 105577" d="M367.47,269.321a1.511,1.511,0,0,0,1.363,0,.415.415,0,0,0,0-.787,1.511,1.511,0,0,0-1.363,0A.416.416,0,0,0,367.47,269.321Z" transform="translate(-322.2 -268.37)" fill="#2c323d"/>
                  <path id="Trazado_105578" data-name="Trazado 105578" d="M366.212,270.047a1.5,1.5,0,0,0,1.363,0,.416.416,0,0,0,.007-.787,1.519,1.519,0,0,0-1.366,0A.416.416,0,0,0,366.212,270.047Z" transform="translate(-325.442 -266.499)" fill="#2c323d"/>
                  <path id="Trazado_105579" data-name="Trazado 105579" d="M364.956,270.773a1.512,1.512,0,0,0,1.363,0c.376-.218.379-.572,0-.787a1.5,1.5,0,0,0-1.363,0A.415.415,0,0,0,364.956,270.773Z" transform="translate(-328.682 -264.628)" fill="#2c323d"/>
                  <path id="Trazado_105580" data-name="Trazado 105580" d="M363.7,271.5a1.5,1.5,0,0,0,1.363,0c.375-.218.379-.572,0-.787a1.5,1.5,0,0,0-1.363,0A.415.415,0,0,0,363.7,271.5Z" transform="translate(-331.924 -262.757)" fill="#2c323d"/>
                  <path id="Trazado_105581" data-name="Trazado 105581" d="M362.439,272.227a1.511,1.511,0,0,0,1.363,0,.415.415,0,0,0,0-.787,1.5,1.5,0,0,0-1.363,0A.416.416,0,0,0,362.439,272.227Z" transform="translate(-335.164 -260.885)" fill="#2c323d"/>
                  <path id="Trazado_105582" data-name="Trazado 105582" d="M361.181,272.952a1.511,1.511,0,0,0,1.363,0,.415.415,0,0,0,0-.787,1.512,1.512,0,0,0-1.363,0A.416.416,0,0,0,361.181,272.952Z" transform="translate(-338.406 -259.014)" fill="#2c323d"/>
                  <path id="Trazado_105583" data-name="Trazado 105583" d="M359.921,273.678a1.511,1.511,0,0,0,1.363,0,.416.416,0,0,0,.007-.787,1.512,1.512,0,0,0-1.363,0A.416.416,0,0,0,359.921,273.678Z" transform="translate(-341.646 -257.143)" fill="#2c323d"/>
                  <path id="Trazado_105584" data-name="Trazado 105584" d="M358.667,274.4a1.5,1.5,0,0,0,1.363,0,.416.416,0,0,0,0-.787,1.512,1.512,0,0,0-1.363,0A.415.415,0,0,0,358.667,274.4Z" transform="translate(-344.888 -255.272)" fill="#2c323d"/>
                  <path id="Trazado_105585" data-name="Trazado 105585" d="M357.408,275.13a1.5,1.5,0,0,0,1.363,0c.376-.218.379-.572,0-.787a1.5,1.5,0,0,0-1.363,0C357.036,274.561,357.032,274.915,357.408,275.13Z" transform="translate(-348.128 -253.401)" fill="#2c323d"/>
                  <path id="Trazado_105586" data-name="Trazado 105586" d="M356.15,275.854a1.5,1.5,0,0,0,1.363,0,.415.415,0,0,0,0-.787,1.5,1.5,0,0,0-1.363,0A.413.413,0,0,0,356.15,275.854Z" transform="translate(-351.37 -251.529)" fill="#2c323d"/>
                  <path id="Trazado_105587" data-name="Trazado 105587" d="M354.892,276.584a1.512,1.512,0,0,0,1.363,0,.415.415,0,0,0,0-.787,1.5,1.5,0,0,0-1.363,0A.416.416,0,0,0,354.892,276.584Z" transform="translate(-354.612 -249.658)" fill="#2c323d"/>
                </g>
                <g id="Grupo_58581" data-name="Grupo 58581" transform="translate(0.783 0.451)">
                  <path id="Trazado_105588" data-name="Trazado 105588" d="M368.873,269.447a1.5,1.5,0,0,0,1.363,0,.416.416,0,0,0,.007-.787,1.511,1.511,0,0,0-1.363,0C368.5,268.878,368.5,269.232,368.873,269.447Z" transform="translate(-319.365 -268.496)" fill="#2c323d"/>
                  <path id="Trazado_105589" data-name="Trazado 105589" d="M367.623,270.168a1.5,1.5,0,0,0,1.363,0,.415.415,0,0,0,0-.787,1.512,1.512,0,0,0-1.363,0C367.251,269.6,367.247,269.953,367.623,270.168Z" transform="translate(-322.589 -266.634)" fill="#2c323d"/>
                  <path id="Trazado_105590" data-name="Trazado 105590" d="M366.372,270.892a1.511,1.511,0,0,0,1.363,0,.416.416,0,0,0,0-.787,1.511,1.511,0,0,0-1.363,0A.416.416,0,0,0,366.372,270.892Z" transform="translate(-325.813 -264.772)" fill="#2c323d"/>
                  <path id="Trazado_105591" data-name="Trazado 105591" d="M365.122,271.614a1.511,1.511,0,0,0,1.363,0c.376-.218.379-.572,0-.787a1.5,1.5,0,0,0-1.363,0A.415.415,0,0,0,365.122,271.614Z" transform="translate(-329.038 -262.912)" fill="#2c323d"/>
                  <path id="Trazado_105592" data-name="Trazado 105592" d="M363.867,272.338a1.512,1.512,0,0,0,1.363,0c.379-.218.383-.569.007-.787a1.5,1.5,0,0,0-1.363,0A.416.416,0,0,0,363.867,272.338Z" transform="translate(-332.261 -261.05)" fill="#2c323d"/>
                  <path id="Trazado_105593" data-name="Trazado 105593" d="M362.618,273.059a1.5,1.5,0,0,0,1.363,0,.415.415,0,0,0,0-.787,1.512,1.512,0,0,0-1.363,0A.416.416,0,0,0,362.618,273.059Z" transform="translate(-335.486 -259.189)" fill="#2c323d"/>
                  <path id="Trazado_105594" data-name="Trazado 105594" d="M361.367,273.78a1.5,1.5,0,0,0,1.363,0,.415.415,0,0,0,0-.787,1.512,1.512,0,0,0-1.363,0C360.995,273.211,360.991,273.565,361.367,273.78Z" transform="translate(-338.71 -257.327)" fill="#2c323d"/>
                  <path id="Trazado_105595" data-name="Trazado 105595" d="M360.117,274.5a1.511,1.511,0,0,0,1.363,0,.416.416,0,0,0,0-.787,1.511,1.511,0,0,0-1.363,0A.415.415,0,0,0,360.117,274.5Z" transform="translate(-341.935 -255.465)" fill="#2c323d"/>
                  <path id="Trazado_105596" data-name="Trazado 105596" d="M358.866,275.226a1.511,1.511,0,0,0,1.363,0c.375-.218.379-.572,0-.787a1.5,1.5,0,0,0-1.363,0A.415.415,0,0,0,358.866,275.226Z" transform="translate(-345.158 -253.604)" fill="#2c323d"/>
                  <path id="Trazado_105597" data-name="Trazado 105597" d="M357.612,275.95a1.512,1.512,0,0,0,1.363,0,.416.416,0,0,0,.007-.787,1.5,1.5,0,0,0-1.363,0C357.24,275.381,357.237,275.732,357.612,275.95Z" transform="translate(-348.383 -251.742)" fill="#2c323d"/>
                  <path id="Trazado_105598" data-name="Trazado 105598" d="M356.362,276.671a1.5,1.5,0,0,0,1.363,0,.415.415,0,0,0,0-.787,1.511,1.511,0,0,0-1.363,0A.416.416,0,0,0,356.362,276.671Z" transform="translate(-351.607 -249.881)" fill="#2c323d"/>
                  <path id="Trazado_105599" data-name="Trazado 105599" d="M355.111,277.393a1.5,1.5,0,0,0,1.363,0c.375-.218.379-.572,0-.787a1.5,1.5,0,0,0-1.363,0C354.739,276.824,354.735,277.178,355.111,277.393Z" transform="translate(-354.831 -248.02)" fill="#2c323d"/>
                </g>
              </g>
              <g id="Grupo_58585" data-name="Grupo 58585" transform="translate(13.036 7.527)">
                <g id="Grupo_58583" data-name="Grupo 58583">
                  <path id="Trazado_105600" data-name="Trazado 105600" d="M369.29,270.373a1.5,1.5,0,0,0,1.363,0c.379-.218.383-.569.007-.787a1.512,1.512,0,0,0-1.363,0A.416.416,0,0,0,369.29,270.373Z" transform="translate(-324.023 -269.422)" fill="#2c323d"/>
                  <path id="Trazado_105601" data-name="Trazado 105601" d="M368.036,271.1a1.512,1.512,0,0,0,1.363,0c.376-.218.379-.572,0-.787a1.5,1.5,0,0,0-1.363,0A.415.415,0,0,0,368.036,271.1Z" transform="translate(-327.264 -267.551)" fill="#2c323d"/>
                  <path id="Trazado_105602" data-name="Trazado 105602" d="M366.777,271.825a1.5,1.5,0,0,0,1.363,0c.376-.218.379-.572,0-.787a1.5,1.5,0,0,0-1.363,0C366.4,271.256,366.4,271.61,366.777,271.825Z" transform="translate(-330.505 -265.68)" fill="#2c323d"/>
                  <path id="Trazado_105603" data-name="Trazado 105603" d="M365.519,272.553a1.512,1.512,0,0,0,1.363,0,.415.415,0,0,0,0-.787,1.5,1.5,0,0,0-1.363,0A.416.416,0,0,0,365.519,272.553Z" transform="translate(-333.747 -263.808)" fill="#2c323d"/>
                  <path id="Trazado_105604" data-name="Trazado 105604" d="M364.26,273.278a1.511,1.511,0,0,0,1.363,0,.416.416,0,0,0,.007-.787,1.512,1.512,0,0,0-1.363,0C363.888,272.709,363.885,273.06,364.26,273.278Z" transform="translate(-336.988 -261.936)" fill="#2c323d"/>
                  <path id="Trazado_105605" data-name="Trazado 105605" d="M363,274a1.511,1.511,0,0,0,1.363,0,.416.416,0,0,0,0-.787,1.511,1.511,0,0,0-1.363,0A.415.415,0,0,0,363,274Z" transform="translate(-340.229 -260.065)" fill="#2c323d"/>
                  <path id="Trazado_105606" data-name="Trazado 105606" d="M361.747,274.73a1.5,1.5,0,0,0,1.363,0,.416.416,0,0,0,0-.787,1.511,1.511,0,0,0-1.363,0A.415.415,0,0,0,361.747,274.73Z" transform="translate(-343.47 -258.195)" fill="#2c323d"/>
                  <path id="Trazado_105607" data-name="Trazado 105607" d="M360.488,275.456a1.5,1.5,0,0,0,1.363,0,.415.415,0,0,0,0-.787,1.5,1.5,0,0,0-1.363,0C360.116,274.887,360.112,275.241,360.488,275.456Z" transform="translate(-346.711 -256.324)" fill="#2c323d"/>
                  <path id="Trazado_105608" data-name="Trazado 105608" d="M359.23,276.181a1.5,1.5,0,0,0,1.363,0,.415.415,0,0,0,0-.787,1.512,1.512,0,0,0-1.363,0C358.858,275.612,358.854,275.966,359.23,276.181Z" transform="translate(-349.952 -254.452)" fill="#2c323d"/>
                  <path id="Trazado_105609" data-name="Trazado 105609" d="M357.97,276.91a1.512,1.512,0,0,0,1.363,0c.379-.218.383-.569.007-.787a1.5,1.5,0,0,0-1.363,0A.416.416,0,0,0,357.97,276.91Z" transform="translate(-353.193 -252.581)" fill="#2c323d"/>
                  <path id="Trazado_105610" data-name="Trazado 105610" d="M356.716,277.635a1.511,1.511,0,0,0,1.363,0,.416.416,0,0,0,0-.787,1.511,1.511,0,0,0-1.363,0A.415.415,0,0,0,356.716,277.635Z" transform="translate(-356.434 -250.709)" fill="#2c323d"/>
                </g>
                <g id="Grupo_58584" data-name="Grupo 58584" transform="translate(0.781 0.451)">
                  <path id="Trazado_105611" data-name="Trazado 105611" d="M370.7,270.5a1.512,1.512,0,0,0,1.363,0c.376-.218.379-.572,0-.787a1.5,1.5,0,0,0-1.363,0A.415.415,0,0,0,370.7,270.5Z" transform="translate(-321.186 -269.548)" fill="#2c323d"/>
                  <path id="Trazado_105612" data-name="Trazado 105612" d="M369.446,271.223a1.512,1.512,0,0,0,1.363,0,.416.416,0,0,0,0-.787,1.5,1.5,0,0,0-1.363,0A.415.415,0,0,0,369.446,271.223Z" transform="translate(-324.409 -267.686)" fill="#2c323d"/>
                  <path id="Trazado_105613" data-name="Trazado 105613" d="M368.194,271.944a1.5,1.5,0,0,0,1.363,0,.415.415,0,0,0,0-.787,1.511,1.511,0,0,0-1.363,0A.416.416,0,0,0,368.194,271.944Z" transform="translate(-327.635 -265.825)" fill="#2c323d"/>
                  <path id="Trazado_105614" data-name="Trazado 105614" d="M366.943,272.666a1.5,1.5,0,0,0,1.363,0,.415.415,0,0,0,0-.787,1.5,1.5,0,0,0-1.363,0C366.571,272.1,366.567,272.451,366.943,272.666Z" transform="translate(-330.858 -263.964)" fill="#2c323d"/>
                  <path id="Trazado_105615" data-name="Trazado 105615" d="M365.692,273.389a1.512,1.512,0,0,0,1.363,0,.416.416,0,0,0,0-.787,1.512,1.512,0,0,0-1.363,0A.415.415,0,0,0,365.692,273.389Z" transform="translate(-334.083 -262.101)" fill="#2c323d"/>
                  <path id="Trazado_105616" data-name="Trazado 105616" d="M364.442,274.111a1.511,1.511,0,0,0,1.363,0c.376-.218.379-.572,0-.787a1.5,1.5,0,0,0-1.363,0A.415.415,0,0,0,364.442,274.111Z" transform="translate(-337.307 -260.241)" fill="#2c323d"/>
                  <path id="Trazado_105617" data-name="Trazado 105617" d="M363.187,274.835a1.511,1.511,0,0,0,1.363,0,.416.416,0,0,0,.007-.787,1.5,1.5,0,0,0-1.363,0A.416.416,0,0,0,363.187,274.835Z" transform="translate(-340.531 -258.379)" fill="#2c323d"/>
                  <path id="Trazado_105618" data-name="Trazado 105618" d="M361.938,275.556a1.5,1.5,0,0,0,1.363,0,.415.415,0,0,0,0-.787,1.511,1.511,0,0,0-1.363,0A.416.416,0,0,0,361.938,275.556Z" transform="translate(-343.756 -256.517)" fill="#2c323d"/>
                  <path id="Trazado_105619" data-name="Trazado 105619" d="M360.687,276.278a1.5,1.5,0,0,0,1.363,0c.376-.218.379-.572,0-.787a1.5,1.5,0,0,0-1.363,0C360.315,275.709,360.311,276.063,360.687,276.278Z" transform="translate(-346.979 -254.657)" fill="#2c323d"/>
                  <path id="Trazado_105620" data-name="Trazado 105620" d="M359.437,277a1.511,1.511,0,0,0,1.363,0,.416.416,0,0,0,0-.787,1.512,1.512,0,0,0-1.363,0A.415.415,0,0,0,359.437,277Z" transform="translate(-350.204 -252.794)" fill="#2c323d"/>
                  <path id="Trazado_105621" data-name="Trazado 105621" d="M358.182,277.723a1.5,1.5,0,0,0,1.363,0c.379-.215.383-.569.007-.783a1.5,1.5,0,0,0-1.363,0A.416.416,0,0,0,358.182,277.723Z" transform="translate(-353.428 -250.933)" fill="#2c323d"/>
                  <path id="Trazado_105622" data-name="Trazado 105622" d="M356.933,278.447a1.511,1.511,0,0,0,1.363,0,.415.415,0,0,0,0-.787,1.5,1.5,0,0,0-1.363,0A.416.416,0,0,0,356.933,278.447Z" transform="translate(-356.653 -249.071)" fill="#2c323d"/>
                </g>
              </g>
              <g id="Grupo_58588" data-name="Grupo 58588" transform="translate(19.555 11.29)">
                <g id="Grupo_58586" data-name="Grupo 58586">
                  <path id="Trazado_105623" data-name="Trazado 105623" d="M371.115,271.425a1.5,1.5,0,0,0,1.363,0,.413.413,0,0,0,0-.783,1.5,1.5,0,0,0-1.363,0C370.743,270.856,370.739,271.21,371.115,271.425Z" transform="translate(-325.845 -270.474)" fill="#2c323d"/>
                  <path id="Trazado_105624" data-name="Trazado 105624" d="M369.857,272.151a1.5,1.5,0,0,0,1.363,0,.415.415,0,0,0,0-.787,1.5,1.5,0,0,0-1.363,0C369.485,271.582,369.481,271.936,369.857,272.151Z" transform="translate(-329.087 -268.603)" fill="#2c323d"/>
                  <path id="Trazado_105625" data-name="Trazado 105625" d="M368.6,272.879a1.512,1.512,0,0,0,1.363,0,.416.416,0,0,0,.007-.787,1.508,1.508,0,0,0-1.366,0A.416.416,0,0,0,368.6,272.879Z" transform="translate(-332.328 -266.731)" fill="#2c323d"/>
                  <path id="Trazado_105626" data-name="Trazado 105626" d="M367.343,273.6a1.512,1.512,0,0,0,1.363,0,.416.416,0,0,0,0-.787,1.512,1.512,0,0,0-1.363,0A.415.415,0,0,0,367.343,273.6Z" transform="translate(-335.569 -264.86)" fill="#2c323d"/>
                  <path id="Trazado_105627" data-name="Trazado 105627" d="M366.085,274.33a1.512,1.512,0,0,0,1.363,0,.416.416,0,0,0,0-.787,1.512,1.512,0,0,0-1.363,0A.415.415,0,0,0,366.085,274.33Z" transform="translate(-338.81 -262.989)" fill="#2c323d"/>
                  <path id="Trazado_105628" data-name="Trazado 105628" d="M364.826,275.056a1.5,1.5,0,0,0,1.363,0,.415.415,0,0,0,0-.787,1.512,1.512,0,0,0-1.363,0C364.454,274.487,364.45,274.842,364.826,275.056Z" transform="translate(-342.051 -261.118)" fill="#2c323d"/>
                  <path id="Trazado_105629" data-name="Trazado 105629" d="M363.568,275.782a1.511,1.511,0,0,0,1.363,0,.415.415,0,0,0,0-.787,1.5,1.5,0,0,0-1.363,0C363.2,275.213,363.192,275.567,363.568,275.782Z" transform="translate(-345.293 -259.247)" fill="#2c323d"/>
                  <path id="Trazado_105630" data-name="Trazado 105630" d="M362.308,276.507a1.5,1.5,0,0,0,1.363,0,.416.416,0,0,0,.007-.787,1.512,1.512,0,0,0-1.363,0A.416.416,0,0,0,362.308,276.507Z" transform="translate(-348.533 -257.375)" fill="#2c323d"/>
                  <path id="Trazado_105631" data-name="Trazado 105631" d="M361.054,277.236a1.512,1.512,0,0,0,1.363,0,.416.416,0,0,0,0-.787,1.5,1.5,0,0,0-1.363,0A.415.415,0,0,0,361.054,277.236Z" transform="translate(-351.774 -255.504)" fill="#2c323d"/>
                  <path id="Trazado_105632" data-name="Trazado 105632" d="M359.795,277.961a1.511,1.511,0,0,0,1.363,0,.416.416,0,0,0,0-.787,1.511,1.511,0,0,0-1.363,0A.416.416,0,0,0,359.795,277.961Z" transform="translate(-355.015 -253.632)" fill="#2c323d"/>
                  <path id="Trazado_105633" data-name="Trazado 105633" d="M358.537,278.687a1.5,1.5,0,0,0,1.363,0,.415.415,0,0,0,0-.787,1.512,1.512,0,0,0-1.363,0A.416.416,0,0,0,358.537,278.687Z" transform="translate(-358.257 -251.761)" fill="#2c323d"/>
                </g>
                <g id="Grupo_58587" data-name="Grupo 58587" transform="translate(0.782 0.451)">
                  <path id="Trazado_105634" data-name="Trazado 105634" d="M372.519,271.551a1.5,1.5,0,0,0,1.363,0,.415.415,0,0,0,0-.787,1.5,1.5,0,0,0-1.363,0C372.147,270.982,372.143,271.336,372.519,271.551Z" transform="translate(-323.009 -270.6)" fill="#2c323d"/>
                  <path id="Trazado_105635" data-name="Trazado 105635" d="M371.268,272.274a1.512,1.512,0,0,0,1.363,0,.416.416,0,0,0,0-.787,1.512,1.512,0,0,0-1.363,0A.416.416,0,0,0,371.268,272.274Z" transform="translate(-326.233 -268.738)" fill="#2c323d"/>
                  <path id="Trazado_105636" data-name="Trazado 105636" d="M370.018,273a1.5,1.5,0,0,0,1.363,0,.413.413,0,0,0,0-.783,1.5,1.5,0,0,0-1.363,0A.415.415,0,0,0,370.018,273Z" transform="translate(-329.458 -266.877)" fill="#2c323d"/>
                  <path id="Trazado_105637" data-name="Trazado 105637" d="M368.763,273.72a1.512,1.512,0,0,0,1.363,0c.379-.218.383-.572.007-.787a1.5,1.5,0,0,0-1.363,0A.416.416,0,0,0,368.763,273.72Z" transform="translate(-332.681 -265.015)" fill="#2c323d"/>
                  <path id="Trazado_105638" data-name="Trazado 105638" d="M367.514,274.441a1.5,1.5,0,0,0,1.363,0,.415.415,0,0,0,0-.787,1.512,1.512,0,0,0-1.363,0A.416.416,0,0,0,367.514,274.441Z" transform="translate(-335.906 -263.153)" fill="#2c323d"/>
                  <path id="Trazado_105639" data-name="Trazado 105639" d="M366.263,275.163a1.5,1.5,0,0,0,1.363,0,.415.415,0,0,0,0-.787,1.5,1.5,0,0,0-1.363,0C365.891,274.594,365.887,274.948,366.263,275.163Z" transform="translate(-339.13 -261.293)" fill="#2c323d"/>
                  <path id="Trazado_105640" data-name="Trazado 105640" d="M365.013,275.886a1.512,1.512,0,0,0,1.363,0,.416.416,0,0,0,0-.787,1.512,1.512,0,0,0-1.363,0A.415.415,0,0,0,365.013,275.886Z" transform="translate(-342.355 -259.43)" fill="#2c323d"/>
                  <path id="Trazado_105641" data-name="Trazado 105641" d="M363.761,276.608a1.5,1.5,0,0,0,1.363,0,.416.416,0,0,0,0-.787,1.512,1.512,0,0,0-1.363,0A.415.415,0,0,0,363.761,276.608Z" transform="translate(-345.578 -257.569)" fill="#2c323d"/>
                  <path id="Trazado_105642" data-name="Trazado 105642" d="M362.508,277.332a1.511,1.511,0,0,0,1.363,0,.416.416,0,0,0,.007-.787,1.5,1.5,0,0,0-1.363,0A.415.415,0,0,0,362.508,277.332Z" transform="translate(-348.803 -255.707)" fill="#2c323d"/>
                  <path id="Trazado_105643" data-name="Trazado 105643" d="M361.258,278.053a1.512,1.512,0,0,0,1.363,0,.415.415,0,0,0,0-.787,1.511,1.511,0,0,0-1.363,0A.416.416,0,0,0,361.258,278.053Z" transform="translate(-352.027 -253.846)" fill="#2c323d"/>
                  <path id="Trazado_105644" data-name="Trazado 105644" d="M360.007,278.775a1.5,1.5,0,0,0,1.363,0c.375-.218.379-.572,0-.787a1.5,1.5,0,0,0-1.363,0C359.635,278.206,359.631,278.56,360.007,278.775Z" transform="translate(-355.251 -251.985)" fill="#2c323d"/>
                  <path id="Trazado_105645" data-name="Trazado 105645" d="M358.757,279.5a1.512,1.512,0,0,0,1.363,0,.416.416,0,0,0,0-.787,1.512,1.512,0,0,0-1.363,0A.415.415,0,0,0,358.757,279.5Z" transform="translate(-358.475 -250.122)" fill="#2c323d"/>
                </g>
              </g>
              <g id="Grupo_58591" data-name="Grupo 58591" transform="translate(26.073 15.053)">
                <g id="Grupo_58589" data-name="Grupo 58589">
                  <path id="Trazado_105646" data-name="Trazado 105646" d="M372.937,272.477a1.5,1.5,0,0,0,1.363,0,.415.415,0,0,0,0-.787,1.5,1.5,0,0,0-1.363,0C372.565,271.908,372.561,272.262,372.937,272.477Z" transform="translate(-327.669 -271.526)" fill="#2c323d"/>
                  <path id="Trazado_105647" data-name="Trazado 105647" d="M371.677,273.205a1.512,1.512,0,0,0,1.363,0c.379-.218.383-.572.007-.787a1.5,1.5,0,0,0-1.363,0A.416.416,0,0,0,371.677,273.205Z" transform="translate(-330.909 -269.654)" fill="#2c323d"/>
                  <path id="Trazado_105648" data-name="Trazado 105648" d="M370.423,273.931a1.512,1.512,0,0,0,1.363,0,.416.416,0,0,0,0-.787,1.5,1.5,0,0,0-1.363,0A.415.415,0,0,0,370.423,273.931Z" transform="translate(-334.151 -267.783)" fill="#2c323d"/>
                  <path id="Trazado_105649" data-name="Trazado 105649" d="M369.164,274.656a1.511,1.511,0,0,0,1.363,0,.416.416,0,0,0,0-.787,1.512,1.512,0,0,0-1.363,0A.416.416,0,0,0,369.164,274.656Z" transform="translate(-337.391 -265.911)" fill="#2c323d"/>
                  <path id="Trazado_105650" data-name="Trazado 105650" d="M367.906,275.382a1.5,1.5,0,0,0,1.363,0,.415.415,0,0,0,0-.787,1.511,1.511,0,0,0-1.363,0A.416.416,0,0,0,367.906,275.382Z" transform="translate(-340.633 -264.041)" fill="#2c323d"/>
                  <path id="Trazado_105651" data-name="Trazado 105651" d="M366.647,276.108a1.511,1.511,0,0,0,1.363,0,.416.416,0,0,0,.007-.787,1.5,1.5,0,0,0-1.363,0C366.275,275.539,366.272,275.893,366.647,276.108Z" transform="translate(-343.874 -262.17)" fill="#2c323d"/>
                  <path id="Trazado_105652" data-name="Trazado 105652" d="M365.392,276.833a1.5,1.5,0,0,0,1.363,0c.375-.218.379-.572,0-.787a1.512,1.512,0,0,0-1.363,0A.415.415,0,0,0,365.392,276.833Z" transform="translate(-347.115 -260.298)" fill="#2c323d"/>
                  <path id="Trazado_105653" data-name="Trazado 105653" d="M364.134,277.562a1.512,1.512,0,0,0,1.363,0c.375-.218.379-.572,0-.787a1.5,1.5,0,0,0-1.363,0A.415.415,0,0,0,364.134,277.562Z" transform="translate(-350.357 -258.427)" fill="#2c323d"/>
                  <path id="Trazado_105654" data-name="Trazado 105654" d="M362.875,278.287a1.512,1.512,0,0,0,1.363,0,.415.415,0,0,0,0-.787,1.511,1.511,0,0,0-1.363,0A.416.416,0,0,0,362.875,278.287Z" transform="translate(-353.597 -256.555)" fill="#2c323d"/>
                  <path id="Trazado_105655" data-name="Trazado 105655" d="M361.617,279.013a1.5,1.5,0,0,0,1.363,0,.415.415,0,0,0,0-.787,1.512,1.512,0,0,0-1.363,0A.416.416,0,0,0,361.617,279.013Z" transform="translate(-356.839 -254.684)" fill="#2c323d"/>
                  <path id="Trazado_105656" data-name="Trazado 105656" d="M360.357,279.739a1.5,1.5,0,0,0,1.363,0,.415.415,0,0,0,.007-.787,1.512,1.512,0,0,0-1.363,0A.416.416,0,0,0,360.357,279.739Z" transform="translate(-360.079 -252.813)" fill="#2c323d"/>
                </g>
                <g id="Grupo_58590" data-name="Grupo 58590" transform="translate(0.782 0.452)">
                  <path id="Trazado_105657" data-name="Trazado 105657" d="M374.343,272.605a1.512,1.512,0,0,0,1.363,0c.376-.218.379-.572,0-.787a1.5,1.5,0,0,0-1.363,0A.415.415,0,0,0,374.343,272.605Z" transform="translate(-324.831 -271.653)" fill="#2c323d"/>
                  <path id="Trazado_105658" data-name="Trazado 105658" d="M373.09,273.326a1.512,1.512,0,0,0,1.363,0,.415.415,0,0,0,0-.787,1.511,1.511,0,0,0-1.363,0A.416.416,0,0,0,373.09,273.326Z" transform="translate(-328.056 -269.791)" fill="#2c323d"/>
                  <path id="Trazado_105659" data-name="Trazado 105659" d="M371.839,274.048a1.5,1.5,0,0,0,1.363,0,.415.415,0,0,0,0-.787,1.5,1.5,0,0,0-1.363,0C371.467,273.479,371.463,273.833,371.839,274.048Z" transform="translate(-331.28 -267.93)" fill="#2c323d"/>
                  <path id="Trazado_105660" data-name="Trazado 105660" d="M370.589,274.771a1.512,1.512,0,0,0,1.363,0,.416.416,0,0,0,0-.787,1.511,1.511,0,0,0-1.363,0A.415.415,0,0,0,370.589,274.771Z" transform="translate(-334.504 -266.068)" fill="#2c323d"/>
                  <path id="Trazado_105661" data-name="Trazado 105661" d="M369.338,275.493a1.5,1.5,0,0,0,1.363,0,.416.416,0,0,0,0-.787,1.511,1.511,0,0,0-1.363,0A.415.415,0,0,0,369.338,275.493Z" transform="translate(-337.728 -264.207)" fill="#2c323d"/>
                  <path id="Trazado_105662" data-name="Trazado 105662" d="M368.083,276.217a1.512,1.512,0,0,0,1.363,0c.379-.218.379-.572.007-.787a1.5,1.5,0,0,0-1.363,0A.416.416,0,0,0,368.083,276.217Z" transform="translate(-340.952 -262.345)" fill="#2c323d"/>
                  <path id="Trazado_105663" data-name="Trazado 105663" d="M366.834,276.938a1.512,1.512,0,0,0,1.363,0,.415.415,0,0,0,0-.787,1.511,1.511,0,0,0-1.363,0A.416.416,0,0,0,366.834,276.938Z" transform="translate(-344.177 -260.484)" fill="#2c323d"/>
                  <path id="Trazado_105664" data-name="Trazado 105664" d="M365.583,277.66a1.5,1.5,0,0,0,1.363,0c.376-.218.379-.572,0-.787a1.5,1.5,0,0,0-1.363,0C365.211,277.091,365.207,277.445,365.583,277.66Z" transform="translate(-347.401 -258.623)" fill="#2c323d"/>
                  <path id="Trazado_105665" data-name="Trazado 105665" d="M364.333,278.384a1.511,1.511,0,0,0,1.363,0,.416.416,0,0,0,0-.787,1.5,1.5,0,0,0-1.363,0A.415.415,0,0,0,364.333,278.384Z" transform="translate(-350.625 -256.761)" fill="#2c323d"/>
                  <path id="Trazado_105666" data-name="Trazado 105666" d="M363.078,279.105a1.5,1.5,0,0,0,1.363,0c.379-.218.383-.569.007-.787a1.511,1.511,0,0,0-1.363,0A.416.416,0,0,0,363.078,279.105Z" transform="translate(-353.849 -254.899)" fill="#2c323d"/>
                  <path id="Trazado_105667" data-name="Trazado 105667" d="M361.829,279.826a1.5,1.5,0,0,0,1.363,0,.415.415,0,0,0,0-.787,1.5,1.5,0,0,0-1.363,0A.413.413,0,0,0,361.829,279.826Z" transform="translate(-357.074 -253.038)" fill="#2c323d"/>
                  <path id="Trazado_105668" data-name="Trazado 105668" d="M360.578,280.55a1.511,1.511,0,0,0,1.363,0,.415.415,0,0,0,0-.787,1.512,1.512,0,0,0-1.363,0A.416.416,0,0,0,360.578,280.55Z" transform="translate(-360.298 -251.176)" fill="#2c323d"/>
                </g>
              </g>
              <g id="Grupo_58594" data-name="Grupo 58594" transform="translate(32.592 18.818)">
                <g id="Grupo_58592" data-name="Grupo 58592">
                  <path id="Trazado_105669" data-name="Trazado 105669" d="M374.761,273.528a1.5,1.5,0,0,0,1.363,0c.376-.218.379-.572,0-.787a1.5,1.5,0,0,0-1.363,0A.413.413,0,0,0,374.761,273.528Z" transform="translate(-329.491 -272.579)" fill="#2c323d"/>
                  <path id="Trazado_105670" data-name="Trazado 105670" d="M373.5,274.257a1.512,1.512,0,0,0,1.363,0,.416.416,0,0,0,0-.787,1.5,1.5,0,0,0-1.363,0A.416.416,0,0,0,373.5,274.257Z" transform="translate(-332.732 -270.708)" fill="#2c323d"/>
                  <path id="Trazado_105671" data-name="Trazado 105671" d="M372.244,274.982a1.511,1.511,0,0,0,1.363,0,.415.415,0,0,0,0-.787,1.511,1.511,0,0,0-1.363,0A.416.416,0,0,0,372.244,274.982Z" transform="translate(-335.974 -268.836)" fill="#2c323d"/>
                  <path id="Trazado_105672" data-name="Trazado 105672" d="M370.986,275.708a1.5,1.5,0,0,0,1.363,0,.416.416,0,0,0,.007-.787,1.519,1.519,0,0,0-1.366,0A.416.416,0,0,0,370.986,275.708Z" transform="translate(-339.215 -266.965)" fill="#2c323d"/>
                  <path id="Trazado_105673" data-name="Trazado 105673" d="M369.73,276.434a1.511,1.511,0,0,0,1.363,0c.376-.218.379-.572,0-.787a1.5,1.5,0,0,0-1.363,0A.415.415,0,0,0,369.73,276.434Z" transform="translate(-342.455 -265.094)" fill="#2c323d"/>
                  <path id="Trazado_105674" data-name="Trazado 105674" d="M368.472,277.16a1.5,1.5,0,0,0,1.363,0c.376-.218.379-.572,0-.787a1.5,1.5,0,0,0-1.363,0A.415.415,0,0,0,368.472,277.16Z" transform="translate(-345.697 -263.223)" fill="#2c323d"/>
                  <path id="Trazado_105675" data-name="Trazado 105675" d="M367.213,277.888a1.512,1.512,0,0,0,1.363,0,.415.415,0,0,0,0-.787,1.5,1.5,0,0,0-1.363,0A.416.416,0,0,0,367.213,277.888Z" transform="translate(-348.938 -261.351)" fill="#2c323d"/>
                  <path id="Trazado_105676" data-name="Trazado 105676" d="M365.955,278.613a1.511,1.511,0,0,0,1.363,0,.415.415,0,0,0,0-.787,1.512,1.512,0,0,0-1.363,0A.416.416,0,0,0,365.955,278.613Z" transform="translate(-352.179 -259.479)" fill="#2c323d"/>
                  <path id="Trazado_105677" data-name="Trazado 105677" d="M364.7,279.339a1.512,1.512,0,0,0,1.363,0,.416.416,0,0,0,.007-.787,1.512,1.512,0,0,0-1.363,0A.416.416,0,0,0,364.7,279.339Z" transform="translate(-355.42 -257.609)" fill="#2c323d"/>
                  <path id="Trazado_105678" data-name="Trazado 105678" d="M363.441,280.065a1.5,1.5,0,0,0,1.363,0,.416.416,0,0,0,0-.787,1.511,1.511,0,0,0-1.363,0A.415.415,0,0,0,363.441,280.065Z" transform="translate(-358.661 -255.738)" fill="#2c323d"/>
                  <path id="Trazado_105679" data-name="Trazado 105679" d="M362.182,280.791a1.5,1.5,0,0,0,1.363,0c.376-.218.379-.572,0-.787a1.5,1.5,0,0,0-1.363,0C361.81,280.222,361.806,280.576,362.182,280.791Z" transform="translate(-361.902 -253.867)" fill="#2c323d"/>
                </g>
                <g id="Grupo_58593" data-name="Grupo 58593" transform="translate(0.781 0.451)">
                  <path id="Trazado_105680" data-name="Trazado 105680" d="M376.164,273.657a1.511,1.511,0,0,0,1.363,0,.416.416,0,0,0,0-.787,1.5,1.5,0,0,0-1.363,0A.416.416,0,0,0,376.164,273.657Z" transform="translate(-326.654 -272.705)" fill="#2c323d"/>
                  <path id="Trazado_105681" data-name="Trazado 105681" d="M374.914,274.378a1.5,1.5,0,0,0,1.363,0,.416.416,0,0,0,0-.787,1.511,1.511,0,0,0-1.363,0A.415.415,0,0,0,374.914,274.378Z" transform="translate(-329.878 -270.843)" fill="#2c323d"/>
                  <path id="Trazado_105682" data-name="Trazado 105682" d="M373.659,275.1a1.5,1.5,0,0,0,1.363,0c.379-.218.383-.572.007-.787a1.5,1.5,0,0,0-1.363,0A.413.413,0,0,0,373.659,275.1Z" transform="translate(-333.102 -268.981)" fill="#2c323d"/>
                  <path id="Trazado_105683" data-name="Trazado 105683" d="M372.41,275.823a1.511,1.511,0,0,0,1.363,0,.415.415,0,0,0,0-.787,1.511,1.511,0,0,0-1.363,0A.416.416,0,0,0,372.41,275.823Z" transform="translate(-336.327 -267.12)" fill="#2c323d"/>
                  <path id="Trazado_105684" data-name="Trazado 105684" d="M371.159,276.545a1.5,1.5,0,0,0,1.363,0,.415.415,0,0,0,0-.787,1.5,1.5,0,0,0-1.363,0C370.787,275.976,370.783,276.33,371.159,276.545Z" transform="translate(-339.551 -265.259)" fill="#2c323d"/>
                  <path id="Trazado_105685" data-name="Trazado 105685" d="M369.909,277.269a1.511,1.511,0,0,0,1.363,0,.416.416,0,0,0,0-.787,1.5,1.5,0,0,0-1.363,0A.415.415,0,0,0,369.909,277.269Z" transform="translate(-342.775 -263.397)" fill="#2c323d"/>
                  <path id="Trazado_105686" data-name="Trazado 105686" d="M368.657,277.99a1.5,1.5,0,0,0,1.363,0,.416.416,0,0,0,0-.787,1.511,1.511,0,0,0-1.363,0A.415.415,0,0,0,368.657,277.99Z" transform="translate(-345.999 -261.536)" fill="#2c323d"/>
                  <path id="Trazado_105687" data-name="Trazado 105687" d="M367.4,278.711a1.5,1.5,0,0,0,1.363,0,.416.416,0,0,0,.007-.787,1.511,1.511,0,0,0-1.363,0C367.032,278.142,367.029,278.5,367.4,278.711Z" transform="translate(-349.224 -259.674)" fill="#2c323d"/>
                  <path id="Trazado_105688" data-name="Trazado 105688" d="M366.154,279.435a1.512,1.512,0,0,0,1.363,0,.415.415,0,0,0,0-.787,1.512,1.512,0,0,0-1.363,0A.416.416,0,0,0,366.154,279.435Z" transform="translate(-352.448 -257.812)" fill="#2c323d"/>
                  <path id="Trazado_105689" data-name="Trazado 105689" d="M364.9,280.157a1.511,1.511,0,0,0,1.363,0c.376-.218.379-.572,0-.787a1.5,1.5,0,0,0-1.363,0C364.531,279.588,364.527,279.942,364.9,280.157Z" transform="translate(-355.672 -255.951)" fill="#2c323d"/>
                  <path id="Trazado_105690" data-name="Trazado 105690" d="M363.653,280.881a1.511,1.511,0,0,0,1.363,0,.416.416,0,0,0,0-.787,1.5,1.5,0,0,0-1.363,0A.415.415,0,0,0,363.653,280.881Z" transform="translate(-358.896 -254.09)" fill="#2c323d"/>
                  <path id="Trazado_105691" data-name="Trazado 105691" d="M362.4,281.6a1.5,1.5,0,0,0,1.363,0c.379-.218.383-.569.007-.787a1.511,1.511,0,0,0-1.363,0A.416.416,0,0,0,362.4,281.6Z" transform="translate(-362.12 -252.228)" fill="#2c323d"/>
                </g>
              </g>
              <g id="Grupo_58597" data-name="Grupo 58597" transform="translate(39.109 22.581)">
                <g id="Grupo_58595" data-name="Grupo 58595">
                  <path id="Trazado_105692" data-name="Trazado 105692" d="M376.582,274.583a1.511,1.511,0,0,0,1.363,0,.415.415,0,0,0,0-.787,1.5,1.5,0,0,0-1.363,0A.416.416,0,0,0,376.582,274.583Z" transform="translate(-331.312 -273.631)" fill="#2c323d"/>
                  <path id="Trazado_105693" data-name="Trazado 105693" d="M375.324,275.308a1.511,1.511,0,0,0,1.363,0,.415.415,0,0,0,0-.787,1.511,1.511,0,0,0-1.363,0A.416.416,0,0,0,375.324,275.308Z" transform="translate(-334.554 -271.759)" fill="#2c323d"/>
                  <path id="Trazado_105694" data-name="Trazado 105694" d="M374.064,276.034a1.5,1.5,0,0,0,1.363,0c.379-.218.383-.569.007-.787a1.511,1.511,0,0,0-1.363,0A.416.416,0,0,0,374.064,276.034Z" transform="translate(-337.794 -269.888)" fill="#2c323d"/>
                  <path id="Trazado_105695" data-name="Trazado 105695" d="M372.81,276.76a1.5,1.5,0,0,0,1.363,0,.413.413,0,0,0,0-.783,1.5,1.5,0,0,0-1.363,0A.415.415,0,0,0,372.81,276.76Z" transform="translate(-341.036 -268.017)" fill="#2c323d"/>
                  <path id="Trazado_105696" data-name="Trazado 105696" d="M371.551,277.486a1.5,1.5,0,0,0,1.363,0c.375-.218.379-.572,0-.787a1.5,1.5,0,0,0-1.363,0C371.179,276.917,371.175,277.271,371.551,277.486Z" transform="translate(-344.276 -266.146)" fill="#2c323d"/>
                  <path id="Trazado_105697" data-name="Trazado 105697" d="M370.293,278.214a1.511,1.511,0,0,0,1.363,0,.415.415,0,0,0,0-.787,1.5,1.5,0,0,0-1.363,0A.416.416,0,0,0,370.293,278.214Z" transform="translate(-347.518 -264.274)" fill="#2c323d"/>
                  <path id="Trazado_105698" data-name="Trazado 105698" d="M369.034,278.939a1.511,1.511,0,0,0,1.363,0,.416.416,0,0,0,.007-.787,1.512,1.512,0,0,0-1.363,0C368.662,278.37,368.659,278.721,369.034,278.939Z" transform="translate(-350.759 -262.402)" fill="#2c323d"/>
                  <path id="Trazado_105699" data-name="Trazado 105699" d="M367.778,279.665a1.512,1.512,0,0,0,1.363,0,.416.416,0,0,0,0-.787,1.511,1.511,0,0,0-1.363,0A.415.415,0,0,0,367.778,279.665Z" transform="translate(-354 -260.531)" fill="#2c323d"/>
                  <path id="Trazado_105700" data-name="Trazado 105700" d="M366.521,280.391a1.5,1.5,0,0,0,1.363,0,.416.416,0,0,0,0-.787,1.512,1.512,0,0,0-1.363,0A.415.415,0,0,0,366.521,280.391Z" transform="translate(-357.241 -258.661)" fill="#2c323d"/>
                  <path id="Trazado_105701" data-name="Trazado 105701" d="M365.262,281.117a1.5,1.5,0,0,0,1.363,0,.415.415,0,0,0,0-.787,1.5,1.5,0,0,0-1.363,0C364.89,280.548,364.886,280.9,365.262,281.117Z" transform="translate(-360.482 -256.79)" fill="#2c323d"/>
                  <path id="Trazado_105702" data-name="Trazado 105702" d="M364,281.842a1.5,1.5,0,0,0,1.363,0,.415.415,0,0,0,0-.787,1.511,1.511,0,0,0-1.363,0C363.632,281.273,363.628,281.627,364,281.842Z" transform="translate(-363.724 -254.918)" fill="#2c323d"/>
                </g>
                <g id="Grupo_58596" data-name="Grupo 58596" transform="translate(0.782 0.452)">
                  <path id="Trazado_105703" data-name="Trazado 105703" d="M377.986,274.708a1.512,1.512,0,0,0,1.363,0,.415.415,0,0,0,0-.787,1.511,1.511,0,0,0-1.363,0A.416.416,0,0,0,377.986,274.708Z" transform="translate(-328.476 -273.757)" fill="#2c323d"/>
                  <path id="Trazado_105704" data-name="Trazado 105704" d="M376.735,275.43a1.511,1.511,0,0,0,1.363,0,.415.415,0,0,0,0-.787,1.5,1.5,0,0,0-1.363,0C376.363,274.861,376.359,275.215,376.735,275.43Z" transform="translate(-331.7 -271.896)" fill="#2c323d"/>
                  <path id="Trazado_105705" data-name="Trazado 105705" d="M375.485,276.154a1.511,1.511,0,0,0,1.363,0,.416.416,0,0,0,0-.787,1.5,1.5,0,0,0-1.363,0A.415.415,0,0,0,375.485,276.154Z" transform="translate(-334.924 -270.035)" fill="#2c323d"/>
                  <path id="Trazado_105706" data-name="Trazado 105706" d="M374.234,276.875a1.5,1.5,0,0,0,1.363,0,.416.416,0,0,0,0-.787,1.511,1.511,0,0,0-1.363,0A.415.415,0,0,0,374.234,276.875Z" transform="translate(-338.148 -268.173)" fill="#2c323d"/>
                  <path id="Trazado_105707" data-name="Trazado 105707" d="M372.979,277.6a1.5,1.5,0,0,0,1.363,0,.416.416,0,0,0,.007-.787,1.511,1.511,0,0,0-1.363,0A.416.416,0,0,0,372.979,277.6Z" transform="translate(-341.372 -266.311)" fill="#2c323d"/>
                  <path id="Trazado_105708" data-name="Trazado 105708" d="M371.73,278.32a1.511,1.511,0,0,0,1.363,0,.415.415,0,0,0,0-.787,1.511,1.511,0,0,0-1.363,0A.416.416,0,0,0,371.73,278.32Z" transform="translate(-344.597 -264.449)" fill="#2c323d"/>
                  <path id="Trazado_105709" data-name="Trazado 105709" d="M370.479,279.042a1.511,1.511,0,0,0,1.363,0c.376-.218.379-.572,0-.787a1.5,1.5,0,0,0-1.363,0C370.107,278.473,370.1,278.827,370.479,279.042Z" transform="translate(-347.82 -262.589)" fill="#2c323d"/>
                  <path id="Trazado_105710" data-name="Trazado 105710" d="M369.229,279.766a1.511,1.511,0,0,0,1.363,0,.416.416,0,0,0,0-.787,1.5,1.5,0,0,0-1.363,0A.415.415,0,0,0,369.229,279.766Z" transform="translate(-351.045 -260.727)" fill="#2c323d"/>
                  <path id="Trazado_105711" data-name="Trazado 105711" d="M367.974,280.487a1.5,1.5,0,0,0,1.363,0c.379-.218.383-.569.007-.787a1.512,1.512,0,0,0-1.363,0A.416.416,0,0,0,367.974,280.487Z" transform="translate(-354.269 -258.866)" fill="#2c323d"/>
                  <path id="Trazado_105712" data-name="Trazado 105712" d="M366.725,281.209a1.5,1.5,0,0,0,1.363,0,.415.415,0,0,0,0-.787,1.5,1.5,0,0,0-1.363,0C366.353,280.64,366.349,280.994,366.725,281.209Z" transform="translate(-357.494 -257.005)" fill="#2c323d"/>
                  <path id="Trazado_105713" data-name="Trazado 105713" d="M365.474,281.932a1.512,1.512,0,0,0,1.363,0,.415.415,0,0,0,0-.787,1.511,1.511,0,0,0-1.363,0A.416.416,0,0,0,365.474,281.932Z" transform="translate(-360.718 -255.142)" fill="#2c323d"/>
                  <path id="Trazado_105714" data-name="Trazado 105714" d="M364.224,282.654a1.512,1.512,0,0,0,1.363,0c.375-.218.379-.572,0-.787a1.5,1.5,0,0,0-1.363,0A.415.415,0,0,0,364.224,282.654Z" transform="translate(-363.942 -253.281)" fill="#2c323d"/>
                </g>
              </g>
              <g id="Grupo_58600" data-name="Grupo 58600" transform="translate(45.628 26.345)">
                <g id="Grupo_58598" data-name="Grupo 58598">
                  <path id="Trazado_105715" data-name="Trazado 105715" d="M378.4,275.634a1.512,1.512,0,0,0,1.363,0c.379-.218.383-.569.007-.787a1.511,1.511,0,0,0-1.363,0A.416.416,0,0,0,378.4,275.634Z" transform="translate(-333.135 -274.683)" fill="#2c323d"/>
                  <path id="Trazado_105716" data-name="Trazado 105716" d="M377.148,276.36a1.5,1.5,0,0,0,1.363,0,.416.416,0,0,0,0-.787,1.512,1.512,0,0,0-1.363,0A.415.415,0,0,0,377.148,276.36Z" transform="translate(-336.376 -272.812)" fill="#2c323d"/>
                  <path id="Trazado_105717" data-name="Trazado 105717" d="M375.889,277.086a1.5,1.5,0,0,0,1.363,0,.413.413,0,0,0,0-.783,1.5,1.5,0,0,0-1.363,0C375.517,276.517,375.513,276.871,375.889,277.086Z" transform="translate(-339.617 -270.941)" fill="#2c323d"/>
                  <path id="Trazado_105718" data-name="Trazado 105718" d="M374.631,277.812a1.5,1.5,0,0,0,1.363,0,.415.415,0,0,0,0-.787,1.5,1.5,0,0,0-1.363,0C374.259,277.243,374.255,277.6,374.631,277.812Z" transform="translate(-342.859 -269.07)" fill="#2c323d"/>
                  <path id="Trazado_105719" data-name="Trazado 105719" d="M373.372,278.54a1.512,1.512,0,0,0,1.363,0,.416.416,0,0,0,.007-.787,1.5,1.5,0,0,0-1.363,0A.415.415,0,0,0,373.372,278.54Z" transform="translate(-346.1 -267.198)" fill="#2c323d"/>
                  <path id="Trazado_105720" data-name="Trazado 105720" d="M372.117,279.266a1.511,1.511,0,0,0,1.363,0,.416.416,0,0,0,0-.787,1.5,1.5,0,0,0-1.363,0A.415.415,0,0,0,372.117,279.266Z" transform="translate(-349.341 -265.328)" fill="#2c323d"/>
                  <path id="Trazado_105721" data-name="Trazado 105721" d="M370.859,279.991a1.512,1.512,0,0,0,1.363,0,.416.416,0,0,0,0-.787,1.511,1.511,0,0,0-1.363,0A.415.415,0,0,0,370.859,279.991Z" transform="translate(-352.582 -263.456)" fill="#2c323d"/>
                  <path id="Trazado_105722" data-name="Trazado 105722" d="M369.6,280.717a1.5,1.5,0,0,0,1.363,0,.415.415,0,0,0,0-.787,1.511,1.511,0,0,0-1.363,0A.416.416,0,0,0,369.6,280.717Z" transform="translate(-355.823 -261.585)" fill="#2c323d"/>
                  <path id="Trazado_105723" data-name="Trazado 105723" d="M368.342,281.443a1.511,1.511,0,0,0,1.363,0,.415.415,0,0,0,0-.787,1.5,1.5,0,0,0-1.363,0C367.97,280.874,367.966,281.228,368.342,281.443Z" transform="translate(-359.064 -259.714)" fill="#2c323d"/>
                  <path id="Trazado_105724" data-name="Trazado 105724" d="M367.082,282.168a1.5,1.5,0,0,0,1.363,0,.416.416,0,0,0,.007-.787,1.511,1.511,0,0,0-1.363,0A.416.416,0,0,0,367.082,282.168Z" transform="translate(-362.305 -257.842)" fill="#2c323d"/>
                  <path id="Trazado_105725" data-name="Trazado 105725" d="M365.828,282.9a1.512,1.512,0,0,0,1.363,0c.375-.218.379-.572,0-.787a1.5,1.5,0,0,0-1.363,0A.415.415,0,0,0,365.828,282.9Z" transform="translate(-365.546 -255.971)" fill="#2c323d"/>
                </g>
                <g id="Grupo_58599" data-name="Grupo 58599" transform="translate(0.781 0.451)">
                  <path id="Trazado_105726" data-name="Trazado 105726" d="M379.81,275.76a1.5,1.5,0,0,0,1.363,0,.416.416,0,0,0,0-.787,1.512,1.512,0,0,0-1.363,0A.415.415,0,0,0,379.81,275.76Z" transform="translate(-330.298 -274.809)" fill="#2c323d"/>
                  <path id="Trazado_105727" data-name="Trazado 105727" d="M378.555,276.482a1.5,1.5,0,0,0,1.363,0c.379-.218.383-.572.007-.787a1.5,1.5,0,0,0-1.363,0A.416.416,0,0,0,378.555,276.482Z" transform="translate(-333.522 -272.948)" fill="#2c323d"/>
                  <path id="Trazado_105728" data-name="Trazado 105728" d="M377.306,277.205a1.512,1.512,0,0,0,1.363,0,.415.415,0,0,0,0-.787,1.512,1.512,0,0,0-1.363,0A.416.416,0,0,0,377.306,277.205Z" transform="translate(-336.747 -271.086)" fill="#2c323d"/>
                  <path id="Trazado_105729" data-name="Trazado 105729" d="M376.055,277.927a1.511,1.511,0,0,0,1.363,0,.415.415,0,0,0,0-.787,1.5,1.5,0,0,0-1.363,0C375.683,277.358,375.679,277.712,376.055,277.927Z" transform="translate(-339.97 -269.225)" fill="#2c323d"/>
                  <path id="Trazado_105730" data-name="Trazado 105730" d="M374.8,278.651a1.511,1.511,0,0,0,1.363,0c.375-.218.379-.572,0-.787a1.5,1.5,0,0,0-1.363,0A.415.415,0,0,0,374.8,278.651Z" transform="translate(-343.195 -267.363)" fill="#2c323d"/>
                  <path id="Trazado_105731" data-name="Trazado 105731" d="M373.554,279.372a1.5,1.5,0,0,0,1.363,0,.416.416,0,0,0,0-.787,1.512,1.512,0,0,0-1.363,0A.415.415,0,0,0,373.554,279.372Z" transform="translate(-346.419 -265.501)" fill="#2c323d"/>
                  <path id="Trazado_105732" data-name="Trazado 105732" d="M372.3,280.094a1.5,1.5,0,0,0,1.363,0,.416.416,0,0,0,.007-.787,1.5,1.5,0,0,0-1.363,0C371.928,279.525,371.925,279.879,372.3,280.094Z" transform="translate(-349.644 -263.641)" fill="#2c323d"/>
                  <path id="Trazado_105733" data-name="Trazado 105733" d="M371.05,280.817a1.512,1.512,0,0,0,1.363,0,.415.415,0,0,0,0-.787,1.512,1.512,0,0,0-1.363,0A.416.416,0,0,0,371.05,280.817Z" transform="translate(-352.868 -261.778)" fill="#2c323d"/>
                  <path id="Trazado_105734" data-name="Trazado 105734" d="M369.8,281.539a1.5,1.5,0,0,0,1.363,0,.413.413,0,0,0,0-.783,1.5,1.5,0,0,0-1.363,0C369.427,280.97,369.423,281.324,369.8,281.539Z" transform="translate(-356.091 -259.917)" fill="#2c323d"/>
                  <path id="Trazado_105735" data-name="Trazado 105735" d="M368.549,282.263a1.511,1.511,0,0,0,1.363,0c.376-.218.379-.572,0-.787a1.5,1.5,0,0,0-1.363,0A.415.415,0,0,0,368.549,282.263Z" transform="translate(-359.316 -258.055)" fill="#2c323d"/>
                  <path id="Trazado_105736" data-name="Trazado 105736" d="M367.294,282.984a1.5,1.5,0,0,0,1.363,0c.379-.218.383-.569.007-.787a1.511,1.511,0,0,0-1.363,0A.416.416,0,0,0,367.294,282.984Z" transform="translate(-362.54 -256.194)" fill="#2c323d"/>
                  <path id="Trazado_105737" data-name="Trazado 105737" d="M366.044,283.706a1.5,1.5,0,0,0,1.363,0,.415.415,0,0,0,0-.787,1.5,1.5,0,0,0-1.363,0C365.673,283.137,365.669,283.491,366.044,283.706Z" transform="translate(-365.765 -254.333)" fill="#2c323d"/>
                </g>
              </g>
              <g id="Grupo_58603" data-name="Grupo 58603" transform="translate(52.147 30.108)">
                <g id="Grupo_58601" data-name="Grupo 58601">
                  <path id="Trazado_105738" data-name="Trazado 105738" d="M380.228,276.686a1.5,1.5,0,0,0,1.363,0,.416.416,0,0,0,0-.787,1.511,1.511,0,0,0-1.363,0A.415.415,0,0,0,380.228,276.686Z" transform="translate(-334.958 -275.735)" fill="#2c323d"/>
                  <path id="Trazado_105739" data-name="Trazado 105739" d="M378.969,277.412a1.5,1.5,0,0,0,1.363,0,.415.415,0,0,0,0-.787,1.512,1.512,0,0,0-1.363,0C378.6,276.843,378.593,277.2,378.969,277.412Z" transform="translate(-338.199 -273.864)" fill="#2c323d"/>
                  <path id="Trazado_105740" data-name="Trazado 105740" d="M377.711,278.138a1.5,1.5,0,0,0,1.363,0,.415.415,0,0,0,0-.787,1.5,1.5,0,0,0-1.363,0C377.339,277.569,377.335,277.923,377.711,278.138Z" transform="translate(-341.44 -271.993)" fill="#2c323d"/>
                  <path id="Trazado_105741" data-name="Trazado 105741" d="M376.451,278.866a1.511,1.511,0,0,0,1.363,0c.379-.218.383-.572.007-.787a1.5,1.5,0,0,0-1.363,0A.416.416,0,0,0,376.451,278.866Z" transform="translate(-344.681 -270.121)" fill="#2c323d"/>
                  <path id="Trazado_105742" data-name="Trazado 105742" d="M375.2,279.592a1.512,1.512,0,0,0,1.363,0,.416.416,0,0,0,0-.787,1.5,1.5,0,0,0-1.363,0A.415.415,0,0,0,375.2,279.592Z" transform="translate(-347.922 -268.25)" fill="#2c323d"/>
                  <path id="Trazado_105743" data-name="Trazado 105743" d="M373.938,280.317a1.512,1.512,0,0,0,1.363,0,.416.416,0,0,0,0-.787,1.512,1.512,0,0,0-1.363,0A.416.416,0,0,0,373.938,280.317Z" transform="translate(-351.163 -266.379)" fill="#2c323d"/>
                  <path id="Trazado_105744" data-name="Trazado 105744" d="M372.68,281.043a1.5,1.5,0,0,0,1.363,0,.415.415,0,0,0,0-.787,1.512,1.512,0,0,0-1.363,0A.416.416,0,0,0,372.68,281.043Z" transform="translate(-354.405 -264.508)" fill="#2c323d"/>
                  <path id="Trazado_105745" data-name="Trazado 105745" d="M371.421,281.769a1.512,1.512,0,0,0,1.363,0,.416.416,0,0,0,.007-.787,1.5,1.5,0,0,0-1.363,0C371.049,281.2,371.046,281.554,371.421,281.769Z" transform="translate(-357.646 -262.637)" fill="#2c323d"/>
                  <path id="Trazado_105746" data-name="Trazado 105746" d="M370.166,282.495a1.5,1.5,0,0,0,1.363,0c.375-.218.379-.572,0-.787a1.5,1.5,0,0,0-1.363,0A.415.415,0,0,0,370.166,282.495Z" transform="translate(-360.886 -260.766)" fill="#2c323d"/>
                  <path id="Trazado_105747" data-name="Trazado 105747" d="M368.907,283.223a1.512,1.512,0,0,0,1.363,0c.376-.218.379-.572,0-.787a1.5,1.5,0,0,0-1.363,0A.415.415,0,0,0,368.907,283.223Z" transform="translate(-364.128 -258.894)" fill="#2c323d"/>
                  <path id="Trazado_105748" data-name="Trazado 105748" d="M367.649,283.948a1.511,1.511,0,0,0,1.363,0,.415.415,0,0,0,0-.787,1.511,1.511,0,0,0-1.363,0A.416.416,0,0,0,367.649,283.948Z" transform="translate(-367.369 -257.022)" fill="#2c323d"/>
                </g>
                <g id="Grupo_58602" data-name="Grupo 58602" transform="translate(0.782 0.451)">
                  <path id="Trazado_105749" data-name="Trazado 105749" d="M381.63,276.812a1.5,1.5,0,0,0,1.363,0,.415.415,0,0,0,0-.787,1.512,1.512,0,0,0-1.363,0C381.259,276.243,381.255,276.6,381.63,276.812Z" transform="translate(-332.121 -275.861)" fill="#2c323d"/>
                  <path id="Trazado_105750" data-name="Trazado 105750" d="M380.381,277.536a1.512,1.512,0,0,0,1.363,0c.376-.218.379-.572,0-.787a1.5,1.5,0,0,0-1.363,0A.415.415,0,0,0,380.381,277.536Z" transform="translate(-335.346 -273.999)" fill="#2c323d"/>
                  <path id="Trazado_105751" data-name="Trazado 105751" d="M379.13,278.257a1.5,1.5,0,0,0,1.363,0,.416.416,0,0,0,0-.787,1.511,1.511,0,0,0-1.363,0A.415.415,0,0,0,379.13,278.257Z" transform="translate(-338.569 -272.138)" fill="#2c323d"/>
                  <path id="Trazado_105752" data-name="Trazado 105752" d="M377.875,278.979a1.5,1.5,0,0,0,1.363,0c.379-.218.379-.572.007-.787a1.5,1.5,0,0,0-1.363,0A.416.416,0,0,0,377.875,278.979Z" transform="translate(-341.793 -270.277)" fill="#2c323d"/>
                  <path id="Trazado_105753" data-name="Trazado 105753" d="M376.626,279.7a1.511,1.511,0,0,0,1.363,0,.415.415,0,0,0,0-.787,1.512,1.512,0,0,0-1.363,0A.416.416,0,0,0,376.626,279.7Z" transform="translate(-345.018 -268.414)" fill="#2c323d"/>
                  <path id="Trazado_105754" data-name="Trazado 105754" d="M375.375,280.424a1.5,1.5,0,0,0,1.363,0,.416.416,0,0,0,0-.787,1.511,1.511,0,0,0-1.363,0C375,279.855,375,280.209,375.375,280.424Z" transform="translate(-348.242 -266.554)" fill="#2c323d"/>
                  <path id="Trazado_105755" data-name="Trazado 105755" d="M374.125,281.148a1.511,1.511,0,0,0,1.363,0c.375-.218.379-.572,0-.787a1.5,1.5,0,0,0-1.363,0A.415.415,0,0,0,374.125,281.148Z" transform="translate(-351.467 -264.692)" fill="#2c323d"/>
                  <path id="Trazado_105756" data-name="Trazado 105756" d="M372.87,281.869a1.52,1.52,0,0,0,1.366,0,.416.416,0,0,0,0-.787,1.512,1.512,0,0,0-1.363,0A.416.416,0,0,0,372.87,281.869Z" transform="translate(-354.69 -262.83)" fill="#2c323d"/>
                  <path id="Trazado_105757" data-name="Trazado 105757" d="M371.621,282.591a1.5,1.5,0,0,0,1.363,0,.415.415,0,0,0,0-.787,1.5,1.5,0,0,0-1.363,0C371.249,282.022,371.245,282.376,371.621,282.591Z" transform="translate(-357.915 -260.969)" fill="#2c323d"/>
                  <path id="Trazado_105758" data-name="Trazado 105758" d="M370.37,283.315a1.512,1.512,0,0,0,1.363,0,.415.415,0,0,0,0-.787,1.5,1.5,0,0,0-1.363,0A.416.416,0,0,0,370.37,283.315Z" transform="translate(-361.139 -259.108)" fill="#2c323d"/>
                  <path id="Trazado_105759" data-name="Trazado 105759" d="M369.12,284.036a1.5,1.5,0,0,0,1.363,0,.416.416,0,0,0,0-.787,1.512,1.512,0,0,0-1.363,0A.415.415,0,0,0,369.12,284.036Z" transform="translate(-364.364 -257.246)" fill="#2c323d"/>
                  <path id="Trazado_105760" data-name="Trazado 105760" d="M367.868,284.76a1.511,1.511,0,0,0,1.363,0c.376-.218.379-.572,0-.787a1.5,1.5,0,0,0-1.363,0A.415.415,0,0,0,367.868,284.76Z" transform="translate(-367.587 -255.384)" fill="#2c323d"/>
                </g>
              </g>
              <g id="Grupo_58606" data-name="Grupo 58606" transform="translate(58.666 33.871)">
                <g id="Grupo_58604" data-name="Grupo 58604">
                  <path id="Trazado_105761" data-name="Trazado 105761" d="M382.048,277.738a1.5,1.5,0,0,0,1.363,0,.415.415,0,0,0,0-.787,1.511,1.511,0,0,0-1.363,0C381.677,277.169,381.673,277.523,382.048,277.738Z" transform="translate(-336.781 -276.787)" fill="#2c323d"/>
                  <path id="Trazado_105762" data-name="Trazado 105762" d="M380.789,278.464a1.5,1.5,0,0,0,1.363,0c.379-.218.383-.572.007-.787a1.5,1.5,0,0,0-1.363,0A.416.416,0,0,0,380.789,278.464Z" transform="translate(-340.021 -274.916)" fill="#2c323d"/>
                  <path id="Trazado_105763" data-name="Trazado 105763" d="M379.535,279.189a1.5,1.5,0,0,0,1.363,0c.375-.218.379-.572,0-.787a1.5,1.5,0,0,0-1.363,0A.413.413,0,0,0,379.535,279.189Z" transform="translate(-343.263 -273.044)" fill="#2c323d"/>
                  <path id="Trazado_105764" data-name="Trazado 105764" d="M378.276,279.918a1.511,1.511,0,0,0,1.363,0,.416.416,0,0,0,0-.787,1.5,1.5,0,0,0-1.363,0A.416.416,0,0,0,378.276,279.918Z" transform="translate(-346.503 -271.173)" fill="#2c323d"/>
                  <path id="Trazado_105765" data-name="Trazado 105765" d="M377.018,280.643a1.511,1.511,0,0,0,1.363,0,.415.415,0,0,0,0-.787,1.511,1.511,0,0,0-1.363,0A.416.416,0,0,0,377.018,280.643Z" transform="translate(-349.745 -269.301)" fill="#2c323d"/>
                  <path id="Trazado_105766" data-name="Trazado 105766" d="M375.759,281.369a1.5,1.5,0,0,0,1.363,0,.416.416,0,0,0,.007-.787,1.512,1.512,0,0,0-1.363,0C375.387,280.8,375.384,281.151,375.759,281.369Z" transform="translate(-352.986 -267.431)" fill="#2c323d"/>
                  <path id="Trazado_105767" data-name="Trazado 105767" d="M374.5,282.095a1.511,1.511,0,0,0,1.363,0c.375-.218.379-.572,0-.787a1.5,1.5,0,0,0-1.363,0A.415.415,0,0,0,374.5,282.095Z" transform="translate(-356.227 -265.559)" fill="#2c323d"/>
                  <path id="Trazado_105768" data-name="Trazado 105768" d="M373.246,282.821a1.5,1.5,0,0,0,1.363,0c.375-.218.379-.572,0-.787a1.5,1.5,0,0,0-1.363,0A.415.415,0,0,0,373.246,282.821Z" transform="translate(-359.469 -263.689)" fill="#2c323d"/>
                  <path id="Trazado_105769" data-name="Trazado 105769" d="M371.987,283.549a1.511,1.511,0,0,0,1.363,0,.415.415,0,0,0,0-.787,1.5,1.5,0,0,0-1.363,0A.416.416,0,0,0,371.987,283.549Z" transform="translate(-362.709 -261.817)" fill="#2c323d"/>
                  <path id="Trazado_105770" data-name="Trazado 105770" d="M370.729,284.274a1.511,1.511,0,0,0,1.363,0,.415.415,0,0,0,0-.787,1.512,1.512,0,0,0-1.363,0A.416.416,0,0,0,370.729,284.274Z" transform="translate(-365.951 -259.945)" fill="#2c323d"/>
                  <path id="Trazado_105771" data-name="Trazado 105771" d="M369.469,285a1.512,1.512,0,0,0,1.363,0,.416.416,0,0,0,.007-.787,1.512,1.512,0,0,0-1.363,0A.416.416,0,0,0,369.469,285Z" transform="translate(-369.191 -258.074)" fill="#2c323d"/>
                </g>
                <g id="Grupo_58605" data-name="Grupo 58605" transform="translate(0.782 0.451)">
                  <path id="Trazado_105772" data-name="Trazado 105772" d="M383.451,277.864a1.5,1.5,0,0,0,1.363,0c.379-.218.383-.572.007-.787a1.5,1.5,0,0,0-1.363,0A.416.416,0,0,0,383.451,277.864Z" transform="translate(-333.943 -276.913)" fill="#2c323d"/>
                  <path id="Trazado_105773" data-name="Trazado 105773" d="M382.2,278.588a1.512,1.512,0,0,0,1.363,0,.415.415,0,0,0,0-.787,1.5,1.5,0,0,0-1.363,0A.416.416,0,0,0,382.2,278.588Z" transform="translate(-337.168 -275.052)" fill="#2c323d"/>
                  <path id="Trazado_105774" data-name="Trazado 105774" d="M380.951,279.309a1.5,1.5,0,0,0,1.363,0,.415.415,0,0,0,0-.787,1.512,1.512,0,0,0-1.363,0C380.579,278.74,380.575,279.094,380.951,279.309Z" transform="translate(-340.392 -273.19)" fill="#2c323d"/>
                  <path id="Trazado_105775" data-name="Trazado 105775" d="M379.7,280.033a1.511,1.511,0,0,0,1.363,0c.376-.218.379-.572,0-.787a1.5,1.5,0,0,0-1.363,0A.415.415,0,0,0,379.7,280.033Z" transform="translate(-343.616 -271.328)" fill="#2c323d"/>
                  <path id="Trazado_105776" data-name="Trazado 105776" d="M378.45,280.754a1.511,1.511,0,0,0,1.363,0,.416.416,0,0,0,0-.787,1.511,1.511,0,0,0-1.363,0A.415.415,0,0,0,378.45,280.754Z" transform="translate(-346.84 -269.466)" fill="#2c323d"/>
                  <path id="Trazado_105777" data-name="Trazado 105777" d="M377.2,281.476a1.5,1.5,0,0,0,1.363,0,.416.416,0,0,0,.007-.787,1.5,1.5,0,0,0-1.363,0C376.824,280.907,376.821,281.261,377.2,281.476Z" transform="translate(-350.065 -267.606)" fill="#2c323d"/>
                  <path id="Trazado_105778" data-name="Trazado 105778" d="M375.946,282.2a1.511,1.511,0,0,0,1.363,0,.415.415,0,0,0,0-.787,1.5,1.5,0,0,0-1.363,0A.416.416,0,0,0,375.946,282.2Z" transform="translate(-353.289 -265.744)" fill="#2c323d"/>
                  <path id="Trazado_105779" data-name="Trazado 105779" d="M374.695,282.921a1.5,1.5,0,0,0,1.363,0,.416.416,0,0,0,0-.787,1.511,1.511,0,0,0-1.363,0C374.323,282.352,374.319,282.707,374.695,282.921Z" transform="translate(-356.513 -263.882)" fill="#2c323d"/>
                  <path id="Trazado_105780" data-name="Trazado 105780" d="M373.445,283.642a1.5,1.5,0,0,0,1.363,0c.376-.218.379-.572,0-.787a1.5,1.5,0,0,0-1.363,0A.413.413,0,0,0,373.445,283.642Z" transform="translate(-359.737 -262.02)" fill="#2c323d"/>
                  <path id="Trazado_105781" data-name="Trazado 105781" d="M372.19,284.366a1.511,1.511,0,0,0,1.363,0c.379-.218.383-.569.007-.787a1.512,1.512,0,0,0-1.363,0A.416.416,0,0,0,372.19,284.366Z" transform="translate(-362.961 -260.159)" fill="#2c323d"/>
                  <path id="Trazado_105782" data-name="Trazado 105782" d="M370.941,285.088a1.5,1.5,0,0,0,1.363,0,.415.415,0,0,0,0-.787,1.5,1.5,0,0,0-1.363,0C370.569,284.519,370.565,284.873,370.941,285.088Z" transform="translate(-366.186 -258.298)" fill="#2c323d"/>
                  <path id="Trazado_105783" data-name="Trazado 105783" d="M369.69,285.812a1.511,1.511,0,0,0,1.363,0,.415.415,0,0,0,0-.787,1.5,1.5,0,0,0-1.363,0A.416.416,0,0,0,369.69,285.812Z" transform="translate(-369.41 -256.436)" fill="#2c323d"/>
                </g>
              </g>
              <g id="Grupo_58609" data-name="Grupo 58609" transform="translate(65.183 37.634)">
                <g id="Grupo_58607" data-name="Grupo 58607">
                  <path id="Trazado_105784" data-name="Trazado 105784" d="M383.873,278.79a1.5,1.5,0,0,0,1.363,0c.375-.218.379-.572,0-.787a1.5,1.5,0,0,0-1.363,0A.415.415,0,0,0,383.873,278.79Z" transform="translate(-338.602 -277.839)" fill="#2c323d"/>
                  <path id="Trazado_105785" data-name="Trazado 105785" d="M382.615,279.515a1.5,1.5,0,0,0,1.363,0c.376-.218.379-.572,0-.787a1.511,1.511,0,0,0-1.363,0A.415.415,0,0,0,382.615,279.515Z" transform="translate(-341.843 -275.968)" fill="#2c323d"/>
                  <path id="Trazado_105786" data-name="Trazado 105786" d="M381.356,280.244a1.511,1.511,0,0,0,1.363,0,.415.415,0,0,0,0-.787,1.5,1.5,0,0,0-1.363,0A.416.416,0,0,0,381.356,280.244Z" transform="translate(-345.084 -274.096)" fill="#2c323d"/>
                  <path id="Trazado_105787" data-name="Trazado 105787" d="M380.1,280.969a1.511,1.511,0,0,0,1.363,0,.415.415,0,0,0,0-.787,1.511,1.511,0,0,0-1.363,0A.416.416,0,0,0,380.1,280.969Z" transform="translate(-348.326 -272.225)" fill="#2c323d"/>
                  <path id="Trazado_105788" data-name="Trazado 105788" d="M378.838,281.7a1.5,1.5,0,0,0,1.363,0c.379-.218.383-.569.007-.787a1.511,1.511,0,0,0-1.363,0A.416.416,0,0,0,378.838,281.7Z" transform="translate(-351.566 -270.354)" fill="#2c323d"/>
                  <path id="Trazado_105789" data-name="Trazado 105789" d="M377.584,282.421a1.5,1.5,0,0,0,1.363,0,.413.413,0,0,0,0-.783,1.5,1.5,0,0,0-1.363,0A.415.415,0,0,0,377.584,282.421Z" transform="translate(-354.808 -268.483)" fill="#2c323d"/>
                  <path id="Trazado_105790" data-name="Trazado 105790" d="M376.325,283.147a1.5,1.5,0,0,0,1.363,0c.376-.218.379-.572,0-.787a1.5,1.5,0,0,0-1.363,0C375.953,282.578,375.949,282.932,376.325,283.147Z" transform="translate(-358.048 -266.612)" fill="#2c323d"/>
                  <path id="Trazado_105791" data-name="Trazado 105791" d="M375.066,283.875a1.512,1.512,0,0,0,1.363,0,.415.415,0,0,0,0-.787,1.5,1.5,0,0,0-1.363,0A.416.416,0,0,0,375.066,283.875Z" transform="translate(-361.29 -264.74)" fill="#2c323d"/>
                  <path id="Trazado_105792" data-name="Trazado 105792" d="M373.808,284.6a1.512,1.512,0,0,0,1.363,0,.416.416,0,0,0,.007-.787,1.5,1.5,0,0,0-1.363,0C373.436,284.032,373.433,284.383,373.808,284.6Z" transform="translate(-364.531 -262.869)" fill="#2c323d"/>
                  <path id="Trazado_105793" data-name="Trazado 105793" d="M372.553,285.326a1.512,1.512,0,0,0,1.363,0,.416.416,0,0,0,0-.787,1.511,1.511,0,0,0-1.363,0A.415.415,0,0,0,372.553,285.326Z" transform="translate(-367.772 -260.997)" fill="#2c323d"/>
                  <path id="Trazado_105794" data-name="Trazado 105794" d="M371.295,286.052a1.5,1.5,0,0,0,1.363,0,.416.416,0,0,0,0-.787,1.512,1.512,0,0,0-1.363,0A.415.415,0,0,0,371.295,286.052Z" transform="translate(-371.013 -259.126)" fill="#2c323d"/>
                </g>
                <g id="Grupo_58608" data-name="Grupo 58608" transform="translate(0.782 0.452)">
                  <path id="Trazado_105795" data-name="Trazado 105795" d="M385.276,278.914a1.5,1.5,0,0,0,1.363,0c.376-.218.379-.572,0-.787a1.5,1.5,0,0,0-1.363,0A.413.413,0,0,0,385.276,278.914Z" transform="translate(-335.764 -277.966)" fill="#2c323d"/>
                  <path id="Trazado_105796" data-name="Trazado 105796" d="M384.026,279.639a1.512,1.512,0,0,0,1.363,0,.416.416,0,0,0,0-.787,1.512,1.512,0,0,0-1.363,0A.415.415,0,0,0,384.026,279.639Z" transform="translate(-338.989 -276.104)" fill="#2c323d"/>
                  <path id="Trazado_105797" data-name="Trazado 105797" d="M382.771,280.361a1.5,1.5,0,0,0,1.363,0,.416.416,0,0,0,.007-.787,1.5,1.5,0,0,0-1.363,0A.416.416,0,0,0,382.771,280.361Z" transform="translate(-342.213 -274.243)" fill="#2c323d"/>
                  <path id="Trazado_105798" data-name="Trazado 105798" d="M381.522,281.085a1.511,1.511,0,0,0,1.363,0,.415.415,0,0,0,0-.787,1.5,1.5,0,0,0-1.363,0A.416.416,0,0,0,381.522,281.085Z" transform="translate(-345.438 -272.382)" fill="#2c323d"/>
                  <path id="Trazado_105799" data-name="Trazado 105799" d="M380.271,281.806a1.5,1.5,0,0,0,1.363,0,.415.415,0,0,0,0-.787,1.511,1.511,0,0,0-1.363,0C379.9,281.237,379.895,281.591,380.271,281.806Z" transform="translate(-348.661 -270.52)" fill="#2c323d"/>
                  <path id="Trazado_105800" data-name="Trazado 105800" d="M379.021,282.527a1.5,1.5,0,0,0,1.363,0,.416.416,0,0,0,0-.787,1.512,1.512,0,0,0-1.363,0A.415.415,0,0,0,379.021,282.527Z" transform="translate(-351.886 -268.659)" fill="#2c323d"/>
                  <path id="Trazado_105801" data-name="Trazado 105801" d="M377.77,283.251a1.511,1.511,0,0,0,1.363,0,.416.416,0,0,0,0-.787,1.512,1.512,0,0,0-1.363,0A.415.415,0,0,0,377.77,283.251Z" transform="translate(-355.11 -266.797)" fill="#2c323d"/>
                  <path id="Trazado_105802" data-name="Trazado 105802" d="M376.517,283.973a1.511,1.511,0,0,0,1.363,0,.415.415,0,0,0,0-.787,1.5,1.5,0,0,0-1.363,0C376.145,283.4,376.141,283.758,376.517,283.973Z" transform="translate(-358.335 -264.936)" fill="#2c323d"/>
                  <path id="Trazado_105803" data-name="Trazado 105803" d="M375.266,284.7a1.511,1.511,0,0,0,1.363,0,.415.415,0,0,0,0-.787,1.5,1.5,0,0,0-1.363,0A.416.416,0,0,0,375.266,284.7Z" transform="translate(-361.559 -263.074)" fill="#2c323d"/>
                  <path id="Trazado_105804" data-name="Trazado 105804" d="M374.016,285.418a1.5,1.5,0,0,0,1.363,0,.416.416,0,0,0,0-.787,1.511,1.511,0,0,0-1.363,0A.415.415,0,0,0,374.016,285.418Z" transform="translate(-364.783 -261.213)" fill="#2c323d"/>
                  <path id="Trazado_105805" data-name="Trazado 105805" d="M372.765,286.139a1.5,1.5,0,0,0,1.363,0c.376-.218.379-.572,0-.787a1.512,1.512,0,0,0-1.363,0A.415.415,0,0,0,372.765,286.139Z" transform="translate(-368.007 -259.351)" fill="#2c323d"/>
                  <path id="Trazado_105806" data-name="Trazado 105806" d="M371.511,286.863a1.511,1.511,0,0,0,1.363,0,.416.416,0,0,0,.007-.787,1.512,1.512,0,0,0-1.363,0C371.139,286.294,371.136,286.645,371.511,286.863Z" transform="translate(-371.232 -257.489)" fill="#2c323d"/>
                </g>
              </g>
              <g id="Grupo_58612" data-name="Grupo 58612" transform="translate(71.702 41.398)">
                <g id="Grupo_58610" data-name="Grupo 58610">
                  <path id="Trazado_105807" data-name="Trazado 105807" d="M385.694,279.841a1.5,1.5,0,0,0,1.363,0,.415.415,0,0,0,0-.787,1.511,1.511,0,0,0-1.363,0C385.322,279.272,385.318,279.626,385.694,279.841Z" transform="translate(-340.424 -278.892)" fill="#2c323d"/>
                  <path id="Trazado_105808" data-name="Trazado 105808" d="M384.436,280.57a1.511,1.511,0,0,0,1.363,0,.415.415,0,0,0,0-.787,1.5,1.5,0,0,0-1.363,0A.416.416,0,0,0,384.436,280.57Z" transform="translate(-343.666 -277.021)" fill="#2c323d"/>
                  <path id="Trazado_105809" data-name="Trazado 105809" d="M383.176,281.295a1.511,1.511,0,0,0,1.363,0c.379-.218.383-.569.007-.787a1.512,1.512,0,0,0-1.363,0A.416.416,0,0,0,383.176,281.295Z" transform="translate(-346.906 -275.149)" fill="#2c323d"/>
                  <path id="Trazado_105810" data-name="Trazado 105810" d="M381.922,282.021a1.5,1.5,0,0,0,1.363,0,.416.416,0,0,0,0-.787,1.511,1.511,0,0,0-1.363,0A.415.415,0,0,0,381.922,282.021Z" transform="translate(-350.148 -273.278)" fill="#2c323d"/>
                  <path id="Trazado_105811" data-name="Trazado 105811" d="M380.663,282.747a1.5,1.5,0,0,0,1.363,0,.416.416,0,0,0,0-.787,1.511,1.511,0,0,0-1.363,0C380.291,282.178,380.287,282.533,380.663,282.747Z" transform="translate(-353.388 -271.407)" fill="#2c323d"/>
                  <path id="Trazado_105812" data-name="Trazado 105812" d="M379.4,283.473a1.5,1.5,0,0,0,1.363,0,.415.415,0,0,0,0-.787,1.5,1.5,0,0,0-1.363,0C379.033,282.9,379.029,283.258,379.4,283.473Z" transform="translate(-356.63 -269.536)" fill="#2c323d"/>
                  <path id="Trazado_105813" data-name="Trazado 105813" d="M378.146,284.2a1.511,1.511,0,0,0,1.363,0,.416.416,0,0,0,.007-.787,1.5,1.5,0,0,0-1.363,0A.415.415,0,0,0,378.146,284.2Z" transform="translate(-359.871 -267.664)" fill="#2c323d"/>
                  <path id="Trazado_105814" data-name="Trazado 105814" d="M376.891,284.927a1.511,1.511,0,0,0,1.363,0,.416.416,0,0,0,0-.787,1.5,1.5,0,0,0-1.363,0A.415.415,0,0,0,376.891,284.927Z" transform="translate(-363.112 -265.793)" fill="#2c323d"/>
                  <path id="Trazado_105815" data-name="Trazado 105815" d="M375.633,285.652a1.512,1.512,0,0,0,1.363,0,.416.416,0,0,0,0-.787,1.511,1.511,0,0,0-1.363,0A.415.415,0,0,0,375.633,285.652Z" transform="translate(-366.353 -263.921)" fill="#2c323d"/>
                  <path id="Trazado_105816" data-name="Trazado 105816" d="M374.374,286.378a1.5,1.5,0,0,0,1.363,0,.415.415,0,0,0,0-.787,1.511,1.511,0,0,0-1.363,0A.416.416,0,0,0,374.374,286.378Z" transform="translate(-369.594 -262.051)" fill="#2c323d"/>
                  <path id="Trazado_105817" data-name="Trazado 105817" d="M373.116,287.1a1.511,1.511,0,0,0,1.363,0,.415.415,0,0,0,0-.787,1.5,1.5,0,0,0-1.363,0C372.744,286.535,372.74,286.889,373.116,287.1Z" transform="translate(-372.836 -260.179)" fill="#2c323d"/>
                </g>
                <g id="Grupo_58611" data-name="Grupo 58611" transform="translate(0.782 0.451)">
                  <path id="Trazado_105818" data-name="Trazado 105818" d="M387.1,279.97a1.512,1.512,0,0,0,1.363,0,.415.415,0,0,0,0-.787,1.5,1.5,0,0,0-1.363,0A.416.416,0,0,0,387.1,279.97Z" transform="translate(-337.588 -279.018)" fill="#2c323d"/>
                  <path id="Trazado_105819" data-name="Trazado 105819" d="M385.847,280.691a1.5,1.5,0,0,0,1.363,0,.415.415,0,0,0,0-.787,1.511,1.511,0,0,0-1.363,0A.416.416,0,0,0,385.847,280.691Z" transform="translate(-340.812 -277.156)" fill="#2c323d"/>
                  <path id="Trazado_105820" data-name="Trazado 105820" d="M384.6,281.412a1.5,1.5,0,0,0,1.363,0c.376-.218.379-.572,0-.787a1.511,1.511,0,0,0-1.363,0A.415.415,0,0,0,384.6,281.412Z" transform="translate(-344.036 -275.295)" fill="#2c323d"/>
                  <path id="Trazado_105821" data-name="Trazado 105821" d="M383.346,282.136a1.512,1.512,0,0,0,1.363,0,.416.416,0,0,0,0-.787,1.512,1.512,0,0,0-1.363,0A.415.415,0,0,0,383.346,282.136Z" transform="translate(-347.26 -273.433)" fill="#2c323d"/>
                  <path id="Trazado_105822" data-name="Trazado 105822" d="M382.092,282.858a1.511,1.511,0,0,0,1.363,0,.416.416,0,0,0,.007-.787,1.5,1.5,0,0,0-1.363,0C381.72,282.289,381.717,282.643,382.092,282.858Z" transform="translate(-350.485 -271.572)" fill="#2c323d"/>
                  <path id="Trazado_105823" data-name="Trazado 105823" d="M380.842,283.582a1.511,1.511,0,0,0,1.363,0,.415.415,0,0,0,0-.787,1.5,1.5,0,0,0-1.363,0A.416.416,0,0,0,380.842,283.582Z" transform="translate(-353.709 -269.71)" fill="#2c323d"/>
                  <path id="Trazado_105824" data-name="Trazado 105824" d="M379.591,284.3a1.5,1.5,0,0,0,1.363,0,.416.416,0,0,0,0-.787,1.512,1.512,0,0,0-1.363,0A.416.416,0,0,0,379.591,284.3Z" transform="translate(-356.933 -267.849)" fill="#2c323d"/>
                  <path id="Trazado_105825" data-name="Trazado 105825" d="M378.341,285.025a1.5,1.5,0,0,0,1.363,0c.375-.218.379-.572,0-.787a1.5,1.5,0,0,0-1.363,0A.415.415,0,0,0,378.341,285.025Z" transform="translate(-360.157 -265.988)" fill="#2c323d"/>
                  <path id="Trazado_105826" data-name="Trazado 105826" d="M377.086,285.748a1.512,1.512,0,0,0,1.363,0c.379-.218.383-.569.007-.787a1.512,1.512,0,0,0-1.363,0A.416.416,0,0,0,377.086,285.748Z" transform="translate(-363.381 -264.125)" fill="#2c323d"/>
                  <path id="Trazado_105827" data-name="Trazado 105827" d="M375.837,286.47a1.5,1.5,0,0,0,1.363,0,.413.413,0,0,0,0-.783,1.5,1.5,0,0,0-1.363,0C375.465,285.9,375.461,286.255,375.837,286.47Z" transform="translate(-366.606 -262.264)" fill="#2c323d"/>
                  <path id="Trazado_105828" data-name="Trazado 105828" d="M374.586,287.194a1.511,1.511,0,0,0,1.363,0,.415.415,0,0,0,0-.787,1.5,1.5,0,0,0-1.363,0A.416.416,0,0,0,374.586,287.194Z" transform="translate(-369.83 -260.402)" fill="#2c323d"/>
                  <path id="Trazado_105829" data-name="Trazado 105829" d="M373.336,287.915a1.5,1.5,0,0,0,1.363,0,.416.416,0,0,0,0-.787,1.512,1.512,0,0,0-1.363,0A.415.415,0,0,0,373.336,287.915Z" transform="translate(-373.054 -258.541)" fill="#2c323d"/>
                </g>
              </g>
              <g id="Grupo_58615" data-name="Grupo 58615" transform="translate(78.221 45.161)">
                <g id="Grupo_58613" data-name="Grupo 58613">
                  <path id="Trazado_105830" data-name="Trazado 105830" d="M387.515,280.9a1.512,1.512,0,0,0,1.363,0,.416.416,0,0,0,.007-.787,1.5,1.5,0,0,0-1.363,0C387.143,280.327,387.14,280.678,387.515,280.9Z" transform="translate(-342.248 -279.944)" fill="#2c323d"/>
                  <path id="Trazado_105831" data-name="Trazado 105831" d="M386.26,281.621a1.511,1.511,0,0,0,1.363,0,.416.416,0,0,0,0-.787,1.512,1.512,0,0,0-1.363,0A.415.415,0,0,0,386.26,281.621Z" transform="translate(-345.488 -278.072)" fill="#2c323d"/>
                  <path id="Trazado_105832" data-name="Trazado 105832" d="M385,282.347a1.5,1.5,0,0,0,1.363,0,.416.416,0,0,0,0-.787,1.512,1.512,0,0,0-1.363,0A.415.415,0,0,0,385,282.347Z" transform="translate(-348.73 -276.201)" fill="#2c323d"/>
                  <path id="Trazado_105833" data-name="Trazado 105833" d="M383.743,283.073a1.5,1.5,0,0,0,1.363,0,.415.415,0,0,0,0-.787,1.512,1.512,0,0,0-1.363,0C383.371,282.5,383.367,282.859,383.743,283.073Z" transform="translate(-351.971 -274.33)" fill="#2c323d"/>
                  <path id="Trazado_105834" data-name="Trazado 105834" d="M382.485,283.8a1.5,1.5,0,0,0,1.363,0,.415.415,0,0,0,0-.787,1.5,1.5,0,0,0-1.363,0C382.113,283.23,382.109,283.584,382.485,283.8Z" transform="translate(-355.212 -272.459)" fill="#2c323d"/>
                  <path id="Trazado_105835" data-name="Trazado 105835" d="M381.225,284.524a1.5,1.5,0,0,0,1.363,0c.379-.218.383-.572.007-.787a1.5,1.5,0,0,0-1.363,0A.413.413,0,0,0,381.225,284.524Z" transform="translate(-358.453 -270.587)" fill="#2c323d"/>
                  <path id="Trazado_105836" data-name="Trazado 105836" d="M379.971,285.253a1.511,1.511,0,0,0,1.363,0,.416.416,0,0,0,0-.787,1.5,1.5,0,0,0-1.363,0A.415.415,0,0,0,379.971,285.253Z" transform="translate(-361.694 -268.716)" fill="#2c323d"/>
                  <path id="Trazado_105837" data-name="Trazado 105837" d="M378.712,285.978a1.511,1.511,0,0,0,1.363,0,.416.416,0,0,0,0-.787,1.512,1.512,0,0,0-1.363,0A.416.416,0,0,0,378.712,285.978Z" transform="translate(-364.935 -266.845)" fill="#2c323d"/>
                  <path id="Trazado_105838" data-name="Trazado 105838" d="M377.454,286.7a1.5,1.5,0,0,0,1.363,0,.415.415,0,0,0,0-.787,1.512,1.512,0,0,0-1.363,0A.416.416,0,0,0,377.454,286.7Z" transform="translate(-368.176 -264.974)" fill="#2c323d"/>
                  <path id="Trazado_105839" data-name="Trazado 105839" d="M376.2,287.43a1.512,1.512,0,0,0,1.363,0,.416.416,0,0,0,.007-.787,1.5,1.5,0,0,0-1.363,0C375.823,286.861,375.82,287.215,376.2,287.43Z" transform="translate(-371.418 -263.103)" fill="#2c323d"/>
                  <path id="Trazado_105840" data-name="Trazado 105840" d="M374.94,288.156a1.5,1.5,0,0,0,1.363,0c.375-.218.379-.572,0-.787a1.5,1.5,0,0,0-1.363,0A.415.415,0,0,0,374.94,288.156Z" transform="translate(-374.658 -261.232)" fill="#2c323d"/>
                </g>
                <g id="Grupo_58614" data-name="Grupo 58614" transform="translate(0.781 0.452)">
                  <path id="Trazado_105841" data-name="Trazado 105841" d="M388.922,281.021a1.512,1.512,0,0,0,1.363,0,.416.416,0,0,0,0-.787,1.512,1.512,0,0,0-1.363,0A.415.415,0,0,0,388.922,281.021Z" transform="translate(-339.41 -280.07)" fill="#2c323d"/>
                  <path id="Trazado_105842" data-name="Trazado 105842" d="M387.667,281.743a1.5,1.5,0,0,0,1.363,0,.413.413,0,0,0,.007-.783,1.5,1.5,0,0,0-1.363,0A.416.416,0,0,0,387.667,281.743Z" transform="translate(-342.634 -278.209)" fill="#2c323d"/>
                  <path id="Trazado_105843" data-name="Trazado 105843" d="M386.418,282.467a1.511,1.511,0,0,0,1.363,0,.415.415,0,0,0,0-.787,1.5,1.5,0,0,0-1.363,0A.416.416,0,0,0,386.418,282.467Z" transform="translate(-345.859 -276.348)" fill="#2c323d"/>
                  <path id="Trazado_105844" data-name="Trazado 105844" d="M385.167,283.188a1.5,1.5,0,0,0,1.363,0,.415.415,0,0,0,0-.787,1.511,1.511,0,0,0-1.363,0A.416.416,0,0,0,385.167,283.188Z" transform="translate(-349.082 -274.486)" fill="#2c323d"/>
                  <path id="Trazado_105845" data-name="Trazado 105845" d="M383.917,283.91a1.5,1.5,0,0,0,1.363,0c.376-.218.379-.572,0-.787a1.5,1.5,0,0,0-1.363,0A.415.415,0,0,0,383.917,283.91Z" transform="translate(-352.307 -272.625)" fill="#2c323d"/>
                  <path id="Trazado_105846" data-name="Trazado 105846" d="M382.666,284.633a1.512,1.512,0,0,0,1.363,0,.416.416,0,0,0,0-.787,1.512,1.512,0,0,0-1.363,0A.415.415,0,0,0,382.666,284.633Z" transform="translate(-355.531 -270.763)" fill="#2c323d"/>
                  <path id="Trazado_105847" data-name="Trazado 105847" d="M381.413,285.355a1.5,1.5,0,0,0,1.363,0,.415.415,0,0,0,0-.787,1.511,1.511,0,0,0-1.363,0C381.041,284.786,381.037,285.14,381.413,285.355Z" transform="translate(-358.756 -268.902)" fill="#2c323d"/>
                  <path id="Trazado_105848" data-name="Trazado 105848" d="M380.162,286.079a1.512,1.512,0,0,0,1.363,0,.415.415,0,0,0,0-.787,1.5,1.5,0,0,0-1.363,0A.416.416,0,0,0,380.162,286.079Z" transform="translate(-361.98 -267.04)" fill="#2c323d"/>
                  <path id="Trazado_105849" data-name="Trazado 105849" d="M378.912,286.8a1.5,1.5,0,0,0,1.363,0,.416.416,0,0,0,0-.787,1.512,1.512,0,0,0-1.363,0A.415.415,0,0,0,378.912,286.8Z" transform="translate(-365.204 -265.179)" fill="#2c323d"/>
                  <path id="Trazado_105850" data-name="Trazado 105850" d="M377.661,287.522a1.5,1.5,0,0,0,1.363,0c.376-.218.379-.572,0-.787a1.5,1.5,0,0,0-1.363,0A.415.415,0,0,0,377.661,287.522Z" transform="translate(-368.428 -263.318)" fill="#2c323d"/>
                  <path id="Trazado_105851" data-name="Trazado 105851" d="M376.406,288.245a1.512,1.512,0,0,0,1.363,0,.416.416,0,0,0,.007-.787,1.511,1.511,0,0,0-1.363,0A.416.416,0,0,0,376.406,288.245Z" transform="translate(-371.652 -261.455)" fill="#2c323d"/>
                  <path id="Trazado_105852" data-name="Trazado 105852" d="M375.157,288.967a1.5,1.5,0,0,0,1.363,0,.415.415,0,0,0,0-.787,1.512,1.512,0,0,0-1.363,0C374.785,288.4,374.781,288.752,375.157,288.967Z" transform="translate(-374.877 -259.594)" fill="#2c323d"/>
                </g>
              </g>
              <g id="Grupo_58617" data-name="Grupo 58617" transform="translate(84.739 48.926)">
                <g id="Grupo_58616" data-name="Grupo 58616">
                  <path id="Trazado_105853" data-name="Trazado 105853" d="M389.34,281.947a1.512,1.512,0,0,0,1.363,0,.416.416,0,0,0,0-.787,1.511,1.511,0,0,0-1.363,0A.415.415,0,0,0,389.34,281.947Z" transform="translate(-344.07 -280.996)" fill="#2c323d"/>
                  <path id="Trazado_105854" data-name="Trazado 105854" d="M388.081,282.673a1.511,1.511,0,0,0,1.363,0,.415.415,0,0,0,0-.787,1.511,1.511,0,0,0-1.363,0A.416.416,0,0,0,388.081,282.673Z" transform="translate(-347.311 -279.125)" fill="#2c323d"/>
                  <path id="Trazado_105855" data-name="Trazado 105855" d="M386.823,283.4a1.5,1.5,0,0,0,1.363,0,.415.415,0,0,0,0-.787,1.512,1.512,0,0,0-1.363,0C386.451,282.83,386.447,283.184,386.823,283.4Z" transform="translate(-350.552 -277.255)" fill="#2c323d"/>
                  <path id="Trazado_105856" data-name="Trazado 105856" d="M385.563,284.125a1.5,1.5,0,0,0,1.363,0c.379-.218.383-.572.007-.787a1.5,1.5,0,0,0-1.363,0A.416.416,0,0,0,385.563,284.125Z" transform="translate(-353.793 -275.383)" fill="#2c323d"/>
                  <path id="Trazado_105857" data-name="Trazado 105857" d="M384.308,284.85a1.5,1.5,0,0,0,1.363,0c.376-.218.379-.572,0-.787a1.511,1.511,0,0,0-1.363,0A.415.415,0,0,0,384.308,284.85Z" transform="translate(-357.034 -273.512)" fill="#2c323d"/>
                  <path id="Trazado_105858" data-name="Trazado 105858" d="M383.05,285.579a1.512,1.512,0,0,0,1.363,0,.416.416,0,0,0,0-.787,1.5,1.5,0,0,0-1.363,0A.416.416,0,0,0,383.05,285.579Z" transform="translate(-360.275 -271.641)" fill="#2c323d"/>
                  <path id="Trazado_105859" data-name="Trazado 105859" d="M381.792,286.3a1.512,1.512,0,0,0,1.363,0,.415.415,0,0,0,0-.787,1.512,1.512,0,0,0-1.363,0A.416.416,0,0,0,381.792,286.3Z" transform="translate(-363.517 -269.769)" fill="#2c323d"/>
                  <path id="Trazado_105860" data-name="Trazado 105860" d="M380.533,287.03a1.5,1.5,0,0,0,1.363,0,.416.416,0,0,0,.007-.787,1.512,1.512,0,0,0-1.363,0C380.161,286.461,380.158,286.812,380.533,287.03Z" transform="translate(-366.758 -267.898)" fill="#2c323d"/>
                  <path id="Trazado_105861" data-name="Trazado 105861" d="M379.278,287.756a1.5,1.5,0,0,0,1.363,0,.413.413,0,0,0,0-.783,1.5,1.5,0,0,0-1.363,0A.415.415,0,0,0,379.278,287.756Z" transform="translate(-369.998 -266.027)" fill="#2c323d"/>
                  <path id="Trazado_105862" data-name="Trazado 105862" d="M378.019,288.482a1.5,1.5,0,0,0,1.363,0c.376-.218.379-.572,0-.787a1.5,1.5,0,0,0-1.363,0A.415.415,0,0,0,378.019,288.482Z" transform="translate(-373.24 -264.156)" fill="#2c323d"/>
                  <path id="Trazado_105863" data-name="Trazado 105863" d="M376.761,289.21a1.511,1.511,0,0,0,1.363,0,.415.415,0,0,0,0-.787,1.5,1.5,0,0,0-1.363,0A.416.416,0,0,0,376.761,289.21Z" transform="translate(-376.481 -262.284)" fill="#2c323d"/>
                </g>
              </g>
            </g>
          </g>
        </g>
      </g>
    </g>
  </g>
</svg>
