<svg xmlns="http://www.w3.org/2000/svg" width="1240" height="673" viewBox="0 0 1240 673">
  <g id="Grupo_54430" data-name="Grupo 54430" transform="translate(-180 -2013)">
    <rect id="Rectángulo_5226" data-name="Rectángulo 5226" width="1240" height="236" transform="translate(180 2088)" fill="#ffca28" opacity="0.5"/>
    <rect id="Rectángulo_5238" data-name="Rectángulo 5238" width="1240" height="166" transform="translate(180 2520)" fill="#4dd0e1" opacity="0.5"/>
    <rect id="Rectángulo_5234" data-name="Rectángulo 5234" width="1240" height="103" transform="translate(180 2324)" fill="#039be5" opacity="0.5"/>
    <rect id="Rectángulo_5235" data-name="Rectángulo 5235" width="1240" height="93" transform="translate(180 2427)" fill="#ffa726" opacity="0.5"/>
    <rect id="Rectángulo_5227" data-name="Rectángulo 5227" width="382" height="64" transform="translate(201 2105)" fill="#fff"/>
    <rect id="Rectángulo_5230" data-name="Rectángulo 5230" width="382" height="64" transform="translate(201 2178)" fill="#fff"/>
    <rect id="Rectángulo_5239" data-name="Rectángulo 5239" width="382" height="64" transform="translate(201 2535)" fill="#fff"/>
    <rect id="Rectángulo_5241" data-name="Rectángulo 5241" width="382" height="137" transform="translate(1020 2535)" fill="#fff"/>
    <rect id="Rectángulo_5240" data-name="Rectángulo 5240" width="382" height="64" transform="translate(201 2608)" fill="#fff"/>
    <rect id="Rectángulo_5231" data-name="Rectángulo 5231" width="382" height="65" transform="translate(201 2250)" fill="#fff"/>
    <rect id="Rectángulo_5232" data-name="Rectángulo 5232" width="382" height="65" transform="translate(201 2343)" fill="#fff"/>
    <rect id="Rectángulo_5236" data-name="Rectángulo 5236" width="382" height="65" transform="translate(201 2436)" fill="#fff"/>
    <rect id="Rectángulo_5233" data-name="Rectángulo 5233" width="382" height="65" transform="translate(1020 2343)" fill="#fff"/>
    <rect id="Rectángulo_5237" data-name="Rectángulo 5237" width="382" height="65" transform="translate(1020 2436)" fill="#fff"/>
    <rect id="Rectángulo_5229" data-name="Rectángulo 5229" width="382" height="210" transform="translate(1017 2105)" fill="#fff"/>
    <path id="Trazado_105879" data-name="Trazado 105879" d="M-89.419,0h-3.408V-5.937h-5.049V0H-101.3V-14.219h3.428v5.645h5.049v-5.645h3.408Zm13.047-11.572H-80.64V0h-3.428V-11.572h-4.189v-2.646h11.885Zm12.764,0h-4.268V0H-71.3V-11.572h-4.189v-2.646h11.885Zm4.873,6.748V0h-3.428V-14.219h5.674a6.608,6.608,0,0,1,2.886.6,4.526,4.526,0,0,1,1.943,1.709,4.667,4.667,0,0,1,.688,2.515,4.114,4.114,0,0,1-1.489,3.325,6.179,6.179,0,0,1-4.087,1.245Zm0-2.646h2.246a2.118,2.118,0,0,0,1.519-.5,1.85,1.85,0,0,0,.522-1.406,2.287,2.287,0,0,0-.537-1.592,1.9,1.9,0,0,0-1.465-.605h-2.285Zm6.65,11.3-1.66-.781.332-.664A5.416,5.416,0,0,0-52.7-.039V-2.48h2.637l-.01,2.119a5.3,5.3,0,0,1-.576,2.285A5.806,5.806,0,0,1-52.085,3.828ZM-42.72,0V-14.219h4.58a6.737,6.737,0,0,1,3.389.854A6.006,6.006,0,0,1-32.4-10.952a7.283,7.283,0,0,1,.854,3.491v.654a7.325,7.325,0,0,1-.825,3.5A6.032,6.032,0,0,1-34.7-.884,6.589,6.589,0,0,1-38.042,0Zm3.428-11.572v8.936H-38.1a2.666,2.666,0,0,0,2.266-1.05,5.145,5.145,0,0,0,.791-3.12v-.615a5.1,5.1,0,0,0-.791-3.105,2.713,2.713,0,0,0-2.3-1.045ZM-17.915,0h-3.408l-5.039-8.848V0H-29.79V-14.219h3.428l5.029,8.848v-8.848h3.418Zm9.5-3.779a1.408,1.408,0,0,0-.532-1.172,6.615,6.615,0,0,0-1.87-.869A17.942,17.942,0,0,1-13-6.689q-2.764-1.357-2.764-3.73a3.345,3.345,0,0,1,.688-2.085,4.453,4.453,0,0,1,1.948-1.406,7.582,7.582,0,0,1,2.832-.5,6.632,6.632,0,0,1,2.749.547,4.352,4.352,0,0,1,1.89,1.558A4.068,4.068,0,0,1-4.985-10H-8.4a1.719,1.719,0,0,0-.532-1.348,2.075,2.075,0,0,0-1.44-.479,2.339,2.339,0,0,0-1.45.405,1.243,1.243,0,0,0-.532,1.03,1.252,1.252,0,0,0,.586.991,7.389,7.389,0,0,0,2.061.918A12.623,12.623,0,0,1-7.29-7.461,4.07,4.07,0,0,1-4.985-3.8,3.472,3.472,0,0,1-6.392-.869,6.255,6.255,0,0,1-10.249.2a7.653,7.653,0,0,1-3.13-.62,4.719,4.719,0,0,1-2.109-1.7A4.428,4.428,0,0,1-16.2-4.609h3.438a2.181,2.181,0,0,0,.591,1.685,2.793,2.793,0,0,0,1.919.542,2.206,2.206,0,0,0,1.343-.366A1.209,1.209,0,0,0-8.413-3.779Zm6.191,7.607-1.66-.781.332-.664A5.416,5.416,0,0,0-2.837-.039V-2.48H-.2L-.21-.361A5.3,5.3,0,0,1-.786,1.924,5.806,5.806,0,0,1-2.222,3.828ZM7.144,0V-14.219h4.58a6.737,6.737,0,0,1,3.389.854,6.006,6.006,0,0,1,2.349,2.412,7.283,7.283,0,0,1,.854,3.491v.654a7.325,7.325,0,0,1-.825,3.5A6.032,6.032,0,0,1,15.166-.884,6.589,6.589,0,0,1,11.821,0Zm3.428-11.572v8.936h1.191a2.666,2.666,0,0,0,2.266-1.05,5.145,5.145,0,0,0,.791-3.12v-.615a5.1,5.1,0,0,0-.791-3.105,2.713,2.713,0,0,0-2.3-1.045ZM31.958,0H28.55V-5.937H23.5V0H20.073V-14.219H23.5v5.645H28.55v-5.645h3.408ZM45.63-4.814a5.193,5.193,0,0,1-.8,2.622A4.833,4.833,0,0,1,42.773-.43,7,7,0,0,1,39.751.2a5.584,5.584,0,0,1-4.414-1.826,7.54,7.54,0,0,1-1.611-5.156v-.7a8.607,8.607,0,0,1,.728-3.657,5.513,5.513,0,0,1,2.095-2.422,5.844,5.844,0,0,1,3.164-.854,6.129,6.129,0,0,1,4.16,1.362,5.383,5.383,0,0,1,1.787,3.755H42.241a2.547,2.547,0,0,0-.654-1.865,2.691,2.691,0,0,0-1.875-.566,2.048,2.048,0,0,0-1.875.957,6.151,6.151,0,0,0-.625,3.057v1.006a6.806,6.806,0,0,0,.571,3.252,2.091,2.091,0,0,0,1.968.977,2.632,2.632,0,0,0,1.807-.557,2.363,2.363,0,0,0,.664-1.768Zm5.049-.01V0H47.251V-14.219h5.674a6.608,6.608,0,0,1,2.886.6,4.526,4.526,0,0,1,1.943,1.709,4.667,4.667,0,0,1,.688,2.515,4.114,4.114,0,0,1-1.489,3.325,6.179,6.179,0,0,1-4.087,1.245Zm0-2.646h2.246a2.118,2.118,0,0,0,1.519-.5,1.85,1.85,0,0,0,.522-1.406,2.287,2.287,0,0,0-.537-1.592,1.9,1.9,0,0,0-1.465-.605H50.679Zm6.65,11.3-1.66-.781L56,2.383a5.416,5.416,0,0,0,.713-2.422V-2.48h2.637l-.01,2.119a5.3,5.3,0,0,1-.576,2.285A5.806,5.806,0,0,1,57.329,3.828Zm18.32-9.492H70.122V0H66.694V-14.219h9.512v2.646H70.122V-8.3h5.527Zm13.34-5.908H84.722V0H81.294V-11.572H77.1v-2.646H88.989Zm4.873,6.748V0H90.435V-14.219h5.674a6.608,6.608,0,0,1,2.886.6,4.526,4.526,0,0,1,1.943,1.709,4.667,4.667,0,0,1,.688,2.515,4.114,4.114,0,0,1-1.489,3.325A6.179,6.179,0,0,1,96.05-4.824Zm0-2.646h2.246a2.118,2.118,0,0,0,1.519-.5,1.85,1.85,0,0,0,.522-1.406,2.287,2.287,0,0,0-.537-1.592,1.9,1.9,0,0,0-1.465-.605H93.862Z" transform="translate(800 2217)" fill="#12263f"/>
    <path id="Trazado_105878" data-name="Trazado 105878" d="M-72.417-4.814a5.193,5.193,0,0,1-.8,2.622A4.833,4.833,0,0,1-75.273-.43,7,7,0,0,1-78.3.2,5.584,5.584,0,0,1-82.71-1.631a7.54,7.54,0,0,1-1.611-5.156v-.7a8.607,8.607,0,0,1,.728-3.657A5.513,5.513,0,0,1-81.5-13.569a5.844,5.844,0,0,1,3.164-.854,6.129,6.129,0,0,1,4.16,1.362,5.383,5.383,0,0,1,1.787,3.755h-3.418a2.547,2.547,0,0,0-.654-1.865,2.691,2.691,0,0,0-1.875-.566,2.048,2.048,0,0,0-1.875.957,6.151,6.151,0,0,0-.625,3.057v1.006a6.806,6.806,0,0,0,.571,3.252A2.091,2.091,0,0,0-78.3-2.49a2.632,2.632,0,0,0,1.807-.557,2.363,2.363,0,0,0,.664-1.768ZM-65,0a3.716,3.716,0,0,1-.312-.947A3.06,3.06,0,0,1-67.847.2a3.749,3.749,0,0,1-2.539-.9,2.875,2.875,0,0,1-1.045-2.271,2.955,2.955,0,0,1,1.27-2.6,6.468,6.468,0,0,1,3.691-.879h1.016v-.559q0-1.462-1.26-1.462a1.03,1.03,0,0,0-1.172,1.158h-3.291a2.95,2.95,0,0,1,1.3-2.487,5.479,5.479,0,0,1,3.325-.956,4.8,4.8,0,0,1,3.193.986,3.429,3.429,0,0,1,1.2,2.705v4.678A4.79,4.79,0,0,0-61.7-.166V0Zm-2.061-2.148a1.836,1.836,0,0,0,1.021-.264,1.653,1.653,0,0,0,.581-.6V-4.7h-.957q-1.719,0-1.719,1.543a.942.942,0,0,0,.3.728A1.1,1.1,0,0,0-67.056-2.148Zm16.533-3.057a6.372,6.372,0,0,1-1.108,3.931A3.554,3.554,0,0,1-54.624.2,3.046,3.046,0,0,1-57.017-.869V4.063h-3.291V-10.566h3.076l.1.977a3.046,3.046,0,0,1,2.49-1.172,3.582,3.582,0,0,1,3.037,1.44,6.45,6.45,0,0,1,1.084,3.96Zm-3.291-.205q0-2.812-1.641-2.812a1.549,1.549,0,0,0-1.562.84v4.16a1.6,1.6,0,0,0,1.582.879q1.572,0,1.621-2.715ZM-43.12,0a3.716,3.716,0,0,1-.312-.947A3.06,3.06,0,0,1-45.972.2a3.749,3.749,0,0,1-2.539-.9,2.875,2.875,0,0,1-1.045-2.271,2.955,2.955,0,0,1,1.27-2.6,6.468,6.468,0,0,1,3.691-.879h1.016v-.559q0-1.462-1.26-1.462a1.03,1.03,0,0,0-1.172,1.158H-49.3A2.95,2.95,0,0,1-48-9.806a5.479,5.479,0,0,1,3.325-.956,4.8,4.8,0,0,1,3.193.986,3.429,3.429,0,0,1,1.2,2.705v4.678a4.79,4.79,0,0,0,.449,2.227V0Zm-2.061-2.148a1.836,1.836,0,0,0,1.021-.264,1.653,1.653,0,0,0,.581-.6V-4.7h-.957q-1.719,0-1.719,1.543a.942.942,0,0,0,.3.728A1.1,1.1,0,0,0-45.181-2.148Zm11.289-3.213a6.455,6.455,0,0,1,1.084-3.955,3.568,3.568,0,0,1,3.027-1.445A3.035,3.035,0,0,1-27.4-9.648V-15h3.3V0h-2.959l-.166-1.133A3.116,3.116,0,0,1-29.8.2,3.562,3.562,0,0,1-32.788-1.25,6.659,6.659,0,0,1-33.892-5.361Zm3.291.205q0,2.813,1.641,2.813A1.62,1.62,0,0,0-27.4-3.262V-7.285a1.576,1.576,0,0,0-1.543-.937q-1.523,0-1.65,2.461ZM-17.114.2a5.432,5.432,0,0,1-3.936-1.45,5.008,5.008,0,0,1-1.5-3.774V-5.3a6.489,6.489,0,0,1,.6-2.861A4.395,4.395,0,0,1-20.2-10.083a5.292,5.292,0,0,1,2.734-.679A4.574,4.574,0,0,1-13.95-9.38a5.43,5.43,0,0,1,1.289,3.853v1.279H-19.2a2.372,2.372,0,0,0,.771,1.4,2.3,2.3,0,0,0,1.543.508,2.958,2.958,0,0,0,2.441-1.094l1.5,1.777A4.2,4.2,0,0,1-14.687-.308,5.891,5.891,0,0,1-17.114.2Zm-.371-8.418q-1.445,0-1.719,1.914h3.32v-.254a1.63,1.63,0,0,0-.4-1.226A1.593,1.593,0,0,0-17.485-8.223ZM-.405,0A3.716,3.716,0,0,1-.718-.947,3.06,3.06,0,0,1-3.257.2,3.749,3.749,0,0,1-5.8-.708,2.875,2.875,0,0,1-6.841-2.979a2.955,2.955,0,0,1,1.27-2.6A6.468,6.468,0,0,1-1.88-6.455H-.864v-.559q0-1.462-1.26-1.462A1.03,1.03,0,0,0-3.3-7.319H-6.587a2.95,2.95,0,0,1,1.3-2.487,5.479,5.479,0,0,1,3.325-.956,4.8,4.8,0,0,1,3.193.986,3.429,3.429,0,0,1,1.2,2.705v4.678A4.79,4.79,0,0,0,2.886-.166V0ZM-2.466-2.148a1.836,1.836,0,0,0,1.021-.264,1.653,1.653,0,0,0,.581-.6V-4.7h-.957Q-3.54-4.7-3.54-3.154a.942.942,0,0,0,.3.728A1.1,1.1,0,0,0-2.466-2.148ZM14.067-5.205a6.372,6.372,0,0,1-1.108,3.931A3.554,3.554,0,0,1,9.966.2,3.046,3.046,0,0,1,7.573-.869V4.063H4.282V-10.566H7.358l.1.977a3.046,3.046,0,0,1,2.49-1.172,3.582,3.582,0,0,1,3.037,1.44,6.45,6.45,0,0,1,1.084,3.96ZM10.776-5.41q0-2.812-1.641-2.812a1.549,1.549,0,0,0-1.562.84v4.16a1.6,1.6,0,0,0,1.582.879q1.572,0,1.621-2.715ZM18.989,0h-3.3V-15h3.3Zm5.5,0h-3.3V-10.566h3.3Zm-3.5-13.3A1.482,1.482,0,0,1,21.5-14.46a1.909,1.909,0,0,1,1.318-.452,1.909,1.909,0,0,1,1.318.452,1.482,1.482,0,0,1,.508,1.159,1.482,1.482,0,0,1-.508,1.159,1.909,1.909,0,0,1-1.318.452,1.909,1.909,0,0,1-1.318-.452A1.482,1.482,0,0,1,20.991-13.3Zm9.99,10.957a1.464,1.464,0,0,0,1.074-.376,1.379,1.379,0,0,0,.371-1.05h3.086A3.653,3.653,0,0,1,34.268-.918,4.631,4.631,0,0,1,31.06.2,4.689,4.689,0,0,1,27.427-1.25a5.7,5.7,0,0,1-1.328-4v-.137a6.436,6.436,0,0,1,.591-2.827,4.3,4.3,0,0,1,1.7-1.885,5.081,5.081,0,0,1,2.637-.659A4.573,4.573,0,0,1,34.3-9.619a4.053,4.053,0,0,1,1.211,3.1H32.427a1.807,1.807,0,0,0-.4-1.26,1.382,1.382,0,0,0-1.074-.439q-1.279,0-1.494,1.631a11.508,11.508,0,0,0-.068,1.426,4.52,4.52,0,0,0,.381,2.207A1.319,1.319,0,0,0,30.981-2.344ZM42.856,0a3.716,3.716,0,0,1-.312-.947A3.06,3.06,0,0,1,40,.2a3.749,3.749,0,0,1-2.539-.9,2.875,2.875,0,0,1-1.045-2.271,2.955,2.955,0,0,1,1.27-2.6,6.468,6.468,0,0,1,3.691-.879H42.4v-.559q0-1.462-1.26-1.462a1.03,1.03,0,0,0-1.172,1.158H36.675a2.95,2.95,0,0,1,1.3-2.487,5.479,5.479,0,0,1,3.325-.956,4.8,4.8,0,0,1,3.193.986A3.429,3.429,0,0,1,45.7-7.07v4.678a4.79,4.79,0,0,0,.449,2.227V0ZM40.8-2.148a1.836,1.836,0,0,0,1.021-.264,1.653,1.653,0,0,0,.581-.6V-4.7H41.44q-1.719,0-1.719,1.543a.942.942,0,0,0,.3.728A1.1,1.1,0,0,0,40.8-2.148Zm11.191-.2a1.464,1.464,0,0,0,1.074-.376,1.379,1.379,0,0,0,.371-1.05h3.086A3.653,3.653,0,0,1,55.273-.918,4.631,4.631,0,0,1,52.065.2,4.689,4.689,0,0,1,48.433-1.25a5.7,5.7,0,0,1-1.328-4v-.137A6.436,6.436,0,0,1,47.7-8.218,4.3,4.3,0,0,1,49.4-10.1a5.081,5.081,0,0,1,2.637-.659,4.573,4.573,0,0,1,3.271,1.143,4.053,4.053,0,0,1,1.211,3.1H53.433a1.807,1.807,0,0,0-.4-1.26,1.382,1.382,0,0,0-1.074-.439q-1.279,0-1.494,1.631A11.507,11.507,0,0,0,50.4-5.166a4.52,4.52,0,0,0,.381,2.207A1.319,1.319,0,0,0,51.987-2.344ZM61.382,0h-3.3V-10.566h3.3Zm-3.5-13.3a1.482,1.482,0,0,1,.508-1.159,1.909,1.909,0,0,1,1.318-.452,1.909,1.909,0,0,1,1.318.452,1.482,1.482,0,0,1,.508,1.159,1.482,1.482,0,0,1-.508,1.159,1.909,1.909,0,0,1-1.318.452,1.909,1.909,0,0,1-1.318-.452A1.482,1.482,0,0,1,57.886-13.3Zm5.107,7.92A6.236,6.236,0,0,1,63.608-8.2a4.4,4.4,0,0,1,1.768-1.9,5.323,5.323,0,0,1,2.705-.664,4.858,4.858,0,0,1,3.74,1.47,5.64,5.64,0,0,1,1.367,4v.117a5.472,5.472,0,0,1-1.372,3.921A4.871,4.871,0,0,1,68.1.2a4.927,4.927,0,0,1-3.623-1.353A5.29,5.29,0,0,1,63-4.824Zm3.291.205a3.932,3.932,0,0,0,.459,2.148,1.529,1.529,0,0,0,1.357.684q1.758,0,1.8-2.705v-.332q0-2.842-1.816-2.842-1.65,0-1.787,2.451ZM68.53-15h3.477l-2.715,3.066-2.686,0Zm9.131,4.434.107,1.24a3.583,3.583,0,0,1,3.018-1.436,3.015,3.015,0,0,1,2.466.986A4.7,4.7,0,0,1,84.1-6.807V0H80.8V-6.67a1.783,1.783,0,0,0-.322-1.177A1.491,1.491,0,0,0,79.3-8.223a1.569,1.569,0,0,0-1.436.762V0H74.575V-10.566Z" transform="translate(1208 2218)" fill="#12263f"/>
    <path id="Trazado_105885" data-name="Trazado 105885" d="M-73.579-4.814a5.193,5.193,0,0,1-.8,2.622A4.833,4.833,0,0,1-76.436-.43,7,7,0,0,1-79.458.2a5.584,5.584,0,0,1-4.414-1.826,7.54,7.54,0,0,1-1.611-5.156v-.7a8.607,8.607,0,0,1,.728-3.657,5.513,5.513,0,0,1,2.095-2.422,5.844,5.844,0,0,1,3.164-.854,6.129,6.129,0,0,1,4.16,1.362A5.383,5.383,0,0,1-73.55-9.307h-3.418a2.547,2.547,0,0,0-.654-1.865,2.691,2.691,0,0,0-1.875-.566,2.048,2.048,0,0,0-1.875.957A6.151,6.151,0,0,0-82-7.725v1.006a6.806,6.806,0,0,0,.571,3.252,2.091,2.091,0,0,0,1.968.977,2.632,2.632,0,0,0,1.807-.557,2.363,2.363,0,0,0,.664-1.768ZM-66.157,0a3.716,3.716,0,0,1-.312-.947A3.06,3.06,0,0,1-69.009.2a3.749,3.749,0,0,1-2.539-.9,2.875,2.875,0,0,1-1.045-2.271,2.955,2.955,0,0,1,1.27-2.6,6.468,6.468,0,0,1,3.691-.879h1.016v-.559q0-1.462-1.26-1.462a1.03,1.03,0,0,0-1.172,1.158h-3.291a2.95,2.95,0,0,1,1.3-2.487,5.479,5.479,0,0,1,3.325-.956,4.8,4.8,0,0,1,3.193.986,3.429,3.429,0,0,1,1.2,2.705v4.678a4.79,4.79,0,0,0,.449,2.227V0Zm-2.061-2.148A1.836,1.836,0,0,0-67.2-2.412a1.653,1.653,0,0,0,.581-.6V-4.7h-.957q-1.719,0-1.719,1.543a.942.942,0,0,0,.3.728A1.1,1.1,0,0,0-68.218-2.148Zm16.533-3.057a6.372,6.372,0,0,1-1.108,3.931A3.554,3.554,0,0,1-55.786.2,3.046,3.046,0,0,1-58.179-.869V4.063H-61.47V-10.566h3.076l.1.977a3.046,3.046,0,0,1,2.49-1.172,3.582,3.582,0,0,1,3.037,1.44,6.45,6.45,0,0,1,1.084,3.96Zm-3.291-.205q0-2.812-1.641-2.812a1.549,1.549,0,0,0-1.562.84v4.16a1.6,1.6,0,0,0,1.582.879q1.572,0,1.621-2.715ZM-44.282,0a3.716,3.716,0,0,1-.312-.947A3.06,3.06,0,0,1-47.134.2a3.749,3.749,0,0,1-2.539-.9,2.875,2.875,0,0,1-1.045-2.271,2.955,2.955,0,0,1,1.27-2.6,6.468,6.468,0,0,1,3.691-.879h1.016v-.559q0-1.462-1.26-1.462a1.03,1.03,0,0,0-1.172,1.158h-3.291a2.95,2.95,0,0,1,1.3-2.487,5.479,5.479,0,0,1,3.325-.956,4.8,4.8,0,0,1,3.193.986,3.429,3.429,0,0,1,1.2,2.705v4.678a4.79,4.79,0,0,0,.449,2.227V0Zm-2.061-2.148a1.836,1.836,0,0,0,1.021-.264,1.653,1.653,0,0,0,.581-.6V-4.7H-45.7q-1.719,0-1.719,1.543a.942.942,0,0,0,.3.728A1.1,1.1,0,0,0-46.343-2.148Zm11.289-3.213A6.455,6.455,0,0,1-33.97-9.316a3.568,3.568,0,0,1,3.027-1.445A3.035,3.035,0,0,1-28.56-9.648V-15h3.3V0h-2.959l-.166-1.133A3.116,3.116,0,0,1-30.962.2,3.562,3.562,0,0,1-33.95-1.25,6.659,6.659,0,0,1-35.054-5.361Zm3.291.205q0,2.813,1.641,2.813a1.62,1.62,0,0,0,1.563-.918V-7.285A1.576,1.576,0,0,0-30.1-8.223q-1.523,0-1.65,2.461ZM-18.276.2a5.432,5.432,0,0,1-3.936-1.45,5.008,5.008,0,0,1-1.5-3.774V-5.3a6.489,6.489,0,0,1,.6-2.861,4.395,4.395,0,0,1,1.753-1.919,5.292,5.292,0,0,1,2.734-.679A4.574,4.574,0,0,1-15.112-9.38a5.43,5.43,0,0,1,1.289,3.853v1.279h-6.543a2.372,2.372,0,0,0,.771,1.4,2.3,2.3,0,0,0,1.543.508A2.958,2.958,0,0,0-15.61-3.437l1.5,1.777A4.2,4.2,0,0,1-15.85-.308,5.891,5.891,0,0,1-18.276.2Zm-.371-8.418q-1.445,0-1.719,1.914h3.32v-.254a1.63,1.63,0,0,0-.4-1.226A1.593,1.593,0,0,0-18.647-8.223Zm14.961-4.971v2.627h1.738v2.285H-3.687v4.834a1.234,1.234,0,0,0,.215.83,1.152,1.152,0,0,0,.85.234,4.828,4.828,0,0,0,.82-.059V-.088A6.074,6.074,0,0,1-3.657.2a3.448,3.448,0,0,1-2.51-.8,3.282,3.282,0,0,1-.811-2.432V-8.281H-8.325v-2.285h1.348v-2.627ZM5.737-7.588,4.653-7.666a1.947,1.947,0,0,0-1.992.977V0H-.63V-10.566H2.456l.107,1.357a2.548,2.548,0,0,1,2.314-1.553,3.209,3.209,0,0,1,.918.117ZM12.583,0a3.716,3.716,0,0,1-.312-.947A3.06,3.06,0,0,1,9.731.2a3.749,3.749,0,0,1-2.539-.9A2.875,2.875,0,0,1,6.147-2.979a2.955,2.955,0,0,1,1.27-2.6,6.468,6.468,0,0,1,3.691-.879h1.016v-.559q0-1.462-1.26-1.462A1.03,1.03,0,0,0,9.692-7.319H6.4a2.95,2.95,0,0,1,1.3-2.487,5.479,5.479,0,0,1,3.325-.956,4.8,4.8,0,0,1,3.193.986,3.429,3.429,0,0,1,1.2,2.705v4.678a4.79,4.79,0,0,0,.449,2.227V0ZM10.522-2.148a1.836,1.836,0,0,0,1.021-.264,1.653,1.653,0,0,0,.581-.6V-4.7h-.957q-1.719,0-1.719,1.543a.942.942,0,0,0,.3.728A1.1,1.1,0,0,0,10.522-2.148Zm9.746-8.418.107,1.24a3.583,3.583,0,0,1,3.018-1.436,3.015,3.015,0,0,1,2.466.986A4.7,4.7,0,0,1,26.7-6.807V0H23.4V-6.67a1.783,1.783,0,0,0-.322-1.177,1.491,1.491,0,0,0-1.172-.376,1.569,1.569,0,0,0-1.436.762V0H17.183V-10.566Zm13.789,7.6a.76.76,0,0,0-.439-.674,6.685,6.685,0,0,0-1.67-.527,7.615,7.615,0,0,1-2.031-.718A3.4,3.4,0,0,1,28.7-5.967a2.577,2.577,0,0,1-.42-1.455,2.92,2.92,0,0,1,1.2-2.4,4.948,4.948,0,0,1,3.145-.942,5.482,5.482,0,0,1,3.359.947,2.962,2.962,0,0,1,1.27,2.49h-3.3q0-1.27-1.338-1.27a1.326,1.326,0,0,0-.869.288.892.892,0,0,0-.352.718.819.819,0,0,0,.43.713,4.06,4.06,0,0,0,1.372.449,11.857,11.857,0,0,1,1.655.42,3.007,3.007,0,0,1,2.383,2.939A2.767,2.767,0,0,1,35.947-.713,5.632,5.632,0,0,1,32.622.2,5.747,5.747,0,0,1,30.2-.293a4.05,4.05,0,0,1-1.66-1.328,3.007,3.007,0,0,1-.6-1.768h3.076a1.272,1.272,0,0,0,.488,1.069,2.009,2.009,0,0,0,1.2.337,1.58,1.58,0,0,0,1.011-.273A.875.875,0,0,0,34.058-2.969ZM48.579-5.205a6.372,6.372,0,0,1-1.108,3.931A3.554,3.554,0,0,1,44.478.2,3.046,3.046,0,0,1,42.085-.869V4.063H38.794V-10.566H41.87l.1.977a3.046,3.046,0,0,1,2.49-1.172A3.582,3.582,0,0,1,47.5-9.321a6.45,6.45,0,0,1,1.084,3.96ZM45.288-5.41q0-2.812-1.641-2.812a1.549,1.549,0,0,0-1.562.84v4.16a1.6,1.6,0,0,0,1.582.879q1.572,0,1.621-2.715Zm4.326.029A6.236,6.236,0,0,1,50.229-8.2,4.4,4.4,0,0,1,52-10.1a5.323,5.323,0,0,1,2.705-.664,4.858,4.858,0,0,1,3.74,1.47,5.64,5.64,0,0,1,1.367,4v.117a5.472,5.472,0,0,1-1.372,3.921A4.871,4.871,0,0,1,54.722.2,4.927,4.927,0,0,1,51.1-1.157a5.29,5.29,0,0,1-1.475-3.667Zm3.291.205a3.932,3.932,0,0,0,.459,2.148,1.529,1.529,0,0,0,1.357.684q1.758,0,1.8-2.705v-.332q0-2.842-1.816-2.842-1.65,0-1.787,2.451ZM67.651-7.588l-1.084-.078a1.947,1.947,0,0,0-1.992.977V0H61.284V-10.566H64.37l.107,1.357a2.548,2.548,0,0,1,2.314-1.553,3.209,3.209,0,0,1,.918.117Zm5.508-5.605v2.627H74.9v2.285H73.159v4.834a1.234,1.234,0,0,0,.215.83,1.152,1.152,0,0,0,.85.234,4.828,4.828,0,0,0,.82-.059V-.088A6.074,6.074,0,0,1,73.188.2a3.448,3.448,0,0,1-2.51-.8,3.282,3.282,0,0,1-.811-2.432V-8.281H68.521v-2.285h1.348v-2.627ZM81.3.2a5.432,5.432,0,0,1-3.936-1.45,5.008,5.008,0,0,1-1.5-3.774V-5.3a6.489,6.489,0,0,1,.6-2.861,4.395,4.395,0,0,1,1.753-1.919,5.292,5.292,0,0,1,2.734-.679A4.574,4.574,0,0,1,84.468-9.38a5.43,5.43,0,0,1,1.289,3.853v1.279H79.214a2.372,2.372,0,0,0,.771,1.4,2.3,2.3,0,0,0,1.543.508A2.958,2.958,0,0,0,83.97-3.437l1.5,1.777A4.2,4.2,0,0,1,83.73-.308,5.891,5.891,0,0,1,81.3.2Zm-.371-8.418q-1.445,0-1.719,1.914h3.32v-.254a1.63,1.63,0,0,0-.4-1.226A1.593,1.593,0,0,0,80.933-8.223Z" transform="translate(1208 2384)" fill="#12263f"/>
    <path id="Trazado_105886" data-name="Trazado 105886" d="M-31.113,0h-3.418V-14.219h3.418Zm5.254-10.566.107,1.24a3.583,3.583,0,0,1,3.018-1.436,3.015,3.015,0,0,1,2.466.986,4.7,4.7,0,0,1,.845,2.969V0h-3.3V-6.67a1.783,1.783,0,0,0-.322-1.177,1.491,1.491,0,0,0-1.172-.376,1.569,1.569,0,0,0-1.436.762V0h-3.291V-10.566Zm12.09-2.627v2.627h1.738v2.285H-13.77v4.834a1.234,1.234,0,0,0,.215.83,1.152,1.152,0,0,0,.85.234,4.828,4.828,0,0,0,.82-.059V-.088A6.074,6.074,0,0,1-13.74.2a3.448,3.448,0,0,1-2.51-.8,3.282,3.282,0,0,1-.811-2.432V-8.281h-1.348v-2.285h1.348v-2.627ZM-5.625.2a5.432,5.432,0,0,1-3.936-1.45,5.008,5.008,0,0,1-1.5-3.774V-5.3a6.489,6.489,0,0,1,.6-2.861,4.395,4.395,0,0,1,1.753-1.919,5.292,5.292,0,0,1,2.734-.679A4.574,4.574,0,0,1-2.461-9.38,5.43,5.43,0,0,1-1.172-5.527v1.279H-7.715a2.372,2.372,0,0,0,.771,1.4A2.3,2.3,0,0,0-5.4-2.344,2.958,2.958,0,0,0-2.959-3.437l1.5,1.777A4.2,4.2,0,0,1-3.2-.308,5.891,5.891,0,0,1-5.625.2ZM-6-8.223q-1.445,0-1.719,1.914h3.32v-.254a1.63,1.63,0,0,0-.4-1.226A1.593,1.593,0,0,0-6-8.223Zm12.539.635L5.459-7.666a1.947,1.947,0,0,0-1.992.977V0H.176V-10.566H3.262l.107,1.357a2.548,2.548,0,0,1,2.314-1.553,3.209,3.209,0,0,1,.918.117Zm4.209-2.979.107,1.24a3.583,3.583,0,0,1,3.018-1.436,3.015,3.015,0,0,1,2.466.986,4.7,4.7,0,0,1,.845,2.969V0h-3.3V-6.67a1.783,1.783,0,0,0-.322-1.177,1.491,1.491,0,0,0-1.172-.376,1.569,1.569,0,0,0-1.436.762V0H7.666V-10.566ZM24.121.2a5.432,5.432,0,0,1-3.936-1.45,5.008,5.008,0,0,1-1.5-3.774V-5.3a6.489,6.489,0,0,1,.6-2.861,4.395,4.395,0,0,1,1.753-1.919,5.292,5.292,0,0,1,2.734-.679A4.574,4.574,0,0,1,27.285-9.38a5.43,5.43,0,0,1,1.289,3.853v1.279H22.031a2.372,2.372,0,0,0,.771,1.4,2.3,2.3,0,0,0,1.543.508,2.958,2.958,0,0,0,2.441-1.094l1.5,1.777A4.2,4.2,0,0,1,26.548-.308,5.891,5.891,0,0,1,24.121.2ZM23.75-8.223q-1.445,0-1.719,1.914h3.32v-.254a1.63,1.63,0,0,0-.4-1.226A1.593,1.593,0,0,0,23.75-8.223Zm9.98-4.971v2.627h1.738v2.285H33.73v4.834a1.234,1.234,0,0,0,.215.83,1.152,1.152,0,0,0,.85.234,4.828,4.828,0,0,0,.82-.059V-.088A6.074,6.074,0,0,1,33.76.2a3.448,3.448,0,0,1-2.51-.8,3.282,3.282,0,0,1-.811-2.432V-8.281H29.092v-2.285h1.348v-2.627Z" transform="translate(1211 2477)" fill="#12263f"/>
    <path id="Trazado_105892" data-name="Trazado 105892" d="M-59.834-2.656h-4.7L-65.352,0h-3.662L-63.8-14.219h3.223L-55.322,0H-59ZM-63.711-5.3h3.057l-1.533-4.932Zm13.74,2.959A1.464,1.464,0,0,0-48.9-2.72a1.379,1.379,0,0,0,.371-1.05h3.086A3.653,3.653,0,0,1-46.685-.918,4.631,4.631,0,0,1-49.893.2,4.689,4.689,0,0,1-53.525-1.25a5.7,5.7,0,0,1-1.328-4v-.137a6.436,6.436,0,0,1,.591-2.827,4.3,4.3,0,0,1,1.7-1.885,5.081,5.081,0,0,1,2.637-.659A4.573,4.573,0,0,1-46.65-9.619a4.053,4.053,0,0,1,1.211,3.1h-3.086a1.807,1.807,0,0,0-.4-1.26A1.382,1.382,0,0,0-50-8.223q-1.279,0-1.494,1.631a11.507,11.507,0,0,0-.068,1.426,4.52,4.52,0,0,0,.381,2.207A1.319,1.319,0,0,0-49.971-2.344Zm10.391,0a1.464,1.464,0,0,0,1.074-.376,1.379,1.379,0,0,0,.371-1.05h3.086A3.653,3.653,0,0,1-36.294-.918,4.631,4.631,0,0,1-39.5.2,4.689,4.689,0,0,1-43.135-1.25a5.7,5.7,0,0,1-1.328-4v-.137a6.436,6.436,0,0,1,.591-2.827,4.3,4.3,0,0,1,1.7-1.885,5.081,5.081,0,0,1,2.637-.659A4.573,4.573,0,0,1-36.26-9.619a4.053,4.053,0,0,1,1.211,3.1h-3.086a1.807,1.807,0,0,0-.4-1.26,1.382,1.382,0,0,0-1.074-.439q-1.279,0-1.494,1.631a11.507,11.507,0,0,0-.068,1.426,4.52,4.52,0,0,0,.381,2.207A1.319,1.319,0,0,0-39.58-2.344ZM-28.545.2a5.432,5.432,0,0,1-3.936-1.45,5.008,5.008,0,0,1-1.5-3.774V-5.3a6.489,6.489,0,0,1,.6-2.861,4.395,4.395,0,0,1,1.753-1.919,5.292,5.292,0,0,1,2.734-.679A4.574,4.574,0,0,1-25.381-9.38a5.43,5.43,0,0,1,1.289,3.853v1.279h-6.543a2.372,2.372,0,0,0,.771,1.4,2.3,2.3,0,0,0,1.543.508,2.958,2.958,0,0,0,2.441-1.094l1.5,1.777A4.2,4.2,0,0,1-26.118-.308,5.891,5.891,0,0,1-28.545.2Zm-.371-8.418q-1.445,0-1.719,1.914h3.32v-.254a1.63,1.63,0,0,0-.4-1.226A1.593,1.593,0,0,0-28.916-8.223Zm11.68,5.254a.76.76,0,0,0-.439-.674,6.685,6.685,0,0,0-1.67-.527,7.615,7.615,0,0,1-2.031-.718A3.4,3.4,0,0,1-22.6-5.967a2.577,2.577,0,0,1-.42-1.455,2.92,2.92,0,0,1,1.2-2.4,4.948,4.948,0,0,1,3.145-.942,5.482,5.482,0,0,1,3.359.947,2.962,2.962,0,0,1,1.27,2.49h-3.3q0-1.27-1.338-1.27a1.326,1.326,0,0,0-.869.288.892.892,0,0,0-.352.718.819.819,0,0,0,.43.713,4.06,4.06,0,0,0,1.372.449,11.857,11.857,0,0,1,1.655.42,3.007,3.007,0,0,1,2.383,2.939A2.767,2.767,0,0,1-15.347-.713,5.631,5.631,0,0,1-18.672.2a5.747,5.747,0,0,1-2.422-.488,4.05,4.05,0,0,1-1.66-1.328,3.007,3.007,0,0,1-.6-1.768h3.076a1.272,1.272,0,0,0,.488,1.069,2.009,2.009,0,0,0,1.2.337,1.58,1.58,0,0,0,1.011-.273A.875.875,0,0,0-17.236-2.969Zm4.3-2.412A6.236,6.236,0,0,1-12.324-8.2a4.4,4.4,0,0,1,1.768-1.9,5.323,5.323,0,0,1,2.705-.664,4.858,4.858,0,0,1,3.74,1.47,5.64,5.64,0,0,1,1.367,4v.117A5.472,5.472,0,0,1-4.116-1.255,4.871,4.871,0,0,1-7.832.2a4.927,4.927,0,0,1-3.623-1.353A5.29,5.29,0,0,1-12.93-4.824Zm3.291.205a3.932,3.932,0,0,0,.459,2.148,1.529,1.529,0,0,0,1.357.684q1.758,0,1.8-2.705v-.332q0-2.842-1.816-2.842-1.65,0-1.787,2.451ZM9.639,0a3.716,3.716,0,0,1-.312-.947A3.06,3.06,0,0,1,6.787.2a3.749,3.749,0,0,1-2.539-.9A2.875,2.875,0,0,1,3.2-2.979a2.955,2.955,0,0,1,1.27-2.6,6.468,6.468,0,0,1,3.691-.879H9.18v-.559q0-1.462-1.26-1.462A1.03,1.03,0,0,0,6.748-7.319H3.457a2.95,2.95,0,0,1,1.3-2.487,5.479,5.479,0,0,1,3.325-.956,4.8,4.8,0,0,1,3.193.986,3.429,3.429,0,0,1,1.2,2.705v4.678A4.79,4.79,0,0,0,12.93-.166V0ZM7.578-2.148A1.836,1.836,0,0,0,8.6-2.412a1.653,1.653,0,0,0,.581-.6V-4.7H8.223Q6.5-4.7,6.5-3.154a.942.942,0,0,0,.3.728A1.1,1.1,0,0,0,7.578-2.148ZM22.754,0h-3.3V-15h3.3Zm7.979,0a3.716,3.716,0,0,1-.312-.947A3.06,3.06,0,0,1,27.881.2a3.749,3.749,0,0,1-2.539-.9A2.875,2.875,0,0,1,24.3-2.979a2.955,2.955,0,0,1,1.27-2.6,6.468,6.468,0,0,1,3.691-.879h1.016v-.559q0-1.462-1.26-1.462a1.03,1.03,0,0,0-1.172,1.158H24.551a2.95,2.95,0,0,1,1.3-2.487,5.479,5.479,0,0,1,3.325-.956,4.8,4.8,0,0,1,3.193.986,3.429,3.429,0,0,1,1.2,2.705v4.678a4.79,4.79,0,0,0,.449,2.227V0ZM28.672-2.148a1.836,1.836,0,0,0,1.021-.264,1.653,1.653,0,0,0,.581-.6V-4.7h-.957Q27.6-4.7,27.6-3.154a.942.942,0,0,0,.3.728A1.1,1.1,0,0,0,28.672-2.148Zm18.1-5.439-1.084-.078a1.947,1.947,0,0,0-1.992.977V0H40.4V-10.566h3.086l.107,1.357a2.548,2.548,0,0,1,2.314-1.553,3.209,3.209,0,0,1,.918.117ZM52.881.2a5.432,5.432,0,0,1-3.936-1.45,5.008,5.008,0,0,1-1.5-3.774V-5.3a6.489,6.489,0,0,1,.6-2.861,4.395,4.395,0,0,1,1.753-1.919,5.292,5.292,0,0,1,2.734-.679A4.574,4.574,0,0,1,56.045-9.38a5.43,5.43,0,0,1,1.289,3.853v1.279H50.791a2.372,2.372,0,0,0,.771,1.4,2.3,2.3,0,0,0,1.543.508,2.958,2.958,0,0,0,2.441-1.094l1.5,1.777A4.2,4.2,0,0,1,55.308-.308,5.891,5.891,0,0,1,52.881.2ZM52.51-8.223q-1.445,0-1.719,1.914h3.32v-.254a1.63,1.63,0,0,0-.4-1.226A1.593,1.593,0,0,0,52.51-8.223Zm5.732,2.861a6.455,6.455,0,0,1,1.084-3.955,3.568,3.568,0,0,1,3.027-1.445,3.035,3.035,0,0,1,2.383,1.113V-15h3.3V0H65.078l-.166-1.133A3.116,3.116,0,0,1,62.334.2,3.562,3.562,0,0,1,59.346-1.25,6.659,6.659,0,0,1,58.242-5.361Zm3.291.205q0,2.813,1.641,2.813a1.62,1.62,0,0,0,1.563-.918V-7.285a1.576,1.576,0,0,0-1.543-.937q-1.523,0-1.65,2.461Z" transform="translate(1211 2612)" fill="#12263f"/>
    <path id="Trazado_105880" data-name="Trazado 105880" d="M-72.417-4.814a5.193,5.193,0,0,1-.8,2.622A4.833,4.833,0,0,1-75.273-.43,7,7,0,0,1-78.3.2,5.584,5.584,0,0,1-82.71-1.631a7.54,7.54,0,0,1-1.611-5.156v-.7a8.607,8.607,0,0,1,.728-3.657A5.513,5.513,0,0,1-81.5-13.569a5.844,5.844,0,0,1,3.164-.854,6.129,6.129,0,0,1,4.16,1.362,5.383,5.383,0,0,1,1.787,3.755h-3.418a2.547,2.547,0,0,0-.654-1.865,2.691,2.691,0,0,0-1.875-.566,2.048,2.048,0,0,0-1.875.957,6.151,6.151,0,0,0-.625,3.057v1.006a6.806,6.806,0,0,0,.571,3.252A2.091,2.091,0,0,0-78.3-2.49a2.632,2.632,0,0,0,1.807-.557,2.363,2.363,0,0,0,.664-1.768ZM-65,0a3.716,3.716,0,0,1-.312-.947A3.06,3.06,0,0,1-67.847.2a3.749,3.749,0,0,1-2.539-.9,2.875,2.875,0,0,1-1.045-2.271,2.955,2.955,0,0,1,1.27-2.6,6.468,6.468,0,0,1,3.691-.879h1.016v-.559q0-1.462-1.26-1.462a1.03,1.03,0,0,0-1.172,1.158h-3.291a2.95,2.95,0,0,1,1.3-2.487,5.479,5.479,0,0,1,3.325-.956,4.8,4.8,0,0,1,3.193.986,3.429,3.429,0,0,1,1.2,2.705v4.678A4.79,4.79,0,0,0-61.7-.166V0Zm-2.061-2.148a1.836,1.836,0,0,0,1.021-.264,1.653,1.653,0,0,0,.581-.6V-4.7h-.957q-1.719,0-1.719,1.543a.942.942,0,0,0,.3.728A1.1,1.1,0,0,0-67.056-2.148Zm16.533-3.057a6.372,6.372,0,0,1-1.108,3.931A3.554,3.554,0,0,1-54.624.2,3.046,3.046,0,0,1-57.017-.869V4.063h-3.291V-10.566h3.076l.1.977a3.046,3.046,0,0,1,2.49-1.172,3.582,3.582,0,0,1,3.037,1.44,6.45,6.45,0,0,1,1.084,3.96Zm-3.291-.205q0-2.812-1.641-2.812a1.549,1.549,0,0,0-1.562.84v4.16a1.6,1.6,0,0,0,1.582.879q1.572,0,1.621-2.715ZM-43.12,0a3.716,3.716,0,0,1-.312-.947A3.06,3.06,0,0,1-45.972.2a3.749,3.749,0,0,1-2.539-.9,2.875,2.875,0,0,1-1.045-2.271,2.955,2.955,0,0,1,1.27-2.6,6.468,6.468,0,0,1,3.691-.879h1.016v-.559q0-1.462-1.26-1.462a1.03,1.03,0,0,0-1.172,1.158H-49.3A2.95,2.95,0,0,1-48-9.806a5.479,5.479,0,0,1,3.325-.956,4.8,4.8,0,0,1,3.193.986,3.429,3.429,0,0,1,1.2,2.705v4.678a4.79,4.79,0,0,0,.449,2.227V0Zm-2.061-2.148a1.836,1.836,0,0,0,1.021-.264,1.653,1.653,0,0,0,.581-.6V-4.7h-.957q-1.719,0-1.719,1.543a.942.942,0,0,0,.3.728A1.1,1.1,0,0,0-45.181-2.148Zm11.289-3.213a6.455,6.455,0,0,1,1.084-3.955,3.568,3.568,0,0,1,3.027-1.445A3.035,3.035,0,0,1-27.4-9.648V-15h3.3V0h-2.959l-.166-1.133A3.116,3.116,0,0,1-29.8.2,3.562,3.562,0,0,1-32.788-1.25,6.659,6.659,0,0,1-33.892-5.361Zm3.291.205q0,2.813,1.641,2.813A1.62,1.62,0,0,0-27.4-3.262V-7.285a1.576,1.576,0,0,0-1.543-.937q-1.523,0-1.65,2.461ZM-17.114.2a5.432,5.432,0,0,1-3.936-1.45,5.008,5.008,0,0,1-1.5-3.774V-5.3a6.489,6.489,0,0,1,.6-2.861A4.395,4.395,0,0,1-20.2-10.083a5.292,5.292,0,0,1,2.734-.679A4.574,4.574,0,0,1-13.95-9.38a5.43,5.43,0,0,1,1.289,3.853v1.279H-19.2a2.372,2.372,0,0,0,.771,1.4,2.3,2.3,0,0,0,1.543.508,2.958,2.958,0,0,0,2.441-1.094l1.5,1.777A4.2,4.2,0,0,1-14.687-.308,5.891,5.891,0,0,1-17.114.2Zm-.371-8.418q-1.445,0-1.719,1.914h3.32v-.254a1.63,1.63,0,0,0-.4-1.226A1.593,1.593,0,0,0-17.485-8.223ZM-.405,0A3.716,3.716,0,0,1-.718-.947,3.06,3.06,0,0,1-3.257.2,3.749,3.749,0,0,1-5.8-.708,2.875,2.875,0,0,1-6.841-2.979a2.955,2.955,0,0,1,1.27-2.6A6.468,6.468,0,0,1-1.88-6.455H-.864v-.559q0-1.462-1.26-1.462A1.03,1.03,0,0,0-3.3-7.319H-6.587a2.95,2.95,0,0,1,1.3-2.487,5.479,5.479,0,0,1,3.325-.956,4.8,4.8,0,0,1,3.193.986,3.429,3.429,0,0,1,1.2,2.705v4.678A4.79,4.79,0,0,0,2.886-.166V0ZM-2.466-2.148a1.836,1.836,0,0,0,1.021-.264,1.653,1.653,0,0,0,.581-.6V-4.7h-.957Q-3.54-4.7-3.54-3.154a.942.942,0,0,0,.3.728A1.1,1.1,0,0,0-2.466-2.148ZM14.067-5.205a6.372,6.372,0,0,1-1.108,3.931A3.554,3.554,0,0,1,9.966.2,3.046,3.046,0,0,1,7.573-.869V4.063H4.282V-10.566H7.358l.1.977a3.046,3.046,0,0,1,2.49-1.172,3.582,3.582,0,0,1,3.037,1.44,6.45,6.45,0,0,1,1.084,3.96ZM10.776-5.41q0-2.812-1.641-2.812a1.549,1.549,0,0,0-1.562.84v4.16a1.6,1.6,0,0,0,1.582.879q1.572,0,1.621-2.715ZM18.989,0h-3.3V-15h3.3Zm5.5,0h-3.3V-10.566h3.3Zm-3.5-13.3A1.482,1.482,0,0,1,21.5-14.46a1.909,1.909,0,0,1,1.318-.452,1.909,1.909,0,0,1,1.318.452,1.482,1.482,0,0,1,.508,1.159,1.482,1.482,0,0,1-.508,1.159,1.909,1.909,0,0,1-1.318.452,1.909,1.909,0,0,1-1.318-.452A1.482,1.482,0,0,1,20.991-13.3Zm9.99,10.957a1.464,1.464,0,0,0,1.074-.376,1.379,1.379,0,0,0,.371-1.05h3.086A3.653,3.653,0,0,1,34.268-.918,4.631,4.631,0,0,1,31.06.2,4.689,4.689,0,0,1,27.427-1.25a5.7,5.7,0,0,1-1.328-4v-.137a6.436,6.436,0,0,1,.591-2.827,4.3,4.3,0,0,1,1.7-1.885,5.081,5.081,0,0,1,2.637-.659A4.573,4.573,0,0,1,34.3-9.619a4.053,4.053,0,0,1,1.211,3.1H32.427a1.807,1.807,0,0,0-.4-1.26,1.382,1.382,0,0,0-1.074-.439q-1.279,0-1.494,1.631a11.508,11.508,0,0,0-.068,1.426,4.52,4.52,0,0,0,.381,2.207A1.319,1.319,0,0,0,30.981-2.344ZM42.856,0a3.716,3.716,0,0,1-.312-.947A3.06,3.06,0,0,1,40,.2a3.749,3.749,0,0,1-2.539-.9,2.875,2.875,0,0,1-1.045-2.271,2.955,2.955,0,0,1,1.27-2.6,6.468,6.468,0,0,1,3.691-.879H42.4v-.559q0-1.462-1.26-1.462a1.03,1.03,0,0,0-1.172,1.158H36.675a2.95,2.95,0,0,1,1.3-2.487,5.479,5.479,0,0,1,3.325-.956,4.8,4.8,0,0,1,3.193.986A3.429,3.429,0,0,1,45.7-7.07v4.678a4.79,4.79,0,0,0,.449,2.227V0ZM40.8-2.148a1.836,1.836,0,0,0,1.021-.264,1.653,1.653,0,0,0,.581-.6V-4.7H41.44q-1.719,0-1.719,1.543a.942.942,0,0,0,.3.728A1.1,1.1,0,0,0,40.8-2.148Zm11.191-.2a1.464,1.464,0,0,0,1.074-.376,1.379,1.379,0,0,0,.371-1.05h3.086A3.653,3.653,0,0,1,55.273-.918,4.631,4.631,0,0,1,52.065.2,4.689,4.689,0,0,1,48.433-1.25a5.7,5.7,0,0,1-1.328-4v-.137A6.436,6.436,0,0,1,47.7-8.218,4.3,4.3,0,0,1,49.4-10.1a5.081,5.081,0,0,1,2.637-.659,4.573,4.573,0,0,1,3.271,1.143,4.053,4.053,0,0,1,1.211,3.1H53.433a1.807,1.807,0,0,0-.4-1.26,1.382,1.382,0,0,0-1.074-.439q-1.279,0-1.494,1.631A11.507,11.507,0,0,0,50.4-5.166a4.52,4.52,0,0,0,.381,2.207A1.319,1.319,0,0,0,51.987-2.344ZM61.382,0h-3.3V-10.566h3.3Zm-3.5-13.3a1.482,1.482,0,0,1,.508-1.159,1.909,1.909,0,0,1,1.318-.452,1.909,1.909,0,0,1,1.318.452,1.482,1.482,0,0,1,.508,1.159,1.482,1.482,0,0,1-.508,1.159,1.909,1.909,0,0,1-1.318.452,1.909,1.909,0,0,1-1.318-.452A1.482,1.482,0,0,1,57.886-13.3Zm5.107,7.92A6.236,6.236,0,0,1,63.608-8.2a4.4,4.4,0,0,1,1.768-1.9,5.323,5.323,0,0,1,2.705-.664,4.858,4.858,0,0,1,3.74,1.47,5.64,5.64,0,0,1,1.367,4v.117a5.472,5.472,0,0,1-1.372,3.921A4.871,4.871,0,0,1,68.1.2a4.927,4.927,0,0,1-3.623-1.353A5.29,5.29,0,0,1,63-4.824Zm3.291.205a3.932,3.932,0,0,0,.459,2.148,1.529,1.529,0,0,0,1.357.684q1.758,0,1.8-2.705v-.332q0-2.842-1.816-2.842-1.65,0-1.787,2.451ZM68.53-15h3.477l-2.715,3.066-2.686,0Zm9.131,4.434.107,1.24a3.583,3.583,0,0,1,3.018-1.436,3.015,3.015,0,0,1,2.466.986A4.7,4.7,0,0,1,84.1-6.807V0H80.8V-6.67a1.783,1.783,0,0,0-.322-1.177A1.491,1.491,0,0,0,79.3-8.223a1.569,1.569,0,0,0-1.436.762V0H74.575V-10.566Z" transform="translate(392 2145)" fill="#12263f"/>
    <path id="Trazado_105881" data-name="Trazado 105881" d="M-55.293-4.824V0h-3.428V-14.219h5.674a6.608,6.608,0,0,1,2.886.6,4.526,4.526,0,0,1,1.943,1.709,4.667,4.667,0,0,1,.688,2.515,4.114,4.114,0,0,1-1.489,3.325,6.179,6.179,0,0,1-4.087,1.245Zm0-2.646h2.246a2.118,2.118,0,0,0,1.519-.5,1.85,1.85,0,0,0,.522-1.406,2.287,2.287,0,0,0-.537-1.592,1.9,1.9,0,0,0-1.465-.605h-2.285Zm15.83-.117-1.084-.078a1.947,1.947,0,0,0-1.992.977V0H-45.83V-10.566h3.086l.107,1.357a2.548,2.548,0,0,1,2.314-1.553,3.209,3.209,0,0,1,.918.117ZM-33.35.2a5.432,5.432,0,0,1-3.936-1.45,5.008,5.008,0,0,1-1.5-3.774V-5.3a6.489,6.489,0,0,1,.6-2.861,4.395,4.395,0,0,1,1.753-1.919,5.292,5.292,0,0,1,2.734-.679A4.574,4.574,0,0,1-30.186-9.38,5.43,5.43,0,0,1-28.9-5.527v1.279h-6.543a2.372,2.372,0,0,0,.771,1.4,2.3,2.3,0,0,0,1.543.508,2.958,2.958,0,0,0,2.441-1.094l1.5,1.777A4.2,4.2,0,0,1-30.923-.308,5.891,5.891,0,0,1-33.35.2Zm-.371-8.418q-1.445,0-1.719,1.914h3.32v-.254a1.63,1.63,0,0,0-.4-1.226A1.593,1.593,0,0,0-33.721-8.223Zm11.68,5.254a.76.76,0,0,0-.439-.674,6.685,6.685,0,0,0-1.67-.527,7.615,7.615,0,0,1-2.031-.718A3.4,3.4,0,0,1-27.4-5.967a2.577,2.577,0,0,1-.42-1.455,2.92,2.92,0,0,1,1.2-2.4,4.948,4.948,0,0,1,3.145-.942,5.482,5.482,0,0,1,3.359.947,2.962,2.962,0,0,1,1.27,2.49h-3.3q0-1.27-1.338-1.27a1.326,1.326,0,0,0-.869.288.892.892,0,0,0-.352.718.819.819,0,0,0,.43.713,4.06,4.06,0,0,0,1.372.449,11.857,11.857,0,0,1,1.655.42,3.007,3.007,0,0,1,2.383,2.939A2.767,2.767,0,0,1-20.151-.713,5.631,5.631,0,0,1-23.477.2,5.747,5.747,0,0,1-25.9-.293a4.05,4.05,0,0,1-1.66-1.328,3.007,3.007,0,0,1-.6-1.768h3.076a1.272,1.272,0,0,0,.488,1.069,2.009,2.009,0,0,0,1.2.337,1.58,1.58,0,0,0,1.011-.273A.875.875,0,0,0-22.041-2.969ZM-12.217.2a5.432,5.432,0,0,1-3.936-1.45,5.008,5.008,0,0,1-1.5-3.774V-5.3a6.489,6.489,0,0,1,.6-2.861A4.395,4.395,0,0,1-15.3-10.083a5.292,5.292,0,0,1,2.734-.679A4.574,4.574,0,0,1-9.053-9.38,5.43,5.43,0,0,1-7.764-5.527v1.279h-6.543a2.372,2.372,0,0,0,.771,1.4,2.3,2.3,0,0,0,1.543.508A2.958,2.958,0,0,0-9.551-3.437l1.5,1.777A4.2,4.2,0,0,1-9.79-.308,5.891,5.891,0,0,1-12.217.2Zm-.371-8.418q-1.445,0-1.719,1.914h3.32v-.254a1.63,1.63,0,0,0-.4-1.226A1.593,1.593,0,0,0-12.588-8.223Zm9.17-2.344.107,1.24A3.583,3.583,0,0,1-.293-10.762a3.015,3.015,0,0,1,2.466.986,4.7,4.7,0,0,1,.845,2.969V0h-3.3V-6.67A1.783,1.783,0,0,0-.605-7.847a1.491,1.491,0,0,0-1.172-.376,1.569,1.569,0,0,0-1.436.762V0H-6.5V-10.566Zm12.09-2.627v2.627H10.41v2.285H8.672v4.834a1.234,1.234,0,0,0,.215.83,1.152,1.152,0,0,0,.85.234,4.828,4.828,0,0,0,.82-.059V-.088A6.074,6.074,0,0,1,8.7.2a3.448,3.448,0,0,1-2.51-.8,3.282,3.282,0,0,1-.811-2.432V-8.281H4.033v-2.285H5.381v-2.627ZM17.656,0a3.716,3.716,0,0,1-.312-.947A3.06,3.06,0,0,1,14.8.2a3.749,3.749,0,0,1-2.539-.9,2.875,2.875,0,0,1-1.045-2.271,2.955,2.955,0,0,1,1.27-2.6,6.468,6.468,0,0,1,3.691-.879H17.2v-.559q0-1.462-1.26-1.462a1.03,1.03,0,0,0-1.172,1.158H11.475a2.95,2.95,0,0,1,1.3-2.487,5.479,5.479,0,0,1,3.325-.956,4.8,4.8,0,0,1,3.193.986A3.429,3.429,0,0,1,20.5-7.07v4.678a4.79,4.79,0,0,0,.449,2.227V0ZM15.6-2.148a1.836,1.836,0,0,0,1.021-.264,1.653,1.653,0,0,0,.581-.6V-4.7H16.24q-1.719,0-1.719,1.543a.942.942,0,0,0,.3.728A1.1,1.1,0,0,0,15.6-2.148Zm11.191-.2a1.464,1.464,0,0,0,1.074-.376,1.379,1.379,0,0,0,.371-1.05h3.086A3.653,3.653,0,0,1,30.073-.918,4.631,4.631,0,0,1,26.865.2,4.689,4.689,0,0,1,23.232-1.25a5.7,5.7,0,0,1-1.328-4v-.137A6.436,6.436,0,0,1,22.5-8.218,4.3,4.3,0,0,1,24.2-10.1a5.081,5.081,0,0,1,2.637-.659,4.573,4.573,0,0,1,3.271,1.143,4.053,4.053,0,0,1,1.211,3.1H28.232a1.807,1.807,0,0,0-.4-1.26,1.382,1.382,0,0,0-1.074-.439q-1.279,0-1.494,1.631A11.508,11.508,0,0,0,25.2-5.166a4.52,4.52,0,0,0,.381,2.207A1.319,1.319,0,0,0,26.787-2.344ZM36.182,0h-3.3V-10.566h3.3Zm-3.5-13.3a1.482,1.482,0,0,1,.508-1.159,1.909,1.909,0,0,1,1.318-.452,1.909,1.909,0,0,1,1.318.452,1.482,1.482,0,0,1,.508,1.159,1.482,1.482,0,0,1-.508,1.159,1.909,1.909,0,0,1-1.318.452,1.909,1.909,0,0,1-1.318-.452A1.482,1.482,0,0,1,32.686-13.3Zm5.107,7.92A6.236,6.236,0,0,1,38.408-8.2a4.4,4.4,0,0,1,1.768-1.9,5.323,5.323,0,0,1,2.705-.664,4.858,4.858,0,0,1,3.74,1.47,5.64,5.64,0,0,1,1.367,4v.117a5.472,5.472,0,0,1-1.372,3.921A4.871,4.871,0,0,1,42.9.2a4.927,4.927,0,0,1-3.623-1.353A5.29,5.29,0,0,1,37.8-4.824Zm3.291.205a3.932,3.932,0,0,0,.459,2.148,1.529,1.529,0,0,0,1.357.684q1.758,0,1.8-2.705v-.332q0-2.842-1.816-2.842-1.65,0-1.787,2.451ZM43.33-15h3.477l-2.715,3.066-2.686,0Zm9.131,4.434.107,1.24a3.583,3.583,0,0,1,3.018-1.436,3.015,3.015,0,0,1,2.466.986A4.7,4.7,0,0,1,58.9-6.807V0H55.6V-6.67a1.783,1.783,0,0,0-.322-1.177A1.491,1.491,0,0,0,54.1-8.223a1.569,1.569,0,0,0-1.436.762V0H49.375V-10.566Z" transform="translate(392 2218)" fill="#12263f"/>
    <path id="Trazado_105882" data-name="Trazado 105882" d="M-22.422-3.779a1.408,1.408,0,0,0-.532-1.172,6.615,6.615,0,0,0-1.87-.869,17.941,17.941,0,0,1-2.187-.869q-2.764-1.357-2.764-3.73a3.345,3.345,0,0,1,.688-2.085,4.453,4.453,0,0,1,1.948-1.406,7.582,7.582,0,0,1,2.832-.5,6.632,6.632,0,0,1,2.749.547,4.352,4.352,0,0,1,1.89,1.558A4.068,4.068,0,0,1-18.994-10h-3.418a1.719,1.719,0,0,0-.532-1.348,2.075,2.075,0,0,0-1.44-.479,2.339,2.339,0,0,0-1.45.405,1.243,1.243,0,0,0-.532,1.03,1.252,1.252,0,0,0,.586.991,7.389,7.389,0,0,0,2.061.918A12.623,12.623,0,0,1-21.3-7.461a4.07,4.07,0,0,1,2.3,3.662A3.472,3.472,0,0,1-20.4-.869,6.255,6.255,0,0,1-24.258.2a7.653,7.653,0,0,1-3.13-.62,4.719,4.719,0,0,1-2.109-1.7,4.427,4.427,0,0,1-.708-2.485h3.438a2.181,2.181,0,0,0,.591,1.685,2.793,2.793,0,0,0,1.919.542,2.206,2.206,0,0,0,1.343-.366A1.209,1.209,0,0,0-22.422-3.779ZM-12.275.2a5.432,5.432,0,0,1-3.936-1.45,5.008,5.008,0,0,1-1.5-3.774V-5.3a6.489,6.489,0,0,1,.6-2.861,4.395,4.395,0,0,1,1.753-1.919,5.292,5.292,0,0,1,2.734-.679A4.574,4.574,0,0,1-9.111-9.38,5.43,5.43,0,0,1-7.822-5.527v1.279h-6.543a2.372,2.372,0,0,0,.771,1.4,2.3,2.3,0,0,0,1.543.508A2.958,2.958,0,0,0-9.609-3.437l1.5,1.777A4.2,4.2,0,0,1-9.849-.308,5.891,5.891,0,0,1-12.275.2Zm-.371-8.418q-1.445,0-1.719,1.914h3.32v-.254a1.63,1.63,0,0,0-.4-1.226A1.593,1.593,0,0,0-12.646-8.223ZM-.967-2.969a.76.76,0,0,0-.439-.674,6.685,6.685,0,0,0-1.67-.527,7.615,7.615,0,0,1-2.031-.718A3.4,3.4,0,0,1-6.328-5.967a2.577,2.577,0,0,1-.42-1.455,2.92,2.92,0,0,1,1.2-2.4A4.948,4.948,0,0,1-2.4-10.762a5.482,5.482,0,0,1,3.359.947,2.962,2.962,0,0,1,1.27,2.49h-3.3q0-1.27-1.338-1.27a1.326,1.326,0,0,0-.869.288.892.892,0,0,0-.352.718.819.819,0,0,0,.43.713,4.06,4.06,0,0,0,1.372.449,11.857,11.857,0,0,1,1.655.42A3.007,3.007,0,0,1,2.207-3.066,2.767,2.767,0,0,1,.923-.713,5.632,5.632,0,0,1-2.4.2,5.747,5.747,0,0,1-4.824-.293a4.05,4.05,0,0,1-1.66-1.328,3.007,3.007,0,0,1-.6-1.768H-4a1.272,1.272,0,0,0,.488,1.069,2.009,2.009,0,0,0,1.2.337A1.58,1.58,0,0,0-1.3-2.256.875.875,0,0,0-.967-2.969ZM7.217,0h-3.3V-10.566h3.3Zm-3.5-13.3a1.482,1.482,0,0,1,.508-1.159,1.909,1.909,0,0,1,1.318-.452,1.909,1.909,0,0,1,1.318.452A1.482,1.482,0,0,1,7.373-13.3a1.482,1.482,0,0,1-.508,1.159,1.909,1.909,0,0,1-1.318.452,1.909,1.909,0,0,1-1.318-.452A1.482,1.482,0,0,1,3.721-13.3Zm5.107,7.92A6.236,6.236,0,0,1,9.443-8.2a4.4,4.4,0,0,1,1.768-1.9,5.323,5.323,0,0,1,2.705-.664,4.858,4.858,0,0,1,3.74,1.47,5.64,5.64,0,0,1,1.367,4v.117a5.472,5.472,0,0,1-1.372,3.921A4.871,4.871,0,0,1,13.936.2a4.927,4.927,0,0,1-3.623-1.353A5.29,5.29,0,0,1,8.838-4.824Zm3.291.205a3.932,3.932,0,0,0,.459,2.148,1.529,1.529,0,0,0,1.357.684q1.758,0,1.8-2.705v-.332q0-2.842-1.816-2.842-1.65,0-1.787,2.451ZM14.365-15h3.477l-2.715,3.066-2.686,0ZM23.5-10.566l.107,1.24a3.583,3.583,0,0,1,3.018-1.436,3.015,3.015,0,0,1,2.466.986,4.7,4.7,0,0,1,.845,2.969V0h-3.3V-6.67a1.783,1.783,0,0,0-.322-1.177,1.491,1.491,0,0,0-1.172-.376,1.569,1.569,0,0,0-1.436.762V0H20.41V-10.566Z" transform="translate(392 2291)" fill="#12263f"/>
    <path id="Trazado_105884" data-name="Trazado 105884" d="M-73.579-4.814a5.193,5.193,0,0,1-.8,2.622A4.833,4.833,0,0,1-76.436-.43,7,7,0,0,1-79.458.2a5.584,5.584,0,0,1-4.414-1.826,7.54,7.54,0,0,1-1.611-5.156v-.7a8.607,8.607,0,0,1,.728-3.657,5.513,5.513,0,0,1,2.095-2.422,5.844,5.844,0,0,1,3.164-.854,6.129,6.129,0,0,1,4.16,1.362A5.383,5.383,0,0,1-73.55-9.307h-3.418a2.547,2.547,0,0,0-.654-1.865,2.691,2.691,0,0,0-1.875-.566,2.048,2.048,0,0,0-1.875.957A6.151,6.151,0,0,0-82-7.725v1.006a6.806,6.806,0,0,0,.571,3.252,2.091,2.091,0,0,0,1.968.977,2.632,2.632,0,0,0,1.807-.557,2.363,2.363,0,0,0,.664-1.768ZM-66.157,0a3.716,3.716,0,0,1-.312-.947A3.06,3.06,0,0,1-69.009.2a3.749,3.749,0,0,1-2.539-.9,2.875,2.875,0,0,1-1.045-2.271,2.955,2.955,0,0,1,1.27-2.6,6.468,6.468,0,0,1,3.691-.879h1.016v-.559q0-1.462-1.26-1.462a1.03,1.03,0,0,0-1.172,1.158h-3.291a2.95,2.95,0,0,1,1.3-2.487,5.479,5.479,0,0,1,3.325-.956,4.8,4.8,0,0,1,3.193.986,3.429,3.429,0,0,1,1.2,2.705v4.678a4.79,4.79,0,0,0,.449,2.227V0Zm-2.061-2.148A1.836,1.836,0,0,0-67.2-2.412a1.653,1.653,0,0,0,.581-.6V-4.7h-.957q-1.719,0-1.719,1.543a.942.942,0,0,0,.3.728A1.1,1.1,0,0,0-68.218-2.148Zm16.533-3.057a6.372,6.372,0,0,1-1.108,3.931A3.554,3.554,0,0,1-55.786.2,3.046,3.046,0,0,1-58.179-.869V4.063H-61.47V-10.566h3.076l.1.977a3.046,3.046,0,0,1,2.49-1.172,3.582,3.582,0,0,1,3.037,1.44,6.45,6.45,0,0,1,1.084,3.96Zm-3.291-.205q0-2.812-1.641-2.812a1.549,1.549,0,0,0-1.562.84v4.16a1.6,1.6,0,0,0,1.582.879q1.572,0,1.621-2.715ZM-44.282,0a3.716,3.716,0,0,1-.312-.947A3.06,3.06,0,0,1-47.134.2a3.749,3.749,0,0,1-2.539-.9,2.875,2.875,0,0,1-1.045-2.271,2.955,2.955,0,0,1,1.27-2.6,6.468,6.468,0,0,1,3.691-.879h1.016v-.559q0-1.462-1.26-1.462a1.03,1.03,0,0,0-1.172,1.158h-3.291a2.95,2.95,0,0,1,1.3-2.487,5.479,5.479,0,0,1,3.325-.956,4.8,4.8,0,0,1,3.193.986,3.429,3.429,0,0,1,1.2,2.705v4.678a4.79,4.79,0,0,0,.449,2.227V0Zm-2.061-2.148a1.836,1.836,0,0,0,1.021-.264,1.653,1.653,0,0,0,.581-.6V-4.7H-45.7q-1.719,0-1.719,1.543a.942.942,0,0,0,.3.728A1.1,1.1,0,0,0-46.343-2.148Zm11.289-3.213A6.455,6.455,0,0,1-33.97-9.316a3.568,3.568,0,0,1,3.027-1.445A3.035,3.035,0,0,1-28.56-9.648V-15h3.3V0h-2.959l-.166-1.133A3.116,3.116,0,0,1-30.962.2,3.562,3.562,0,0,1-33.95-1.25,6.659,6.659,0,0,1-35.054-5.361Zm3.291.205q0,2.813,1.641,2.813a1.62,1.62,0,0,0,1.563-.918V-7.285A1.576,1.576,0,0,0-30.1-8.223q-1.523,0-1.65,2.461ZM-18.276.2a5.432,5.432,0,0,1-3.936-1.45,5.008,5.008,0,0,1-1.5-3.774V-5.3a6.489,6.489,0,0,1,.6-2.861,4.395,4.395,0,0,1,1.753-1.919,5.292,5.292,0,0,1,2.734-.679A4.574,4.574,0,0,1-15.112-9.38a5.43,5.43,0,0,1,1.289,3.853v1.279h-6.543a2.372,2.372,0,0,0,.771,1.4,2.3,2.3,0,0,0,1.543.508A2.958,2.958,0,0,0-15.61-3.437l1.5,1.777A4.2,4.2,0,0,1-15.85-.308,5.891,5.891,0,0,1-18.276.2Zm-.371-8.418q-1.445,0-1.719,1.914h3.32v-.254a1.63,1.63,0,0,0-.4-1.226A1.593,1.593,0,0,0-18.647-8.223Zm14.961-4.971v2.627h1.738v2.285H-3.687v4.834a1.234,1.234,0,0,0,.215.83,1.152,1.152,0,0,0,.85.234,4.828,4.828,0,0,0,.82-.059V-.088A6.074,6.074,0,0,1-3.657.2a3.448,3.448,0,0,1-2.51-.8,3.282,3.282,0,0,1-.811-2.432V-8.281H-8.325v-2.285h1.348v-2.627ZM5.737-7.588,4.653-7.666a1.947,1.947,0,0,0-1.992.977V0H-.63V-10.566H2.456l.107,1.357a2.548,2.548,0,0,1,2.314-1.553,3.209,3.209,0,0,1,.918.117ZM12.583,0a3.716,3.716,0,0,1-.312-.947A3.06,3.06,0,0,1,9.731.2a3.749,3.749,0,0,1-2.539-.9A2.875,2.875,0,0,1,6.147-2.979a2.955,2.955,0,0,1,1.27-2.6,6.468,6.468,0,0,1,3.691-.879h1.016v-.559q0-1.462-1.26-1.462A1.03,1.03,0,0,0,9.692-7.319H6.4a2.95,2.95,0,0,1,1.3-2.487,5.479,5.479,0,0,1,3.325-.956,4.8,4.8,0,0,1,3.193.986,3.429,3.429,0,0,1,1.2,2.705v4.678a4.79,4.79,0,0,0,.449,2.227V0ZM10.522-2.148a1.836,1.836,0,0,0,1.021-.264,1.653,1.653,0,0,0,.581-.6V-4.7h-.957q-1.719,0-1.719,1.543a.942.942,0,0,0,.3.728A1.1,1.1,0,0,0,10.522-2.148Zm9.746-8.418.107,1.24a3.583,3.583,0,0,1,3.018-1.436,3.015,3.015,0,0,1,2.466.986A4.7,4.7,0,0,1,26.7-6.807V0H23.4V-6.67a1.783,1.783,0,0,0-.322-1.177,1.491,1.491,0,0,0-1.172-.376,1.569,1.569,0,0,0-1.436.762V0H17.183V-10.566Zm13.789,7.6a.76.76,0,0,0-.439-.674,6.685,6.685,0,0,0-1.67-.527,7.615,7.615,0,0,1-2.031-.718A3.4,3.4,0,0,1,28.7-5.967a2.577,2.577,0,0,1-.42-1.455,2.92,2.92,0,0,1,1.2-2.4,4.948,4.948,0,0,1,3.145-.942,5.482,5.482,0,0,1,3.359.947,2.962,2.962,0,0,1,1.27,2.49h-3.3q0-1.27-1.338-1.27a1.326,1.326,0,0,0-.869.288.892.892,0,0,0-.352.718.819.819,0,0,0,.43.713,4.06,4.06,0,0,0,1.372.449,11.857,11.857,0,0,1,1.655.42,3.007,3.007,0,0,1,2.383,2.939A2.767,2.767,0,0,1,35.947-.713,5.632,5.632,0,0,1,32.622.2,5.747,5.747,0,0,1,30.2-.293a4.05,4.05,0,0,1-1.66-1.328,3.007,3.007,0,0,1-.6-1.768h3.076a1.272,1.272,0,0,0,.488,1.069,2.009,2.009,0,0,0,1.2.337,1.58,1.58,0,0,0,1.011-.273A.875.875,0,0,0,34.058-2.969ZM48.579-5.205a6.372,6.372,0,0,1-1.108,3.931A3.554,3.554,0,0,1,44.478.2,3.046,3.046,0,0,1,42.085-.869V4.063H38.794V-10.566H41.87l.1.977a3.046,3.046,0,0,1,2.49-1.172A3.582,3.582,0,0,1,47.5-9.321a6.45,6.45,0,0,1,1.084,3.96ZM45.288-5.41q0-2.812-1.641-2.812a1.549,1.549,0,0,0-1.562.84v4.16a1.6,1.6,0,0,0,1.582.879q1.572,0,1.621-2.715Zm4.326.029A6.236,6.236,0,0,1,50.229-8.2,4.4,4.4,0,0,1,52-10.1a5.323,5.323,0,0,1,2.705-.664,4.858,4.858,0,0,1,3.74,1.47,5.64,5.64,0,0,1,1.367,4v.117a5.472,5.472,0,0,1-1.372,3.921A4.871,4.871,0,0,1,54.722.2,4.927,4.927,0,0,1,51.1-1.157a5.29,5.29,0,0,1-1.475-3.667Zm3.291.205a3.932,3.932,0,0,0,.459,2.148,1.529,1.529,0,0,0,1.357.684q1.758,0,1.8-2.705v-.332q0-2.842-1.816-2.842-1.65,0-1.787,2.451ZM67.651-7.588l-1.084-.078a1.947,1.947,0,0,0-1.992.977V0H61.284V-10.566H64.37l.107,1.357a2.548,2.548,0,0,1,2.314-1.553,3.209,3.209,0,0,1,.918.117Zm5.508-5.605v2.627H74.9v2.285H73.159v4.834a1.234,1.234,0,0,0,.215.83,1.152,1.152,0,0,0,.85.234,4.828,4.828,0,0,0,.82-.059V-.088A6.074,6.074,0,0,1,73.188.2a3.448,3.448,0,0,1-2.51-.8,3.282,3.282,0,0,1-.811-2.432V-8.281H68.521v-2.285h1.348v-2.627ZM81.3.2a5.432,5.432,0,0,1-3.936-1.45,5.008,5.008,0,0,1-1.5-3.774V-5.3a6.489,6.489,0,0,1,.6-2.861,4.395,4.395,0,0,1,1.753-1.919,5.292,5.292,0,0,1,2.734-.679A4.574,4.574,0,0,1,84.468-9.38a5.43,5.43,0,0,1,1.289,3.853v1.279H79.214a2.372,2.372,0,0,0,.771,1.4,2.3,2.3,0,0,0,1.543.508A2.958,2.958,0,0,0,83.97-3.437l1.5,1.777A4.2,4.2,0,0,1,83.73-.308,5.891,5.891,0,0,1,81.3.2Zm-.371-8.418q-1.445,0-1.719,1.914h3.32v-.254a1.63,1.63,0,0,0-.4-1.226A1.593,1.593,0,0,0,80.933-8.223Z" transform="translate(392 2384)" fill="#12263f"/>
    <path id="Trazado_105888" data-name="Trazado 105888" d="M-11.235-5.029h-1.855V0h-3.428V-14.219h5.6A6.246,6.246,0,0,1-6.968-13.1a3.8,3.8,0,0,1,1.426,3.17,4.616,4.616,0,0,1-.6,2.458,4.263,4.263,0,0,1-1.88,1.58L-5.054-.147V0H-8.726Zm-1.855-2.637h2.168a1.946,1.946,0,0,0,1.47-.514A1.987,1.987,0,0,0-8.96-9.614a2.01,2.01,0,0,0-.5-1.444,1.928,1.928,0,0,0-1.465-.524h-2.168ZM1.489.2a5.432,5.432,0,0,1-3.936-1.45,5.008,5.008,0,0,1-1.5-3.774V-5.3a6.489,6.489,0,0,1,.6-2.861A4.395,4.395,0,0,1-1.6-10.083a5.292,5.292,0,0,1,2.734-.679A4.574,4.574,0,0,1,4.653-9.38,5.43,5.43,0,0,1,5.942-5.527v1.279H-.6a2.372,2.372,0,0,0,.771,1.4,2.3,2.3,0,0,0,1.543.508A2.958,2.958,0,0,0,4.155-3.437l1.5,1.777A4.2,4.2,0,0,1,3.916-.308,5.891,5.891,0,0,1,1.489.2ZM1.118-8.223Q-.327-8.223-.6-6.309H2.72v-.254a1.63,1.63,0,0,0-.4-1.226A1.593,1.593,0,0,0,1.118-8.223ZM6.851-5.361A6.455,6.455,0,0,1,7.935-9.316a3.568,3.568,0,0,1,3.027-1.445,3.035,3.035,0,0,1,2.383,1.113V-15h3.3V0H13.687l-.166-1.133A3.116,3.116,0,0,1,10.942.2,3.562,3.562,0,0,1,7.954-1.25,6.659,6.659,0,0,1,6.851-5.361Zm3.291.205q0,2.813,1.641,2.813a1.62,1.62,0,0,0,1.563-.918V-7.285A1.576,1.576,0,0,0,11.8-8.223q-1.523,0-1.65,2.461Z" transform="translate(392 2477)" fill="#12263f"/>
    <path id="Trazado_105889" data-name="Trazado 105889" d="M-97.065-4.814a5.193,5.193,0,0,1-.8,2.622A4.833,4.833,0,0,1-99.922-.43,7,7,0,0,1-102.944.2a5.584,5.584,0,0,1-4.414-1.826,7.54,7.54,0,0,1-1.611-5.156v-.7a8.607,8.607,0,0,1,.728-3.657,5.513,5.513,0,0,1,2.095-2.422,5.844,5.844,0,0,1,3.164-.854,6.129,6.129,0,0,1,4.16,1.362,5.383,5.383,0,0,1,1.787,3.755h-3.418a2.547,2.547,0,0,0-.654-1.865,2.691,2.691,0,0,0-1.875-.566,2.048,2.048,0,0,0-1.875.957,6.151,6.151,0,0,0-.625,3.057v1.006a6.806,6.806,0,0,0,.571,3.252,2.091,2.091,0,0,0,1.968.977,2.632,2.632,0,0,0,1.807-.557,2.363,2.363,0,0,0,.664-1.768ZM-89.644,0a3.716,3.716,0,0,1-.312-.947A3.06,3.06,0,0,1-92.5.2a3.749,3.749,0,0,1-2.539-.9,2.875,2.875,0,0,1-1.045-2.271,2.955,2.955,0,0,1,1.27-2.6,6.468,6.468,0,0,1,3.691-.879H-90.1v-.559q0-1.462-1.26-1.462a1.03,1.03,0,0,0-1.172,1.158h-3.291a2.95,2.95,0,0,1,1.3-2.487,5.479,5.479,0,0,1,3.325-.956A4.8,4.8,0,0,1-88-9.775,3.429,3.429,0,0,1-86.8-7.07v4.678a4.79,4.79,0,0,0,.449,2.227V0ZM-91.7-2.148a1.836,1.836,0,0,0,1.021-.264,1.653,1.653,0,0,0,.581-.6V-4.7h-.957q-1.719,0-1.719,1.543a.942.942,0,0,0,.3.728A1.1,1.1,0,0,0-91.7-2.148Zm16.533-3.057a6.372,6.372,0,0,1-1.108,3.931A3.554,3.554,0,0,1-79.272.2,3.046,3.046,0,0,1-81.665-.869V4.063h-3.291V-10.566h3.076l.1.977a3.046,3.046,0,0,1,2.49-1.172,3.582,3.582,0,0,1,3.037,1.44,6.45,6.45,0,0,1,1.084,3.96Zm-3.291-.205q0-2.812-1.641-2.812a1.549,1.549,0,0,0-1.562.84v4.16a1.6,1.6,0,0,0,1.582.879q1.572,0,1.621-2.715ZM-67.769,0a3.716,3.716,0,0,1-.312-.947A3.06,3.06,0,0,1-70.62.2a3.749,3.749,0,0,1-2.539-.9A2.875,2.875,0,0,1-74.2-2.979a2.955,2.955,0,0,1,1.27-2.6,6.468,6.468,0,0,1,3.691-.879h1.016v-.559q0-1.462-1.26-1.462a1.03,1.03,0,0,0-1.172,1.158H-73.95a2.95,2.95,0,0,1,1.3-2.487,5.479,5.479,0,0,1,3.325-.956,4.8,4.8,0,0,1,3.193.986,3.429,3.429,0,0,1,1.2,2.705v4.678a4.79,4.79,0,0,0,.449,2.227V0Zm-2.061-2.148a1.836,1.836,0,0,0,1.021-.264,1.653,1.653,0,0,0,.581-.6V-4.7h-.957Q-70.9-4.7-70.9-3.154a.942.942,0,0,0,.3.728A1.1,1.1,0,0,0-69.829-2.148ZM-58.54-5.361a6.455,6.455,0,0,1,1.084-3.955,3.568,3.568,0,0,1,3.027-1.445,3.035,3.035,0,0,1,2.383,1.113V-15h3.3V0H-51.7l-.166-1.133A3.116,3.116,0,0,1-54.448.2,3.562,3.562,0,0,1-57.437-1.25,6.659,6.659,0,0,1-58.54-5.361Zm3.291.205q0,2.813,1.641,2.813a1.62,1.62,0,0,0,1.563-.918V-7.285a1.576,1.576,0,0,0-1.543-.937q-1.523,0-1.65,2.461ZM-41.763.2A5.432,5.432,0,0,1-45.7-1.255a5.008,5.008,0,0,1-1.5-3.774V-5.3a6.489,6.489,0,0,1,.6-2.861,4.395,4.395,0,0,1,1.753-1.919,5.292,5.292,0,0,1,2.734-.679A4.574,4.574,0,0,1-38.6-9.38,5.43,5.43,0,0,1-37.31-5.527v1.279h-6.543a2.372,2.372,0,0,0,.771,1.4,2.3,2.3,0,0,0,1.543.508A2.958,2.958,0,0,0-39.1-3.437l1.5,1.777A4.2,4.2,0,0,1-39.336-.308,5.891,5.891,0,0,1-41.763.2Zm-.371-8.418q-1.445,0-1.719,1.914h3.32v-.254a1.63,1.63,0,0,0-.4-1.226A1.593,1.593,0,0,0-42.134-8.223ZM-25.894.2a5.432,5.432,0,0,1-3.936-1.45,5.008,5.008,0,0,1-1.5-3.774V-5.3a6.489,6.489,0,0,1,.6-2.861,4.395,4.395,0,0,1,1.753-1.919,5.292,5.292,0,0,1,2.734-.679A4.574,4.574,0,0,1-22.729-9.38,5.43,5.43,0,0,1-21.44-5.527v1.279h-6.543a2.372,2.372,0,0,0,.771,1.4,2.3,2.3,0,0,0,1.543.508,2.958,2.958,0,0,0,2.441-1.094l1.5,1.777A4.2,4.2,0,0,1-23.467-.308,5.891,5.891,0,0,1-25.894.2Zm-.371-8.418q-1.445,0-1.719,1.914h3.32v-.254a1.63,1.63,0,0,0-.4-1.226A1.593,1.593,0,0,0-26.265-8.223Zm9.17-2.344.107,1.24a3.583,3.583,0,0,1,3.018-1.436,3.015,3.015,0,0,1,2.466.986,4.7,4.7,0,0,1,.845,2.969V0h-3.3V-6.67a1.783,1.783,0,0,0-.322-1.177,1.491,1.491,0,0,0-1.172-.376,1.569,1.569,0,0,0-1.436.762V0h-3.291V-10.566ZM-5.366,0h-3.3V-15h3.3ZM2.612,0A3.716,3.716,0,0,1,2.3-.947,3.06,3.06,0,0,1-.239.2a3.749,3.749,0,0,1-2.539-.9A2.875,2.875,0,0,1-3.823-2.979a2.955,2.955,0,0,1,1.27-2.6,6.468,6.468,0,0,1,3.691-.879H2.153v-.559q0-1.462-1.26-1.462A1.03,1.03,0,0,0-.278-7.319H-3.569a2.95,2.95,0,0,1,1.3-2.487,5.479,5.479,0,0,1,3.325-.956,4.8,4.8,0,0,1,3.193.986,3.429,3.429,0,0,1,1.2,2.705v4.678A4.79,4.79,0,0,0,5.9-.166V0ZM.552-2.148a1.836,1.836,0,0,0,1.021-.264,1.653,1.653,0,0,0,.581-.6V-4.7H1.2Q-.522-4.7-.522-3.154a.942.942,0,0,0,.3.728A1.1,1.1,0,0,0,.552-2.148Zm11.191-.2a1.464,1.464,0,0,0,1.074-.376,1.379,1.379,0,0,0,.371-1.05h3.086A3.653,3.653,0,0,1,15.029-.918,4.631,4.631,0,0,1,11.821.2,4.689,4.689,0,0,1,8.188-1.25a5.7,5.7,0,0,1-1.328-4v-.137a6.436,6.436,0,0,1,.591-2.827,4.3,4.3,0,0,1,1.7-1.885,5.081,5.081,0,0,1,2.637-.659,4.573,4.573,0,0,1,3.271,1.143,4.053,4.053,0,0,1,1.211,3.1H13.188a1.807,1.807,0,0,0-.4-1.26,1.382,1.382,0,0,0-1.074-.439q-1.279,0-1.494,1.631a11.508,11.508,0,0,0-.068,1.426,4.52,4.52,0,0,0,.381,2.207A1.319,1.319,0,0,0,11.743-2.344ZM22.778.2a5.432,5.432,0,0,1-3.936-1.45,5.008,5.008,0,0,1-1.5-3.774V-5.3a6.489,6.489,0,0,1,.6-2.861,4.395,4.395,0,0,1,1.753-1.919,5.292,5.292,0,0,1,2.734-.679A4.574,4.574,0,0,1,25.942-9.38a5.43,5.43,0,0,1,1.289,3.853v1.279H20.688a2.372,2.372,0,0,0,.771,1.4A2.3,2.3,0,0,0,23-2.344a2.958,2.958,0,0,0,2.441-1.094l1.5,1.777A4.2,4.2,0,0,1,25.205-.308,5.891,5.891,0,0,1,22.778.2Zm-.371-8.418q-1.445,0-1.719,1.914h3.32v-.254a1.63,1.63,0,0,0-.4-1.226A1.593,1.593,0,0,0,22.407-8.223ZM33.12-5.361A6.455,6.455,0,0,1,34.2-9.316a3.568,3.568,0,0,1,3.027-1.445,3.035,3.035,0,0,1,2.383,1.113V-15h3.3V0H39.956L39.79-1.133A3.116,3.116,0,0,1,37.212.2,3.562,3.562,0,0,1,34.224-1.25,6.659,6.659,0,0,1,33.12-5.361Zm3.291.205q0,2.813,1.641,2.813a1.62,1.62,0,0,0,1.563-.918V-7.285a1.576,1.576,0,0,0-1.543-.937q-1.523,0-1.65,2.461ZM49.9.2a5.432,5.432,0,0,1-3.936-1.45,5.008,5.008,0,0,1-1.5-3.774V-5.3a6.489,6.489,0,0,1,.6-2.861,4.395,4.395,0,0,1,1.753-1.919,5.292,5.292,0,0,1,2.734-.679A4.574,4.574,0,0,1,53.062-9.38a5.43,5.43,0,0,1,1.289,3.853v1.279H47.808a2.372,2.372,0,0,0,.771,1.4,2.3,2.3,0,0,0,1.543.508,2.958,2.958,0,0,0,2.441-1.094l1.5,1.777A4.2,4.2,0,0,1,52.324-.308,5.891,5.891,0,0,1,49.9.2Zm-.371-8.418q-1.445,0-1.719,1.914h3.32v-.254a1.63,1.63,0,0,0-.4-1.226A1.593,1.593,0,0,0,49.526-8.223ZM60.239-5.361a6.455,6.455,0,0,1,1.084-3.955,3.568,3.568,0,0,1,3.027-1.445,3.035,3.035,0,0,1,2.383,1.113V-15h3.3V0H67.075l-.166-1.133A3.116,3.116,0,0,1,64.331.2,3.562,3.562,0,0,1,61.343-1.25,6.659,6.659,0,0,1,60.239-5.361Zm3.291.205q0,2.813,1.641,2.813a1.62,1.62,0,0,0,1.563-.918V-7.285a1.576,1.576,0,0,0-1.543-.937q-1.523,0-1.65,2.461ZM77.856,0a3.716,3.716,0,0,1-.312-.947A3.06,3.06,0,0,1,75,.2a3.749,3.749,0,0,1-2.539-.9,2.875,2.875,0,0,1-1.045-2.271,2.955,2.955,0,0,1,1.27-2.6,6.468,6.468,0,0,1,3.691-.879H77.4v-.559q0-1.462-1.26-1.462a1.03,1.03,0,0,0-1.172,1.158H71.675a2.95,2.95,0,0,1,1.3-2.487,5.479,5.479,0,0,1,3.325-.956,4.8,4.8,0,0,1,3.193.986A3.429,3.429,0,0,1,80.7-7.07v4.678a4.79,4.79,0,0,0,.449,2.227V0ZM75.8-2.148a1.836,1.836,0,0,0,1.021-.264,1.653,1.653,0,0,0,.581-.6V-4.7H76.44q-1.719,0-1.719,1.543a.942.942,0,0,0,.3.728A1.1,1.1,0,0,0,75.8-2.148ZM86.353-13.193v2.627h1.738v2.285H86.353v4.834a1.234,1.234,0,0,0,.215.83,1.152,1.152,0,0,0,.85.234,4.828,4.828,0,0,0,.82-.059V-.088A6.074,6.074,0,0,1,86.382.2a3.448,3.448,0,0,1-2.51-.8,3.282,3.282,0,0,1-.811-2.432V-8.281H81.714v-2.285h1.348v-2.627Zm2.324,7.813A6.236,6.236,0,0,1,89.292-8.2a4.4,4.4,0,0,1,1.768-1.9,5.323,5.323,0,0,1,2.705-.664,4.858,4.858,0,0,1,3.74,1.47,5.64,5.64,0,0,1,1.367,4v.117A5.472,5.472,0,0,1,97.5-1.255,4.871,4.871,0,0,1,93.784.2a4.927,4.927,0,0,1-3.623-1.353,5.29,5.29,0,0,1-1.475-3.667Zm3.291.205a3.932,3.932,0,0,0,.459,2.148,1.529,1.529,0,0,0,1.357.684q1.758,0,1.8-2.705v-.332q0-2.842-1.816-2.842-1.65,0-1.787,2.451Zm13.887,2.207a.76.76,0,0,0-.439-.674,6.685,6.685,0,0,0-1.67-.527,7.615,7.615,0,0,1-2.031-.718,3.4,3.4,0,0,1-1.221-1.079,2.577,2.577,0,0,1-.42-1.455,2.92,2.92,0,0,1,1.2-2.4,4.948,4.948,0,0,1,3.145-.942,5.482,5.482,0,0,1,3.359.947,2.962,2.962,0,0,1,1.27,2.49h-3.3q0-1.27-1.338-1.27a1.326,1.326,0,0,0-.869.288.892.892,0,0,0-.352.718.819.819,0,0,0,.43.713,4.06,4.06,0,0,0,1.372.449,11.857,11.857,0,0,1,1.655.42,3.007,3.007,0,0,1,2.383,2.939,2.767,2.767,0,0,1-1.284,2.354A5.631,5.631,0,0,1,104.419.2,5.747,5.747,0,0,1,102-.293a4.05,4.05,0,0,1-1.66-1.328,3.007,3.007,0,0,1-.6-1.768h3.076a1.272,1.272,0,0,0,.488,1.069,2.009,2.009,0,0,0,1.2.337,1.58,1.58,0,0,0,1.011-.273A.875.875,0,0,0,105.854-2.969Z" transform="translate(392 2575)" fill="#12263f"/>
    <path id="Trazado_105890" data-name="Trazado 105890" d="M-16.665-5.664h-5.527V0H-25.62V-14.219h9.512v2.646h-6.084V-8.3h5.527ZM-11.245,0h-3.311V-10.566h3.311Zm-1.23-14.8H-9l-2.715,3.066-2.686,0ZM-3.6-2.969a.76.76,0,0,0-.439-.674,6.685,6.685,0,0,0-1.67-.527,7.615,7.615,0,0,1-2.031-.718A3.4,3.4,0,0,1-8.96-5.967a2.577,2.577,0,0,1-.42-1.455,2.92,2.92,0,0,1,1.2-2.4,4.948,4.948,0,0,1,3.145-.942,5.482,5.482,0,0,1,3.359.947,2.962,2.962,0,0,1,1.27,2.49h-3.3q0-1.27-1.338-1.27a1.326,1.326,0,0,0-.869.288.892.892,0,0,0-.352.718.819.819,0,0,0,.43.713,4.06,4.06,0,0,0,1.372.449,11.857,11.857,0,0,1,1.655.42A3.007,3.007,0,0,1-.425-3.066,2.767,2.767,0,0,1-1.709-.713,5.632,5.632,0,0,1-5.034.2,5.747,5.747,0,0,1-7.456-.293a4.05,4.05,0,0,1-1.66-1.328,3.007,3.007,0,0,1-.6-1.768h3.076a1.272,1.272,0,0,0,.488,1.069,2.009,2.009,0,0,0,1.2.337,1.58,1.58,0,0,0,1.011-.273A.875.875,0,0,0-3.6-2.969ZM4.585,0h-3.3V-10.566h3.3Zm-3.5-13.3A1.482,1.482,0,0,1,1.6-14.46a1.909,1.909,0,0,1,1.318-.452,1.909,1.909,0,0,1,1.318.452A1.482,1.482,0,0,1,4.741-13.3a1.482,1.482,0,0,1-.508,1.159,1.909,1.909,0,0,1-1.318.452A1.909,1.909,0,0,1,1.6-12.141,1.482,1.482,0,0,1,1.089-13.3Zm9.99,10.957a1.464,1.464,0,0,0,1.074-.376,1.379,1.379,0,0,0,.371-1.05H15.61A3.653,3.653,0,0,1,14.365-.918,4.631,4.631,0,0,1,11.157.2,4.689,4.689,0,0,1,7.524-1.25a5.7,5.7,0,0,1-1.328-4v-.137a6.436,6.436,0,0,1,.591-2.827,4.3,4.3,0,0,1,1.7-1.885,5.081,5.081,0,0,1,2.637-.659A4.573,4.573,0,0,1,14.4-9.619a4.053,4.053,0,0,1,1.211,3.1H12.524a1.807,1.807,0,0,0-.4-1.26,1.382,1.382,0,0,0-1.074-.439q-1.279,0-1.494,1.631a11.508,11.508,0,0,0-.068,1.426,4.52,4.52,0,0,0,.381,2.207A1.319,1.319,0,0,0,11.079-2.344ZM22.954,0a3.716,3.716,0,0,1-.312-.947A3.06,3.06,0,0,1,20.1.2a3.749,3.749,0,0,1-2.539-.9,2.875,2.875,0,0,1-1.045-2.271,2.955,2.955,0,0,1,1.27-2.6,6.468,6.468,0,0,1,3.691-.879H22.5v-.559q0-1.462-1.26-1.462a1.03,1.03,0,0,0-1.172,1.158H16.772a2.95,2.95,0,0,1,1.3-2.487,5.479,5.479,0,0,1,3.325-.956,4.8,4.8,0,0,1,3.193.986A3.429,3.429,0,0,1,25.8-7.07v4.678a4.79,4.79,0,0,0,.449,2.227V0ZM20.894-2.148a1.836,1.836,0,0,0,1.021-.264,1.653,1.653,0,0,0,.581-.6V-4.7h-.957q-1.719,0-1.719,1.543a.942.942,0,0,0,.3.728A1.1,1.1,0,0,0,20.894-2.148Z" transform="translate(392 2648)" fill="#12263f"/>
    <path id="Trazado_105883" data-name="Trazado 105883" d="M-30.132-11.572H-34.4V0h-3.428V-11.572h-4.189v-2.646h11.885Zm12.676,6.758a5.193,5.193,0,0,1-.8,2.622A4.833,4.833,0,0,1-20.312-.43,7,7,0,0,1-23.335.2a5.584,5.584,0,0,1-4.414-1.826A7.54,7.54,0,0,1-29.36-6.787v-.7a8.607,8.607,0,0,1,.728-3.657,5.513,5.513,0,0,1,2.095-2.422,5.844,5.844,0,0,1,3.164-.854,6.129,6.129,0,0,1,4.16,1.362,5.383,5.383,0,0,1,1.787,3.755h-3.418a2.547,2.547,0,0,0-.654-1.865,2.691,2.691,0,0,0-1.875-.566,2.048,2.048,0,0,0-1.875.957,6.151,6.151,0,0,0-.625,3.057v1.006A6.806,6.806,0,0,0-25.3-3.467a2.091,2.091,0,0,0,1.968.977,2.632,2.632,0,0,0,1.807-.557,2.363,2.363,0,0,0,.664-1.768Zm5.049-.01V0h-3.428V-14.219h5.674a6.608,6.608,0,0,1,2.886.6,4.526,4.526,0,0,1,1.943,1.709,4.667,4.667,0,0,1,.688,2.515A4.114,4.114,0,0,1-6.133-6.069,6.179,6.179,0,0,1-10.22-4.824Zm0-2.646h2.246a2.118,2.118,0,0,0,1.519-.5A1.85,1.85,0,0,0-8.12-9.375a2.287,2.287,0,0,0-.537-1.592,1.9,1.9,0,0,0-1.465-.605h-2.285ZM-1.841,1.221H-4.175L.679-14.219H3.022Zm17.2-15.439v9.307a5.349,5.349,0,0,1-.674,2.739A4.365,4.365,0,0,1,12.749-.41,6.812,6.812,0,0,1,9.771.2,5.885,5.885,0,0,1,5.679-1.152,4.806,4.806,0,0,1,4.155-4.844v-9.375H7.6v9.443q.059,2.334,2.168,2.334a2.1,2.1,0,0,0,1.611-.586,2.739,2.739,0,0,0,.547-1.9v-9.287ZM17.5,0V-14.219h4.58a6.737,6.737,0,0,1,3.389.854,6.006,6.006,0,0,1,2.349,2.412,7.283,7.283,0,0,1,.854,3.491v.654a7.325,7.325,0,0,1-.825,3.5A6.032,6.032,0,0,1,25.518-.884,6.589,6.589,0,0,1,22.173,0Zm3.428-11.572v8.936h1.191a2.666,2.666,0,0,0,2.266-1.05,5.145,5.145,0,0,0,.791-3.12v-.615a5.1,5.1,0,0,0-.791-3.105,2.713,2.713,0,0,0-2.3-1.045Zm12.93,6.748V0H30.425V-14.219H36.1a6.608,6.608,0,0,1,2.886.6,4.526,4.526,0,0,1,1.943,1.709,4.667,4.667,0,0,1,.688,2.515,4.114,4.114,0,0,1-1.489,3.325A6.179,6.179,0,0,1,36.04-4.824Zm0-2.646H36.1a2.118,2.118,0,0,0,1.519-.5,1.85,1.85,0,0,0,.522-1.406,2.287,2.287,0,0,0-.537-1.592,1.9,1.9,0,0,0-1.465-.605H33.853Z" transform="translate(800 2383)" fill="#12263f"/>
    <path id="Trazado_105887" data-name="Trazado 105887" d="M-46.758,0h-3.418V-14.219h3.418Zm5.811-4.824V0h-3.428V-14.219H-38.7a6.608,6.608,0,0,1,2.886.6,4.526,4.526,0,0,1,1.943,1.709,4.667,4.667,0,0,1,.688,2.515,4.114,4.114,0,0,1-1.489,3.325A6.179,6.179,0,0,1-38.76-4.824Zm0-2.646H-38.7a2.118,2.118,0,0,0,1.519-.5,1.85,1.85,0,0,0,.522-1.406,2.287,2.287,0,0,0-.537-1.592,1.9,1.9,0,0,0-1.465-.605h-2.285Zm13.8,3.555,1.67-6.65h3.467L-25.459,0h-3.359l-3.447-10.566h3.477Zm14.756-1.641h1.445v2.539h-1.445V0h-3.291V-3.018h-5.5l-.2-2.012,5.693-9.16v-.029h3.291Zm-5.85,0h2.559V-9.932l-.205.332Zm9.951,9.385-1.66-.781.332-.664A5.416,5.416,0,0,0-8.906-.039V-2.48H-6.27l-.01,2.119a5.3,5.3,0,0,1-.576,2.285A5.806,5.806,0,0,1-8.291,3.828ZM4.727,0H1.309V-14.219H4.727Zm5.811-4.824V0H7.109V-14.219h5.674a6.608,6.608,0,0,1,2.886.6,4.526,4.526,0,0,1,1.943,1.709A4.667,4.667,0,0,1,18.3-9.395a4.114,4.114,0,0,1-1.489,3.325,6.179,6.179,0,0,1-4.087,1.245Zm0-2.646h2.246a2.118,2.118,0,0,0,1.519-.5,1.85,1.85,0,0,0,.522-1.406,2.287,2.287,0,0,0-.537-1.592,1.9,1.9,0,0,0-1.465-.605H10.537Zm13.8,3.555,1.67-6.65h3.467L26.025,0H22.666L19.219-10.566H22.7ZM38.35-14.424v2.588H38.2a4.941,4.941,0,0,0-3.032.884A3.732,3.732,0,0,0,33.711-8.5,3.848,3.848,0,0,1,36.523-9.59a3.59,3.59,0,0,1,2.939,1.348,5.436,5.436,0,0,1,1.094,3.535,4.977,4.977,0,0,1-.64,2.49A4.564,4.564,0,0,1,38.13-.444,5.135,5.135,0,0,1,35.586.2a5.307,5.307,0,0,1-2.705-.688,4.733,4.733,0,0,1-1.855-1.968,6.48,6.48,0,0,1-.684-2.949V-6.729a8.208,8.208,0,0,1,.942-3.95,6.832,6.832,0,0,1,2.69-2.749,7.692,7.692,0,0,1,3.877-1ZM35.381-7.051a1.889,1.889,0,0,0-1.094.3,1.917,1.917,0,0,0-.654.739v.982q0,2.684,1.865,2.684a1.515,1.515,0,0,0,1.255-.671,2.727,2.727,0,0,0,.5-1.682,2.677,2.677,0,0,0-.513-1.7A1.642,1.642,0,0,0,35.381-7.051ZM43.193,3.828l-1.66-.781.332-.664a5.416,5.416,0,0,0,.713-2.422V-2.48h2.637l-.01,2.119a5.3,5.3,0,0,1-.576,2.285A5.806,5.806,0,0,1,43.193,3.828ZM-72.227,27h-3.418V12.781h3.418Zm13.887-4.814a5.193,5.193,0,0,1-.8,2.622A4.833,4.833,0,0,1-61.2,26.57a7,7,0,0,1-3.022.625,5.584,5.584,0,0,1-4.414-1.826,7.54,7.54,0,0,1-1.611-5.156v-.7a8.607,8.607,0,0,1,.728-3.657,5.513,5.513,0,0,1,2.095-2.422,5.844,5.844,0,0,1,3.164-.854,6.129,6.129,0,0,1,4.16,1.362,5.383,5.383,0,0,1,1.787,3.755h-3.418a2.547,2.547,0,0,0-.654-1.865,2.691,2.691,0,0,0-1.875-.566,2.048,2.048,0,0,0-1.875.957,6.151,6.151,0,0,0-.625,3.057v1.006a6.806,6.806,0,0,0,.571,3.252,2.091,2.091,0,0,0,1.968.977,2.632,2.632,0,0,0,1.807-.557,2.363,2.363,0,0,0,.664-1.768Zm6.123-9.4,3.174,9.893,3.164-9.893h4.512V27H-44.8V23.68l.332-6.8L-47.91,27h-2.266l-3.447-10.127.332,6.807V27h-3.428V12.781Zm16.455,9.395V27h-3.428V12.781h5.674a6.608,6.608,0,0,1,2.886.6,4.526,4.526,0,0,1,1.943,1.709A4.667,4.667,0,0,1-28,17.605a4.114,4.114,0,0,1-1.489,3.325,6.179,6.179,0,0,1-4.087,1.245Zm0-2.646h2.246a2.118,2.118,0,0,0,1.519-.5,1.85,1.85,0,0,0,.522-1.406,2.287,2.287,0,0,0-.537-1.592,1.9,1.9,0,0,0-1.465-.605h-2.285Zm13.8,3.555,1.67-6.65h3.467L-20.273,27h-3.359L-27.08,16.434H-23.6Zm14.756-1.641h1.445v2.539H-7.207V27H-10.5V23.982H-16l-.2-2.012,5.693-9.16v-.029h3.291Zm-5.85,0H-10.5V17.068l-.205.332Zm9.951,9.385-1.66-.781.332-.664a5.416,5.416,0,0,0,.713-2.422V24.52h2.637l-.01,2.119a5.3,5.3,0,0,1-.576,2.285A5.806,5.806,0,0,1-3.105,30.828ZM9.912,27H6.494V12.781H9.912ZM23.8,22.186a5.193,5.193,0,0,1-.8,2.622,4.833,4.833,0,0,1-2.056,1.763,7,7,0,0,1-3.022.625,5.584,5.584,0,0,1-4.414-1.826,7.54,7.54,0,0,1-1.611-5.156v-.7a8.607,8.607,0,0,1,.728-3.657,5.513,5.513,0,0,1,2.095-2.422,5.844,5.844,0,0,1,3.164-.854,6.129,6.129,0,0,1,4.16,1.362,5.383,5.383,0,0,1,1.787,3.755H20.41a2.547,2.547,0,0,0-.654-1.865,2.691,2.691,0,0,0-1.875-.566,2.048,2.048,0,0,0-1.875.957,6.151,6.151,0,0,0-.625,3.057v1.006a6.806,6.806,0,0,0,.571,3.252,2.091,2.091,0,0,0,1.968.977,2.632,2.632,0,0,0,1.807-.557,2.363,2.363,0,0,0,.664-1.768Zm6.123-9.4L33.1,22.674l3.164-9.893h4.512V27H37.334V23.68l.332-6.8L34.229,27H31.963L28.516,16.873l.332,6.807V27H25.42V12.781Zm16.455,9.395V27H42.949V12.781h5.674a6.608,6.608,0,0,1,2.886.6,4.526,4.526,0,0,1,1.943,1.709,4.667,4.667,0,0,1,.688,2.515,4.114,4.114,0,0,1-1.489,3.325,6.179,6.179,0,0,1-4.087,1.245Zm0-2.646h2.246a2.118,2.118,0,0,0,1.519-.5,1.85,1.85,0,0,0,.522-1.406,2.287,2.287,0,0,0-.537-1.592,1.9,1.9,0,0,0-1.465-.605H46.377Zm13.8,3.555,1.67-6.65h3.467L61.865,27H58.506L55.059,16.434h3.477ZM74.189,12.576v2.588h-.146a4.941,4.941,0,0,0-3.032.884,3.732,3.732,0,0,0-1.46,2.456,3.848,3.848,0,0,1,2.813-1.094A3.59,3.59,0,0,1,75.3,18.758,5.436,5.436,0,0,1,76.4,22.293a4.977,4.977,0,0,1-.64,2.49,4.564,4.564,0,0,1-1.787,1.772,5.135,5.135,0,0,1-2.544.64,5.307,5.307,0,0,1-2.705-.688,4.733,4.733,0,0,1-1.855-1.968,6.48,6.48,0,0,1-.684-2.949V20.271a8.208,8.208,0,0,1,.942-3.95,6.832,6.832,0,0,1,2.69-2.749,7.692,7.692,0,0,1,3.877-1Zm-2.969,7.373a1.889,1.889,0,0,0-1.094.3,1.917,1.917,0,0,0-.654.739v.982q0,2.684,1.865,2.684a1.515,1.515,0,0,0,1.255-.671,2.727,2.727,0,0,0,.5-1.682,2.677,2.677,0,0,0-.513-1.7A1.642,1.642,0,0,0,71.221,19.949Z" transform="translate(800 2462)" fill="#12263f"/>
    <path id="Trazado_105891" data-name="Trazado 105891" d="M-117-4.824V0h-3.428V-14.219h5.674a6.608,6.608,0,0,1,2.886.6,4.526,4.526,0,0,1,1.943,1.709,4.667,4.667,0,0,1,.688,2.515,4.114,4.114,0,0,1-1.489,3.325,6.179,6.179,0,0,1-4.087,1.245Zm0-2.646h2.246a2.118,2.118,0,0,0,1.519-.5,1.85,1.85,0,0,0,.522-1.406,2.287,2.287,0,0,0-.537-1.592,1.9,1.9,0,0,0-1.465-.605H-117Zm13.018,2.646V0h-3.428V-14.219h5.674a6.608,6.608,0,0,1,2.886.6,4.526,4.526,0,0,1,1.943,1.709,4.667,4.667,0,0,1,.688,2.515A4.114,4.114,0,0,1-97.71-6.069,6.179,6.179,0,0,1-101.8-4.824Zm0-2.646h2.246a2.118,2.118,0,0,0,1.519-.5A1.85,1.85,0,0,0-99.7-9.375a2.287,2.287,0,0,0-.537-1.592,1.9,1.9,0,0,0-1.465-.605h-2.285Zm13.018,2.646V0h-3.428V-14.219h5.674a6.608,6.608,0,0,1,2.886.6,4.526,4.526,0,0,1,1.943,1.709A4.667,4.667,0,0,1-83.2-9.395a4.114,4.114,0,0,1-1.489,3.325,6.179,6.179,0,0,1-4.087,1.245Zm0-2.646h2.246a2.118,2.118,0,0,0,1.519-.5,1.85,1.85,0,0,0,.522-1.406,2.287,2.287,0,0,0-.537-1.592,1.9,1.9,0,0,0-1.465-.605h-2.285Zm6.65,11.3-1.66-.781.332-.664a5.416,5.416,0,0,0,.713-2.422V-2.48h2.637L-82.3-.361a5.3,5.3,0,0,1-.576,2.285A5.806,5.806,0,0,1-84.316,3.828ZM-66-5.664h-5.527V0h-3.428V-14.219h9.512v2.646h-6.084V-8.3H-66Zm7.969-1.924-1.084-.078a1.947,1.947,0,0,0-1.992.977V0h-3.291V-10.566h3.086l.107,1.357a2.548,2.548,0,0,1,2.314-1.553,3.209,3.209,0,0,1,.918.117ZM-51.182,0a3.716,3.716,0,0,1-.312-.947A3.06,3.06,0,0,1-54.033.2a3.749,3.749,0,0,1-2.539-.9,2.875,2.875,0,0,1-1.045-2.271,2.955,2.955,0,0,1,1.27-2.6,6.468,6.468,0,0,1,3.691-.879h1.016v-.559q0-1.462-1.26-1.462a1.03,1.03,0,0,0-1.172,1.158h-3.291a2.95,2.95,0,0,1,1.3-2.487,5.479,5.479,0,0,1,3.325-.956,4.8,4.8,0,0,1,3.193.986,3.429,3.429,0,0,1,1.2,2.705v4.678a4.79,4.79,0,0,0,.449,2.227V0Zm-2.061-2.148a1.836,1.836,0,0,0,1.021-.264,1.653,1.653,0,0,0,.581-.6V-4.7H-52.6q-1.719,0-1.719,1.543a.942.942,0,0,0,.3.728A1.1,1.1,0,0,0-53.242-2.148Zm9.834-8.418.107,1.24a3.633,3.633,0,0,1,3.018-1.436A2.675,2.675,0,0,1-37.578-9.17a3.516,3.516,0,0,1,3.105-1.592q3.213,0,3.3,3.887V0h-3.3V-6.67a2.014,2.014,0,0,0-.273-1.182,1.164,1.164,0,0,0-1-.371,1.559,1.559,0,0,0-1.455.869l.01.137V0h-3.3V-6.65a2.117,2.117,0,0,0-.264-1.2,1.161,1.161,0,0,0-1.006-.371,1.578,1.578,0,0,0-1.445.869V0h-3.291V-10.566ZM-24.18.2a5.432,5.432,0,0,1-3.936-1.45,5.008,5.008,0,0,1-1.5-3.774V-5.3a6.489,6.489,0,0,1,.6-2.861,4.395,4.395,0,0,1,1.753-1.919,5.292,5.292,0,0,1,2.734-.679A4.574,4.574,0,0,1-21.016-9.38a5.43,5.43,0,0,1,1.289,3.853v1.279H-26.27a2.372,2.372,0,0,0,.771,1.4,2.3,2.3,0,0,0,1.543.508,2.958,2.958,0,0,0,2.441-1.094l1.5,1.777A4.2,4.2,0,0,1-21.753-.308,5.891,5.891,0,0,1-24.18.2Zm-.371-8.418q-1.445,0-1.719,1.914h3.32v-.254a1.63,1.63,0,0,0-.4-1.226A1.593,1.593,0,0,0-24.551-8.223ZM-7.988-5.029H-9.844V0h-3.428V-14.219h5.6A6.246,6.246,0,0,1-3.721-13.1a3.8,3.8,0,0,1,1.426,3.17,4.616,4.616,0,0,1-.6,2.458,4.263,4.263,0,0,1-1.88,1.58L-1.807-.147V0H-5.479ZM-9.844-7.666h2.168a1.946,1.946,0,0,0,1.47-.514,1.987,1.987,0,0,0,.493-1.434,2.01,2.01,0,0,0-.5-1.444,1.928,1.928,0,0,0-1.465-.524H-9.844ZM4.736.2A5.432,5.432,0,0,1,.8-1.255,5.008,5.008,0,0,1-.7-5.029V-5.3A6.489,6.489,0,0,1-.1-8.164,4.395,4.395,0,0,1,1.65-10.083a5.292,5.292,0,0,1,2.734-.679A4.574,4.574,0,0,1,7.9-9.38,5.43,5.43,0,0,1,9.189-5.527v1.279H2.646a2.372,2.372,0,0,0,.771,1.4,2.3,2.3,0,0,0,1.543.508A2.958,2.958,0,0,0,7.4-3.437l1.5,1.777A4.2,4.2,0,0,1,7.163-.308,5.891,5.891,0,0,1,4.736.2ZM4.365-8.223q-1.445,0-1.719,1.914h3.32v-.254a1.63,1.63,0,0,0-.4-1.226A1.593,1.593,0,0,0,4.365-8.223ZM13.984,0h-3.3V-15h3.3Zm7.979,0a3.716,3.716,0,0,1-.312-.947A3.06,3.06,0,0,1,19.111.2a3.749,3.749,0,0,1-2.539-.9,2.875,2.875,0,0,1-1.045-2.271,2.955,2.955,0,0,1,1.27-2.6,6.468,6.468,0,0,1,3.691-.879H21.5v-.559q0-1.462-1.26-1.462a1.03,1.03,0,0,0-1.172,1.158H15.781a2.95,2.95,0,0,1,1.3-2.487,5.479,5.479,0,0,1,3.325-.956,4.8,4.8,0,0,1,3.193.986A3.429,3.429,0,0,1,24.8-7.07v4.678a4.79,4.79,0,0,0,.449,2.227V0ZM19.9-2.148a1.836,1.836,0,0,0,1.021-.264,1.653,1.653,0,0,0,.581-.6V-4.7h-.957q-1.719,0-1.719,1.543a.942.942,0,0,0,.3.728A1.1,1.1,0,0,0,19.9-2.148ZM30.7-4.609l1.758-5.957h3.525L31.68,1.768l-.186.449a3.272,3.272,0,0,1-3.242,2.051,5.158,5.158,0,0,1-1.357-.195V1.729h.43a2.251,2.251,0,0,0,1.06-.2A1.216,1.216,0,0,0,28.926.81l.264-.7L25.518-10.566h3.516Zm5.664,8.438-1.66-.781.332-.664a5.416,5.416,0,0,0,.713-2.422V-2.48h2.637l-.01,2.119A5.3,5.3,0,0,1,37.8,1.924,5.806,5.806,0,0,1,36.367,3.828ZM54.551-6.035H49.16v3.4h6.367V0H45.732V-14.219h9.814v2.646H49.16v3h5.391Zm6.055-7.158v2.627h1.738v2.285H60.605v4.834a1.234,1.234,0,0,0,.215.83,1.152,1.152,0,0,0,.85.234,4.828,4.828,0,0,0,.82-.059V-.088A6.074,6.074,0,0,1,60.635.2a3.448,3.448,0,0,1-2.51-.8,3.282,3.282,0,0,1-.811-2.432V-8.281H55.967v-2.285h1.348v-2.627Zm6.25,3.76a3.294,3.294,0,0,1,2.7-1.328,3.284,3.284,0,0,1,2.637,1.035A4.651,4.651,0,0,1,73.1-6.67V0h-3.3V-6.592a1.86,1.86,0,0,0-.342-1.235,1.469,1.469,0,0,0-1.162-.4,1.582,1.582,0,0,0-1.436.645V0H63.564V-15h3.291ZM80.039.2A5.432,5.432,0,0,1,76.1-1.255a5.008,5.008,0,0,1-1.5-3.774V-5.3a6.489,6.489,0,0,1,.6-2.861,4.395,4.395,0,0,1,1.753-1.919,5.292,5.292,0,0,1,2.734-.679A4.574,4.574,0,0,1,83.2-9.38a5.43,5.43,0,0,1,1.289,3.853v1.279H77.949a2.372,2.372,0,0,0,.771,1.4,2.3,2.3,0,0,0,1.543.508,2.958,2.958,0,0,0,2.441-1.094l1.5,1.777A4.2,4.2,0,0,1,82.466-.308,5.891,5.891,0,0,1,80.039.2Zm-.371-8.418q-1.445,0-1.719,1.914h3.32v-.254a1.63,1.63,0,0,0-.4-1.226A1.593,1.593,0,0,0,79.668-8.223Zm12.539.635-1.084-.078a1.947,1.947,0,0,0-1.992.977V0H85.84V-10.566h3.086l.107,1.357a2.548,2.548,0,0,1,2.314-1.553,3.209,3.209,0,0,1,.918.117Zm4.209-2.979.107,1.24a3.583,3.583,0,0,1,3.018-1.436,3.015,3.015,0,0,1,2.466.986,4.7,4.7,0,0,1,.845,2.969V0h-3.3V-6.67a1.783,1.783,0,0,0-.322-1.177,1.491,1.491,0,0,0-1.172-.376,1.569,1.569,0,0,0-1.436.762V0H93.33V-10.566ZM109.785.2a5.432,5.432,0,0,1-3.936-1.45,5.008,5.008,0,0,1-1.5-3.774V-5.3a6.489,6.489,0,0,1,.6-2.861,4.395,4.395,0,0,1,1.753-1.919,5.292,5.292,0,0,1,2.734-.679,4.574,4.574,0,0,1,3.516,1.382,5.43,5.43,0,0,1,1.289,3.853v1.279H107.7a2.372,2.372,0,0,0,.771,1.4,2.3,2.3,0,0,0,1.543.508,2.958,2.958,0,0,0,2.441-1.094l1.5,1.777a4.2,4.2,0,0,1-1.743,1.353A5.891,5.891,0,0,1,109.785.2Zm-.371-8.418q-1.445,0-1.719,1.914h3.32v-.254a1.63,1.63,0,0,0-.4-1.226A1.593,1.593,0,0,0,109.414-8.223Zm9.98-4.971v2.627h1.738v2.285h-1.738v4.834a1.234,1.234,0,0,0,.215.83,1.152,1.152,0,0,0,.85.234,4.828,4.828,0,0,0,.82-.059V-.088A6.074,6.074,0,0,1,119.424.2a3.448,3.448,0,0,1-2.51-.8,3.282,3.282,0,0,1-.811-2.432V-8.281h-1.348v-2.285H116.1v-2.627Z" transform="translate(800 2610)" fill="#12263f"/>
    <path id="Rectángulo_5246" data-name="Rectángulo 5246" d="M30,0H1210a30,30,0,0,1,30,30V65a0,0,0,0,1,0,0H0a0,0,0,0,1,0,0V30A30,30,0,0,1,30,0Z" transform="translate(180 2013)" fill="#ffa726"/>
    <path id="Trazado_105875" data-name="Trazado 105875" d="M-46.909-14.219l3.174,9.893,3.164-9.893h4.512V0H-39.5V-3.32l.332-6.8L-42.6,0h-2.266l-3.447-10.127.332,6.807V0h-3.428V-14.219Zm12.461,8.838A6.236,6.236,0,0,1-33.833-8.2a4.4,4.4,0,0,1,1.768-1.9,5.323,5.323,0,0,1,2.705-.664,4.858,4.858,0,0,1,3.74,1.47,5.64,5.64,0,0,1,1.367,4v.117a5.472,5.472,0,0,1-1.372,3.921A4.871,4.871,0,0,1-29.341.2a4.927,4.927,0,0,1-3.623-1.353,5.29,5.29,0,0,1-1.475-3.667Zm3.291.205A3.932,3.932,0,0,0-30.7-3.027a1.529,1.529,0,0,0,1.357.684q1.758,0,1.8-2.705v-.332q0-2.842-1.816-2.842-1.65,0-1.787,2.451Zm7.939-.186a6.455,6.455,0,0,1,1.084-3.955,3.568,3.568,0,0,1,3.027-1.445,3.035,3.035,0,0,1,2.383,1.113V-15h3.3V0h-2.959l-.166-1.133A3.116,3.116,0,0,1-19.126.2,3.562,3.562,0,0,1-22.114-1.25,6.659,6.659,0,0,1-23.218-5.361Zm3.291.205q0,2.813,1.641,2.813a1.62,1.62,0,0,0,1.563-.918V-7.285a1.576,1.576,0,0,0-1.543-.937q-1.523,0-1.65,2.461ZM-6.44.2a5.432,5.432,0,0,1-3.936-1.45,5.008,5.008,0,0,1-1.5-3.774V-5.3a6.489,6.489,0,0,1,.6-2.861,4.395,4.395,0,0,1,1.753-1.919,5.292,5.292,0,0,1,2.734-.679A4.574,4.574,0,0,1-3.276-9.38,5.43,5.43,0,0,1-1.987-5.527v1.279H-8.53a2.372,2.372,0,0,0,.771,1.4,2.3,2.3,0,0,0,1.543.508A2.958,2.958,0,0,0-3.774-3.437l1.5,1.777A4.2,4.2,0,0,1-4.014-.308,5.891,5.891,0,0,1-6.44.2Zm-.371-8.418q-1.445,0-1.719,1.914h3.32v-.254a1.63,1.63,0,0,0-.4-1.226A1.593,1.593,0,0,0-6.812-8.223ZM2.808,0h-3.3V-15h3.3ZM4.419-5.381A6.236,6.236,0,0,1,5.034-8.2,4.4,4.4,0,0,1,6.8-10.1a5.323,5.323,0,0,1,2.705-.664,4.858,4.858,0,0,1,3.74,1.47,5.64,5.64,0,0,1,1.367,4v.117a5.472,5.472,0,0,1-1.372,3.921A4.871,4.871,0,0,1,9.526.2,4.927,4.927,0,0,1,5.9-1.157,5.29,5.29,0,0,1,4.429-4.824Zm3.291.205a3.932,3.932,0,0,0,.459,2.148,1.529,1.529,0,0,0,1.357.684q1.758,0,1.8-2.705v-.332q0-2.842-1.816-2.842-1.65,0-1.787,2.451ZM33.237-6.816a8.385,8.385,0,0,1-.771,3.682A5.7,5.7,0,0,1,30.273-.669,6.1,6.1,0,0,1,27.036.2,6.191,6.191,0,0,1,23.813-.64a5.692,5.692,0,0,1-2.192-2.388A8.144,8.144,0,0,1,20.8-6.592v-.8a8.422,8.422,0,0,1,.767-3.687,5.688,5.688,0,0,1,2.2-2.466,6.147,6.147,0,0,1,3.257-.869,6.087,6.087,0,0,1,3.223.859,5.79,5.79,0,0,1,2.2,2.446,8.18,8.18,0,0,1,.8,3.638Zm-3.486-.6a5.979,5.979,0,0,0-.708-3.218,2.271,2.271,0,0,0-2.026-1.1q-2.578,0-2.725,3.867l-.01,1.045A6.149,6.149,0,0,0,24.976-3.6,2.268,2.268,0,0,0,27.036-2.48a2.24,2.24,0,0,0,2-1.1,5.982,5.982,0,0,0,.713-3.174ZM42.339-3.779a1.408,1.408,0,0,0-.532-1.172,6.615,6.615,0,0,0-1.87-.869,17.942,17.942,0,0,1-2.187-.869q-2.764-1.357-2.764-3.73a3.345,3.345,0,0,1,.688-2.085,4.453,4.453,0,0,1,1.948-1.406,7.582,7.582,0,0,1,2.832-.5,6.632,6.632,0,0,1,2.749.547,4.352,4.352,0,0,1,1.89,1.558A4.068,4.068,0,0,1,45.767-10H42.349a1.719,1.719,0,0,0-.532-1.348,2.075,2.075,0,0,0-1.44-.479,2.339,2.339,0,0,0-1.45.405,1.243,1.243,0,0,0-.532,1.03,1.252,1.252,0,0,0,.586.991,7.389,7.389,0,0,0,2.061.918,12.623,12.623,0,0,1,2.422,1.021,4.07,4.07,0,0,1,2.3,3.662A3.472,3.472,0,0,1,44.36-.869,6.255,6.255,0,0,1,40.5.2a7.653,7.653,0,0,1-3.13-.62,4.719,4.719,0,0,1-2.109-1.7,4.428,4.428,0,0,1-.708-2.485h3.438a2.181,2.181,0,0,0,.591,1.685,2.793,2.793,0,0,0,1.919.542,2.206,2.206,0,0,0,1.343-.366A1.209,1.209,0,0,0,42.339-3.779ZM51.177,0H47.759V-14.219h3.418Z" transform="translate(392 2053)" fill="#12263f"/>
    <path id="Trazado_105876" data-name="Trazado 105876" d="M-79.224-3.779a1.408,1.408,0,0,0-.532-1.172,6.615,6.615,0,0,0-1.87-.869,17.941,17.941,0,0,1-2.187-.869q-2.764-1.357-2.764-3.73a3.345,3.345,0,0,1,.688-2.085,4.453,4.453,0,0,1,1.948-1.406,7.582,7.582,0,0,1,2.832-.5,6.632,6.632,0,0,1,2.749.547,4.352,4.352,0,0,1,1.89,1.558A4.068,4.068,0,0,1-75.8-10h-3.418a1.719,1.719,0,0,0-.532-1.348,2.075,2.075,0,0,0-1.44-.479,2.339,2.339,0,0,0-1.45.405,1.243,1.243,0,0,0-.532,1.03,1.252,1.252,0,0,0,.586.991,7.389,7.389,0,0,0,2.061.918A12.623,12.623,0,0,1-78.1-7.461,4.07,4.07,0,0,1-75.8-3.8,3.472,3.472,0,0,1-77.2-.869,6.255,6.255,0,0,1-81.06.2a7.653,7.653,0,0,1-3.13-.62,4.719,4.719,0,0,1-2.109-1.7,4.427,4.427,0,0,1-.708-2.485h3.438a2.181,2.181,0,0,0,.591,1.685,2.793,2.793,0,0,0,1.919.542,2.206,2.206,0,0,0,1.343-.366A1.209,1.209,0,0,0-79.224-3.779ZM-67.9-1.143A3.393,3.393,0,0,1-70.718.2,3.328,3.328,0,0,1-73.35-.815a4.251,4.251,0,0,1-.894-2.905v-6.846h3.291V-3.7a1.183,1.183,0,0,0,1.318,1.357,1.72,1.72,0,0,0,1.611-.811v-7.412h3.311V0H-67.8ZM-59.438,0h-3.3V-10.566h3.3Zm-3.5-13.3a1.482,1.482,0,0,1,.508-1.159,1.909,1.909,0,0,1,1.318-.452,1.909,1.909,0,0,1,1.318.452,1.482,1.482,0,0,1,.508,1.159,1.482,1.482,0,0,1-.508,1.159,1.909,1.909,0,0,1-1.318.452,1.909,1.909,0,0,1-1.318-.452A1.482,1.482,0,0,1-62.935-13.3Zm9.355.107v2.627h1.738v2.285h-1.738v4.834a1.234,1.234,0,0,0,.215.83,1.152,1.152,0,0,0,.85.234,4.828,4.828,0,0,0,.82-.059V-.088A6.074,6.074,0,0,1-53.55.2a3.448,3.448,0,0,1-2.51-.8,3.282,3.282,0,0,1-.811-2.432V-8.281h-1.348v-2.285h1.348v-2.627ZM-45.435.2a5.432,5.432,0,0,1-3.936-1.45,5.008,5.008,0,0,1-1.5-3.774V-5.3a6.489,6.489,0,0,1,.6-2.861,4.395,4.395,0,0,1,1.753-1.919,5.292,5.292,0,0,1,2.734-.679A4.574,4.574,0,0,1-42.271-9.38a5.43,5.43,0,0,1,1.289,3.853v1.279h-6.543a2.372,2.372,0,0,0,.771,1.4,2.3,2.3,0,0,0,1.543.508,2.958,2.958,0,0,0,2.441-1.094l1.5,1.777A4.2,4.2,0,0,1-43.008-.308,5.891,5.891,0,0,1-45.435.2Zm-.371-8.418q-1.445,0-1.719,1.914h3.32v-.254a1.63,1.63,0,0,0-.4-1.226A1.593,1.593,0,0,0-45.806-8.223Zm10.713,2.861a6.455,6.455,0,0,1,1.084-3.955,3.568,3.568,0,0,1,3.027-1.445A3.035,3.035,0,0,1-28.6-9.648V-15h3.3V0h-2.959l-.166-1.133A3.116,3.116,0,0,1-31,.2,3.562,3.562,0,0,1-33.989-1.25,6.659,6.659,0,0,1-35.093-5.361Zm3.291.205q0,2.813,1.641,2.813A1.62,1.62,0,0,0-28.6-3.262V-7.285a1.576,1.576,0,0,0-1.543-.937q-1.523,0-1.65,2.461ZM-18.315.2a5.432,5.432,0,0,1-3.936-1.45,5.008,5.008,0,0,1-1.5-3.774V-5.3a6.489,6.489,0,0,1,.6-2.861A4.395,4.395,0,0,1-21.4-10.083a5.292,5.292,0,0,1,2.734-.679A4.574,4.574,0,0,1-15.151-9.38a5.43,5.43,0,0,1,1.289,3.853v1.279h-6.543a2.372,2.372,0,0,0,.771,1.4,2.3,2.3,0,0,0,1.543.508,2.958,2.958,0,0,0,2.441-1.094l1.5,1.777A4.2,4.2,0,0,1-15.889-.308,5.891,5.891,0,0,1-18.315.2Zm-.371-8.418q-1.445,0-1.719,1.914h3.32v-.254a1.63,1.63,0,0,0-.4-1.226A1.593,1.593,0,0,0-18.687-8.223ZM2.251-5.205A6.372,6.372,0,0,1,1.143-1.274,3.554,3.554,0,0,1-1.851.2,3.046,3.046,0,0,1-4.243-.869V4.063H-7.534V-10.566h3.076l.1.977a3.046,3.046,0,0,1,2.49-1.172,3.582,3.582,0,0,1,3.037,1.44,6.45,6.45,0,0,1,1.084,3.96ZM-1.04-5.41q0-2.812-1.641-2.812a1.549,1.549,0,0,0-1.562.84v4.16a1.6,1.6,0,0,0,1.582.879q1.572,0,1.621-2.715ZM10.093-7.588,9.009-7.666a1.947,1.947,0,0,0-1.992.977V0H3.726V-10.566H6.812l.107,1.357a2.548,2.548,0,0,1,2.314-1.553,3.209,3.209,0,0,1,.918.117Zm.42,2.207A6.236,6.236,0,0,1,11.128-8.2,4.4,4.4,0,0,1,12.9-10.1a5.323,5.323,0,0,1,2.705-.664,4.858,4.858,0,0,1,3.74,1.47,5.64,5.64,0,0,1,1.367,4v.117a5.472,5.472,0,0,1-1.372,3.921A4.871,4.871,0,0,1,15.62.2,4.927,4.927,0,0,1,12-1.157a5.29,5.29,0,0,1-1.475-3.667Zm3.291.205a3.932,3.932,0,0,0,.459,2.148,1.529,1.529,0,0,0,1.357.684q1.758,0,1.8-2.705v-.332q0-2.842-1.816-2.842-1.65,0-1.787,2.451Zm12.188-8.018v2.627h1.738v2.285H25.991v4.834a1.234,1.234,0,0,0,.215.83,1.152,1.152,0,0,0,.85.234,4.828,4.828,0,0,0,.82-.059V-.088A6.074,6.074,0,0,1,26.021.2a3.448,3.448,0,0,1-2.51-.8A3.282,3.282,0,0,1,22.7-3.037V-8.281H21.353v-2.285H22.7v-2.627Zm2.324,7.813A6.236,6.236,0,0,1,28.931-8.2,4.4,4.4,0,0,1,30.7-10.1a5.323,5.323,0,0,1,2.705-.664,4.858,4.858,0,0,1,3.74,1.47,5.64,5.64,0,0,1,1.367,4v.117a5.472,5.472,0,0,1-1.372,3.921A4.871,4.871,0,0,1,33.423.2,4.927,4.927,0,0,1,29.8-1.157a5.29,5.29,0,0,1-1.475-3.667Zm3.291.205a3.932,3.932,0,0,0,.459,2.148,1.529,1.529,0,0,0,1.357.684q1.758,0,1.8-2.705v-.332q0-2.842-1.816-2.842-1.65,0-1.787,2.451ZM44.429-2.344A1.464,1.464,0,0,0,45.5-2.72a1.379,1.379,0,0,0,.371-1.05H48.96A3.653,3.653,0,0,1,47.715-.918,4.631,4.631,0,0,1,44.507.2,4.689,4.689,0,0,1,40.874-1.25a5.7,5.7,0,0,1-1.328-4v-.137a6.436,6.436,0,0,1,.591-2.827,4.3,4.3,0,0,1,1.7-1.885,5.081,5.081,0,0,1,2.637-.659,4.573,4.573,0,0,1,3.271,1.143,4.053,4.053,0,0,1,1.211,3.1H45.874a1.807,1.807,0,0,0-.4-1.26A1.382,1.382,0,0,0,44.4-8.223q-1.279,0-1.494,1.631a11.507,11.507,0,0,0-.068,1.426,4.52,4.52,0,0,0,.381,2.207A1.319,1.319,0,0,0,44.429-2.344Zm5.508-3.037A6.236,6.236,0,0,1,50.552-8.2a4.4,4.4,0,0,1,1.768-1.9,5.323,5.323,0,0,1,2.705-.664,4.858,4.858,0,0,1,3.74,1.47,5.64,5.64,0,0,1,1.367,4v.117A5.472,5.472,0,0,1,58.76-1.255,4.871,4.871,0,0,1,55.044.2a4.927,4.927,0,0,1-3.623-1.353,5.29,5.29,0,0,1-1.475-3.667Zm3.291.205a3.932,3.932,0,0,0,.459,2.148,1.529,1.529,0,0,0,1.357.684q1.758,0,1.8-2.705v-.332q0-2.842-1.816-2.842-1.65,0-1.787,2.451ZM65.054,0h-3.3V-15h3.3Zm1.611-5.381A6.236,6.236,0,0,1,67.28-8.2a4.4,4.4,0,0,1,1.768-1.9,5.323,5.323,0,0,1,2.705-.664,4.858,4.858,0,0,1,3.74,1.47,5.64,5.64,0,0,1,1.367,4v.117a5.472,5.472,0,0,1-1.372,3.921A4.871,4.871,0,0,1,71.772.2a4.927,4.927,0,0,1-3.623-1.353,5.29,5.29,0,0,1-1.475-3.667Zm3.291.205a3.932,3.932,0,0,0,.459,2.148,1.529,1.529,0,0,0,1.357.684q1.758,0,1.8-2.705v-.332q0-2.842-1.816-2.842-1.65,0-1.787,2.451ZM83.843-2.969a.76.76,0,0,0-.439-.674,6.685,6.685,0,0,0-1.67-.527A7.615,7.615,0,0,1,79.7-4.888a3.4,3.4,0,0,1-1.221-1.079,2.577,2.577,0,0,1-.42-1.455,2.92,2.92,0,0,1,1.2-2.4,4.948,4.948,0,0,1,3.145-.942,5.482,5.482,0,0,1,3.359.947,2.962,2.962,0,0,1,1.27,2.49h-3.3q0-1.27-1.338-1.27a1.326,1.326,0,0,0-.869.288.892.892,0,0,0-.352.718.819.819,0,0,0,.43.713,4.06,4.06,0,0,0,1.372.449,11.857,11.857,0,0,1,1.655.42,3.007,3.007,0,0,1,2.383,2.939A2.767,2.767,0,0,1,85.732-.713,5.631,5.631,0,0,1,82.407.2a5.747,5.747,0,0,1-2.422-.488,4.05,4.05,0,0,1-1.66-1.328,3.007,3.007,0,0,1-.6-1.768h3.076a1.272,1.272,0,0,0,.488,1.069,2.009,2.009,0,0,0,1.2.337,1.58,1.58,0,0,0,1.011-.273A.875.875,0,0,0,83.843-2.969Zm-103.882,18.4h-4.268V27h-3.428V15.428h-4.189V12.781h11.885Zm12.676,6.758a5.193,5.193,0,0,1-.8,2.622A4.833,4.833,0,0,1-10.22,26.57a7,7,0,0,1-3.022.625,5.584,5.584,0,0,1-4.414-1.826,7.54,7.54,0,0,1-1.611-5.156v-.7a8.607,8.607,0,0,1,.728-3.657,5.513,5.513,0,0,1,2.095-2.422,5.844,5.844,0,0,1,3.164-.854,6.129,6.129,0,0,1,4.16,1.362,5.383,5.383,0,0,1,1.787,3.755h-3.418a2.547,2.547,0,0,0-.654-1.865,2.691,2.691,0,0,0-1.875-.566,2.048,2.048,0,0,0-1.875.957,6.151,6.151,0,0,0-.625,3.057v1.006a6.806,6.806,0,0,0,.571,3.252,2.091,2.091,0,0,0,1.968.977,2.632,2.632,0,0,0,1.807-.557,2.363,2.363,0,0,0,.664-1.768Zm5.049-.01V27H-5.742V12.781H-.068a6.608,6.608,0,0,1,2.886.6,4.526,4.526,0,0,1,1.943,1.709,4.667,4.667,0,0,1,.688,2.515A4.114,4.114,0,0,1,3.96,20.931,6.179,6.179,0,0,1-.127,22.176Zm0-2.646H-.068a2.118,2.118,0,0,0,1.519-.5,1.85,1.85,0,0,0,.522-1.406,2.287,2.287,0,0,0-.537-1.592,1.9,1.9,0,0,0-1.465-.605H-2.314ZM8.252,28.221H5.918l4.854-15.439h2.344ZM17.949,27H14.531V12.781h3.418Zm5.811-4.824V27H20.332V12.781h5.674a6.608,6.608,0,0,1,2.886.6,4.526,4.526,0,0,1,1.943,1.709,4.667,4.667,0,0,1,.688,2.515,4.114,4.114,0,0,1-1.489,3.325,6.179,6.179,0,0,1-4.087,1.245Zm0-2.646h2.246a2.118,2.118,0,0,0,1.519-.5,1.85,1.85,0,0,0,.522-1.406,2.287,2.287,0,0,0-.537-1.592,1.9,1.9,0,0,0-1.465-.605H23.76Z" transform="translate(800 2039)" fill="#12263f"/>
    <path id="Trazado_105877" data-name="Trazado 105877" d="M-62.71-14.219l3.174,9.893,3.164-9.893h4.512V0H-55.3V-3.32l.332-6.8L-58.4,0h-2.266l-3.447-10.127.332,6.807V0h-3.428V-14.219Zm12.461,8.838A6.236,6.236,0,0,1-49.634-8.2a4.4,4.4,0,0,1,1.768-1.9,5.323,5.323,0,0,1,2.705-.664,4.858,4.858,0,0,1,3.74,1.47,5.64,5.64,0,0,1,1.367,4v.117a5.472,5.472,0,0,1-1.372,3.921A4.871,4.871,0,0,1-45.142.2a4.927,4.927,0,0,1-3.623-1.353,5.29,5.29,0,0,1-1.475-3.667Zm3.291.205A3.932,3.932,0,0,0-46.5-3.027a1.529,1.529,0,0,0,1.357.684q1.758,0,1.8-2.705v-.332q0-2.842-1.816-2.842-1.65,0-1.787,2.451Zm7.939-.186a6.455,6.455,0,0,1,1.084-3.955,3.568,3.568,0,0,1,3.027-1.445,3.035,3.035,0,0,1,2.383,1.113V-15h3.3V0h-2.959l-.166-1.133A3.116,3.116,0,0,1-34.927.2,3.562,3.562,0,0,1-37.915-1.25,6.659,6.659,0,0,1-39.019-5.361Zm3.291.205q0,2.813,1.641,2.813a1.62,1.62,0,0,0,1.563-.918V-7.285a1.576,1.576,0,0,0-1.543-.937q-1.523,0-1.65,2.461ZM-22.241.2a5.432,5.432,0,0,1-3.936-1.45,5.008,5.008,0,0,1-1.5-3.774V-5.3a6.489,6.489,0,0,1,.6-2.861,4.395,4.395,0,0,1,1.753-1.919,5.292,5.292,0,0,1,2.734-.679A4.574,4.574,0,0,1-19.077-9.38a5.43,5.43,0,0,1,1.289,3.853v1.279h-6.543a2.372,2.372,0,0,0,.771,1.4,2.3,2.3,0,0,0,1.543.508,2.958,2.958,0,0,0,2.441-1.094l1.5,1.777A4.2,4.2,0,0,1-19.814-.308,5.891,5.891,0,0,1-22.241.2Zm-.371-8.418q-1.445,0-1.719,1.914h3.32v-.254a1.63,1.63,0,0,0-.4-1.226A1.593,1.593,0,0,0-22.612-8.223ZM-12.993,0h-3.3V-15h3.3Zm1.611-5.381A6.236,6.236,0,0,1-10.767-8.2,4.4,4.4,0,0,1-9-10.1a5.323,5.323,0,0,1,2.705-.664,4.858,4.858,0,0,1,3.74,1.47,5.64,5.64,0,0,1,1.367,4v.117A5.472,5.472,0,0,1-2.559-1.255,4.871,4.871,0,0,1-6.274.2,4.927,4.927,0,0,1-9.9-1.157a5.29,5.29,0,0,1-1.475-3.667Zm3.291.205a3.932,3.932,0,0,0,.459,2.148,1.529,1.529,0,0,0,1.357.684q1.758,0,1.8-2.705v-.332q0-2.842-1.816-2.842-1.65,0-1.787,2.451Zm24.063-6.4H11.7V0H8.276V-11.572H4.087v-2.646H15.972ZM28.647-4.814a5.193,5.193,0,0,1-.8,2.622A4.833,4.833,0,0,1,25.791-.43,7,7,0,0,1,22.769.2a5.584,5.584,0,0,1-4.414-1.826,7.54,7.54,0,0,1-1.611-5.156v-.7a8.607,8.607,0,0,1,.728-3.657,5.513,5.513,0,0,1,2.095-2.422,5.844,5.844,0,0,1,3.164-.854,6.129,6.129,0,0,1,4.16,1.362,5.383,5.383,0,0,1,1.787,3.755H25.259a2.547,2.547,0,0,0-.654-1.865,2.691,2.691,0,0,0-1.875-.566,2.048,2.048,0,0,0-1.875.957,6.151,6.151,0,0,0-.625,3.057v1.006A6.806,6.806,0,0,0,20.8-3.467a2.091,2.091,0,0,0,1.968.977,2.632,2.632,0,0,0,1.807-.557,2.363,2.363,0,0,0,.664-1.768Zm5.049-.01V0H30.269V-14.219h5.674a6.608,6.608,0,0,1,2.886.6,4.526,4.526,0,0,1,1.943,1.709,4.667,4.667,0,0,1,.688,2.515,4.114,4.114,0,0,1-1.489,3.325,6.179,6.179,0,0,1-4.087,1.245Zm0-2.646h2.246a2.118,2.118,0,0,0,1.519-.5,1.85,1.85,0,0,0,.522-1.406,2.287,2.287,0,0,0-.537-1.592,1.9,1.9,0,0,0-1.465-.605H33.7ZM44.263,1.221H41.929l4.854-15.439h2.344ZM53.96,0H50.542V-14.219H53.96Zm5.811-4.824V0H56.343V-14.219h5.674a6.608,6.608,0,0,1,2.886.6,4.526,4.526,0,0,1,1.943,1.709,4.667,4.667,0,0,1,.688,2.515,4.114,4.114,0,0,1-1.489,3.325,6.179,6.179,0,0,1-4.087,1.245Zm0-2.646h2.246a2.118,2.118,0,0,0,1.519-.5,1.85,1.85,0,0,0,.522-1.406,2.287,2.287,0,0,0-.537-1.592,1.9,1.9,0,0,0-1.465-.605H59.771Z" transform="translate(1208 2053)" fill="#12263f"/>
  </g>
</svg>
