<svg xmlns="http://www.w3.org/2000/svg" width="936" height="457" viewBox="0 0 936 457">
  <g id="Grupo_58502" data-name="Grupo 58502" transform="translate(-353 -789)">
    <rect id="Rectángulo_5248" data-name="Rectángulo 5248" width="936" height="457" transform="translate(353 789)" fill="#4dd0e1"/>
    <g id="Grupo_58501" data-name="Grupo 58501" transform="translate(487.008 814.975)">
      <g id="Grupo_54580" data-name="Grupo 54580" transform="translate(245.992)">
        <g id="Grupo_54579" data-name="Grupo 54579">
          <g id="Grupo_54578" data-name="Grupo 54578">
            <g id="Grupo_54577" data-name="Grupo 54577">
              <g id="Grupo_54576" data-name="Grupo 54576">
                <path id="Trazado_100937" data-name="Trazado 100937" d="M887.413-116.355a5.434,5.434,0,0,1,.973-.017l2.859.081c.628.029,1.333.029,2.107.093l2.523.355,2.943.423,3.288.815a53.244,53.244,0,0,1,15.94,6.949A57.2,57.2,0,0,1,934.532-91.6a57.693,57.693,0,0,1,9.352,26.225,58.366,58.366,0,0,1,.157,7.708c-.092,1.3-.066,2.628-.256,3.943s-.4,2.637-.6,3.97a56.576,56.576,0,0,1-5.357,15.685,60.4,60.4,0,0,1-10.244,14.1,59.235,59.235,0,0,1-14.76,10.6,53.665,53.665,0,0,1-17.992,5.522,35.741,35.741,0,0,1-4.8.408,43.532,43.532,0,0,1-4.85.088,57.732,57.732,0,0,1-9.716-1.228,56.791,56.791,0,0,1-19.343-8.14l.587.059-19.7,7.907-1.167.469.333-1.211q2.984-10.846,5.793-21.064l.1.52a56.526,56.526,0,0,1-10.514-24.069,51.174,51.174,0,0,1-.767-12.331,39.851,39.851,0,0,1,.559-5.924q.225-1.45.448-2.881c.176-.949.465-1.865.689-2.789a56.344,56.344,0,0,1,21.983-32.047,53.882,53.882,0,0,1,13.082-6.9l2.947-1.054,2.8-.711,2.558-.634c.822-.158,1.614-.242,2.356-.356,1.49-.19,2.8-.447,3.945-.5l2.9-.1,1.769-.038a2.749,2.749,0,0,1,.6.021,2.646,2.646,0,0,1-.6.082c-.451.034-1.03.081-1.761.139l-2.876.194c-1.138.088-2.435.377-3.908.594a55.928,55.928,0,0,0-23.373,9.869,55.8,55.8,0,0,0-21.43,31.692c-.214.909-.495,1.81-.663,2.742q-.21,1.406-.425,2.832a38.755,38.755,0,0,0-.522,5.815,50.234,50.234,0,0,0,.8,12.089,55.526,55.526,0,0,0,10.369,23.546l.179.235-.078.286q-2.784,10.209-5.749,21.075l-.833-.742,19.694-7.931.308-.124.279.183a55.617,55.617,0,0,0,18.912,7.95,56.436,56.436,0,0,0,9.5,1.2,42.273,42.273,0,0,0,4.743-.087,34.6,34.6,0,0,0,4.692-.4,52.474,52.474,0,0,0,17.595-5.381,58.082,58.082,0,0,0,14.459-10.347,59.341,59.341,0,0,0,10.061-13.776,55.557,55.557,0,0,0,5.3-15.347q.3-1.959.6-3.89c.193-1.287.169-2.587.265-3.866a57.417,57.417,0,0,0-.12-7.564A56.95,56.95,0,0,0,933.781-91.1a56.853,56.853,0,0,0-16.122-15.957,53.609,53.609,0,0,0-15.681-7.07l-3.247-.865-2.913-.478-2.5-.411c-.767-.085-1.468-.106-2.092-.155l-2.844-.206A5.612,5.612,0,0,1,887.413-116.355Z" transform="translate(-830.685 116.377)" fill="#fff" stroke="#fff" stroke-linecap="round" stroke-linejoin="round" stroke-width="4"/>
              </g>
            </g>
          </g>
        </g>
      </g>
      <path id="Trazado_100939" data-name="Trazado 100939" d="M1070.409,124.244H1046.52V-14.167H1022" transform="translate(-620.914 237.127)" fill="none" stroke="#fff" stroke-miterlimit="10" stroke-width="4"/>
      <path id="Trazado_100940" data-name="Trazado 100940" d="M1285.661,22.263h-14.573V140.607h-41.559" transform="translate(-635.191 219.761)" fill="none" stroke="#fff" stroke-miterlimit="10" stroke-width="4" fill-rule="evenodd"/>
      <path id="Trazado_100941" data-name="Trazado 100941" d="M1224.763-71.059V-27h-16.411V-9.92" transform="translate(-639.079 236.386)" fill="none" stroke="#fff" stroke-miterlimit="10" stroke-width="4" fill-rule="evenodd"/>
      <line id="Línea_137" data-name="Línea 137" y2="61.139" transform="translate(490.324 165.327)" fill="none" stroke="#fff" stroke-miterlimit="10" stroke-width="4"/>
      <line id="Línea_138" data-name="Línea 138" x2="0.053" y2="28.19" transform="translate(76.939 213.833)" fill="none" stroke="#fff" stroke-miterlimit="10" stroke-width="4"/>
      <rect id="Rectángulo_5350" data-name="Rectángulo 5350" width="108" height="34" rx="17" transform="translate(22.992 175.025)" fill="#ffca28"/>
      <rect id="Rectángulo_5362" data-name="Rectángulo 5362" width="108" height="34" rx="17" transform="translate(282.992 206.025)" fill="#ffca28"/>
      <rect id="Rectángulo_5363" data-name="Rectángulo 5363" width="108" height="34" rx="17" transform="translate(429.992 124.025)" fill="#ffca28"/>
      <rect id="Rectángulo_5364" data-name="Rectángulo 5364" width="108" height="34" rx="17" transform="translate(545.992 124.025)" fill="#ffca28"/>
      <rect id="Rectángulo_5365" data-name="Rectángulo 5365" width="108" height="34" rx="17" transform="translate(658.992 224.025)" fill="#ffca28"/>
      <path id="Trazado_105893" data-name="Trazado 105893" d="M-23.114,0h-2.9V-5.047H-30.3V0h-2.914V-12.086H-30.3v4.8h4.292v-4.8h2.9Zm11.09-9.836h-3.627V0h-2.914V-9.836h-3.561v-2.25h10.1Zm10.849,0H-4.8V0H-7.716V-9.836h-3.561v-2.25h10.1ZM2.968-4.1V0H.054V-12.086H4.877a5.617,5.617,0,0,1,2.453.51,3.847,3.847,0,0,1,1.652,1.453,3.967,3.967,0,0,1,.585,2.137A3.5,3.5,0,0,1,8.3-5.159,5.252,5.252,0,0,1,4.827-4.1Zm0-2.25H4.877a1.8,1.8,0,0,0,1.291-.423,1.573,1.573,0,0,0,.444-1.2,1.944,1.944,0,0,0-.457-1.353A1.617,1.617,0,0,0,4.91-9.836H2.968ZM23.329-8.857A2.79,2.79,0,0,1,22.894-7.3a3.174,3.174,0,0,1-1.2,1.079,3.493,3.493,0,0,1,1.37,1.158,2.988,2.988,0,0,1,.506,1.739A3.163,3.163,0,0,1,22.454-.772a4.636,4.636,0,0,1-3.075.938,4.721,4.721,0,0,1-3.1-.942,3.141,3.141,0,0,1-1.137-2.552,3.026,3.026,0,0,1,.5-1.718,3.387,3.387,0,0,1,1.411-1.179A3.192,3.192,0,0,1,15.834-7.3a2.771,2.771,0,0,1-.44-1.552,3.1,3.1,0,0,1,1.071-2.49,4.3,4.3,0,0,1,2.889-.913,4.331,4.331,0,0,1,2.905.913A3.1,3.1,0,0,1,23.329-8.857Zm-2.565,5.3a1.6,1.6,0,0,0-.386-1.15,1.344,1.344,0,0,0-1.017-.4,1.358,1.358,0,0,0-1.021.4,1.585,1.585,0,0,0-.39,1.15,1.6,1.6,0,0,0,.394,1.141,1.353,1.353,0,0,0,1.033.419,1.3,1.3,0,0,0,1-.415A1.628,1.628,0,0,0,20.764-3.553ZM19.353-10.1a1.034,1.034,0,0,0-.859.369A1.6,1.6,0,0,0,18.2-8.708a1.7,1.7,0,0,0,.3,1.046,1.031,1.031,0,0,0,.88.4.989.989,0,0,0,.859-.4,1.753,1.753,0,0,0,.286-1.046,1.607,1.607,0,0,0-.295-1.021A1.048,1.048,0,0,0,19.353-10.1ZM33.415-4.939a5.771,5.771,0,0,1-1.1,3.777,3.8,3.8,0,0,1-3.1,1.328A3.821,3.821,0,0,1,26.094-1.17a5.762,5.762,0,0,1-1.1-3.769V-7.147a5.771,5.771,0,0,1,1.1-3.777A3.81,3.81,0,0,1,29.2-12.252a3.812,3.812,0,0,1,3.113,1.336,5.776,5.776,0,0,1,1.1,3.777ZM30.617-7.5a4.311,4.311,0,0,0-.34-1.947,1.138,1.138,0,0,0-1.079-.643,1.111,1.111,0,0,0-1.05.6,4.061,4.061,0,0,0-.353,1.81V-4.6a4.343,4.343,0,0,0,.34,1.98,1.142,1.142,0,0,0,1.079.627,1.127,1.127,0,0,0,1.054-.61,4.146,4.146,0,0,0,.349-1.913Z" transform="translate(75.992 199.025)" fill="#12263f"/>
      <path id="Trazado_105894" data-name="Trazado 105894" d="M-25.853-9.836H-29.48V0h-2.914V-9.836h-3.561v-2.25h10.1Zm4.707,10a4.617,4.617,0,0,1-3.345-1.233A4.257,4.257,0,0,1-25.77-4.275v-.232a5.516,5.516,0,0,1,.51-2.432,3.735,3.735,0,0,1,1.49-1.631,4.5,4.5,0,0,1,2.324-.577,3.888,3.888,0,0,1,2.988,1.175,4.616,4.616,0,0,1,1.1,3.275v1.087h-5.562a2.016,2.016,0,0,0,.656,1.187,1.951,1.951,0,0,0,1.312.432,2.514,2.514,0,0,0,2.075-.93L-17.6-1.411a3.573,3.573,0,0,1-1.482,1.15A5.007,5.007,0,0,1-21.146.166Zm-.315-7.155q-1.229,0-1.461,1.627H-20.1v-.216a1.386,1.386,0,0,0-.34-1.042A1.354,1.354,0,0,0-21.462-6.989ZM-13.285,0h-2.806V-12.75h2.806Zm4.292-8.981L-8.9-7.927a3.046,3.046,0,0,1,2.565-1.22,2.562,2.562,0,0,1,2.1.838,3.991,3.991,0,0,1,.718,2.523V0H-6.329V-5.669a1.516,1.516,0,0,0-.274-1,1.267,1.267,0,0,0-1-.32,1.334,1.334,0,0,0-1.22.647V0h-2.8V-8.981ZM2.37.166A4.617,4.617,0,0,1-.975-1.067,4.257,4.257,0,0,1-2.254-4.275v-.232a5.516,5.516,0,0,1,.51-2.432A3.735,3.735,0,0,1-.253-8.571a4.5,4.5,0,0,1,2.324-.577A3.888,3.888,0,0,1,5.059-7.973,4.616,4.616,0,0,1,6.155-4.7v1.087H.594a2.016,2.016,0,0,0,.656,1.187,1.951,1.951,0,0,0,1.312.432,2.514,2.514,0,0,0,2.075-.93L5.914-1.411A3.573,3.573,0,0,1,4.433-.261,5.007,5.007,0,0,1,2.37.166ZM2.054-6.989Q.826-6.989.594-5.362H3.416v-.216a1.386,1.386,0,0,0-.34-1.042A1.354,1.354,0,0,0,2.054-6.989Zm8.483-4.225v2.233h1.478v1.942H10.538V-2.93a1.049,1.049,0,0,0,.183.706.98.98,0,0,0,.722.2,4.1,4.1,0,0,0,.7-.05v2a5.163,5.163,0,0,1-1.577.241A2.93,2.93,0,0,1,8.429-.515,2.79,2.79,0,0,1,7.74-2.582V-7.039H6.595V-8.981H7.74v-2.233ZM25.737,0H17.3V-1.826L21.188-5.91a4.637,4.637,0,0,0,1.436-2.6,1.807,1.807,0,0,0-.34-1.187A1.215,1.215,0,0,0,21.3-10.1a1.23,1.23,0,0,0-1.038.544,2.234,2.234,0,0,0-.4,1.357H17.054a3.969,3.969,0,0,1,.556-2.054,3.9,3.9,0,0,1,1.544-1.473,4.586,4.586,0,0,1,2.208-.531,4.512,4.512,0,0,1,3.017.9,3.23,3.23,0,0,1,1.058,2.6,3.773,3.773,0,0,1-.266,1.39,6.1,6.1,0,0,1-.826,1.419,20.805,20.805,0,0,1-1.805,1.988l-1.561,1.8h4.756ZM29.7-7.213h1.32a1.372,1.372,0,0,0,1.569-1.536,1.328,1.328,0,0,0-.374-.975,1.416,1.416,0,0,0-1.054-.378,1.516,1.516,0,0,0-.967.324.988.988,0,0,0-.411.805h-2.8a2.864,2.864,0,0,1,.531-1.7,3.508,3.508,0,0,1,1.473-1.166,5.037,5.037,0,0,1,2.071-.419,4.95,4.95,0,0,1,3.171.921A3.063,3.063,0,0,1,35.39-8.807a2.553,2.553,0,0,1-.477,1.473,3.4,3.4,0,0,1-1.39,1.125,3.249,3.249,0,0,1,1.511,1.058A2.787,2.787,0,0,1,35.581-3.4a3.119,3.119,0,0,1-1.245,2.59,5.168,5.168,0,0,1-3.271.971,5.36,5.36,0,0,1-2.2-.452,3.453,3.453,0,0,1-1.54-1.253A3.259,3.259,0,0,1,26.8-3.362h2.814a1.26,1.26,0,0,0,.448.963,1.582,1.582,0,0,0,1.1.407A1.658,1.658,0,0,0,32.344-2.4a1.373,1.373,0,0,0,.44-1.05,1.606,1.606,0,0,0-.457-1.295,1.909,1.909,0,0,0-1.262-.382H29.7Z" transform="translate(336.992 230.025)" fill="#12263f"/>
      <path id="Trazado_105895" data-name="Trazado 105895" d="M-19.059-4.814h-4.7V0H-26.67V-12.086h8.085v2.25h-5.171v2.781h4.7ZM-7.72-9.836h-3.627V0h-2.914V-9.836h-3.561v-2.25h10.1ZM-3.578-4.1V0H-6.491V-12.086h4.823a5.617,5.617,0,0,1,2.453.51,3.847,3.847,0,0,1,1.652,1.453,3.967,3.967,0,0,1,.585,2.137A3.5,3.5,0,0,1,1.756-5.159,5.252,5.252,0,0,1-1.718-4.1Zm0-2.25h1.909A1.8,1.8,0,0,0-.378-6.773a1.573,1.573,0,0,0,.444-1.2A1.944,1.944,0,0,0-.39-9.322a1.617,1.617,0,0,0-1.245-.515H-3.578ZM17.066,0H8.633V-1.826L12.518-5.91a4.637,4.637,0,0,0,1.436-2.6,1.807,1.807,0,0,0-.34-1.187,1.215,1.215,0,0,0-.988-.407,1.23,1.23,0,0,0-1.038.544,2.234,2.234,0,0,0-.4,1.357H8.384a3.969,3.969,0,0,1,.556-2.054,3.9,3.9,0,0,1,1.544-1.473,4.586,4.586,0,0,1,2.208-.531,4.512,4.512,0,0,1,3.017.9,3.23,3.23,0,0,1,1.058,2.6,3.773,3.773,0,0,1-.266,1.39,6.1,6.1,0,0,1-.826,1.419,20.805,20.805,0,0,1-1.805,1.988l-1.561,1.8h4.756Zm7.612,0H21.873V-8.932l-2.756.805v-2.125l5.3-1.834h.257Z" transform="translate(483.992 148.025)" fill="#12263f"/>
      <path id="Trazado_105896" data-name="Trazado 105896" d="M-28.355-3.212a1.2,1.2,0,0,0-.452-1,5.623,5.623,0,0,0-1.59-.739,15.25,15.25,0,0,1-1.859-.739q-2.349-1.154-2.349-3.171a2.843,2.843,0,0,1,.585-1.772,3.785,3.785,0,0,1,1.656-1.2,6.444,6.444,0,0,1,2.407-.427,5.637,5.637,0,0,1,2.337.465,3.7,3.7,0,0,1,1.606,1.324A3.457,3.457,0,0,1-25.442-8.5h-2.905A1.461,1.461,0,0,0-28.8-9.646a1.763,1.763,0,0,0-1.224-.407,1.989,1.989,0,0,0-1.233.344,1.057,1.057,0,0,0-.452.876,1.064,1.064,0,0,0,.5.843,6.281,6.281,0,0,0,1.751.78,10.729,10.729,0,0,1,2.059.867,3.459,3.459,0,0,1,1.959,3.113,2.951,2.951,0,0,1-1.2,2.49,5.317,5.317,0,0,1-3.279.9,6.505,6.505,0,0,1-2.66-.527,4.011,4.011,0,0,1-1.793-1.444,3.763,3.763,0,0,1-.6-2.113h2.922a1.854,1.854,0,0,0,.5,1.432,2.374,2.374,0,0,0,1.631.461,1.875,1.875,0,0,0,1.141-.311A1.027,1.027,0,0,0-28.355-3.212Zm8.234-8.874,2.7,8.409,2.689-8.409H-10.9V0h-2.922V-2.822l.282-5.777L-16.46,0h-1.926l-2.93-8.608.282,5.786V0h-2.914V-12.086ZM.2-9.836H-3.428V0H-6.342V-9.836H-9.9v-2.25H.2ZM4.341-4.1V0H1.428V-12.086H6.25a5.617,5.617,0,0,1,2.453.51,3.847,3.847,0,0,1,1.652,1.453,3.967,3.967,0,0,1,.585,2.137A3.5,3.5,0,0,1,9.675-5.159,5.252,5.252,0,0,1,6.2-4.1Zm0-2.25H6.25a1.8,1.8,0,0,0,1.291-.423,1.573,1.573,0,0,0,.444-1.2,1.944,1.944,0,0,0-.457-1.353,1.617,1.617,0,0,0-1.245-.515H4.341ZM24.985,0H16.552V-1.826L20.437-5.91a4.637,4.637,0,0,0,1.436-2.6,1.807,1.807,0,0,0-.34-1.187,1.215,1.215,0,0,0-.988-.407,1.23,1.23,0,0,0-1.038.544,2.234,2.234,0,0,0-.4,1.357H16.3a3.969,3.969,0,0,1,.556-2.054A3.9,3.9,0,0,1,18.4-11.729a4.586,4.586,0,0,1,2.208-.531,4.512,4.512,0,0,1,3.017.9,3.23,3.23,0,0,1,1.058,2.6,3.773,3.773,0,0,1-.266,1.39,6.1,6.1,0,0,1-.826,1.419A20.805,20.805,0,0,1,21.79-3.959l-1.561,1.8h4.756Zm1.577-5.9.739-6.182h7.064v2.158h-4.79L29.3-7.51a3.3,3.3,0,0,1,.784-.308,3.579,3.579,0,0,1,.95-.133A3.546,3.546,0,0,1,33.8-6.885a4.3,4.3,0,0,1,.967,2.992,4.289,4.289,0,0,1-.519,2.1A3.566,3.566,0,0,1,32.8-.34,4.6,4.6,0,0,1,30.58.166,4.949,4.949,0,0,1,28.447-.3a3.827,3.827,0,0,1-1.561-1.286,3.124,3.124,0,0,1-.556-1.845h2.806a1.587,1.587,0,0,0,.423,1.052,1.344,1.344,0,0,0,1,.389q1.411,0,1.411-2.088,0-1.93-1.727-1.93a1.723,1.723,0,0,0-1.461.63Z" transform="translate(599.992 148.025)" fill="#12263f"/>
      <path id="Trazado_105897" data-name="Trazado 105897" d="M-23.114,0h-2.9V-5.047H-30.3V0h-2.914V-12.086H-30.3v4.8h4.292v-4.8h2.9Zm11.09-9.836h-3.627V0h-2.914V-9.836h-3.561v-2.25h10.1Zm10.849,0H-4.8V0H-7.716V-9.836h-3.561v-2.25h10.1ZM2.968-4.1V0H.054V-12.086H4.877a5.617,5.617,0,0,1,2.453.51,3.847,3.847,0,0,1,1.652,1.453,3.967,3.967,0,0,1,.585,2.137A3.5,3.5,0,0,1,8.3-5.159,5.252,5.252,0,0,1,4.827-4.1Zm0-2.25H4.877a1.8,1.8,0,0,0,1.291-.423,1.573,1.573,0,0,0,.444-1.2,1.944,1.944,0,0,0-.457-1.353A1.617,1.617,0,0,0,4.91-9.836H2.968ZM23.329-8.857A2.79,2.79,0,0,1,22.894-7.3a3.174,3.174,0,0,1-1.2,1.079,3.493,3.493,0,0,1,1.37,1.158,2.988,2.988,0,0,1,.506,1.739A3.163,3.163,0,0,1,22.454-.772a4.636,4.636,0,0,1-3.075.938,4.721,4.721,0,0,1-3.1-.942,3.141,3.141,0,0,1-1.137-2.552,3.026,3.026,0,0,1,.5-1.718,3.387,3.387,0,0,1,1.411-1.179A3.192,3.192,0,0,1,15.834-7.3a2.771,2.771,0,0,1-.44-1.552,3.1,3.1,0,0,1,1.071-2.49,4.3,4.3,0,0,1,2.889-.913,4.331,4.331,0,0,1,2.905.913A3.1,3.1,0,0,1,23.329-8.857Zm-2.565,5.3a1.6,1.6,0,0,0-.386-1.15,1.344,1.344,0,0,0-1.017-.4,1.358,1.358,0,0,0-1.021.4,1.585,1.585,0,0,0-.39,1.15,1.6,1.6,0,0,0,.394,1.141,1.353,1.353,0,0,0,1.033.419,1.3,1.3,0,0,0,1-.415A1.628,1.628,0,0,0,20.764-3.553ZM19.353-10.1a1.034,1.034,0,0,0-.859.369A1.6,1.6,0,0,0,18.2-8.708a1.7,1.7,0,0,0,.3,1.046,1.031,1.031,0,0,0,.88.4.989.989,0,0,0,.859-.4,1.753,1.753,0,0,0,.286-1.046,1.607,1.607,0,0,0-.295-1.021A1.048,1.048,0,0,0,19.353-10.1ZM33.415-4.939a5.771,5.771,0,0,1-1.1,3.777,3.8,3.8,0,0,1-3.1,1.328A3.821,3.821,0,0,1,26.094-1.17a5.762,5.762,0,0,1-1.1-3.769V-7.147a5.771,5.771,0,0,1,1.1-3.777A3.81,3.81,0,0,1,29.2-12.252a3.812,3.812,0,0,1,3.113,1.336,5.776,5.776,0,0,1,1.1,3.777ZM30.617-7.5a4.311,4.311,0,0,0-.34-1.947,1.138,1.138,0,0,0-1.079-.643,1.111,1.111,0,0,0-1.05.6,4.061,4.061,0,0,0-.353,1.81V-4.6a4.343,4.343,0,0,0,.34,1.98,1.142,1.142,0,0,0,1.079.627,1.127,1.127,0,0,0,1.054-.61,4.146,4.146,0,0,0,.349-1.913Z" transform="translate(712.992 248.025)" fill="#12263f"/>
      <g id="ordenador-personal" transform="translate(0 246.335)">
        <path id="Trazado_105134" data-name="Trazado 105134" d="M146.73,139.757H23.384A13.538,13.538,0,0,1,9.846,126.219V48A13.538,13.538,0,0,1,23.384,34.461H146.73A13.538,13.538,0,0,1,160.268,48v78.219A13.538,13.538,0,0,1,146.73,139.757Z" transform="translate(-6.838 -31.453)" fill="#fffde7"/>
        <g id="Grupo_58499" data-name="Grupo 58499" transform="translate(54.152 37.407)">
          <path id="Trazado_105135" data-name="Trazado 105135" d="M263.314,153.425l-27.655-6.382,6.382,27.655,7.446-7.445L258,175.762l6.382-6.382-8.509-8.509Z" transform="translate(-217.807 -147.043)" fill="#fb8c00"/>
          <path id="Trazado_105136" data-name="Trazado 105136" d="M225.366,409.161H177.231l6.017-30.084h36.1Z" transform="translate(-177.231 -308.18)" fill="#fb8c00"/>
        </g>
        <path id="Trazado_105137" data-name="Trazado 105137" d="M9.846,300.308v10.53a13.538,13.538,0,0,0,13.538,13.538H146.73a13.538,13.538,0,0,0,13.538-13.538v-10.53Z" transform="translate(-6.838 -216.071)" fill="#ffecb3"/>
        <path id="Trazado_105138" data-name="Trazado 105138" d="M139.893,24.615H16.546A16.565,16.565,0,0,0,0,41.161v78.219a16.565,16.565,0,0,0,16.546,16.546H56.5l-4.814,24.067H36.1a3.008,3.008,0,0,0,0,6.017h84.236a3.008,3.008,0,0,0,0-6.017H104.753L99.94,135.927h39.953a16.565,16.565,0,0,0,16.546-16.546V41.161A16.565,16.565,0,0,0,139.893,24.615ZM16.546,30.632H139.892a10.542,10.542,0,0,1,10.53,10.53v64.681H6.017V99.826H24.067a3.008,3.008,0,1,0,0-6.017H6.017V41.161A10.542,10.542,0,0,1,16.546,30.632ZM98.617,159.995h-40.8l4.814-24.067H93.8Zm51.8-40.614a10.542,10.542,0,0,1-10.53,10.53H16.546a10.542,10.542,0,0,1-10.53-10.53V111.86H150.422v7.521Z" transform="translate(0 -24.615)" fill="#12263f"/>
        <path id="Trazado_105139" data-name="Trazado 105139" d="M242.325,332.035a6.017,6.017,0,1,0-6.017-6.017A6.024,6.024,0,0,0,242.325,332.035Z" transform="translate(-164.105 -229.747)" fill="#12263f"/>
        <path id="Trazado_105140" data-name="Trazado 105140" d="M232.27,168.538a3.009,3.009,0,0,0,5.059,1.451l5.318-5.318,6.382,6.382a3.008,3.008,0,0,0,4.254,0l6.382-6.382a3.009,3.009,0,0,0,0-4.255l-6.382-6.382,5.318-5.318a3.009,3.009,0,0,0-1.451-5.059L229.5,137.275a3.009,3.009,0,0,0-3.608,3.608ZM250.509,148.3l-3.608,3.607a3.009,3.009,0,0,0,0,4.255l6.382,6.382-2.127,2.127-6.382-6.382a3.008,3.008,0,0,0-4.254,0l-3.607,3.608-4.079-17.675Z" transform="translate(-156.816 -102.799)" fill="#12263f"/>
        <path id="Trazado_105141" data-name="Trazado 105141" d="M192.706,108.346a3.008,3.008,0,1,0,4.254-4.255l-3.008-3.008a3.009,3.009,0,1,0-4.255,4.255Z" transform="translate(-131.124 -77.107)" fill="#12263f"/>
        <path id="Trazado_105142" data-name="Trazado 105142" d="M175.512,145.6h4.254a3.008,3.008,0,1,0,0-6.017h-4.254a3.008,3.008,0,1,0,0,6.017Z" transform="translate(-119.796 -104.458)" fill="#12263f"/>
        <path id="Trazado_105143" data-name="Trazado 105143" d="M192.707,170.005l-3.008,3.008a3.008,3.008,0,1,0,4.254,4.255l3.008-3.008a3.008,3.008,0,0,0-4.254-4.255Z" transform="translate(-131.125 -124.97)" fill="#12263f"/>
        <path id="Trazado_105144" data-name="Trazado 105144" d="M260.749,109.228a3,3,0,0,0,2.127-.881l3.008-3.008a3.009,3.009,0,0,0-4.255-4.255l-3.008,3.008a3.009,3.009,0,0,0,2.128,5.136Z" transform="translate(-178.989 -77.107)" fill="#12263f"/>
        <path id="Trazado_105145" data-name="Trazado 105145" d="M231.21,94.16a3.008,3.008,0,0,0,3.008-3.008V86.9a3.008,3.008,0,1,0-6.017,0v4.254A3.008,3.008,0,0,0,231.21,94.16Z" transform="translate(-158.476 -65.777)" fill="#12263f"/>
        <path id="Trazado_105146" data-name="Trazado 105146" d="M98.694,255.237a2.944,2.944,0,0,0,.277.52,2.92,2.92,0,0,0,.83.83,2.983,2.983,0,0,0,.52.277,3.055,3.055,0,0,0,.563.174,3.041,3.041,0,0,0,1.173,0,3.053,3.053,0,0,0,.563-.174,2.939,2.939,0,0,0,.52-.277,2.92,2.92,0,0,0,.83-.83,2.986,2.986,0,0,0,.277-.52,2.828,2.828,0,0,0,.171-.563,2.89,2.89,0,0,0,0-1.173,2.918,2.918,0,0,0-.171-.566,3.038,3.038,0,0,0-.277-.518,2.921,2.921,0,0,0-.83-.83,2.984,2.984,0,0,0-.52-.277,2.825,2.825,0,0,0-.563-.171,2.962,2.962,0,0,0-1.173,0,2.825,2.825,0,0,0-.563.171,2.941,2.941,0,0,0-.52.277,2.921,2.921,0,0,0-.83.83,3.06,3.06,0,0,0-.277.518,2.918,2.918,0,0,0-.171.566,2.89,2.89,0,0,0,0,1.173A2.821,2.821,0,0,0,98.694,255.237Z" transform="translate(-68.377 -181.885)" fill="#12263f"/>
      </g>
      <g id="torre-de-la-computadora" transform="translate(476.59 232.025)">
        <path id="Trazado_105147" data-name="Trazado 105147" d="M106,15.568V133.087a8.091,8.091,0,0,0,8.068,8.068l32.271-66.827L114.068,7.5A8.091,8.091,0,0,0,106,15.568Z" transform="translate(-103.983 -5.483)" fill="#ffa726"/>
        <path id="Trazado_105148" data-name="Trazado 105148" d="M288.271,7.5,256,74.327l32.271,66.827a8.091,8.091,0,0,0,8.068-8.068V15.568A8.091,8.091,0,0,0,288.271,7.5Z" transform="translate(-213.645 -5.483)" fill="#ffa726"/>
        <path id="Trazado_105149" data-name="Trazado 105149" d="M280.2,7.5,256,74.327l24.2,66.827h8.068V7.5Z" transform="translate(-213.645 -5.483)" fill="#3d5168"/>
        <path id="Trazado_105150" data-name="Trazado 105150" d="M136,7.5V141.154h56.474V55.906l-8.068-6.051,8.068-6.051V35.737l-8.068-6.051,8.068-6.051V7.5Z" transform="translate(-125.915 -5.483)" fill="#ffecb3"/>
        <circle id="Elipse_4113" data-name="Elipse 4113" cx="16.135" cy="16.135" r="16.135" transform="translate(26.22 87.265)" fill="#dae0e7"/>
        <path id="Trazado_105151" data-name="Trazado 105151" d="M294.068,154.6,286,148.551l8.068-6.051h8.068v12.1Z" transform="translate(-235.577 -104.179)" fill="#09213d"/>
        <path id="Trazado_105152" data-name="Trazado 105152" d="M166,142.5h40.338v12.1H166Z" transform="translate(-147.848 -104.179)" fill="#ffca28"/>
        <path id="Trazado_105153" data-name="Trazado 105153" d="M294.068,79.6,286,73.551l8.068-6.051h8.068V79.6Z" transform="translate(-235.577 -49.348)" fill="#09213d"/>
        <path id="Trazado_105154" data-name="Trazado 105154" d="M166,67.5h40.338V79.6H166Z" transform="translate(-147.848 -49.348)" fill="#ffca28"/>
        <circle id="Elipse_4114" data-name="Elipse 4114" cx="8.068" cy="8.068" r="8.068" transform="translate(34.288 95.333)" fill="#039be5"/>
        <ellipse id="Elipse_4115" data-name="Elipse 4115" cx="2.085" cy="1.787" rx="2.085" ry="1.787" transform="translate(64.331 56.678)" fill="#12263f"/>
        <path id="Trazado_105155" data-name="Trazado 105155" d="M173.126,0H108.585A10.1,10.1,0,0,0,98.5,10.085V127.6a10.1,10.1,0,0,0,10.085,10.085h64.541A10.1,10.1,0,0,0,183.21,127.6V10.085A10.1,10.1,0,0,0,173.126,0ZM102.534,127.6V10.085a6.06,6.06,0,0,1,4.034-5.7V99.367a2.017,2.017,0,1,0,4.034,0V4.034h60.507v129.62H110.6v-26.22a2.017,2.017,0,1,0-4.034,0v25.873A6.06,6.06,0,0,1,102.534,127.6Zm76.643,0a6.06,6.06,0,0,1-4.034,5.7V4.381a6.06,6.06,0,0,1,4.034,5.7Z" transform="translate(-98.5)" fill="#12263f"/>
        <path id="Trazado_105156" data-name="Trazado 105156" d="M160.517,76.135h48.406a2.017,2.017,0,0,0,2.017-2.017v-12.1A2.017,2.017,0,0,0,208.923,60H160.517a2.017,2.017,0,0,0-2.017,2.017v12.1A2.017,2.017,0,0,0,160.517,76.135Zm2.017-12.1h44.372V72.1H162.534Z" transform="translate(-142.365 -43.865)" fill="#12263f"/>
        <path id="Trazado_105157" data-name="Trazado 105157" d="M160.517,151.135h48.406a2.017,2.017,0,0,0,2.017-2.017v-12.1A2.017,2.017,0,0,0,208.923,135H160.517a2.017,2.017,0,0,0-2.017,2.017v12.1A2.017,2.017,0,0,0,160.517,151.135Zm2.017-12.1h44.372V147.1H162.534Z" transform="translate(-142.365 -98.696)" fill="#12263f"/>
        <path id="Trazado_105158" data-name="Trazado 105158" d="M228.585,347a10.085,10.085,0,1,0,10.085,10.085A10.1,10.1,0,0,0,228.585,347Zm0,16.135a6.051,6.051,0,1,1,6.051-6.051A6.057,6.057,0,0,1,228.585,363.135Z" transform="translate(-186.229 -253.684)" fill="#12263f"/>
        <path id="Trazado_105159" data-name="Trazado 105159" d="M206.652,317A18.152,18.152,0,1,0,224.8,335.152,18.173,18.173,0,0,0,206.652,317Zm0,32.271a14.118,14.118,0,1,1,14.118-14.118A14.134,14.134,0,0,1,206.652,349.271Z" transform="translate(-164.297 -231.752)" fill="#12263f"/>
      </g>
      <path id="Trazado_105160" data-name="Trazado 105160" d="M-2882-10830.5h158v53.5" transform="translate(3251.992 10887.025)" fill="none" stroke="#fff" stroke-width="3"/>
      <path id="Trazado_105161" data-name="Trazado 105161" d="M-2724-10830.5h-158v107.5" transform="translate(2959.439 10887.025)" fill="none" stroke="#fff" stroke-width="3"/>
    </g>
  </g>
</svg>
