<svg xmlns="http://www.w3.org/2000/svg" xmlns:xlink="http://www.w3.org/1999/xlink" width="185" height="236" viewBox="0 0 185 236">
  <defs>
    <linearGradient id="linear-gradient" x1="-128.638" y1="0.5" x2="-127.638" y2="0.5" gradientUnits="objectBoundingBox">
      <stop offset="0.051" stop-color="#3d4555"/>
      <stop offset="0.583" stop-color="#3d4555"/>
      <stop offset="0.645" stop-color="#373d4a"/>
      <stop offset="0.716" stop-color="#353b47"/>
    </linearGradient>
  </defs>
  <g id="Grupo_58634" data-name="Grupo 58634" transform="translate(-396 -1140)">
    <ellipse id="Elipse_156" data-name="Elipse 156" cx="90.5" cy="91" rx="90.5" ry="91" transform="translate(400 1194)" fill="#fff"/>
    <g id="Grupo_58562" data-name="Grupo 58562" transform="translate(47.613 899.389)">
      <g id="Grupo_58561" data-name="Grupo 58561" transform="translate(348.387 240.611)">
        <g id="Grupo_58507" data-name="Grupo 58507" transform="translate(77.006)">
          <g id="Grupo_58503" data-name="Grupo 58503" transform="translate(0 98.684)">
            <path id="Trazado_105162" data-name="Trazado 105162" d="M385.633,275.247l-11.646-6.767a2.892,2.892,0,0,0-2.926.286l11.646,6.767a2.9,2.9,0,0,1,2.926-.286Z" transform="translate(-366.965 -268.201)" fill="#202734"/>
            <path id="Trazado_105163" data-name="Trazado 105163" d="M385.658,275.126l-11.646-6.767a9.029,9.029,0,0,0-4.1,7.1,2.869,2.869,0,0,0,1.2,2.633l11.646,6.771a2.88,2.88,0,0,1-1.2-2.636,9.029,9.029,0,0,1,4.1-7.1Z" transform="translate(-369.916 -267.794)" fill="#202734"/>
            <path id="Trazado_105164" data-name="Trazado 105164" d="M377.267,270.657a9.029,9.029,0,0,0-4.1,7.1c.007,2.608,1.853,3.659,4.124,2.346a9.028,9.028,0,0,0,4.1-7.093C381.384,270.4,379.539,269.347,377.267,270.657Z" transform="translate(-361.526 -263.324)" fill="#27303f"/>
          </g>
          <g id="Grupo_58506" data-name="Grupo 58506" transform="translate(2.961)">
            <g id="Grupo_58504" data-name="Grupo 58504" transform="translate(0 60.001)">
              <path id="Trazado_105165" data-name="Trazado 105165" d="M381.986,261.068l-3.391-2.024c-.73-.44-1.059-.941-.98-1.37l-6.86,38.705c-.079.429.25.93.984,1.37l3.387,2.025a5.679,5.679,0,0,0,1.349.565l6.86-38.705A5.681,5.681,0,0,1,381.986,261.068Z" transform="translate(-370.744 -256.645)" fill="#2c323d"/>
              <path id="Trazado_105166" data-name="Trazado 105166" d="M379.206,258.781l-6.86,38.705a7.26,7.26,0,0,0,2.311.283l6.857-38.705a7.25,7.25,0,0,1-2.307-.283Z" transform="translate(-366.615 -253.792)" fill="#3d4555"/>
              <path id="Trazado_105167" data-name="Trazado 105167" d="M379.849,259.6,372.992,298.3a4.38,4.38,0,0,0,1.112-.186c.579-.19.9-.49.962-.837l6.86-38.705c-.061.347-.383.647-.966.837a4.485,4.485,0,0,1-1.112.186Z" transform="translate(-364.951 -254.326)" fill="#2e3440"/>
              <path id="Trazado_105168" data-name="Trazado 105168" d="M373.636,257.578c-1.306.426-1.3,1.416.018,2.207l3.391,2.024a6.678,6.678,0,0,0,4.768.662c1.309-.426,1.3-1.417-.018-2.207l-3.387-2.025A6.689,6.689,0,0,0,373.636,257.578Z" transform="translate(-365.802 -257.386)" fill="#313744"/>
            </g>
            <g id="Grupo_58505" data-name="Grupo 58505" transform="translate(7.446)">
              <path id="Trazado_105169" data-name="Trazado 105169" d="M387.188,245.055l-2.539-3.223c-.594-.358-.93-.962-1.177-.962l-10.638,60.077c-.061.351.2.755.8,1.112l2.468,1.474a4.825,4.825,0,0,0,1.095.461l10.233-57.834C387.027,246.046,387.506,245.245,387.188,245.055Z" transform="translate(-372.826 -239.945)" fill="#2c323d"/>
              <path id="Trazado_105170" data-name="Trazado 105170" d="M384.28,242.349,374.047,300.18a5.95,5.95,0,0,0,1.871.229l10.233-57.831a5.923,5.923,0,0,1-1.871-.229Z" transform="translate(-369.678 -236.134)" fill="#3d4555"/>
              <path id="Trazado_105171" data-name="Trazado 105171" d="M384.8,242.967,374.57,300.8a3.5,3.5,0,0,0,.9-.15c.469-.154.73-.4.78-.676L386.47,242.2c-.046.279-.293.465-.765.615a3.587,3.587,0,0,1-.9.154Z" transform="translate(-368.331 -236.523)" fill="#2e3440"/>
              <path id="Trazado_105172" data-name="Trazado 105172" d="M376.587,240.939c-1.062.343-.984.8-.157,1.874L379,246.369c.7,1.055,2.815.9,3.87.533.469-.161.687-.891-.018-1.785l-2.4-3.641C379.556,240.235,377.646,240.6,376.587,240.939Z" transform="translate(-365.161 -240.611)" fill="#383f4e"/>
            </g>
          </g>
        </g>
        <g id="Grupo_58513" data-name="Grupo 58513" transform="translate(0 57.446)">
          <g id="Grupo_58509" data-name="Grupo 58509" transform="translate(24.734 71.418)">
            <path id="Trazado_105173" data-name="Trazado 105173" d="M362.323,276.915a2.9,2.9,0,0,0-2.922.286,9.034,9.034,0,0,0-4.1,7.1,2.874,2.874,0,0,0,1.2,2.636L368.15,293.7a2.874,2.874,0,0,1-1.2-2.636,9.028,9.028,0,0,1,4.1-7.093,2.9,2.9,0,0,1,2.926-.29Z" transform="translate(-355.302 -276.639)" fill="#202734"/>
            <g id="Grupo_58508" data-name="Grupo 58508" transform="translate(11.646 6.768)">
              <path id="Trazado_105174" data-name="Trazado 105174" d="M362.653,279.1a9.028,9.028,0,0,0-4.1,7.093c.007,2.608,1.856,3.659,4.124,2.35a9.03,9.03,0,0,0,4.1-7.1C366.77,278.835,364.925,277.784,362.653,279.1Z" transform="translate(-358.558 -278.531)" fill="#27303f"/>
            </g>
          </g>
          <g id="Grupo_58512" data-name="Grupo 58512">
            <g id="Grupo_58510" data-name="Grupo 58510" transform="translate(15.022 43.056)">
              <path id="Trazado_105175" data-name="Trazado 105175" d="M356.884,272.853l-3.373-2.032a2.049,2.049,0,0,1-.891-1.037l10.294,27.738a2.024,2.024,0,0,0,.887,1.037l3.377,2.032Z" transform="translate(-352.501 -265.941)" fill="#20242d"/>
              <path id="Trazado_105176" data-name="Trazado 105176" d="M353.812,273.108l10.294,27.739a4.155,4.155,0,0,0,4.7-.794,2.5,2.5,0,0,0,.808-2.629L359.32,269.685a2.5,2.5,0,0,1-.812,2.629,4.156,4.156,0,0,1-4.7.794Z" transform="translate(-349.429 -266.196)" fill="#2e3440"/>
              <path id="Trazado_105177" data-name="Trazado 105177" d="M353.518,269.924c-1.27,1.227-1.238,2.876.079,3.666l3.373,2.032a4.156,4.156,0,0,0,4.7-.794c1.27-1.227,1.234-2.876-.079-3.666l-3.377-2.032A4.15,4.15,0,0,0,353.518,269.924Z" transform="translate(-352.587 -268.709)" fill="#383f4e"/>
            </g>
            <g id="Grupo_58511" data-name="Grupo 58511">
              <path id="Trazado_105178" data-name="Trazado 105178" d="M351.646,260.089l-2-1.842c-.372-.215-1.116-.469-1.241-.808L364.222,301.4a1.641,1.641,0,0,0,.744.855l2.479,1.438Z" transform="translate(-348.34 -254.695)" fill="#20252d"/>
              <path id="Trazado_105179" data-name="Trazado 105179" d="M349.311,258.915l15.8,43.605a3.408,3.408,0,0,0,3.809-.665,1.99,1.99,0,0,0,.644-2.082L354.5,258.186a.9.9,0,0,0-1.377.061,3.409,3.409,0,0,1-3.809.669Z" transform="translate(-346.006 -253.521)" fill="#2e3440"/>
              <path id="Trazado_105180" data-name="Trazado 105180" d="M349.131,257.663c-1.023.994-.991,1.735.093,2.937l3.1,3.2a3.4,3.4,0,0,0,3.809-.669c1.019-.991,1.163-1.7-.039-2.926l-2.761-2.811a2.325,2.325,0,0,0-1.492-.719A3.656,3.656,0,0,0,349.131,257.663Z" transform="translate(-348.387 -256.672)" fill="#383f4e"/>
            </g>
          </g>
        </g>
        <g id="Grupo_58560" data-name="Grupo 58560" transform="translate(16.421 91.973)">
          <g id="Grupo_58514" data-name="Grupo 58514" transform="translate(1.946 51.534)">
            <path id="Trazado_105181" data-name="Trazado 105181" d="M424.526,371.2l84.847-48.985c5.2-3,4.546-8.245-1.456-11.71l-45.759-26.419c-6-3.466-13.234-5.015-20.281-.841l-84.847,48.985c-5.2,3-4.546,8.245,1.456,11.711l45.762,26.419C410.251,373.822,419.329,374.2,424.526,371.2Z" transform="translate(-353.522 -280.732)" fill="#f0f4f7" style="mix-blend-mode: multiply;isolation: isolate"/>
            <path id="Trazado_105182" data-name="Trazado 105182" d="M415.841,365.221c-4.328,2.25-11.525,1.856-16.207-.848l-42.861-24.745c-4.5-2.6,12.995-16.915,16.894-19.165.157-.093,63.886-36.845,63.968-36.845,5.523-3.13,11.292-1.846,16.164.966l42.861,24.748c4.5,2.6-12.9,16.858-16.8,19.108C479.806,328.455,416.034,365.221,415.841,365.221Z" transform="translate(-347.037 -277.99)" fill="#e6edf2" style="mix-blend-mode: multiply;isolation: isolate"/>
            <path id="Trazado_105183" data-name="Trazado 105183" d="M409.8,359.245a14.981,14.981,0,0,1-12.133-.848l-39.961-23.074c-3-1.731,32.642-25.12,35.239-26.619.315-.186,42.93-24.705,43.094-24.705,4-2.085,8.309-1.066,12.05,1.094l39.961,23.071c3,1.735-32.449,25.009-35.046,26.512C452.884,334.7,410.194,359.245,409.8,359.245Z" transform="translate(-343.199 -275.254)" fill="#dde6ed" style="mix-blend-mode: multiply;isolation: isolate"/>
            <path id="Trazado_105184" data-name="Trazado 105184" d="M404.053,353.29a11.437,11.437,0,0,1-8.055-.855l-37.063-21.4c-1.5-.866,52.29-33.329,53.588-34.077.469-.279,21.973-12.565,22.216-12.565,2.471-1.044,5.322-.286,7.937,1.22l37.06,21.4c1.5.866-52,33.161-53.3,33.909C426.258,340.971,404.643,353.29,404.053,353.29Z" transform="translate(-339.655 -272.537)" fill="#d3dfe8" style="mix-blend-mode: multiply;isolation: isolate"/>
            <path id="Trazado_105185" data-name="Trazado 105185" d="M398.393,347.46a8.886,8.886,0,0,1-3.985-.858l-34.163-19.726,71.938-41.534a2.453,2.453,0,0,1,1.334-.422,8.652,8.652,0,0,1,3.824,1.348l34.166,19.723L399.953,347.3A6.639,6.639,0,0,1,398.393,347.46Z" transform="translate(-336.195 -269.944)" fill="#cad8e3" style="mix-blend-mode: multiply;isolation: isolate"/>
          </g>
          <path id="Trazado_105186" data-name="Trazado 105186" d="M376.617,317.616l69.8-40.3c3.616-2.089,9.933-1.828,14.107.583l43.13,25.66c7.844-.512,12.576-1.524,12.576-.952,0,3.366-3.634,6.9-8.677,9.808l-84.761,48.939c-3.616,2.085-9.933,1.824-14.107-.587l-46.013-26.565s-9.693-5.451-9.693-11.042C352.978,321.823,362.36,319.945,376.617,317.616Z" transform="translate(-352.977 -241.629)" fill="#505a71"/>
          <path id="Trazado_105187" data-name="Trazado 105187" d="M352.978,328.361l9.683-1.227L443.49,275.2c5.326-3.076,14.626-2.69,20.774.862l46.828,32.3,5.136-.651v2.06h0c-.021,1.932-1.2,3.774-3.591,5.154l-86.918,50.183c-5.326,3.073-14.626,2.686-20.774-.862l-46.878-27.066c-3.4-1.96-5.118-4.478-5.083-6.857h0Z" transform="translate(-352.977 -248.793)" fill="#7d879e"/>
          <path id="Trazado_105188" data-name="Trazado 105188" d="M425.717,368.492l86.918-50.183c5.326-3.072,4.657-9.972-1.492-13.521l-46.878-30.8c-6.149-3.552-15.448-3.938-20.774-.862l-86.917,55.445c-5.326,3.076-4.657,8.445,1.492,11.993l46.878,27.066C411.092,371.178,420.391,371.564,425.717,368.492Z" transform="translate(-352.978 -254.15)" fill="#828ca3"/>
          <path id="Trazado_105189" data-name="Trazado 105189" d="M353.333,314.713l23.371-3,66.508-38.4A17.17,17.17,0,0,1,451.6,271.4a22.848,22.848,0,0,1,11.117,2.769l37.5,21.651,13.828-1.778v18.142h0v.021h0c-.011,1.563-1.034,2.976-2.958,4.088L424.169,366.48a17.187,17.187,0,0,1-8.391,1.9,22.9,22.9,0,0,1-11.117-2.765l-46.878-27.066c-2.829-1.631-4.45-3.706-4.45-5.684l0-.039h0Z" transform="translate(-352.063 -253.236)" fill="url(#linear-gradient)"/>
          <path id="Trazado_105190" data-name="Trazado 105190" d="M370.094,310.5a21.382,21.382,0,0,0,6.317-.236V293.655a28.782,28.782,0,0,1-6.317.122Z" transform="translate(-308.872 -195.899)" fill="#505766"/>
          <path id="Trazado_105191" data-name="Trazado 105191" d="M352.978,318.508l9.683-1.223,80.83-46.667c5.326-3.072,14.626-2.69,20.774.862l46.828,27.037,5.136-.651v3.094h0c-.021,1.932-1.2,3.774-3.591,5.154l-86.918,50.18c-5.326,3.076-14.626,2.69-20.774-.858L358.064,328.37c-3.4-1.96-5.118-4.478-5.083-6.857l0,0Z" transform="translate(-352.977 -260.609)" fill="#505a71"/>
          <path id="Trazado_105192" data-name="Trazado 105192" d="M352.978,319.616l9.683-2.761,80.83-46.667c5.326-3.072,14.626-2.686,20.774.862l46.828,27.037,5.136.887v1.556h0c-.021,1.931-1.2,3.773-3.591,5.154l-86.918,50.183c-5.326,3.073-14.626,2.686-20.774-.862l-46.878-27.066c-3.4-1.96-5.118-4.478-5.083-6.857h0Z" transform="translate(-352.977 -261.716)" fill="#768097"/>
          <path id="Trazado_105193" data-name="Trazado 105193" d="M425.717,359l86.918-50.183c5.326-3.076,4.657-8.445-1.492-11.993l-46.878-27.066c-6.149-3.548-13.553-5.136-20.774-.862l-86.917,50.183c-5.326,3.073-4.657,8.445,1.492,11.993l46.878,27.066C411.092,361.688,420.391,362.074,425.717,359Z" transform="translate(-352.978 -266.325)" fill="#7d879e"/>
          <path id="Trazado_105194" data-name="Trazado 105194" d="M418.3,352.074l84.761-48.939c3.616-2.085,3.162-5.734-1.012-8.144L456.03,268.426c-4.174-2.411-10.491-2.672-14.107-.587l-84.761,48.938c-3.616,2.085-3.162,5.734,1.016,8.144l46.013,26.565C408.365,353.9,414.682,354.159,418.3,352.074Z" transform="translate(-348.484 -266.05)" fill="#828ca3"/>
          <path id="Trazado_105195" data-name="Trazado 105195" d="M412.188,346.352l82.046-47.368c2.668-1.542,2.332-4.231-.748-6.009l-42.972-24.813c-3.083-1.778-7.74-1.971-10.409-.429L358.059,315.1c-2.665,1.538-2.332,4.231.748,6.009l42.976,24.809C404.862,347.7,409.52,347.89,412.188,346.352Z" transform="translate(-344.52 -265.379)" fill="#828ca3"/>
          <g id="Grupo_58516" data-name="Grupo 58516" transform="translate(92.834 63.552)">
            <g id="Grupo_58515" data-name="Grupo 58515">
              <path id="Trazado_105196" data-name="Trazado 105196" d="M391.391,287.876l2.532-1.463a2,2,0,0,0,.833-1.592h0c0-.612-.372-.894-.833-.63l-2.532,1.463a1.988,1.988,0,0,0-.833,1.592h0C390.558,287.858,390.93,288.14,391.391,287.876Z" transform="translate(-348.974 -284.092)" fill="#63d643"/>
              <path id="Trazado_105197" data-name="Trazado 105197" d="M389.453,288.991l2.536-1.463a1.993,1.993,0,0,0,.83-1.588h0c0-.615-.372-.894-.83-.63l-2.536,1.463a1.986,1.986,0,0,0-.833,1.588h0C388.62,288.977,388.992,289.26,389.453,288.991Z" transform="translate(-353.967 -281.209)" fill="#16892e"/>
              <path id="Trazado_105198" data-name="Trazado 105198" d="M387.513,290.113l2.536-1.463a1.988,1.988,0,0,0,.833-1.592h0c0-.612-.372-.894-.833-.629l-2.536,1.466a1.993,1.993,0,0,0-.83,1.588h0C386.683,290.1,387.055,290.377,387.513,290.113Z" transform="translate(-358.959 -278.328)" fill="#16892e"/>
              <path id="Trazado_105199" data-name="Trazado 105199" d="M385.578,291.232l2.536-1.463a2.005,2.005,0,0,0,.83-1.592h0c0-.612-.372-.894-.83-.629l-2.536,1.463a1.993,1.993,0,0,0-.833,1.592h0C384.745,291.214,385.117,291.5,385.578,291.232Z" transform="translate(-363.953 -275.444)" fill="#16892e"/>
              <path id="Trazado_105200" data-name="Trazado 105200" d="M383.64,292.348l2.536-1.463a2,2,0,0,0,.833-1.588h0c0-.615-.375-.894-.833-.629l-2.536,1.463a2,2,0,0,0-.833,1.592h0C382.807,292.333,383.183,292.616,383.64,292.348Z" transform="translate(-368.947 -272.561)" fill="#63d643"/>
              <path id="Trazado_105201" data-name="Trazado 105201" d="M381.7,293.469l2.532-1.463a1.988,1.988,0,0,0,.833-1.592h0c0-.612-.372-.894-.833-.63l-2.532,1.466a1.986,1.986,0,0,0-.833,1.588h0C380.87,293.454,381.242,293.733,381.7,293.469Z" transform="translate(-373.938 -269.68)" fill="#d88d43"/>
              <path id="Trazado_105202" data-name="Trazado 105202" d="M379.765,294.588l2.536-1.463a2.005,2.005,0,0,0,.83-1.592h0c0-.612-.372-.894-.83-.63l-2.536,1.463a2,2,0,0,0-.833,1.592h0C378.932,294.57,379.3,294.852,379.765,294.588Z" transform="translate(-378.932 -266.796)" fill="#63d643"/>
            </g>
          </g>
          <g id="Grupo_58559" data-name="Grupo 58559" transform="translate(15.849 3.552)">
            <g id="Grupo_58558" data-name="Grupo 58558">
              <g id="Grupo_58519" data-name="Grupo 58519" transform="translate(79.717)">
                <g id="Grupo_58517" data-name="Grupo 58517" transform="translate(5.024)">
                  <path id="Trazado_105203" data-name="Trazado 105203" d="M382.748,268.27a1.512,1.512,0,0,1-1.363,0,.416.416,0,0,1-.007-.787,1.5,1.5,0,0,1,1.363,0A.416.416,0,0,1,382.748,268.27Z" transform="translate(-381.1 -267.318)" fill="#2c323d"/>
                  <path id="Trazado_105204" data-name="Trazado 105204" d="M384,269a1.512,1.512,0,0,1-1.363,0,.416.416,0,0,1,0-.787,1.512,1.512,0,0,1,1.363,0A.415.415,0,0,1,384,269Z" transform="translate(-377.86 -265.446)" fill="#2c323d"/>
                  <path id="Trazado_105205" data-name="Trazado 105205" d="M385.262,269.721a1.5,1.5,0,0,1-1.363,0,.416.416,0,0,1,0-.787,1.512,1.512,0,0,1,1.363,0A.415.415,0,0,1,385.262,269.721Z" transform="translate(-374.618 -263.575)" fill="#2c323d"/>
                  <path id="Trazado_105206" data-name="Trazado 105206" d="M386.521,270.447a1.511,1.511,0,0,1-1.363,0,.415.415,0,0,1,0-.787,1.5,1.5,0,0,1,1.363,0C386.893,269.878,386.9,270.232,386.521,270.447Z" transform="translate(-371.378 -261.704)" fill="#2c323d"/>
                  <path id="Trazado_105207" data-name="Trazado 105207" d="M387.779,271.172a1.5,1.5,0,0,1-1.363,0,.415.415,0,0,1,0-.787,1.511,1.511,0,0,1,1.363,0C388.151,270.6,388.155,270.957,387.779,271.172Z" transform="translate(-368.136 -259.832)" fill="#2c323d"/>
                  <path id="Trazado_105208" data-name="Trazado 105208" d="M389.039,271.9a1.519,1.519,0,0,1-1.366,0c-.376-.218-.379-.572,0-.787a1.5,1.5,0,0,1,1.363,0A.416.416,0,0,1,389.039,271.9Z" transform="translate(-364.896 -257.961)" fill="#2c323d"/>
                  <path id="Trazado_105209" data-name="Trazado 105209" d="M390.293,272.626a1.511,1.511,0,0,1-1.363,0,.416.416,0,0,1,0-.787,1.512,1.512,0,0,1,1.363,0A.415.415,0,0,1,390.293,272.626Z" transform="translate(-361.654 -256.089)" fill="#2c323d"/>
                  <path id="Trazado_105210" data-name="Trazado 105210" d="M391.551,273.352a1.5,1.5,0,0,1-1.363,0,.416.416,0,0,1,0-.787,1.511,1.511,0,0,1,1.363,0A.416.416,0,0,1,391.551,273.352Z" transform="translate(-358.412 -254.219)" fill="#2c323d"/>
                  <path id="Trazado_105211" data-name="Trazado 105211" d="M392.81,274.078a1.5,1.5,0,0,1-1.363,0,.415.415,0,0,1,0-.787,1.512,1.512,0,0,1,1.363,0C393.182,273.509,393.186,273.864,392.81,274.078Z" transform="translate(-355.172 -252.348)" fill="#2c323d"/>
                  <path id="Trazado_105212" data-name="Trazado 105212" d="M394.068,274.8a1.5,1.5,0,0,1-1.363,0,.416.416,0,0,1-.007-.787,1.5,1.5,0,0,1,1.363,0C394.44,274.235,394.444,274.589,394.068,274.8Z" transform="translate(-351.93 -250.477)" fill="#2c323d"/>
                  <path id="Trazado_105213" data-name="Trazado 105213" d="M395.324,275.529a1.5,1.5,0,0,1-1.363,0c-.376-.218-.379-.572,0-.787a1.5,1.5,0,0,1,1.363,0A.413.413,0,0,1,395.324,275.529Z" transform="translate(-348.69 -248.605)" fill="#2c323d"/>
                </g>
                <g id="Grupo_58518" data-name="Grupo 58518" transform="translate(0 0.452)">
                  <path id="Trazado_105214" data-name="Trazado 105214" d="M381.342,268.4a1.512,1.512,0,0,1-1.363,0,.416.416,0,0,1,0-.787,1.511,1.511,0,0,1,1.363,0A.415.415,0,0,1,381.342,268.4Z" transform="translate(-379.696 -267.444)" fill="#2c323d"/>
                  <path id="Trazado_105215" data-name="Trazado 105215" d="M382.6,269.117a1.5,1.5,0,0,1-1.363,0c-.379-.218-.383-.572-.007-.787a1.5,1.5,0,0,1,1.363,0A.416.416,0,0,1,382.6,269.117Z" transform="translate(-376.472 -265.583)" fill="#2c323d"/>
                  <path id="Trazado_105216" data-name="Trazado 105216" d="M383.846,269.841a1.511,1.511,0,0,1-1.363,0,.415.415,0,0,1,0-.787,1.5,1.5,0,0,1,1.363,0A.416.416,0,0,1,383.846,269.841Z" transform="translate(-373.247 -263.722)" fill="#2c323d"/>
                  <path id="Trazado_105217" data-name="Trazado 105217" d="M385.1,270.562a1.5,1.5,0,0,1-1.363,0,.415.415,0,0,1,0-.787,1.511,1.511,0,0,1,1.363,0C385.469,269.993,385.473,270.347,385.1,270.562Z" transform="translate(-370.023 -261.86)" fill="#2c323d"/>
                  <path id="Trazado_105218" data-name="Trazado 105218" d="M386.347,271.283a1.5,1.5,0,0,1-1.363,0c-.376-.218-.379-.572,0-.787a1.5,1.5,0,0,1,1.363,0A.413.413,0,0,1,386.347,271.283Z" transform="translate(-366.799 -259.998)" fill="#2c323d"/>
                  <path id="Trazado_105219" data-name="Trazado 105219" d="M387.6,272.007a1.512,1.512,0,0,1-1.363,0,.416.416,0,0,1,0-.787,1.511,1.511,0,0,1,1.363,0A.415.415,0,0,1,387.6,272.007Z" transform="translate(-363.575 -258.137)" fill="#2c323d"/>
                  <path id="Trazado_105220" data-name="Trazado 105220" d="M388.851,272.729a1.5,1.5,0,0,1-1.363,0,.416.416,0,0,1-.007-.787,1.508,1.508,0,0,1,1.366,0C389.223,272.16,389.227,272.514,388.851,272.729Z" transform="translate(-360.35 -256.276)" fill="#2c323d"/>
                  <path id="Trazado_105221" data-name="Trazado 105221" d="M390.1,273.453a1.511,1.511,0,0,1-1.363,0,.415.415,0,0,1,0-.787,1.5,1.5,0,0,1,1.363,0A.416.416,0,0,1,390.1,273.453Z" transform="translate(-357.126 -254.414)" fill="#2c323d"/>
                  <path id="Trazado_105222" data-name="Trazado 105222" d="M391.352,274.174a1.5,1.5,0,0,1-1.363,0,.416.416,0,0,1,0-.787,1.512,1.512,0,0,1,1.363,0C391.724,273.605,391.728,273.959,391.352,274.174Z" transform="translate(-353.901 -252.552)" fill="#2c323d"/>
                  <path id="Trazado_105223" data-name="Trazado 105223" d="M392.6,274.895a1.5,1.5,0,0,1-1.363,0c-.376-.218-.379-.572,0-.787a1.511,1.511,0,0,1,1.363,0A.415.415,0,0,1,392.6,274.895Z" transform="translate(-350.678 -250.691)" fill="#2c323d"/>
                  <path id="Trazado_105224" data-name="Trazado 105224" d="M393.856,275.619a1.512,1.512,0,0,1-1.363,0,.416.416,0,0,1-.007-.787,1.512,1.512,0,0,1,1.363,0A.416.416,0,0,1,393.856,275.619Z" transform="translate(-347.453 -248.829)" fill="#2c323d"/>
                  <path id="Trazado_105225" data-name="Trazado 105225" d="M395.107,276.341a1.512,1.512,0,0,1-1.363,0,.415.415,0,0,1,0-.787,1.5,1.5,0,0,1,1.363,0C395.479,275.772,395.482,276.126,395.107,276.341Z" transform="translate(-344.229 -246.968)" fill="#2c323d"/>
                </g>
              </g>
              <g id="Grupo_58522" data-name="Grupo 58522" transform="translate(73.198 3.764)">
                <g id="Grupo_58520" data-name="Grupo 58520" transform="translate(5.023)">
                  <path id="Trazado_105226" data-name="Trazado 105226" d="M380.924,269.321a1.511,1.511,0,0,1-1.363,0,.416.416,0,0,1,0-.787,1.512,1.512,0,0,1,1.363,0A.415.415,0,0,1,380.924,269.321Z" transform="translate(-379.278 -268.37)" fill="#2c323d"/>
                  <path id="Trazado_105227" data-name="Trazado 105227" d="M382.183,270.047a1.5,1.5,0,0,1-1.363,0,.415.415,0,0,1,0-.787,1.511,1.511,0,0,1,1.363,0A.416.416,0,0,1,382.183,270.047Z" transform="translate(-376.037 -266.499)" fill="#2c323d"/>
                  <path id="Trazado_105228" data-name="Trazado 105228" d="M383.441,270.773a1.512,1.512,0,0,1-1.363,0,.415.415,0,0,1,0-.787,1.5,1.5,0,0,1,1.363,0C383.813,270.2,383.817,270.558,383.441,270.773Z" transform="translate(-372.795 -264.628)" fill="#2c323d"/>
                  <path id="Trazado_105229" data-name="Trazado 105229" d="M384.7,271.5a1.5,1.5,0,0,1-1.363,0c-.379-.218-.383-.572-.007-.787a1.5,1.5,0,0,1,1.363,0A.416.416,0,0,1,384.7,271.5Z" transform="translate(-369.555 -262.757)" fill="#2c323d"/>
                  <path id="Trazado_105230" data-name="Trazado 105230" d="M385.955,272.227a1.511,1.511,0,0,1-1.363,0c-.376-.218-.379-.572,0-.787a1.5,1.5,0,0,1,1.363,0A.415.415,0,0,1,385.955,272.227Z" transform="translate(-366.314 -260.885)" fill="#2c323d"/>
                  <path id="Trazado_105231" data-name="Trazado 105231" d="M387.213,272.952a1.512,1.512,0,0,1-1.363,0,.416.416,0,0,1,0-.787,1.512,1.512,0,0,1,1.363,0A.416.416,0,0,1,387.213,272.952Z" transform="translate(-363.072 -259.013)" fill="#2c323d"/>
                  <path id="Trazado_105232" data-name="Trazado 105232" d="M388.472,273.678a1.511,1.511,0,0,1-1.363,0,.415.415,0,0,1,0-.787,1.512,1.512,0,0,1,1.363,0A.416.416,0,0,1,388.472,273.678Z" transform="translate(-359.831 -257.143)" fill="#2c323d"/>
                  <path id="Trazado_105233" data-name="Trazado 105233" d="M389.73,274.4a1.5,1.5,0,0,1-1.363,0,.416.416,0,0,1-.007-.787,1.511,1.511,0,0,1,1.363,0C390.1,273.835,390.106,274.189,389.73,274.4Z" transform="translate(-356.59 -255.272)" fill="#2c323d"/>
                  <path id="Trazado_105234" data-name="Trazado 105234" d="M390.986,275.13a1.5,1.5,0,0,1-1.363,0c-.376-.218-.379-.572,0-.787a1.5,1.5,0,0,1,1.363,0A.415.415,0,0,1,390.986,275.13Z" transform="translate(-353.349 -253.401)" fill="#2c323d"/>
                  <path id="Trazado_105235" data-name="Trazado 105235" d="M392.244,275.855a1.5,1.5,0,0,1-1.363,0c-.376-.218-.379-.572,0-.787a1.5,1.5,0,0,1,1.363,0A.413.413,0,0,1,392.244,275.855Z" transform="translate(-350.108 -251.529)" fill="#2c323d"/>
                  <path id="Trazado_105236" data-name="Trazado 105236" d="M393.5,276.584a1.511,1.511,0,0,1-1.363,0,.415.415,0,0,1,0-.787,1.5,1.5,0,0,1,1.363,0A.416.416,0,0,1,393.5,276.584Z" transform="translate(-346.867 -249.658)" fill="#2c323d"/>
                </g>
                <g id="Grupo_58521" data-name="Grupo 58521" transform="translate(0 0.451)">
                  <path id="Trazado_105237" data-name="Trazado 105237" d="M379.521,269.447a1.5,1.5,0,0,1-1.363,0,.415.415,0,0,1,0-.787,1.511,1.511,0,0,1,1.363,0C379.893,268.878,379.9,269.232,379.521,269.447Z" transform="translate(-377.873 -268.496)" fill="#2c323d"/>
                  <path id="Trazado_105238" data-name="Trazado 105238" d="M380.771,270.168a1.5,1.5,0,0,1-1.363,0c-.376-.218-.379-.572,0-.787a1.512,1.512,0,0,1,1.363,0A.415.415,0,0,1,380.771,270.168Z" transform="translate(-374.649 -266.634)" fill="#2c323d"/>
                  <path id="Trazado_105239" data-name="Trazado 105239" d="M382.022,270.892a1.512,1.512,0,0,1-1.363,0,.416.416,0,0,1,0-.787,1.512,1.512,0,0,1,1.363,0A.415.415,0,0,1,382.022,270.892Z" transform="translate(-371.425 -264.773)" fill="#2c323d"/>
                  <path id="Trazado_105240" data-name="Trazado 105240" d="M383.275,271.614a1.511,1.511,0,0,1-1.363,0,.416.416,0,0,1-.007-.787,1.5,1.5,0,0,1,1.363,0C383.647,271.045,383.651,271.4,383.275,271.614Z" transform="translate(-368.2 -262.912)" fill="#2c323d"/>
                  <path id="Trazado_105241" data-name="Trazado 105241" d="M384.526,272.338a1.511,1.511,0,0,1-1.363,0,.415.415,0,0,1,0-.787,1.5,1.5,0,0,1,1.363,0A.416.416,0,0,1,384.526,272.338Z" transform="translate(-364.976 -261.05)" fill="#2c323d"/>
                  <path id="Trazado_105242" data-name="Trazado 105242" d="M385.776,273.059a1.5,1.5,0,0,1-1.363,0,.416.416,0,0,1,0-.787,1.511,1.511,0,0,1,1.363,0A.416.416,0,0,1,385.776,273.059Z" transform="translate(-361.751 -259.189)" fill="#2c323d"/>
                  <path id="Trazado_105243" data-name="Trazado 105243" d="M387.027,273.78a1.5,1.5,0,0,1-1.363,0c-.376-.218-.379-.572,0-.787a1.511,1.511,0,0,1,1.363,0A.415.415,0,0,1,387.027,273.78Z" transform="translate(-358.528 -257.327)" fill="#2c323d"/>
                  <path id="Trazado_105244" data-name="Trazado 105244" d="M388.281,274.5a1.511,1.511,0,0,1-1.363,0c-.379-.218-.383-.569-.007-.787a1.511,1.511,0,0,1,1.363,0A.416.416,0,0,1,388.281,274.5Z" transform="translate(-355.304 -255.465)" fill="#2c323d"/>
                  <path id="Trazado_105245" data-name="Trazado 105245" d="M389.531,275.226a1.511,1.511,0,0,1-1.363,0,.415.415,0,0,1,0-.787,1.5,1.5,0,0,1,1.363,0C389.9,274.657,389.907,275.011,389.531,275.226Z" transform="translate(-352.079 -253.604)" fill="#2c323d"/>
                  <path id="Trazado_105246" data-name="Trazado 105246" d="M390.782,275.95a1.512,1.512,0,0,1-1.363,0,.415.415,0,0,1,0-.787,1.5,1.5,0,0,1,1.363,0A.416.416,0,0,1,390.782,275.95Z" transform="translate(-348.855 -251.742)" fill="#2c323d"/>
                  <path id="Trazado_105247" data-name="Trazado 105247" d="M392.032,276.671a1.5,1.5,0,0,1-1.363,0,.416.416,0,0,1,0-.787,1.511,1.511,0,0,1,1.363,0A.415.415,0,0,1,392.032,276.671Z" transform="translate(-345.631 -249.881)" fill="#2c323d"/>
                  <path id="Trazado_105248" data-name="Trazado 105248" d="M393.283,277.393a1.5,1.5,0,0,1-1.363,0c-.376-.218-.379-.572,0-.787a1.5,1.5,0,0,1,1.363,0A.415.415,0,0,1,393.283,277.393Z" transform="translate(-342.407 -248.02)" fill="#2c323d"/>
                </g>
              </g>
              <g id="Grupo_58525" data-name="Grupo 58525" transform="translate(66.68 7.527)">
                <g id="Grupo_58523" data-name="Grupo 58523" transform="translate(5.024)">
                  <path id="Trazado_105249" data-name="Trazado 105249" d="M379.1,270.373a1.5,1.5,0,0,1-1.363,0,.415.415,0,0,1,0-.787,1.512,1.512,0,0,1,1.363,0A.416.416,0,0,1,379.1,270.373Z" transform="translate(-377.455 -269.422)" fill="#2c323d"/>
                  <path id="Trazado_105250" data-name="Trazado 105250" d="M380.361,271.1a1.511,1.511,0,0,1-1.363,0,.416.416,0,0,1-.007-.787,1.5,1.5,0,0,1,1.363,0C380.733,270.53,380.733,270.884,380.361,271.1Z" transform="translate(-374.214 -267.551)" fill="#2c323d"/>
                  <path id="Trazado_105251" data-name="Trazado 105251" d="M381.617,271.825a1.5,1.5,0,0,1-1.363,0c-.375-.218-.379-.572,0-.787a1.5,1.5,0,0,1,1.363,0A.415.415,0,0,1,381.617,271.825Z" transform="translate(-370.973 -265.68)" fill="#2c323d"/>
                  <path id="Trazado_105252" data-name="Trazado 105252" d="M382.875,272.553a1.512,1.512,0,0,1-1.363,0c-.376-.218-.379-.572,0-.787a1.5,1.5,0,0,1,1.363,0A.415.415,0,0,1,382.875,272.553Z" transform="translate(-367.732 -263.808)" fill="#2c323d"/>
                  <path id="Trazado_105253" data-name="Trazado 105253" d="M384.134,273.278a1.511,1.511,0,0,1-1.363,0,.415.415,0,0,1,0-.787,1.512,1.512,0,0,1,1.363,0A.416.416,0,0,1,384.134,273.278Z" transform="translate(-364.491 -261.936)" fill="#2c323d"/>
                  <path id="Trazado_105254" data-name="Trazado 105254" d="M385.392,274a1.511,1.511,0,0,1-1.363,0,.415.415,0,0,1,0-.787,1.511,1.511,0,0,1,1.363,0A.416.416,0,0,1,385.392,274Z" transform="translate(-361.25 -260.065)" fill="#2c323d"/>
                  <path id="Trazado_105255" data-name="Trazado 105255" d="M386.652,274.73a1.509,1.509,0,0,1-1.366,0,.416.416,0,0,1,0-.787,1.512,1.512,0,0,1,1.363,0A.416.416,0,0,1,386.652,274.73Z" transform="translate(-358.009 -258.195)" fill="#2c323d"/>
                  <path id="Trazado_105256" data-name="Trazado 105256" d="M387.906,275.456a1.5,1.5,0,0,1-1.363,0c-.375-.218-.379-.572,0-.787a1.5,1.5,0,0,1,1.363,0A.415.415,0,0,1,387.906,275.456Z" transform="translate(-354.768 -256.324)" fill="#2c323d"/>
                  <path id="Trazado_105257" data-name="Trazado 105257" d="M389.164,276.181a1.5,1.5,0,0,1-1.363,0c-.376-.218-.379-.572,0-.787a1.511,1.511,0,0,1,1.363,0C389.536,275.612,389.54,275.966,389.164,276.181Z" transform="translate(-351.526 -254.452)" fill="#2c323d"/>
                  <path id="Trazado_105258" data-name="Trazado 105258" d="M390.423,276.91a1.511,1.511,0,0,1-1.363,0,.415.415,0,0,1,0-.787,1.5,1.5,0,0,1,1.363,0A.416.416,0,0,1,390.423,276.91Z" transform="translate(-348.285 -252.581)" fill="#2c323d"/>
                  <path id="Trazado_105259" data-name="Trazado 105259" d="M391.681,277.635a1.511,1.511,0,0,1-1.363,0,.416.416,0,0,1-.007-.787,1.512,1.512,0,0,1,1.363,0A.416.416,0,0,1,391.681,277.635Z" transform="translate(-345.044 -250.709)" fill="#2c323d"/>
                </g>
                <g id="Grupo_58524" data-name="Grupo 58524" transform="translate(0 0.451)">
                  <path id="Trazado_105260" data-name="Trazado 105260" d="M377.7,270.5a1.511,1.511,0,0,1-1.363,0c-.379-.218-.383-.572-.007-.787a1.5,1.5,0,0,1,1.363,0A.416.416,0,0,1,377.7,270.5Z" transform="translate(-376.051 -269.548)" fill="#2c323d"/>
                  <path id="Trazado_105261" data-name="Trazado 105261" d="M378.95,271.223a1.511,1.511,0,0,1-1.363,0,.415.415,0,0,1,0-.787,1.5,1.5,0,0,1,1.363,0A.416.416,0,0,1,378.95,271.223Z" transform="translate(-372.826 -267.686)" fill="#2c323d"/>
                  <path id="Trazado_105262" data-name="Trazado 105262" d="M380.2,271.944a1.5,1.5,0,0,1-1.363,0,.415.415,0,0,1,0-.787,1.512,1.512,0,0,1,1.363,0A.416.416,0,0,1,380.2,271.944Z" transform="translate(-369.602 -265.825)" fill="#2c323d"/>
                  <path id="Trazado_105263" data-name="Trazado 105263" d="M381.451,272.666a1.5,1.5,0,0,1-1.363,0c-.376-.218-.379-.572,0-.787a1.5,1.5,0,0,1,1.363,0A.415.415,0,0,1,381.451,272.666Z" transform="translate(-366.378 -263.964)" fill="#2c323d"/>
                  <path id="Trazado_105264" data-name="Trazado 105264" d="M382.7,273.389a1.511,1.511,0,0,1-1.363,0,.416.416,0,0,1,0-.787,1.511,1.511,0,0,1,1.363,0A.415.415,0,0,1,382.7,273.389Z" transform="translate(-363.154 -262.101)" fill="#2c323d"/>
                  <path id="Trazado_105265" data-name="Trazado 105265" d="M383.955,274.111a1.511,1.511,0,0,1-1.363,0,.416.416,0,0,1-.007-.787,1.5,1.5,0,0,1,1.363,0C384.327,273.542,384.331,273.9,383.955,274.111Z" transform="translate(-359.929 -260.241)" fill="#2c323d"/>
                  <path id="Trazado_105266" data-name="Trazado 105266" d="M385.206,274.835a1.512,1.512,0,0,1-1.363,0,.415.415,0,0,1,0-.787,1.5,1.5,0,0,1,1.363,0A.416.416,0,0,1,385.206,274.835Z" transform="translate(-356.705 -258.379)" fill="#2c323d"/>
                  <path id="Trazado_105267" data-name="Trazado 105267" d="M386.456,275.556a1.5,1.5,0,0,1-1.363,0,.416.416,0,0,1,0-.787,1.512,1.512,0,0,1,1.363,0A.416.416,0,0,1,386.456,275.556Z" transform="translate(-353.48 -256.517)" fill="#2c323d"/>
                  <path id="Trazado_105268" data-name="Trazado 105268" d="M387.707,276.278a1.5,1.5,0,0,1-1.363,0c-.376-.218-.379-.572,0-.787a1.5,1.5,0,0,1,1.363,0A.415.415,0,0,1,387.707,276.278Z" transform="translate(-350.257 -254.656)" fill="#2c323d"/>
                  <path id="Trazado_105269" data-name="Trazado 105269" d="M388.96,277a1.512,1.512,0,0,1-1.363,0,.416.416,0,0,1-.007-.787,1.511,1.511,0,0,1,1.363,0A.416.416,0,0,1,388.96,277Z" transform="translate(-347.032 -252.794)" fill="#2c323d"/>
                  <path id="Trazado_105270" data-name="Trazado 105270" d="M390.211,277.723a1.5,1.5,0,0,1-1.363,0,.413.413,0,0,1,0-.783,1.5,1.5,0,0,1,1.363,0C390.583,277.154,390.587,277.508,390.211,277.723Z" transform="translate(-343.808 -250.933)" fill="#2c323d"/>
                  <path id="Trazado_105271" data-name="Trazado 105271" d="M391.462,278.447a1.511,1.511,0,0,1-1.363,0,.415.415,0,0,1,0-.787,1.5,1.5,0,0,1,1.363,0A.416.416,0,0,1,391.462,278.447Z" transform="translate(-340.584 -249.071)" fill="#2c323d"/>
                </g>
              </g>
              <g id="Grupo_58528" data-name="Grupo 58528" transform="translate(60.162 11.29)">
                <g id="Grupo_58526" data-name="Grupo 58526" transform="translate(5.022)">
                  <path id="Trazado_105272" data-name="Trazado 105272" d="M377.279,271.425a1.5,1.5,0,0,1-1.363,0,.413.413,0,0,1,0-.783,1.5,1.5,0,0,1,1.363,0A.415.415,0,0,1,377.279,271.425Z" transform="translate(-375.633 -270.474)" fill="#2c323d"/>
                  <path id="Trazado_105273" data-name="Trazado 105273" d="M378.537,272.151a1.5,1.5,0,0,1-1.363,0c-.376-.218-.379-.572,0-.787a1.5,1.5,0,0,1,1.363,0A.415.415,0,0,1,378.537,272.151Z" transform="translate(-372.391 -268.603)" fill="#2c323d"/>
                  <path id="Trazado_105274" data-name="Trazado 105274" d="M379.8,272.879a1.512,1.512,0,0,1-1.363,0,.415.415,0,0,1,0-.787,1.5,1.5,0,0,1,1.363,0A.416.416,0,0,1,379.8,272.879Z" transform="translate(-369.15 -266.731)" fill="#2c323d"/>
                  <path id="Trazado_105275" data-name="Trazado 105275" d="M381.054,273.6a1.511,1.511,0,0,1-1.363,0,.415.415,0,0,1,0-.787,1.512,1.512,0,0,1,1.363,0A.416.416,0,0,1,381.054,273.6Z" transform="translate(-365.909 -264.859)" fill="#2c323d"/>
                  <path id="Trazado_105276" data-name="Trazado 105276" d="M382.313,274.33a1.512,1.512,0,0,1-1.363,0c-.379-.218-.383-.569-.007-.787a1.512,1.512,0,0,1,1.363,0A.416.416,0,0,1,382.313,274.33Z" transform="translate(-362.668 -262.989)" fill="#2c323d"/>
                  <path id="Trazado_105277" data-name="Trazado 105277" d="M383.568,275.056a1.5,1.5,0,0,1-1.363,0,.416.416,0,0,1,0-.787,1.511,1.511,0,0,1,1.363,0A.415.415,0,0,1,383.568,275.056Z" transform="translate(-359.427 -261.118)" fill="#2c323d"/>
                  <path id="Trazado_105278" data-name="Trazado 105278" d="M384.826,275.782a1.511,1.511,0,0,1-1.363,0c-.376-.218-.379-.572,0-.787a1.5,1.5,0,0,1,1.363,0C385.2,275.213,385.2,275.567,384.826,275.782Z" transform="translate(-356.185 -259.247)" fill="#2c323d"/>
                  <path id="Trazado_105279" data-name="Trazado 105279" d="M386.085,276.507a1.5,1.5,0,0,1-1.363,0,.415.415,0,0,1,0-.787,1.512,1.512,0,0,1,1.363,0C386.457,275.938,386.461,276.292,386.085,276.507Z" transform="translate(-352.945 -257.375)" fill="#2c323d"/>
                  <path id="Trazado_105280" data-name="Trazado 105280" d="M387.343,277.236a1.512,1.512,0,0,1-1.363,0,.416.416,0,0,1-.007-.787,1.5,1.5,0,0,1,1.363,0C387.715,276.667,387.719,277.018,387.343,277.236Z" transform="translate(-349.703 -255.504)" fill="#2c323d"/>
                  <path id="Trazado_105281" data-name="Trazado 105281" d="M388.6,277.961a1.511,1.511,0,0,1-1.363,0,.416.416,0,0,1,0-.787,1.511,1.511,0,0,1,1.363,0A.415.415,0,0,1,388.6,277.961Z" transform="translate(-346.463 -253.632)" fill="#2c323d"/>
                  <path id="Trazado_105282" data-name="Trazado 105282" d="M389.857,278.687a1.5,1.5,0,0,1-1.363,0,.416.416,0,0,1,0-.787,1.512,1.512,0,0,1,1.363,0A.415.415,0,0,1,389.857,278.687Z" transform="translate(-343.221 -251.761)" fill="#2c323d"/>
                </g>
                <g id="Grupo_58527" data-name="Grupo 58527" transform="translate(0 0.451)">
                  <path id="Trazado_105283" data-name="Trazado 105283" d="M375.875,271.551a1.5,1.5,0,0,1-1.363,0c-.376-.218-.379-.572,0-.787a1.5,1.5,0,0,1,1.363,0A.415.415,0,0,1,375.875,271.551Z" transform="translate(-374.229 -270.6)" fill="#2c323d"/>
                  <path id="Trazado_105284" data-name="Trazado 105284" d="M377.126,272.274a1.512,1.512,0,0,1-1.363,0,.416.416,0,0,1,0-.787,1.511,1.511,0,0,1,1.363,0A.415.415,0,0,1,377.126,272.274Z" transform="translate(-371.005 -268.738)" fill="#2c323d"/>
                  <path id="Trazado_105285" data-name="Trazado 105285" d="M378.379,273a1.5,1.5,0,0,1-1.363,0,.413.413,0,0,1-.007-.783,1.5,1.5,0,0,1,1.363,0C378.751,272.427,378.755,272.781,378.379,273Z" transform="translate(-367.78 -266.877)" fill="#2c323d"/>
                  <path id="Trazado_105286" data-name="Trazado 105286" d="M379.63,273.72a1.512,1.512,0,0,1-1.363,0,.415.415,0,0,1,0-.787,1.5,1.5,0,0,1,1.363,0A.416.416,0,0,1,379.63,273.72Z" transform="translate(-364.556 -265.015)" fill="#2c323d"/>
                  <path id="Trazado_105287" data-name="Trazado 105287" d="M380.88,274.441a1.5,1.5,0,0,1-1.363,0,.416.416,0,0,1,0-.787,1.512,1.512,0,0,1,1.363,0A.416.416,0,0,1,380.88,274.441Z" transform="translate(-361.332 -263.153)" fill="#2c323d"/>
                  <path id="Trazado_105288" data-name="Trazado 105288" d="M382.131,275.163a1.5,1.5,0,0,1-1.363,0c-.376-.218-.379-.572,0-.787a1.5,1.5,0,0,1,1.363,0A.415.415,0,0,1,382.131,275.163Z" transform="translate(-358.108 -261.293)" fill="#2c323d"/>
                  <path id="Trazado_105289" data-name="Trazado 105289" d="M383.385,275.886a1.511,1.511,0,0,1-1.363,0c-.379-.218-.383-.569-.007-.787a1.512,1.512,0,0,1,1.363,0A.416.416,0,0,1,383.385,275.886Z" transform="translate(-354.884 -259.43)" fill="#2c323d"/>
                  <path id="Trazado_105290" data-name="Trazado 105290" d="M384.635,276.608a1.5,1.5,0,0,1-1.363,0,.415.415,0,0,1,0-.787,1.512,1.512,0,0,1,1.363,0C385.007,276.039,385.011,276.394,384.635,276.608Z" transform="translate(-351.659 -257.569)" fill="#2c323d"/>
                  <path id="Trazado_105291" data-name="Trazado 105291" d="M385.886,277.332a1.511,1.511,0,0,1-1.363,0,.415.415,0,0,1,0-.787,1.5,1.5,0,0,1,1.363,0A.416.416,0,0,1,385.886,277.332Z" transform="translate(-348.436 -255.707)" fill="#2c323d"/>
                  <path id="Trazado_105292" data-name="Trazado 105292" d="M387.136,278.053a1.511,1.511,0,0,1-1.363,0,.416.416,0,0,1,0-.787,1.512,1.512,0,0,1,1.363,0A.415.415,0,0,1,387.136,278.053Z" transform="translate(-345.211 -253.846)" fill="#2c323d"/>
                  <path id="Trazado_105293" data-name="Trazado 105293" d="M388.387,278.775a1.5,1.5,0,0,1-1.363,0c-.376-.218-.379-.572,0-.787a1.5,1.5,0,0,1,1.363,0A.415.415,0,0,1,388.387,278.775Z" transform="translate(-341.987 -251.985)" fill="#2c323d"/>
                  <path id="Trazado_105294" data-name="Trazado 105294" d="M389.64,279.5a1.512,1.512,0,0,1-1.363,0,.416.416,0,0,1-.007-.787,1.512,1.512,0,0,1,1.363,0C390.012,278.929,390.016,279.28,389.64,279.5Z" transform="translate(-338.762 -250.122)" fill="#2c323d"/>
                </g>
              </g>
              <g id="Grupo_58531" data-name="Grupo 58531" transform="translate(53.644 15.053)">
                <g id="Grupo_58529" data-name="Grupo 58529" transform="translate(5.023)">
                  <path id="Trazado_105295" data-name="Trazado 105295" d="M375.457,272.477a1.5,1.5,0,0,1-1.363,0c-.376-.218-.379-.572,0-.787a1.5,1.5,0,0,1,1.363,0C375.829,271.908,375.833,272.262,375.457,272.477Z" transform="translate(-373.811 -271.526)" fill="#2c323d"/>
                  <path id="Trazado_105296" data-name="Trazado 105296" d="M376.716,273.205a1.511,1.511,0,0,1-1.363,0,.415.415,0,0,1,0-.787,1.5,1.5,0,0,1,1.363,0A.416.416,0,0,1,376.716,273.205Z" transform="translate(-370.57 -269.654)" fill="#2c323d"/>
                  <path id="Trazado_105297" data-name="Trazado 105297" d="M377.974,273.931a1.511,1.511,0,0,1-1.363,0,.416.416,0,0,1-.007-.787,1.5,1.5,0,0,1,1.363,0A.416.416,0,0,1,377.974,273.931Z" transform="translate(-367.329 -267.783)" fill="#2c323d"/>
                  <path id="Trazado_105298" data-name="Trazado 105298" d="M379.23,274.656a1.512,1.512,0,0,1-1.363,0,.416.416,0,0,1,0-.787,1.511,1.511,0,0,1,1.363,0A.415.415,0,0,1,379.23,274.656Z" transform="translate(-364.088 -265.911)" fill="#2c323d"/>
                  <path id="Trazado_105299" data-name="Trazado 105299" d="M380.488,275.382a1.5,1.5,0,0,1-1.363,0,.416.416,0,0,1,0-.787,1.511,1.511,0,0,1,1.363,0A.415.415,0,0,1,380.488,275.382Z" transform="translate(-360.846 -264.041)" fill="#2c323d"/>
                  <path id="Trazado_105300" data-name="Trazado 105300" d="M381.747,276.108a1.512,1.512,0,0,1-1.363,0,.415.415,0,0,1,0-.787,1.5,1.5,0,0,1,1.363,0C382.119,275.539,382.123,275.893,381.747,276.108Z" transform="translate(-357.606 -262.17)" fill="#2c323d"/>
                  <path id="Trazado_105301" data-name="Trazado 105301" d="M383.005,276.833a1.5,1.5,0,0,1-1.363,0,.415.415,0,0,1,0-.787,1.512,1.512,0,0,1,1.363,0C383.377,276.264,383.381,276.618,383.005,276.833Z" transform="translate(-354.364 -260.298)" fill="#2c323d"/>
                  <path id="Trazado_105302" data-name="Trazado 105302" d="M384.265,277.562a1.519,1.519,0,0,1-1.366,0c-.376-.218-.379-.572,0-.787a1.5,1.5,0,0,1,1.363,0A.416.416,0,0,1,384.265,277.562Z" transform="translate(-351.124 -258.427)" fill="#2c323d"/>
                  <path id="Trazado_105303" data-name="Trazado 105303" d="M385.519,278.287a1.512,1.512,0,0,1-1.363,0,.416.416,0,0,1,0-.787,1.512,1.512,0,0,1,1.363,0A.415.415,0,0,1,385.519,278.287Z" transform="translate(-347.882 -256.555)" fill="#2c323d"/>
                  <path id="Trazado_105304" data-name="Trazado 105304" d="M386.777,279.013a1.5,1.5,0,0,1-1.363,0,.416.416,0,0,1,0-.787,1.512,1.512,0,0,1,1.363,0A.416.416,0,0,1,386.777,279.013Z" transform="translate(-344.641 -254.684)" fill="#2c323d"/>
                  <path id="Trazado_105305" data-name="Trazado 105305" d="M388.036,279.739a1.5,1.5,0,0,1-1.363,0,.415.415,0,0,1,0-.787,1.511,1.511,0,0,1,1.363,0C388.408,279.17,388.412,279.524,388.036,279.739Z" transform="translate(-341.4 -252.813)" fill="#2c323d"/>
                </g>
                <g id="Grupo_58530" data-name="Grupo 58530" transform="translate(0 0.452)">
                  <path id="Trazado_105306" data-name="Trazado 105306" d="M374.054,272.605a1.512,1.512,0,0,1-1.363,0,.415.415,0,0,1,0-.787,1.5,1.5,0,0,1,1.363,0A.416.416,0,0,1,374.054,272.605Z" transform="translate(-372.406 -271.653)" fill="#2c323d"/>
                  <path id="Trazado_105307" data-name="Trazado 105307" d="M375.305,273.326a1.512,1.512,0,0,1-1.363,0,.415.415,0,0,1,0-.787,1.511,1.511,0,0,1,1.363,0A.416.416,0,0,1,375.305,273.326Z" transform="translate(-369.183 -269.791)" fill="#2c323d"/>
                  <path id="Trazado_105308" data-name="Trazado 105308" d="M376.555,274.048a1.5,1.5,0,0,1-1.363,0c-.376-.218-.379-.572,0-.787a1.5,1.5,0,0,1,1.363,0A.415.415,0,0,1,376.555,274.048Z" transform="translate(-365.958 -267.93)" fill="#2c323d"/>
                  <path id="Trazado_105309" data-name="Trazado 105309" d="M377.806,274.771a1.511,1.511,0,0,1-1.363,0,.416.416,0,0,1,0-.787,1.511,1.511,0,0,1,1.363,0A.415.415,0,0,1,377.806,274.771Z" transform="translate(-362.734 -266.068)" fill="#2c323d"/>
                  <path id="Trazado_105310" data-name="Trazado 105310" d="M379.059,275.493a1.5,1.5,0,0,1-1.363,0,.416.416,0,0,1-.007-.787,1.512,1.512,0,0,1,1.363,0C379.431,274.924,379.435,275.278,379.059,275.493Z" transform="translate(-359.51 -264.207)" fill="#2c323d"/>
                  <path id="Trazado_105311" data-name="Trazado 105311" d="M380.31,276.217a1.511,1.511,0,0,1-1.363,0,.415.415,0,0,1,0-.787,1.5,1.5,0,0,1,1.363,0A.416.416,0,0,1,380.31,276.217Z" transform="translate(-356.286 -262.345)" fill="#2c323d"/>
                  <path id="Trazado_105312" data-name="Trazado 105312" d="M381.56,276.938a1.511,1.511,0,0,1-1.363,0,.416.416,0,0,1,0-.787,1.511,1.511,0,0,1,1.363,0A.416.416,0,0,1,381.56,276.938Z" transform="translate(-353.061 -260.484)" fill="#2c323d"/>
                  <path id="Trazado_105313" data-name="Trazado 105313" d="M382.811,277.66a1.5,1.5,0,0,1-1.363,0c-.375-.218-.379-.572,0-.787a1.5,1.5,0,0,1,1.363,0A.415.415,0,0,1,382.811,277.66Z" transform="translate(-349.837 -258.623)" fill="#2c323d"/>
                  <path id="Trazado_105314" data-name="Trazado 105314" d="M384.064,278.384a1.512,1.512,0,0,1-1.363,0,.416.416,0,0,1-.007-.787,1.5,1.5,0,0,1,1.363,0A.416.416,0,0,1,384.064,278.384Z" transform="translate(-346.612 -256.761)" fill="#2c323d"/>
                  <path id="Trazado_105315" data-name="Trazado 105315" d="M385.315,279.105a1.5,1.5,0,0,1-1.363,0,.415.415,0,0,1,0-.787,1.511,1.511,0,0,1,1.363,0C385.687,278.536,385.691,278.89,385.315,279.105Z" transform="translate(-343.389 -254.9)" fill="#2c323d"/>
                  <path id="Trazado_105316" data-name="Trazado 105316" d="M386.566,279.826a1.5,1.5,0,0,1-1.363,0,.415.415,0,0,1,0-.787,1.5,1.5,0,0,1,1.363,0A.413.413,0,0,1,386.566,279.826Z" transform="translate(-340.165 -253.038)" fill="#2c323d"/>
                  <path id="Trazado_105317" data-name="Trazado 105317" d="M387.816,280.55a1.512,1.512,0,0,1-1.363,0,.416.416,0,0,1,0-.787,1.512,1.512,0,0,1,1.363,0A.415.415,0,0,1,387.816,280.55Z" transform="translate(-336.94 -251.176)" fill="#2c323d"/>
                </g>
              </g>
              <g id="Grupo_58534" data-name="Grupo 58534" transform="translate(47.125 18.818)">
                <g id="Grupo_58532" data-name="Grupo 58532" transform="translate(5.024)">
                  <path id="Trazado_105318" data-name="Trazado 105318" d="M373.636,273.527a1.5,1.5,0,0,1-1.363,0,.416.416,0,0,1-.007-.787,1.5,1.5,0,0,1,1.363,0C374.008,272.959,374.012,273.313,373.636,273.527Z" transform="translate(-371.988 -272.579)" fill="#2c323d"/>
                  <path id="Trazado_105319" data-name="Trazado 105319" d="M374.892,274.257a1.511,1.511,0,0,1-1.363,0,.416.416,0,0,1,0-.787,1.5,1.5,0,0,1,1.363,0A.415.415,0,0,1,374.892,274.257Z" transform="translate(-368.748 -270.708)" fill="#2c323d"/>
                  <path id="Trazado_105320" data-name="Trazado 105320" d="M376.15,274.982a1.512,1.512,0,0,1-1.363,0,.416.416,0,0,1,0-.787,1.511,1.511,0,0,1,1.363,0A.415.415,0,0,1,376.15,274.982Z" transform="translate(-365.506 -268.836)" fill="#2c323d"/>
                  <path id="Trazado_105321" data-name="Trazado 105321" d="M377.409,275.708a1.5,1.5,0,0,1-1.363,0,.415.415,0,0,1,0-.787,1.512,1.512,0,0,1,1.363,0A.416.416,0,0,1,377.409,275.708Z" transform="translate(-362.266 -266.965)" fill="#2c323d"/>
                  <path id="Trazado_105322" data-name="Trazado 105322" d="M378.667,276.434a1.511,1.511,0,0,1-1.363,0,.415.415,0,0,1,0-.787,1.5,1.5,0,0,1,1.363,0C379.039,275.865,379.043,276.219,378.667,276.434Z" transform="translate(-359.024 -265.094)" fill="#2c323d"/>
                  <path id="Trazado_105323" data-name="Trazado 105323" d="M379.926,277.16a1.5,1.5,0,0,1-1.363,0c-.379-.218-.383-.572-.007-.787a1.5,1.5,0,0,1,1.363,0A.416.416,0,0,1,379.926,277.16Z" transform="translate(-355.783 -263.223)" fill="#2c323d"/>
                  <path id="Trazado_105324" data-name="Trazado 105324" d="M381.181,277.888a1.512,1.512,0,0,1-1.363,0c-.376-.218-.379-.572,0-.787a1.5,1.5,0,0,1,1.363,0A.415.415,0,0,1,381.181,277.888Z" transform="translate(-352.542 -261.351)" fill="#2c323d"/>
                  <path id="Trazado_105325" data-name="Trazado 105325" d="M382.439,278.613a1.511,1.511,0,0,1-1.363,0,.416.416,0,0,1,0-.787,1.512,1.512,0,0,1,1.363,0A.416.416,0,0,1,382.439,278.613Z" transform="translate(-349.3 -259.48)" fill="#2c323d"/>
                  <path id="Trazado_105326" data-name="Trazado 105326" d="M383.7,279.339a1.511,1.511,0,0,1-1.363,0,.415.415,0,0,1,0-.787,1.511,1.511,0,0,1,1.363,0A.416.416,0,0,1,383.7,279.339Z" transform="translate(-346.06 -257.609)" fill="#2c323d"/>
                  <path id="Trazado_105327" data-name="Trazado 105327" d="M384.956,280.065a1.5,1.5,0,0,1-1.363,0,.416.416,0,0,1-.007-.787,1.512,1.512,0,0,1,1.363,0C385.328,279.5,385.332,279.851,384.956,280.065Z" transform="translate(-342.818 -255.738)" fill="#2c323d"/>
                  <path id="Trazado_105328" data-name="Trazado 105328" d="M386.212,280.791a1.5,1.5,0,0,1-1.363,0c-.375-.218-.379-.572,0-.787a1.5,1.5,0,0,1,1.363,0A.415.415,0,0,1,386.212,280.791Z" transform="translate(-339.578 -253.867)" fill="#2c323d"/>
                </g>
                <g id="Grupo_58533" data-name="Grupo 58533" transform="translate(0 0.451)">
                  <path id="Trazado_105329" data-name="Trazado 105329" d="M372.23,273.657a1.511,1.511,0,0,1-1.363,0,.416.416,0,0,1,0-.787,1.5,1.5,0,0,1,1.363,0A.415.415,0,0,1,372.23,273.657Z" transform="translate(-370.584 -272.705)" fill="#2c323d"/>
                  <path id="Trazado_105330" data-name="Trazado 105330" d="M373.483,274.378a1.5,1.5,0,0,1-1.363,0,.416.416,0,0,1-.007-.787,1.512,1.512,0,0,1,1.363,0C373.855,273.809,373.859,274.164,373.483,274.378Z" transform="translate(-367.359 -270.843)" fill="#2c323d"/>
                  <path id="Trazado_105331" data-name="Trazado 105331" d="M374.734,275.1a1.5,1.5,0,0,1-1.363,0,.415.415,0,0,1,0-.787,1.5,1.5,0,0,1,1.363,0A.413.413,0,0,1,374.734,275.1Z" transform="translate(-364.135 -268.981)" fill="#2c323d"/>
                  <path id="Trazado_105332" data-name="Trazado 105332" d="M375.984,275.823a1.512,1.512,0,0,1-1.363,0,.416.416,0,0,1,0-.787,1.511,1.511,0,0,1,1.363,0A.416.416,0,0,1,375.984,275.823Z" transform="translate(-360.91 -267.12)" fill="#2c323d"/>
                  <path id="Trazado_105333" data-name="Trazado 105333" d="M377.235,276.545a1.5,1.5,0,0,1-1.363,0c-.376-.218-.379-.572,0-.787a1.5,1.5,0,0,1,1.363,0A.415.415,0,0,1,377.235,276.545Z" transform="translate(-357.687 -265.259)" fill="#2c323d"/>
                  <path id="Trazado_105334" data-name="Trazado 105334" d="M378.489,277.269a1.512,1.512,0,0,1-1.363,0c-.379-.218-.383-.569-.007-.787a1.5,1.5,0,0,1,1.363,0A.416.416,0,0,1,378.489,277.269Z" transform="translate(-354.463 -263.397)" fill="#2c323d"/>
                  <path id="Trazado_105335" data-name="Trazado 105335" d="M379.739,277.99a1.5,1.5,0,0,1-1.363,0,.415.415,0,0,1,0-.787,1.511,1.511,0,0,1,1.363,0C380.111,277.421,380.115,277.775,379.739,277.99Z" transform="translate(-351.238 -261.536)" fill="#2c323d"/>
                  <path id="Trazado_105336" data-name="Trazado 105336" d="M380.99,278.711a1.5,1.5,0,0,1-1.363,0,.415.415,0,0,1,0-.787,1.512,1.512,0,0,1,1.363,0C381.362,278.142,381.365,278.5,380.99,278.711Z" transform="translate(-348.014 -259.674)" fill="#2c323d"/>
                  <path id="Trazado_105337" data-name="Trazado 105337" d="M382.24,279.435a1.512,1.512,0,0,1-1.363,0,.416.416,0,0,1,0-.787,1.512,1.512,0,0,1,1.363,0A.415.415,0,0,1,382.24,279.435Z" transform="translate(-344.789 -257.812)" fill="#2c323d"/>
                  <path id="Trazado_105338" data-name="Trazado 105338" d="M383.491,280.157a1.511,1.511,0,0,1-1.363,0c-.376-.218-.379-.572,0-.787a1.5,1.5,0,0,1,1.363,0A.415.415,0,0,1,383.491,280.157Z" transform="translate(-341.566 -255.951)" fill="#2c323d"/>
                  <path id="Trazado_105339" data-name="Trazado 105339" d="M384.744,280.881a1.511,1.511,0,0,1-1.363,0,.416.416,0,0,1-.007-.787,1.5,1.5,0,0,1,1.363,0C385.116,280.312,385.12,280.663,384.744,280.881Z" transform="translate(-338.341 -254.09)" fill="#2c323d"/>
                  <path id="Trazado_105340" data-name="Trazado 105340" d="M385.995,281.6a1.5,1.5,0,0,1-1.363,0,.415.415,0,0,1,0-.787,1.511,1.511,0,0,1,1.363,0A.416.416,0,0,1,385.995,281.6Z" transform="translate(-335.117 -252.228)" fill="#2c323d"/>
                </g>
              </g>
              <g id="Grupo_58537" data-name="Grupo 58537" transform="translate(40.606 22.581)">
                <g id="Grupo_58535" data-name="Grupo 58535" transform="translate(5.023)">
                  <path id="Trazado_105341" data-name="Trazado 105341" d="M371.812,274.583a1.512,1.512,0,0,1-1.363,0,.416.416,0,0,1,0-.787,1.5,1.5,0,0,1,1.363,0A.415.415,0,0,1,371.812,274.583Z" transform="translate(-370.166 -273.631)" fill="#2c323d"/>
                  <path id="Trazado_105342" data-name="Trazado 105342" d="M373.071,275.308a1.511,1.511,0,0,1-1.363,0,.415.415,0,0,1,0-.787,1.512,1.512,0,0,1,1.363,0A.416.416,0,0,1,373.071,275.308Z" transform="translate(-366.925 -271.759)" fill="#2c323d"/>
                  <path id="Trazado_105343" data-name="Trazado 105343" d="M374.329,276.034a1.5,1.5,0,0,1-1.363,0,.415.415,0,0,1,0-.787,1.511,1.511,0,0,1,1.363,0A.416.416,0,0,1,374.329,276.034Z" transform="translate(-363.683 -269.888)" fill="#2c323d"/>
                  <path id="Trazado_105344" data-name="Trazado 105344" d="M375.587,276.76a1.5,1.5,0,0,1-1.363,0,.413.413,0,0,1-.007-.783,1.5,1.5,0,0,1,1.363,0A.416.416,0,0,1,375.587,276.76Z" transform="translate(-360.442 -268.017)" fill="#2c323d"/>
                  <path id="Trazado_105345" data-name="Trazado 105345" d="M376.843,277.486a1.5,1.5,0,0,1-1.363,0c-.376-.218-.379-.572,0-.787a1.5,1.5,0,0,1,1.363,0A.415.415,0,0,1,376.843,277.486Z" transform="translate(-357.202 -266.146)" fill="#2c323d"/>
                  <path id="Trazado_105346" data-name="Trazado 105346" d="M378.1,278.214a1.512,1.512,0,0,1-1.363,0c-.376-.218-.379-.572,0-.787a1.5,1.5,0,0,1,1.363,0A.415.415,0,0,1,378.1,278.214Z" transform="translate(-353.96 -264.274)" fill="#2c323d"/>
                  <path id="Trazado_105347" data-name="Trazado 105347" d="M379.36,278.939a1.512,1.512,0,0,1-1.363,0,.415.415,0,0,1,0-.787,1.512,1.512,0,0,1,1.363,0A.416.416,0,0,1,379.36,278.939Z" transform="translate(-350.719 -262.402)" fill="#2c323d"/>
                  <path id="Trazado_105348" data-name="Trazado 105348" d="M380.618,279.665a1.512,1.512,0,0,1-1.363,0,.415.415,0,0,1,0-.787,1.512,1.512,0,0,1,1.363,0A.416.416,0,0,1,380.618,279.665Z" transform="translate(-347.478 -260.532)" fill="#2c323d"/>
                  <path id="Trazado_105349" data-name="Trazado 105349" d="M381.874,280.391a1.5,1.5,0,0,1-1.363,0,.416.416,0,0,1,0-.787,1.511,1.511,0,0,1,1.363,0A.415.415,0,0,1,381.874,280.391Z" transform="translate(-344.237 -258.661)" fill="#2c323d"/>
                  <path id="Trazado_105350" data-name="Trazado 105350" d="M383.132,281.117a1.5,1.5,0,0,1-1.363,0c-.376-.218-.379-.572,0-.787a1.5,1.5,0,0,1,1.363,0A.415.415,0,0,1,383.132,281.117Z" transform="translate(-340.996 -256.79)" fill="#2c323d"/>
                  <path id="Trazado_105351" data-name="Trazado 105351" d="M384.39,281.842a1.5,1.5,0,0,1-1.363,0c-.376-.218-.379-.572,0-.787a1.512,1.512,0,0,1,1.363,0C384.762,281.273,384.766,281.627,384.39,281.842Z" transform="translate(-337.754 -254.918)" fill="#2c323d"/>
                </g>
                <g id="Grupo_58536" data-name="Grupo 58536" transform="translate(0 0.452)">
                  <path id="Trazado_105352" data-name="Trazado 105352" d="M370.409,274.708a1.511,1.511,0,0,1-1.363,0,.415.415,0,0,1,0-.787,1.511,1.511,0,0,1,1.363,0A.416.416,0,0,1,370.409,274.708Z" transform="translate(-368.761 -273.757)" fill="#2c323d"/>
                  <path id="Trazado_105353" data-name="Trazado 105353" d="M371.659,275.43a1.511,1.511,0,0,1-1.363,0c-.376-.218-.379-.572,0-.787a1.5,1.5,0,0,1,1.363,0A.415.415,0,0,1,371.659,275.43Z" transform="translate(-365.537 -271.896)" fill="#2c323d"/>
                  <path id="Trazado_105354" data-name="Trazado 105354" d="M372.91,276.154a1.512,1.512,0,0,1-1.363,0,.416.416,0,0,1,0-.787,1.5,1.5,0,0,1,1.363,0A.415.415,0,0,1,372.91,276.154Z" transform="translate(-362.313 -270.035)" fill="#2c323d"/>
                  <path id="Trazado_105355" data-name="Trazado 105355" d="M374.163,276.875a1.5,1.5,0,0,1-1.363,0,.416.416,0,0,1-.007-.787,1.512,1.512,0,0,1,1.363,0C374.535,276.306,374.539,276.657,374.163,276.875Z" transform="translate(-359.088 -268.173)" fill="#2c323d"/>
                  <path id="Trazado_105356" data-name="Trazado 105356" d="M375.414,277.6a1.5,1.5,0,0,1-1.363,0,.415.415,0,0,1,0-.787,1.512,1.512,0,0,1,1.363,0C375.786,277.027,375.79,277.381,375.414,277.6Z" transform="translate(-355.864 -266.311)" fill="#2c323d"/>
                  <path id="Trazado_105357" data-name="Trazado 105357" d="M376.664,278.32a1.512,1.512,0,0,1-1.363,0,.416.416,0,0,1,0-.787,1.511,1.511,0,0,1,1.363,0A.416.416,0,0,1,376.664,278.32Z" transform="translate(-352.639 -264.45)" fill="#2c323d"/>
                  <path id="Trazado_105358" data-name="Trazado 105358" d="M377.915,279.042a1.511,1.511,0,0,1-1.363,0c-.376-.218-.379-.572,0-.787a1.5,1.5,0,0,1,1.363,0A.415.415,0,0,1,377.915,279.042Z" transform="translate(-349.416 -262.589)" fill="#2c323d"/>
                  <path id="Trazado_105359" data-name="Trazado 105359" d="M379.168,279.766a1.511,1.511,0,0,1-1.363,0,.416.416,0,0,1-.007-.787,1.5,1.5,0,0,1,1.363,0A.416.416,0,0,1,379.168,279.766Z" transform="translate(-346.191 -260.727)" fill="#2c323d"/>
                  <path id="Trazado_105360" data-name="Trazado 105360" d="M380.419,280.487a1.5,1.5,0,0,1-1.363,0,.415.415,0,0,1,0-.787,1.511,1.511,0,0,1,1.363,0A.416.416,0,0,1,380.419,280.487Z" transform="translate(-342.967 -258.865)" fill="#2c323d"/>
                  <path id="Trazado_105361" data-name="Trazado 105361" d="M381.67,281.209a1.5,1.5,0,0,1-1.363,0,.415.415,0,0,1,0-.787,1.5,1.5,0,0,1,1.363,0C382.042,280.64,382.046,280.994,381.67,281.209Z" transform="translate(-339.743 -257.005)" fill="#2c323d"/>
                  <path id="Trazado_105362" data-name="Trazado 105362" d="M382.92,281.932a1.512,1.512,0,0,1-1.363,0,.416.416,0,0,1,0-.787,1.512,1.512,0,0,1,1.363,0A.415.415,0,0,1,382.92,281.932Z" transform="translate(-336.519 -255.142)" fill="#2c323d"/>
                  <path id="Trazado_105363" data-name="Trazado 105363" d="M384.171,282.654a1.511,1.511,0,0,1-1.363,0c-.376-.218-.379-.572,0-.787a1.5,1.5,0,0,1,1.363,0A.415.415,0,0,1,384.171,282.654Z" transform="translate(-333.295 -253.281)" fill="#2c323d"/>
                </g>
              </g>
              <g id="Grupo_58540" data-name="Grupo 58540" transform="translate(34.089 26.345)">
                <g id="Grupo_58538" data-name="Grupo 58538" transform="translate(5.022)">
                  <path id="Trazado_105364" data-name="Trazado 105364" d="M369.991,275.634a1.512,1.512,0,0,1-1.363,0,.415.415,0,0,1,0-.787,1.512,1.512,0,0,1,1.363,0A.416.416,0,0,1,369.991,275.634Z" transform="translate(-368.343 -274.683)" fill="#2c323d"/>
                  <path id="Trazado_105365" data-name="Trazado 105365" d="M371.249,276.36a1.5,1.5,0,0,1-1.363,0,.416.416,0,0,1-.007-.787,1.512,1.512,0,0,1,1.363,0C371.621,275.791,371.625,276.142,371.249,276.36Z" transform="translate(-365.102 -272.812)" fill="#2c323d"/>
                  <path id="Trazado_105366" data-name="Trazado 105366" d="M372.5,277.086a1.5,1.5,0,0,1-1.363,0,.413.413,0,0,1,0-.783,1.5,1.5,0,0,1,1.363,0A.415.415,0,0,1,372.5,277.086Z" transform="translate(-361.861 -270.941)" fill="#2c323d"/>
                  <path id="Trazado_105367" data-name="Trazado 105367" d="M373.763,277.812a1.5,1.5,0,0,1-1.363,0c-.376-.218-.379-.572,0-.787a1.5,1.5,0,0,1,1.363,0A.415.415,0,0,1,373.763,277.812Z" transform="translate(-358.62 -269.07)" fill="#2c323d"/>
                  <path id="Trazado_105368" data-name="Trazado 105368" d="M375.022,278.54a1.512,1.512,0,0,1-1.363,0,.415.415,0,0,1,0-.787,1.5,1.5,0,0,1,1.363,0A.416.416,0,0,1,375.022,278.54Z" transform="translate(-355.379 -267.198)" fill="#2c323d"/>
                  <path id="Trazado_105369" data-name="Trazado 105369" d="M376.28,279.266a1.511,1.511,0,0,1-1.363,0,.415.415,0,0,1,0-.787,1.5,1.5,0,0,1,1.363,0A.416.416,0,0,1,376.28,279.266Z" transform="translate(-352.138 -265.328)" fill="#2c323d"/>
                  <path id="Trazado_105370" data-name="Trazado 105370" d="M377.539,279.991a1.511,1.511,0,0,1-1.363,0c-.379-.218-.383-.569-.007-.787a1.511,1.511,0,0,1,1.363,0A.416.416,0,0,1,377.539,279.991Z" transform="translate(-348.897 -263.456)" fill="#2c323d"/>
                  <path id="Trazado_105371" data-name="Trazado 105371" d="M378.794,280.717a1.5,1.5,0,0,1-1.363,0,.416.416,0,0,1,0-.787,1.512,1.512,0,0,1,1.363,0A.415.415,0,0,1,378.794,280.717Z" transform="translate(-345.656 -261.585)" fill="#2c323d"/>
                  <path id="Trazado_105372" data-name="Trazado 105372" d="M380.052,281.443a1.512,1.512,0,0,1-1.363,0c-.375-.218-.379-.572,0-.787a1.5,1.5,0,0,1,1.363,0C380.424,280.874,380.428,281.228,380.052,281.443Z" transform="translate(-342.414 -259.714)" fill="#2c323d"/>
                  <path id="Trazado_105373" data-name="Trazado 105373" d="M381.311,282.168a1.5,1.5,0,0,1-1.363,0,.415.415,0,0,1,0-.787,1.511,1.511,0,0,1,1.363,0C381.683,281.6,381.687,281.953,381.311,282.168Z" transform="translate(-339.173 -257.842)" fill="#2c323d"/>
                  <path id="Trazado_105374" data-name="Trazado 105374" d="M382.569,282.9a1.511,1.511,0,0,1-1.363,0,.416.416,0,0,1-.007-.787,1.5,1.5,0,0,1,1.363,0C382.941,282.328,382.945,282.679,382.569,282.9Z" transform="translate(-335.932 -255.971)" fill="#2c323d"/>
                </g>
                <g id="Grupo_58539" data-name="Grupo 58539" transform="translate(0 0.451)">
                  <path id="Trazado_105375" data-name="Trazado 105375" d="M368.587,275.76a1.5,1.5,0,0,1-1.363,0,.416.416,0,0,1-.007-.787,1.512,1.512,0,0,1,1.363,0C368.959,275.191,368.963,275.542,368.587,275.76Z" transform="translate(-366.939 -274.809)" fill="#2c323d"/>
                  <path id="Trazado_105376" data-name="Trazado 105376" d="M369.838,276.482a1.5,1.5,0,0,1-1.363,0,.415.415,0,0,1,0-.787,1.5,1.5,0,0,1,1.363,0C370.21,275.913,370.214,276.267,369.838,276.482Z" transform="translate(-363.715 -272.948)" fill="#2c323d"/>
                  <path id="Trazado_105377" data-name="Trazado 105377" d="M371.088,277.205a1.512,1.512,0,0,1-1.363,0,.416.416,0,0,1,0-.787,1.512,1.512,0,0,1,1.363,0A.416.416,0,0,1,371.088,277.205Z" transform="translate(-360.491 -271.086)" fill="#2c323d"/>
                  <path id="Trazado_105378" data-name="Trazado 105378" d="M372.339,277.927a1.512,1.512,0,0,1-1.363,0c-.376-.218-.379-.572,0-.787a1.5,1.5,0,0,1,1.363,0A.415.415,0,0,1,372.339,277.927Z" transform="translate(-357.267 -269.225)" fill="#2c323d"/>
                  <path id="Trazado_105379" data-name="Trazado 105379" d="M373.593,278.651a1.512,1.512,0,0,1-1.363,0c-.379-.218-.383-.572-.007-.787a1.5,1.5,0,0,1,1.363,0A.416.416,0,0,1,373.593,278.651Z" transform="translate(-354.043 -267.363)" fill="#2c323d"/>
                  <path id="Trazado_105380" data-name="Trazado 105380" d="M374.843,279.372a1.5,1.5,0,0,1-1.363,0,.415.415,0,0,1,0-.787,1.512,1.512,0,0,1,1.363,0A.416.416,0,0,1,374.843,279.372Z" transform="translate(-350.818 -265.501)" fill="#2c323d"/>
                  <path id="Trazado_105381" data-name="Trazado 105381" d="M376.094,280.094a1.5,1.5,0,0,1-1.363,0,.415.415,0,0,1,0-.787,1.5,1.5,0,0,1,1.363,0C376.466,279.525,376.47,279.879,376.094,280.094Z" transform="translate(-347.594 -263.641)" fill="#2c323d"/>
                  <path id="Trazado_105382" data-name="Trazado 105382" d="M377.344,280.817a1.512,1.512,0,0,1-1.363,0,.416.416,0,0,1,0-.787,1.512,1.512,0,0,1,1.363,0A.415.415,0,0,1,377.344,280.817Z" transform="translate(-344.37 -261.778)" fill="#2c323d"/>
                  <path id="Trazado_105383" data-name="Trazado 105383" d="M378.6,281.539a1.5,1.5,0,0,1-1.363,0,.413.413,0,0,1,0-.783,1.5,1.5,0,0,1,1.363,0A.415.415,0,0,1,378.6,281.539Z" transform="translate(-341.146 -259.917)" fill="#2c323d"/>
                  <path id="Trazado_105384" data-name="Trazado 105384" d="M379.848,282.263a1.511,1.511,0,0,1-1.363,0,.416.416,0,0,1-.007-.787,1.5,1.5,0,0,1,1.363,0C380.22,281.694,380.224,282.045,379.848,282.263Z" transform="translate(-337.921 -258.055)" fill="#2c323d"/>
                  <path id="Trazado_105385" data-name="Trazado 105385" d="M381.1,282.984a1.5,1.5,0,0,1-1.363,0,.415.415,0,0,1,0-.787,1.512,1.512,0,0,1,1.363,0A.416.416,0,0,1,381.1,282.984Z" transform="translate(-334.697 -256.194)" fill="#2c323d"/>
                  <path id="Trazado_105386" data-name="Trazado 105386" d="M382.349,283.706a1.5,1.5,0,0,1-1.363,0c-.376-.218-.379-.572,0-.787a1.5,1.5,0,0,1,1.363,0C382.721,283.137,382.725,283.491,382.349,283.706Z" transform="translate(-331.473 -254.333)" fill="#2c323d"/>
                </g>
              </g>
              <g id="Grupo_58543" data-name="Grupo 58543" transform="translate(27.57 30.108)">
                <g id="Grupo_58541" data-name="Grupo 58541" transform="translate(5.022)">
                  <path id="Trazado_105387" data-name="Trazado 105387" d="M368.167,276.686a1.5,1.5,0,0,1-1.363,0,.416.416,0,0,1,0-.787,1.512,1.512,0,0,1,1.363,0A.415.415,0,0,1,368.167,276.686Z" transform="translate(-366.521 -275.735)" fill="#2c323d"/>
                  <path id="Trazado_105388" data-name="Trazado 105388" d="M369.425,277.412a1.5,1.5,0,0,1-1.363,0,.416.416,0,0,1,0-.787,1.512,1.512,0,0,1,1.363,0A.415.415,0,0,1,369.425,277.412Z" transform="translate(-363.279 -273.864)" fill="#2c323d"/>
                  <path id="Trazado_105389" data-name="Trazado 105389" d="M370.684,278.138a1.5,1.5,0,0,1-1.363,0,.415.415,0,0,1,0-.787,1.5,1.5,0,0,1,1.363,0C371.056,277.569,371.06,277.923,370.684,278.138Z" transform="translate(-360.038 -271.993)" fill="#2c323d"/>
                  <path id="Trazado_105390" data-name="Trazado 105390" d="M371.942,278.866a1.512,1.512,0,0,1-1.363,0,.415.415,0,0,1,0-.787,1.5,1.5,0,0,1,1.363,0A.416.416,0,0,1,371.942,278.866Z" transform="translate(-356.797 -270.121)" fill="#2c323d"/>
                  <path id="Trazado_105391" data-name="Trazado 105391" d="M373.2,279.592a1.511,1.511,0,0,1-1.363,0,.416.416,0,0,1-.007-.787,1.5,1.5,0,0,1,1.363,0A.416.416,0,0,1,373.2,279.592Z" transform="translate(-353.555 -268.25)" fill="#2c323d"/>
                  <path id="Trazado_105392" data-name="Trazado 105392" d="M374.456,280.317a1.512,1.512,0,0,1-1.363,0,.416.416,0,0,1,0-.787,1.512,1.512,0,0,1,1.363,0A.415.415,0,0,1,374.456,280.317Z" transform="translate(-350.315 -266.379)" fill="#2c323d"/>
                  <path id="Trazado_105393" data-name="Trazado 105393" d="M375.714,281.043a1.5,1.5,0,0,1-1.363,0,.416.416,0,0,1,0-.787,1.511,1.511,0,0,1,1.363,0A.415.415,0,0,1,375.714,281.043Z" transform="translate(-347.073 -264.508)" fill="#2c323d"/>
                  <path id="Trazado_105394" data-name="Trazado 105394" d="M376.973,281.769a1.512,1.512,0,0,1-1.363,0,.415.415,0,0,1,0-.787,1.5,1.5,0,0,1,1.363,0A.416.416,0,0,1,376.973,281.769Z" transform="translate(-343.832 -262.637)" fill="#2c323d"/>
                  <path id="Trazado_105395" data-name="Trazado 105395" d="M378.231,282.495a1.5,1.5,0,0,1-1.363,0,.415.415,0,0,1,0-.787,1.5,1.5,0,0,1,1.363,0C378.6,281.926,378.606,282.28,378.231,282.495Z" transform="translate(-340.591 -260.766)" fill="#2c323d"/>
                  <path id="Trazado_105396" data-name="Trazado 105396" d="M379.487,283.223a1.512,1.512,0,0,1-1.363,0c-.376-.218-.379-.572,0-.787a1.5,1.5,0,0,1,1.363,0A.415.415,0,0,1,379.487,283.223Z" transform="translate(-337.351 -258.894)" fill="#2c323d"/>
                  <path id="Trazado_105397" data-name="Trazado 105397" d="M380.745,283.948a1.511,1.511,0,0,1-1.363,0,.416.416,0,0,1,0-.787,1.511,1.511,0,0,1,1.363,0A.415.415,0,0,1,380.745,283.948Z" transform="translate(-334.109 -257.022)" fill="#2c323d"/>
                </g>
                <g id="Grupo_58542" data-name="Grupo 58542" transform="translate(0 0.451)">
                  <path id="Trazado_105398" data-name="Trazado 105398" d="M366.763,276.812a1.5,1.5,0,0,1-1.363,0,.416.416,0,0,1,0-.787,1.512,1.512,0,0,1,1.363,0A.415.415,0,0,1,366.763,276.812Z" transform="translate(-365.117 -275.861)" fill="#2c323d"/>
                  <path id="Trazado_105399" data-name="Trazado 105399" d="M368.014,277.536a1.512,1.512,0,0,1-1.363,0c-.376-.218-.379-.572,0-.787a1.5,1.5,0,0,1,1.363,0A.415.415,0,0,1,368.014,277.536Z" transform="translate(-361.893 -273.999)" fill="#2c323d"/>
                  <path id="Trazado_105400" data-name="Trazado 105400" d="M369.267,278.257a1.5,1.5,0,0,1-1.363,0,.416.416,0,0,1-.007-.787,1.511,1.511,0,0,1,1.363,0C369.639,277.688,369.643,278.039,369.267,278.257Z" transform="translate(-358.668 -272.138)" fill="#2c323d"/>
                  <path id="Trazado_105401" data-name="Trazado 105401" d="M370.518,278.979a1.5,1.5,0,0,1-1.363,0,.415.415,0,0,1,0-.787,1.5,1.5,0,0,1,1.363,0C370.89,278.41,370.894,278.764,370.518,278.979Z" transform="translate(-355.444 -270.277)" fill="#2c323d"/>
                  <path id="Trazado_105402" data-name="Trazado 105402" d="M371.768,279.7a1.512,1.512,0,0,1-1.363,0,.416.416,0,0,1,0-.787,1.511,1.511,0,0,1,1.363,0A.416.416,0,0,1,371.768,279.7Z" transform="translate(-352.22 -268.414)" fill="#2c323d"/>
                  <path id="Trazado_105403" data-name="Trazado 105403" d="M373.019,280.424a1.5,1.5,0,0,1-1.363,0,.416.416,0,0,1,0-.787,1.511,1.511,0,0,1,1.363,0A.415.415,0,0,1,373.019,280.424Z" transform="translate(-348.996 -266.553)" fill="#2c323d"/>
                  <path id="Trazado_105404" data-name="Trazado 105404" d="M374.273,281.148a1.512,1.512,0,0,1-1.363,0c-.379-.218-.383-.572-.007-.787a1.5,1.5,0,0,1,1.363,0A.416.416,0,0,1,374.273,281.148Z" transform="translate(-345.772 -264.692)" fill="#2c323d"/>
                  <path id="Trazado_105405" data-name="Trazado 105405" d="M375.523,281.869a1.513,1.513,0,0,1-1.363,0,.415.415,0,0,1,0-.787,1.512,1.512,0,0,1,1.363,0A.416.416,0,0,1,375.523,281.869Z" transform="translate(-342.547 -262.83)" fill="#2c323d"/>
                  <path id="Trazado_105406" data-name="Trazado 105406" d="M376.774,282.591a1.5,1.5,0,0,1-1.363,0,.415.415,0,0,1,0-.787,1.5,1.5,0,0,1,1.363,0C377.146,282.022,377.15,282.376,376.774,282.591Z" transform="translate(-339.324 -260.969)" fill="#2c323d"/>
                  <path id="Trazado_105407" data-name="Trazado 105407" d="M378.024,283.315a1.512,1.512,0,0,1-1.363,0,.416.416,0,0,1,0-.787,1.5,1.5,0,0,1,1.363,0A.415.415,0,0,1,378.024,283.315Z" transform="translate(-336.099 -259.108)" fill="#2c323d"/>
                  <path id="Trazado_105408" data-name="Trazado 105408" d="M379.275,284.036a1.5,1.5,0,0,1-1.363,0,.416.416,0,0,1,0-.787,1.512,1.512,0,0,1,1.363,0A.415.415,0,0,1,379.275,284.036Z" transform="translate(-332.875 -257.246)" fill="#2c323d"/>
                  <path id="Trazado_105409" data-name="Trazado 105409" d="M380.528,284.76a1.511,1.511,0,0,1-1.363,0,.415.415,0,0,1,0-.787,1.5,1.5,0,0,1,1.363,0A.416.416,0,0,1,380.528,284.76Z" transform="translate(-329.65 -255.384)" fill="#2c323d"/>
                </g>
              </g>
              <g id="Grupo_58546" data-name="Grupo 58546" transform="translate(21.052 33.871)">
                <g id="Grupo_58544" data-name="Grupo 58544" transform="translate(5.023)">
                  <path id="Trazado_105410" data-name="Trazado 105410" d="M366.345,277.738a1.5,1.5,0,0,1-1.363,0,.416.416,0,0,1,0-.787,1.511,1.511,0,0,1,1.363,0C366.717,277.169,366.721,277.523,366.345,277.738Z" transform="translate(-364.699 -276.787)" fill="#2c323d"/>
                  <path id="Trazado_105411" data-name="Trazado 105411" d="M367.6,278.464a1.5,1.5,0,0,1-1.363,0,.415.415,0,0,1,0-.787,1.5,1.5,0,0,1,1.363,0C367.976,277.9,367.98,278.249,367.6,278.464Z" transform="translate(-361.458 -274.916)" fill="#2c323d"/>
                  <path id="Trazado_105412" data-name="Trazado 105412" d="M368.862,279.189a1.5,1.5,0,0,1-1.363,0,.416.416,0,0,1-.007-.787,1.5,1.5,0,0,1,1.363,0C369.234,278.62,369.238,278.974,368.862,279.189Z" transform="translate(-358.217 -273.044)" fill="#2c323d"/>
                  <path id="Trazado_105413" data-name="Trazado 105413" d="M370.118,279.918a1.512,1.512,0,0,1-1.363,0,.416.416,0,0,1,0-.787,1.5,1.5,0,0,1,1.363,0A.415.415,0,0,1,370.118,279.918Z" transform="translate(-354.976 -271.173)" fill="#2c323d"/>
                  <path id="Trazado_105414" data-name="Trazado 105414" d="M371.376,280.643a1.512,1.512,0,0,1-1.363,0,.416.416,0,0,1,0-.787,1.511,1.511,0,0,1,1.363,0A.415.415,0,0,1,371.376,280.643Z" transform="translate(-351.735 -269.301)" fill="#2c323d"/>
                  <path id="Trazado_105415" data-name="Trazado 105415" d="M372.635,281.369a1.5,1.5,0,0,1-1.363,0,.415.415,0,0,1,0-.787,1.512,1.512,0,0,1,1.363,0A.416.416,0,0,1,372.635,281.369Z" transform="translate(-348.494 -267.431)" fill="#2c323d"/>
                  <path id="Trazado_105416" data-name="Trazado 105416" d="M373.893,282.095a1.512,1.512,0,0,1-1.363,0,.415.415,0,0,1,0-.787,1.5,1.5,0,0,1,1.363,0C374.265,281.526,374.269,281.88,373.893,282.095Z" transform="translate(-345.252 -265.56)" fill="#2c323d"/>
                  <path id="Trazado_105417" data-name="Trazado 105417" d="M375.152,282.821a1.5,1.5,0,0,1-1.363,0c-.379-.218-.383-.572-.007-.787a1.5,1.5,0,0,1,1.363,0A.416.416,0,0,1,375.152,282.821Z" transform="translate(-342.012 -263.689)" fill="#2c323d"/>
                  <path id="Trazado_105418" data-name="Trazado 105418" d="M376.407,283.549a1.511,1.511,0,0,1-1.363,0c-.376-.218-.379-.572,0-.787a1.5,1.5,0,0,1,1.363,0A.415.415,0,0,1,376.407,283.549Z" transform="translate(-338.77 -261.817)" fill="#2c323d"/>
                  <path id="Trazado_105419" data-name="Trazado 105419" d="M377.665,284.274a1.512,1.512,0,0,1-1.363,0,.416.416,0,0,1,0-.787,1.512,1.512,0,0,1,1.363,0A.416.416,0,0,1,377.665,284.274Z" transform="translate(-335.529 -259.945)" fill="#2c323d"/>
                  <path id="Trazado_105420" data-name="Trazado 105420" d="M378.924,285a1.512,1.512,0,0,1-1.363,0,.415.415,0,0,1,0-.787,1.512,1.512,0,0,1,1.363,0A.416.416,0,0,1,378.924,285Z" transform="translate(-332.288 -258.074)" fill="#2c323d"/>
                </g>
                <g id="Grupo_58545" data-name="Grupo 58545" transform="translate(0 0.451)">
                  <path id="Trazado_105421" data-name="Trazado 105421" d="M364.942,277.864a1.5,1.5,0,0,1-1.363,0,.415.415,0,0,1,0-.787,1.5,1.5,0,0,1,1.363,0C365.314,277.295,365.318,277.649,364.942,277.864Z" transform="translate(-363.294 -276.913)" fill="#2c323d"/>
                  <path id="Trazado_105422" data-name="Trazado 105422" d="M366.192,278.588a1.512,1.512,0,0,1-1.363,0,.416.416,0,0,1,0-.787,1.5,1.5,0,0,1,1.363,0A.416.416,0,0,1,366.192,278.588Z" transform="translate(-360.07 -275.052)" fill="#2c323d"/>
                  <path id="Trazado_105423" data-name="Trazado 105423" d="M367.443,279.309a1.5,1.5,0,0,1-1.363,0,.416.416,0,0,1,0-.787,1.512,1.512,0,0,1,1.363,0A.415.415,0,0,1,367.443,279.309Z" transform="translate(-356.846 -273.19)" fill="#2c323d"/>
                  <path id="Trazado_105424" data-name="Trazado 105424" d="M368.7,280.033a1.511,1.511,0,0,1-1.363,0c-.379-.218-.383-.572-.007-.787a1.5,1.5,0,0,1,1.363,0A.416.416,0,0,1,368.7,280.033Z" transform="translate(-353.622 -271.328)" fill="#2c323d"/>
                  <path id="Trazado_105425" data-name="Trazado 105425" d="M369.947,280.754a1.512,1.512,0,0,1-1.363,0,.415.415,0,0,1,0-.787,1.512,1.512,0,0,1,1.363,0A.416.416,0,0,1,369.947,280.754Z" transform="translate(-350.397 -269.466)" fill="#2c323d"/>
                  <path id="Trazado_105426" data-name="Trazado 105426" d="M371.2,281.476a1.5,1.5,0,0,1-1.363,0,.415.415,0,0,1,0-.787,1.5,1.5,0,0,1,1.363,0C371.57,280.907,371.574,281.261,371.2,281.476Z" transform="translate(-347.174 -267.606)" fill="#2c323d"/>
                  <path id="Trazado_105427" data-name="Trazado 105427" d="M372.448,282.2a1.511,1.511,0,0,1-1.363,0,.416.416,0,0,1,0-.787,1.5,1.5,0,0,1,1.363,0A.415.415,0,0,1,372.448,282.2Z" transform="translate(-343.949 -265.744)" fill="#2c323d"/>
                  <path id="Trazado_105428" data-name="Trazado 105428" d="M373.7,282.921a1.5,1.5,0,0,1-1.363,0,.416.416,0,0,1,0-.787,1.511,1.511,0,0,1,1.363,0A.415.415,0,0,1,373.7,282.921Z" transform="translate(-340.725 -263.882)" fill="#2c323d"/>
                  <path id="Trazado_105429" data-name="Trazado 105429" d="M374.952,283.642a1.5,1.5,0,0,1-1.363,0,.416.416,0,0,1-.007-.787,1.5,1.5,0,0,1,1.363,0C375.324,283.073,375.328,283.427,374.952,283.642Z" transform="translate(-337.5 -262.02)" fill="#2c323d"/>
                  <path id="Trazado_105430" data-name="Trazado 105430" d="M376.2,284.366a1.511,1.511,0,0,1-1.363,0,.415.415,0,0,1,0-.787,1.512,1.512,0,0,1,1.363,0A.416.416,0,0,1,376.2,284.366Z" transform="translate(-334.277 -260.159)" fill="#2c323d"/>
                  <path id="Trazado_105431" data-name="Trazado 105431" d="M377.453,285.088a1.5,1.5,0,0,1-1.363,0c-.376-.218-.379-.572,0-.787a1.5,1.5,0,0,1,1.363,0C377.825,284.519,377.828,284.873,377.453,285.088Z" transform="translate(-331.052 -258.298)" fill="#2c323d"/>
                  <path id="Trazado_105432" data-name="Trazado 105432" d="M378.7,285.812a1.511,1.511,0,0,1-1.363,0,.416.416,0,0,1,0-.787,1.5,1.5,0,0,1,1.363,0A.415.415,0,0,1,378.7,285.812Z" transform="translate(-327.828 -256.436)" fill="#2c323d"/>
                </g>
              </g>
              <g id="Grupo_58549" data-name="Grupo 58549" transform="translate(14.532 37.634)">
                <g id="Grupo_58547" data-name="Grupo 58547" transform="translate(5.024)">
                  <path id="Trazado_105433" data-name="Trazado 105433" d="M364.524,278.79a1.5,1.5,0,0,1-1.363,0,.415.415,0,0,1,0-.787,1.5,1.5,0,0,1,1.363,0C364.9,278.221,364.9,278.575,364.524,278.79Z" transform="translate(-362.876 -277.839)" fill="#2c323d"/>
                  <path id="Trazado_105434" data-name="Trazado 105434" d="M365.78,279.515a1.5,1.5,0,0,1-1.363,0c-.376-.218-.379-.572,0-.787a1.511,1.511,0,0,1,1.363,0A.415.415,0,0,1,365.78,279.515Z" transform="translate(-359.636 -275.968)" fill="#2c323d"/>
                  <path id="Trazado_105435" data-name="Trazado 105435" d="M367.038,280.244a1.511,1.511,0,0,1-1.363,0,.416.416,0,0,1,0-.787,1.5,1.5,0,0,1,1.363,0A.415.415,0,0,1,367.038,280.244Z" transform="translate(-356.395 -274.096)" fill="#2c323d"/>
                  <path id="Trazado_105436" data-name="Trazado 105436" d="M368.3,280.969a1.512,1.512,0,0,1-1.363,0,.415.415,0,0,1,0-.787,1.511,1.511,0,0,1,1.363,0A.416.416,0,0,1,368.3,280.969Z" transform="translate(-353.154 -272.225)" fill="#2c323d"/>
                  <path id="Trazado_105437" data-name="Trazado 105437" d="M369.555,281.7a1.5,1.5,0,0,1-1.363,0,.415.415,0,0,1,0-.787,1.512,1.512,0,0,1,1.363,0A.416.416,0,0,1,369.555,281.7Z" transform="translate(-349.912 -270.354)" fill="#2c323d"/>
                  <path id="Trazado_105438" data-name="Trazado 105438" d="M370.813,282.421a1.5,1.5,0,0,1-1.363,0,.413.413,0,0,1-.007-.783,1.5,1.5,0,0,1,1.363,0C371.185,281.852,371.185,282.206,370.813,282.421Z" transform="translate(-346.671 -268.483)" fill="#2c323d"/>
                  <path id="Trazado_105439" data-name="Trazado 105439" d="M372.069,283.147a1.5,1.5,0,0,1-1.363,0c-.376-.218-.379-.572,0-.787a1.5,1.5,0,0,1,1.363,0A.415.415,0,0,1,372.069,283.147Z" transform="translate(-343.43 -266.612)" fill="#2c323d"/>
                  <path id="Trazado_105440" data-name="Trazado 105440" d="M373.327,283.875a1.512,1.512,0,0,1-1.363,0c-.376-.218-.379-.572,0-.787a1.5,1.5,0,0,1,1.363,0A.415.415,0,0,1,373.327,283.875Z" transform="translate(-340.189 -264.74)" fill="#2c323d"/>
                  <path id="Trazado_105441" data-name="Trazado 105441" d="M374.586,284.6a1.511,1.511,0,0,1-1.363,0,.415.415,0,0,1,0-.787,1.5,1.5,0,0,1,1.363,0A.416.416,0,0,1,374.586,284.6Z" transform="translate(-336.948 -262.869)" fill="#2c323d"/>
                  <path id="Trazado_105442" data-name="Trazado 105442" d="M375.844,285.326a1.512,1.512,0,0,1-1.363,0,.415.415,0,0,1,0-.787,1.511,1.511,0,0,1,1.363,0A.416.416,0,0,1,375.844,285.326Z" transform="translate(-333.706 -260.997)" fill="#2c323d"/>
                  <path id="Trazado_105443" data-name="Trazado 105443" d="M377.1,286.052a1.5,1.5,0,0,1-1.363,0,.416.416,0,0,1,0-.787,1.512,1.512,0,0,1,1.363,0A.415.415,0,0,1,377.1,286.052Z" transform="translate(-330.466 -259.126)" fill="#2c323d"/>
                </g>
                <g id="Grupo_58548" data-name="Grupo 58548" transform="translate(0 0.452)">
                  <path id="Trazado_105444" data-name="Trazado 105444" d="M363.118,278.914a1.5,1.5,0,0,1-1.363,0c-.376-.218-.379-.572,0-.787a1.5,1.5,0,0,1,1.363,0A.413.413,0,0,1,363.118,278.914Z" transform="translate(-361.472 -277.966)" fill="#2c323d"/>
                  <path id="Trazado_105445" data-name="Trazado 105445" d="M364.371,279.639a1.511,1.511,0,0,1-1.363,0,.416.416,0,0,1-.007-.787,1.512,1.512,0,0,1,1.363,0C364.743,279.07,364.747,279.421,364.371,279.639Z" transform="translate(-358.247 -276.104)" fill="#2c323d"/>
                  <path id="Trazado_105446" data-name="Trazado 105446" d="M365.622,280.361a1.5,1.5,0,0,1-1.363,0,.415.415,0,0,1,0-.787,1.5,1.5,0,0,1,1.363,0C365.994,279.792,366,280.146,365.622,280.361Z" transform="translate(-355.023 -274.243)" fill="#2c323d"/>
                  <path id="Trazado_105447" data-name="Trazado 105447" d="M366.872,281.085a1.511,1.511,0,0,1-1.363,0,.416.416,0,0,1,0-.787,1.5,1.5,0,0,1,1.363,0A.416.416,0,0,1,366.872,281.085Z" transform="translate(-351.798 -272.382)" fill="#2c323d"/>
                  <path id="Trazado_105448" data-name="Trazado 105448" d="M368.123,281.806a1.5,1.5,0,0,1-1.363,0,.416.416,0,0,1,0-.787,1.512,1.512,0,0,1,1.363,0A.415.415,0,0,1,368.123,281.806Z" transform="translate(-348.575 -270.52)" fill="#2c323d"/>
                  <path id="Trazado_105449" data-name="Trazado 105449" d="M369.377,282.527a1.5,1.5,0,0,1-1.363,0c-.379-.218-.383-.572-.007-.787a1.512,1.512,0,0,1,1.363,0A.416.416,0,0,1,369.377,282.527Z" transform="translate(-345.351 -268.659)" fill="#2c323d"/>
                  <path id="Trazado_105450" data-name="Trazado 105450" d="M370.627,283.251a1.512,1.512,0,0,1-1.363,0,.415.415,0,0,1,0-.787,1.511,1.511,0,0,1,1.363,0A.416.416,0,0,1,370.627,283.251Z" transform="translate(-342.126 -266.797)" fill="#2c323d"/>
                  <path id="Trazado_105451" data-name="Trazado 105451" d="M371.878,283.973a1.512,1.512,0,0,1-1.363,0,.415.415,0,0,1,0-.787,1.5,1.5,0,0,1,1.363,0C372.25,283.4,372.253,283.758,371.878,283.973Z" transform="translate(-338.902 -264.936)" fill="#2c323d"/>
                  <path id="Trazado_105452" data-name="Trazado 105452" d="M373.128,284.7a1.511,1.511,0,0,1-1.363,0,.416.416,0,0,1,0-.787,1.5,1.5,0,0,1,1.363,0A.415.415,0,0,1,373.128,284.7Z" transform="translate(-335.677 -263.074)" fill="#2c323d"/>
                  <path id="Trazado_105453" data-name="Trazado 105453" d="M374.379,285.418a1.5,1.5,0,0,1-1.363,0,.416.416,0,0,1,0-.787,1.511,1.511,0,0,1,1.363,0A.415.415,0,0,1,374.379,285.418Z" transform="translate(-332.454 -261.213)" fill="#2c323d"/>
                  <path id="Trazado_105454" data-name="Trazado 105454" d="M375.632,286.139a1.5,1.5,0,0,1-1.363,0,.416.416,0,0,1-.007-.787,1.519,1.519,0,0,1,1.366,0C376,285.57,376.008,285.924,375.632,286.139Z" transform="translate(-329.229 -259.351)" fill="#2c323d"/>
                  <path id="Trazado_105455" data-name="Trazado 105455" d="M376.883,286.863a1.512,1.512,0,0,1-1.363,0,.415.415,0,0,1,0-.787,1.511,1.511,0,0,1,1.363,0A.416.416,0,0,1,376.883,286.863Z" transform="translate(-326.005 -257.489)" fill="#2c323d"/>
                </g>
              </g>
              <g id="Grupo_58552" data-name="Grupo 58552" transform="translate(8.015 41.398)">
                <g id="Grupo_58550" data-name="Grupo 58550" transform="translate(5.022)">
                  <path id="Trazado_105456" data-name="Trazado 105456" d="M362.7,279.841a1.5,1.5,0,0,1-1.363,0c-.375-.218-.379-.572,0-.787a1.512,1.512,0,0,1,1.363,0A.415.415,0,0,1,362.7,279.841Z" transform="translate(-361.054 -278.892)" fill="#2c323d"/>
                  <path id="Trazado_105457" data-name="Trazado 105457" d="M363.958,280.57a1.512,1.512,0,0,1-1.363,0,.416.416,0,0,1,0-.787,1.5,1.5,0,0,1,1.363,0A.416.416,0,0,1,363.958,280.57Z" transform="translate(-357.812 -277.021)" fill="#2c323d"/>
                  <path id="Trazado_105458" data-name="Trazado 105458" d="M365.217,281.3a1.511,1.511,0,0,1-1.363,0,.415.415,0,0,1,0-.787,1.511,1.511,0,0,1,1.363,0A.416.416,0,0,1,365.217,281.3Z" transform="translate(-354.571 -275.149)" fill="#2c323d"/>
                  <path id="Trazado_105459" data-name="Trazado 105459" d="M366.475,282.021a1.5,1.5,0,0,1-1.363,0,.416.416,0,0,1-.007-.787,1.512,1.512,0,0,1,1.363,0C366.847,281.452,366.851,281.8,366.475,282.021Z" transform="translate(-351.33 -273.278)" fill="#2c323d"/>
                  <path id="Trazado_105460" data-name="Trazado 105460" d="M367.731,282.747a1.5,1.5,0,0,1-1.363,0,.416.416,0,0,1,0-.787,1.512,1.512,0,0,1,1.363,0A.415.415,0,0,1,367.731,282.747Z" transform="translate(-348.09 -271.407)" fill="#2c323d"/>
                  <path id="Trazado_105461" data-name="Trazado 105461" d="M368.989,283.473a1.5,1.5,0,0,1-1.363,0c-.376-.218-.379-.572,0-.787a1.5,1.5,0,0,1,1.363,0A.415.415,0,0,1,368.989,283.473Z" transform="translate(-344.848 -269.536)" fill="#2c323d"/>
                  <path id="Trazado_105462" data-name="Trazado 105462" d="M370.248,284.2a1.512,1.512,0,0,1-1.363,0,.415.415,0,0,1,0-.787,1.5,1.5,0,0,1,1.363,0A.416.416,0,0,1,370.248,284.2Z" transform="translate(-341.607 -267.664)" fill="#2c323d"/>
                  <path id="Trazado_105463" data-name="Trazado 105463" d="M371.506,284.927a1.512,1.512,0,0,1-1.363,0,.415.415,0,0,1,0-.787,1.5,1.5,0,0,1,1.363,0A.416.416,0,0,1,371.506,284.927Z" transform="translate(-338.366 -265.793)" fill="#2c323d"/>
                  <path id="Trazado_105464" data-name="Trazado 105464" d="M372.765,285.652a1.511,1.511,0,0,1-1.363,0c-.379-.218-.383-.569-.007-.787a1.512,1.512,0,0,1,1.363,0A.416.416,0,0,1,372.765,285.652Z" transform="translate(-335.125 -263.921)" fill="#2c323d"/>
                  <path id="Trazado_105465" data-name="Trazado 105465" d="M374.02,286.378a1.5,1.5,0,0,1-1.363,0,.416.416,0,0,1,0-.787,1.512,1.512,0,0,1,1.363,0A.415.415,0,0,1,374.02,286.378Z" transform="translate(-331.884 -262.051)" fill="#2c323d"/>
                  <path id="Trazado_105466" data-name="Trazado 105466" d="M375.278,287.1a1.511,1.511,0,0,1-1.363,0c-.376-.218-.379-.572,0-.787a1.5,1.5,0,0,1,1.363,0C375.65,286.535,375.654,286.889,375.278,287.1Z" transform="translate(-328.642 -260.18)" fill="#2c323d"/>
                </g>
                <g id="Grupo_58551" data-name="Grupo 58551" transform="translate(0 0.451)">
                  <path id="Trazado_105467" data-name="Trazado 105467" d="M361.3,279.97a1.511,1.511,0,0,1-1.363,0,.416.416,0,0,1,0-.787,1.5,1.5,0,0,1,1.363,0A.416.416,0,0,1,361.3,279.97Z" transform="translate(-359.65 -279.018)" fill="#2c323d"/>
                  <path id="Trazado_105468" data-name="Trazado 105468" d="M362.547,280.691a1.5,1.5,0,0,1-1.363,0,.416.416,0,0,1,0-.787,1.511,1.511,0,0,1,1.363,0A.415.415,0,0,1,362.547,280.691Z" transform="translate(-356.426 -277.156)" fill="#2c323d"/>
                  <path id="Trazado_105469" data-name="Trazado 105469" d="M363.8,281.412a1.5,1.5,0,0,1-1.363,0c-.379-.218-.383-.572-.007-.787a1.511,1.511,0,0,1,1.363,0A.416.416,0,0,1,363.8,281.412Z" transform="translate(-353.202 -275.295)" fill="#2c323d"/>
                  <path id="Trazado_105470" data-name="Trazado 105470" d="M365.051,282.136a1.513,1.513,0,0,1-1.363,0,.415.415,0,0,1,0-.787,1.512,1.512,0,0,1,1.363,0A.416.416,0,0,1,365.051,282.136Z" transform="translate(-349.977 -273.433)" fill="#2c323d"/>
                  <path id="Trazado_105471" data-name="Trazado 105471" d="M366.3,282.858a1.512,1.512,0,0,1-1.363,0,.415.415,0,0,1,0-.787,1.5,1.5,0,0,1,1.363,0C366.674,282.289,366.678,282.643,366.3,282.858Z" transform="translate(-346.754 -271.572)" fill="#2c323d"/>
                  <path id="Trazado_105472" data-name="Trazado 105472" d="M367.552,283.582a1.512,1.512,0,0,1-1.363,0,.416.416,0,0,1,0-.787,1.5,1.5,0,0,1,1.363,0A.415.415,0,0,1,367.552,283.582Z" transform="translate(-343.529 -269.71)" fill="#2c323d"/>
                  <path id="Trazado_105473" data-name="Trazado 105473" d="M368.8,284.3a1.5,1.5,0,0,1-1.363,0,.416.416,0,0,1,0-.787,1.512,1.512,0,0,1,1.363,0A.415.415,0,0,1,368.8,284.3Z" transform="translate(-340.305 -267.849)" fill="#2c323d"/>
                  <path id="Trazado_105474" data-name="Trazado 105474" d="M370.056,285.025a1.5,1.5,0,0,1-1.363,0,.416.416,0,0,1-.007-.787,1.5,1.5,0,0,1,1.363,0C370.428,284.456,370.432,284.81,370.056,285.025Z" transform="translate(-337.081 -265.988)" fill="#2c323d"/>
                  <path id="Trazado_105475" data-name="Trazado 105475" d="M371.307,285.748a1.512,1.512,0,0,1-1.363,0,.415.415,0,0,1,0-.787,1.512,1.512,0,0,1,1.363,0A.416.416,0,0,1,371.307,285.748Z" transform="translate(-333.856 -264.125)" fill="#2c323d"/>
                  <path id="Trazado_105476" data-name="Trazado 105476" d="M372.557,286.47a1.5,1.5,0,0,1-1.363,0,.413.413,0,0,1,0-.783,1.5,1.5,0,0,1,1.363,0C372.929,285.9,372.933,286.255,372.557,286.47Z" transform="translate(-330.632 -262.264)" fill="#2c323d"/>
                  <path id="Trazado_105477" data-name="Trazado 105477" d="M373.808,287.194a1.511,1.511,0,0,1-1.363,0c-.376-.218-.379-.572,0-.787a1.5,1.5,0,0,1,1.363,0A.415.415,0,0,1,373.808,287.194Z" transform="translate(-327.408 -260.403)" fill="#2c323d"/>
                  <path id="Trazado_105478" data-name="Trazado 105478" d="M375.062,287.915a1.5,1.5,0,0,1-1.363,0c-.379-.218-.383-.569-.007-.787a1.512,1.512,0,0,1,1.363,0A.416.416,0,0,1,375.062,287.915Z" transform="translate(-324.184 -258.541)" fill="#2c323d"/>
                </g>
              </g>
              <g id="Grupo_58555" data-name="Grupo 58555" transform="translate(1.496 45.161)">
                <g id="Grupo_58553" data-name="Grupo 58553" transform="translate(5.022)">
                  <path id="Trazado_105479" data-name="Trazado 105479" d="M360.879,280.9a1.511,1.511,0,0,1-1.363,0,.415.415,0,0,1,0-.787,1.5,1.5,0,0,1,1.363,0A.416.416,0,0,1,360.879,280.9Z" transform="translate(-359.231 -279.944)" fill="#2c323d"/>
                  <path id="Trazado_105480" data-name="Trazado 105480" d="M362.137,281.621a1.512,1.512,0,0,1-1.363,0,.415.415,0,0,1,0-.787,1.512,1.512,0,0,1,1.363,0A.416.416,0,0,1,362.137,281.621Z" transform="translate(-355.99 -278.072)" fill="#2c323d"/>
                  <path id="Trazado_105481" data-name="Trazado 105481" d="M363.393,282.347a1.5,1.5,0,0,1-1.363,0,.416.416,0,0,1,0-.787,1.512,1.512,0,0,1,1.363,0A.415.415,0,0,1,363.393,282.347Z" transform="translate(-352.749 -276.201)" fill="#2c323d"/>
                  <path id="Trazado_105482" data-name="Trazado 105482" d="M364.651,283.073a1.5,1.5,0,0,1-1.363,0,.416.416,0,0,1,0-.787,1.512,1.512,0,0,1,1.363,0A.415.415,0,0,1,364.651,283.073Z" transform="translate(-349.508 -274.33)" fill="#2c323d"/>
                  <path id="Trazado_105483" data-name="Trazado 105483" d="M365.91,283.8a1.5,1.5,0,0,1-1.363,0,.415.415,0,0,1,0-.787,1.5,1.5,0,0,1,1.363,0C366.282,283.23,366.286,283.584,365.91,283.8Z" transform="translate(-346.267 -272.459)" fill="#2c323d"/>
                  <path id="Trazado_105484" data-name="Trazado 105484" d="M367.168,284.524a1.5,1.5,0,0,1-1.363,0,.415.415,0,0,1,0-.787,1.5,1.5,0,0,1,1.363,0A.413.413,0,0,1,367.168,284.524Z" transform="translate(-343.026 -270.587)" fill="#2c323d"/>
                  <path id="Trazado_105485" data-name="Trazado 105485" d="M368.426,285.253a1.511,1.511,0,0,1-1.363,0,.416.416,0,0,1-.007-.787,1.5,1.5,0,0,1,1.363,0A.416.416,0,0,1,368.426,285.253Z" transform="translate(-339.784 -268.716)" fill="#2c323d"/>
                  <path id="Trazado_105486" data-name="Trazado 105486" d="M369.682,285.978a1.511,1.511,0,0,1-1.363,0,.416.416,0,0,1,0-.787,1.511,1.511,0,0,1,1.363,0A.415.415,0,0,1,369.682,285.978Z" transform="translate(-336.544 -266.845)" fill="#2c323d"/>
                  <path id="Trazado_105487" data-name="Trazado 105487" d="M370.94,286.7a1.5,1.5,0,0,1-1.363,0,.416.416,0,0,1,0-.787,1.512,1.512,0,0,1,1.363,0A.415.415,0,0,1,370.94,286.7Z" transform="translate(-333.302 -264.974)" fill="#2c323d"/>
                  <path id="Trazado_105488" data-name="Trazado 105488" d="M372.2,287.43a1.512,1.512,0,0,1-1.363,0,.415.415,0,0,1,0-.787,1.5,1.5,0,0,1,1.363,0C372.571,286.861,372.575,287.215,372.2,287.43Z" transform="translate(-330.061 -263.103)" fill="#2c323d"/>
                  <path id="Trazado_105489" data-name="Trazado 105489" d="M373.457,288.156a1.5,1.5,0,0,1-1.363,0,.415.415,0,0,1,0-.787,1.5,1.5,0,0,1,1.363,0C373.829,287.587,373.833,287.941,373.457,288.156Z" transform="translate(-326.82 -261.232)" fill="#2c323d"/>
                </g>
                <g id="Grupo_58554" data-name="Grupo 58554" transform="translate(0 0.452)">
                  <path id="Trazado_105490" data-name="Trazado 105490" d="M359.475,281.021a1.512,1.512,0,0,1-1.363,0,.416.416,0,0,1-.007-.787,1.512,1.512,0,0,1,1.363,0C359.847,280.452,359.851,280.8,359.475,281.021Z" transform="translate(-357.827 -280.07)" fill="#2c323d"/>
                  <path id="Trazado_105491" data-name="Trazado 105491" d="M360.726,281.743a1.5,1.5,0,0,1-1.363,0,.413.413,0,0,1,0-.783,1.5,1.5,0,0,1,1.363,0C361.1,281.174,361.1,281.528,360.726,281.743Z" transform="translate(-354.603 -278.209)" fill="#2c323d"/>
                  <path id="Trazado_105492" data-name="Trazado 105492" d="M361.976,282.467a1.512,1.512,0,0,1-1.363,0c-.376-.218-.379-.572,0-.787a1.5,1.5,0,0,1,1.363,0A.416.416,0,0,1,361.976,282.467Z" transform="translate(-351.379 -276.348)" fill="#2c323d"/>
                  <path id="Trazado_105493" data-name="Trazado 105493" d="M363.227,283.188a1.5,1.5,0,0,1-1.363,0,.416.416,0,0,1,0-.787,1.511,1.511,0,0,1,1.363,0A.415.415,0,0,1,363.227,283.188Z" transform="translate(-348.155 -274.486)" fill="#2c323d"/>
                  <path id="Trazado_105494" data-name="Trazado 105494" d="M364.481,283.91a1.5,1.5,0,0,1-1.363,0c-.379-.218-.383-.572-.007-.787a1.5,1.5,0,0,1,1.363,0A.416.416,0,0,1,364.481,283.91Z" transform="translate(-344.931 -272.625)" fill="#2c323d"/>
                  <path id="Trazado_105495" data-name="Trazado 105495" d="M365.731,284.633a1.512,1.512,0,0,1-1.363,0,.415.415,0,0,1,0-.787,1.512,1.512,0,0,1,1.363,0A.416.416,0,0,1,365.731,284.633Z" transform="translate(-341.706 -270.763)" fill="#2c323d"/>
                  <path id="Trazado_105496" data-name="Trazado 105496" d="M366.982,285.355a1.5,1.5,0,0,1-1.363,0,.415.415,0,0,1,0-.787,1.511,1.511,0,0,1,1.363,0C367.354,284.786,367.358,285.14,366.982,285.355Z" transform="translate(-338.483 -268.902)" fill="#2c323d"/>
                  <path id="Trazado_105497" data-name="Trazado 105497" d="M368.232,286.079a1.511,1.511,0,0,1-1.363,0c-.376-.218-.379-.572,0-.787a1.5,1.5,0,0,1,1.363,0A.415.415,0,0,1,368.232,286.079Z" transform="translate(-335.258 -267.04)" fill="#2c323d"/>
                  <path id="Trazado_105498" data-name="Trazado 105498" d="M369.483,286.8a1.5,1.5,0,0,1-1.363,0,.416.416,0,0,1,0-.787,1.512,1.512,0,0,1,1.363,0A.415.415,0,0,1,369.483,286.8Z" transform="translate(-332.034 -265.179)" fill="#2c323d"/>
                  <path id="Trazado_105499" data-name="Trazado 105499" d="M370.736,287.522a1.5,1.5,0,0,1-1.363,0,.416.416,0,0,1-.007-.787,1.5,1.5,0,0,1,1.363,0C371.108,286.953,371.112,287.307,370.736,287.522Z" transform="translate(-328.809 -263.318)" fill="#2c323d"/>
                  <path id="Trazado_105500" data-name="Trazado 105500" d="M371.987,288.245a1.511,1.511,0,0,1-1.363,0,.415.415,0,0,1,0-.787,1.511,1.511,0,0,1,1.363,0A.416.416,0,0,1,371.987,288.245Z" transform="translate(-325.585 -261.455)" fill="#2c323d"/>
                  <path id="Trazado_105501" data-name="Trazado 105501" d="M373.237,288.967a1.5,1.5,0,0,1-1.363,0,.416.416,0,0,1,0-.787,1.511,1.511,0,0,1,1.363,0C373.609,288.4,373.613,288.752,373.237,288.967Z" transform="translate(-322.361 -259.594)" fill="#2c323d"/>
                </g>
              </g>
              <g id="Grupo_58557" data-name="Grupo 58557" transform="translate(0 48.926)">
                <g id="Grupo_58556" data-name="Grupo 58556">
                  <path id="Trazado_105502" data-name="Trazado 105502" d="M359.058,281.947a1.511,1.511,0,0,1-1.363,0c-.379-.218-.383-.569-.007-.787a1.512,1.512,0,0,1,1.363,0A.416.416,0,0,1,359.058,281.947Z" transform="translate(-357.409 -280.996)" fill="#2c323d"/>
                  <path id="Trazado_105503" data-name="Trazado 105503" d="M360.313,282.673a1.511,1.511,0,0,1-1.363,0,.416.416,0,0,1,0-.787,1.511,1.511,0,0,1,1.363,0A.415.415,0,0,1,360.313,282.673Z" transform="translate(-354.168 -279.125)" fill="#2c323d"/>
                  <path id="Trazado_105504" data-name="Trazado 105504" d="M361.571,283.4a1.5,1.5,0,0,1-1.363,0,.416.416,0,0,1,0-.787,1.512,1.512,0,0,1,1.363,0C361.943,282.83,361.947,283.185,361.571,283.4Z" transform="translate(-350.926 -277.255)" fill="#2c323d"/>
                  <path id="Trazado_105505" data-name="Trazado 105505" d="M362.83,284.125a1.5,1.5,0,0,1-1.363,0,.415.415,0,0,1,0-.787,1.5,1.5,0,0,1,1.363,0C363.2,283.556,363.206,283.91,362.83,284.125Z" transform="translate(-347.685 -275.383)" fill="#2c323d"/>
                  <path id="Trazado_105506" data-name="Trazado 105506" d="M364.088,284.85a1.5,1.5,0,0,1-1.363,0,.416.416,0,0,1-.007-.787,1.511,1.511,0,0,1,1.363,0C364.46,284.281,364.464,284.635,364.088,284.85Z" transform="translate(-344.444 -273.512)" fill="#2c323d"/>
                  <path id="Trazado_105507" data-name="Trazado 105507" d="M365.344,285.579a1.511,1.511,0,0,1-1.363,0,.416.416,0,0,1,0-.787,1.5,1.5,0,0,1,1.363,0A.415.415,0,0,1,365.344,285.579Z" transform="translate(-341.203 -271.641)" fill="#2c323d"/>
                  <path id="Trazado_105508" data-name="Trazado 105508" d="M366.6,286.3a1.512,1.512,0,0,1-1.363,0,.416.416,0,0,1,0-.787,1.512,1.512,0,0,1,1.363,0A.415.415,0,0,1,366.6,286.3Z" transform="translate(-337.962 -269.769)" fill="#2c323d"/>
                  <path id="Trazado_105509" data-name="Trazado 105509" d="M367.861,287.03a1.5,1.5,0,0,1-1.363,0,.415.415,0,0,1,0-.787,1.511,1.511,0,0,1,1.363,0A.416.416,0,0,1,367.861,287.03Z" transform="translate(-334.721 -267.898)" fill="#2c323d"/>
                  <path id="Trazado_105510" data-name="Trazado 105510" d="M369.119,287.756a1.5,1.5,0,0,1-1.363,0,.413.413,0,0,1,0-.783,1.5,1.5,0,0,1,1.363,0A.416.416,0,0,1,369.119,287.756Z" transform="translate(-331.479 -266.027)" fill="#2c323d"/>
                  <path id="Trazado_105511" data-name="Trazado 105511" d="M370.378,288.482a1.5,1.5,0,0,1-1.363,0c-.379-.218-.383-.572-.007-.787a1.5,1.5,0,0,1,1.363,0A.416.416,0,0,1,370.378,288.482Z" transform="translate(-328.239 -264.156)" fill="#2c323d"/>
                  <path id="Trazado_105512" data-name="Trazado 105512" d="M371.633,289.21a1.511,1.511,0,0,1-1.363,0c-.376-.218-.379-.572,0-.787a1.5,1.5,0,0,1,1.363,0A.415.415,0,0,1,371.633,289.21Z" transform="translate(-324.998 -262.284)" fill="#2c323d"/>
                </g>
              </g>
            </g>
          </g>
        </g>
      </g>
    </g>
  </g>
</svg>
