<svg xmlns="http://www.w3.org/2000/svg" width="113" height="114" viewBox="0 0 113 114">
  <g id="Grupo_58644" data-name="Grupo 58644" transform="translate(-1025 -1840)">
    <ellipse id="Elipse_4070" data-name="Elipse 4070" cx="56.5" cy="57" rx="56.5" ry="57" transform="translate(1025 1840)" fill="#4dd0e1"/>
    <g id="satelite" transform="translate(1031.092 1846.35)">
      <g id="Grupo_54518" data-name="Grupo 54518" transform="translate(1.46 1.46)">
        <g id="Grupo_54517" data-name="Grupo 54517">
          <g id="Grupo_54511" data-name="Grupo 54511" transform="translate(20.68 20.651)">
            <g id="Grupo_54510" data-name="Grupo 54510">
              <path id="Trazado_100689" data-name="Trazado 100689" d="M0,0H47.861V6.928H0Z" transform="translate(8.389 42.266) rotate(-45)" fill="#c9e0fd"/>
              <g id="Grupo_54509" data-name="Grupo 54509">
                <g id="Grupo_54508" data-name="Grupo 54508">
                  <g id="Grupo_54507" data-name="Grupo 54507">
                    <path id="Trazado_100690" data-name="Trazado 100690" d="M132,123.876l-7.808,7.808-9.855-3.761a1.2,1.2,0,0,1-.421-1.972L126.1,113.773a1.2,1.2,0,0,1,1.962.4Z" transform="translate(-113.565 -113.421)" fill="#c9e0fd"/>
                    <path id="Trazado_100691" data-name="Trazado 100691" d="M190.522,177.448l-13.073,13.073a2.392,2.392,0,0,1-3.383,0l-27.658-27.658a3.99,3.99,0,0,1,0-5.643l10.813-10.813a3.99,3.99,0,0,1,5.643,0l27.658,27.658A2.392,2.392,0,0,1,190.522,177.448Z" transform="translate(-139.064 -139.035)" fill="#eaf2ff"/>
                    <path id="Trazado_100692" data-name="Trazado 100692" d="M255.632,268.7,268.7,255.632a2.392,2.392,0,0,0,0-3.383l-9.893-9.893a21.216,21.216,0,0,0-16.457,16.457l9.893,9.893A2.392,2.392,0,0,0,255.632,268.7Z" transform="translate(-217.247 -217.219)" fill="#c9e0fd"/>
                  </g>
                  <ellipse id="Elipse_4077" data-name="Elipse 4077" cx="4.353" cy="4.353" rx="4.353" ry="4.353" transform="translate(52.597 52.625)" fill="#bcd6f9"/>
                </g>
              </g>
            </g>
          </g>
          <g id="Grupo_54516" data-name="Grupo 54516">
            <g id="Grupo_54513" data-name="Grupo 54513" transform="translate(0 53.491)">
              <g id="Grupo_54512" data-name="Grupo 54512">
                <path id="Trazado_100693" data-name="Trazado 100693" d="M50.076,301.687,27.307,324.456a2.8,2.8,0,0,1-3.952,0L8.309,309.411a2.8,2.8,0,0,1,0-3.952l22.769-22.769a2.8,2.8,0,0,1,3.952,0l15.046,15.046A2.8,2.8,0,0,1,50.076,301.687Z" transform="translate(-7.491 -281.87)" fill="#9bc4f9"/>
                <path id="Trazado_100694" data-name="Trazado 100694" d="M78.4,326.055l-9.006-9.006a2.8,2.8,0,0,1,0,3.952l-22.769,22.77a2.8,2.8,0,0,1-3.952,0l9.006,9.006a2.8,2.8,0,0,0,3.952,0L78.4,330.007A2.8,2.8,0,0,0,78.4,326.055Z" transform="translate(-35.811 -310.191)" fill="#7fb2f9"/>
              </g>
            </g>
            <g id="Grupo_54515" data-name="Grupo 54515" transform="translate(53.491)">
              <g id="Grupo_54514" data-name="Grupo 54514" transform="translate(0)">
                <path id="Trazado_100695" data-name="Trazado 100695" d="M324.456,27.307,301.687,50.076a2.8,2.8,0,0,1-3.952,0L282.689,35.03a2.8,2.8,0,0,1,0-3.952L305.458,8.309a2.8,2.8,0,0,1,3.952,0l15.046,15.046a2.8,2.8,0,0,1,0,3.952Z" transform="translate(-281.87 -7.491)" fill="#9bc4f9"/>
                <path id="Trazado_100696" data-name="Trazado 100696" d="M352.765,51.664l-9.009-9.009a2.794,2.794,0,0,1,0,3.952L320.987,69.376a2.8,2.8,0,0,1-3.952,0l9.009,9.009a2.8,2.8,0,0,0,3.952,0l22.769-22.769A2.8,2.8,0,0,0,352.765,51.664Z" transform="translate(-310.18 -35.8)" fill="#7fb2f9"/>
              </g>
            </g>
          </g>
        </g>
        <path id="Trazado_100697" data-name="Trazado 100697" d="M217.025,216.837a4.19,4.19,0,0,1-5.925,0l-6.284-6.284a4.19,4.19,0,0,1,5.925-5.925l6.284,6.284A4.19,4.19,0,0,1,217.025,216.837Z" transform="translate(-165.359 -165.208)" fill="#e2916b"/>
        <path id="Trazado_100698" data-name="Trazado 100698" d="M314.012,288.411a1.114,1.114,0,0,0-.427-1.839,21.229,21.229,0,0,0-27.013,27.013,1.114,1.114,0,0,0,1.839.427Z" transform="translate(-231.222 -231.223)" fill="#9bc4f9"/>
      </g>
      <g id="Grupo_54519" data-name="Grupo 54519" transform="translate(0 0)">
        <path id="Trazado_100699" data-name="Trazado 100699" d="M69.782,45.081a4.262,4.262,0,0,0,6.02,0L98.571,22.311a4.262,4.262,0,0,0,0-6.02L83.525,1.246a4.262,4.262,0,0,0-6.02,0L54.736,24.015a4.262,4.262,0,0,0,0,6.02l4.039,4.039-3.089,3.089L46.974,28.45a5.45,5.45,0,0,0-6.793-.739l-2.193-5.4a2.664,2.664,0,0,0-4.351-.881L21.458,33.61a2.664,2.664,0,0,0,.934,4.372l5.41,2.065a5.461,5.461,0,0,0,.648,6.928l1.036,1.036a1.462,1.462,0,1,0,2.068-2.068l-1.036-1.036a2.531,2.531,0,0,1,0-3.575L41.33,30.518a2.527,2.527,0,0,1,3.575,0L69.717,55.329A22.7,22.7,0,0,0,55.328,69.718L36.4,50.792a1.462,1.462,0,0,0-2.068,2.068l2.828,2.828-3.089,3.089-4.039-4.039a4.262,4.262,0,0,0-6.02,0L1.244,77.506a4.262,4.262,0,0,0,0,6.02L16.29,98.572a4.262,4.262,0,0,0,6.02,0L45.08,75.8a4.255,4.255,0,0,0,0-6.02L41.04,65.743l3.089-3.089L54.5,73.031A22.737,22.737,0,0,0,55.427,84.3a2.576,2.576,0,0,0,4.255.983L66.3,78.669l7.013,1.042a5.815,5.815,0,1,0,6.4-6.4L78.668,66.3l6.616-6.616h0a2.576,2.576,0,0,0-.983-4.255,22.736,22.736,0,0,0-11.271-.923L62.654,44.13l3.089-3.089ZM29.969,37.744l-6.159-2.35L35.427,23.777l2.458,6.051ZM26.082,56.8a1.331,1.331,0,0,1,1.884,0l6.489,6.489-6.914,6.914L20.11,62.777Zm-8.04,8.04,7.431,7.431-6.689,6.689-7.431-7.431ZM3.312,81.459a1.333,1.333,0,0,1,0-1.884L9.284,73.6l7.431,7.431L9.8,87.947ZM20.242,96.5a1.333,1.333,0,0,1-1.884,0l-6.489-6.489L18.783,83.1l7.431,7.431Zm8.04-8.04-7.431-7.431,6.689-6.689,7.431,7.431ZM43.012,71.851a1.331,1.331,0,0,1,0,1.884l-5.972,5.972-7.431-7.431,6.914-6.914Zm-4.039-8.175-2.831-2.831,3.089-3.089,2.831,2.831ZM73.739,76.817l-4.866-.723,7.221-7.221.723,4.866a5.8,5.8,0,0,0-3.078,3.078Zm5.351-.616a2.889,2.889,0,1,1-2.044.845A2.881,2.881,0,0,1,79.089,76.2Zm3.725-18.184-24.8,24.8a19.765,19.765,0,0,1,24.8-24.8ZM96.5,18.359a1.331,1.331,0,0,1,0,1.884l-5.972,5.972-1.444-1.444a1.462,1.462,0,0,0-2.068,2.068l1.444,1.444-6.689,6.689-7.431-7.431,6.689-6.689,1.154,1.154a1.462,1.462,0,0,0,2.068-2.068L83.1,18.785l6.914-6.914ZM79.573,3.314a1.331,1.331,0,0,1,1.884,0L87.946,9.8l-6.914,6.914L73.6,9.286Zm-8.04,8.04,7.431,7.431-6.689,6.689-7.431-7.431ZM56.8,27.967a1.333,1.333,0,0,1,0-1.884l5.972-5.972,7.431,7.431-6.914,6.914Zm3.782,14.1-2.831-2.831,3.089-3.089,1.414,1.414,0,0,0,0,1.414,1.414ZM72.275,29.61l7.431,7.431-5.972,5.972a1.333,1.333,0,0,1-1.884,0l-6.489-6.489Z" transform="translate(0 -0.001)"/>
        <path id="Trazado_100700" data-name="Trazado 100700" d="M212.016,211.828a5.659,5.659,0,0,0,0-7.993l-6.284-6.284a5.652,5.652,0,1,0-7.993,7.993l6.284,6.284A5.649,5.649,0,0,0,212.016,211.828Zm-12.209-12.209a2.726,2.726,0,0,1,3.857,0l6.284,6.284a2.727,2.727,0,0,1-3.857,3.857l-6.284-6.284A2.726,2.726,0,0,1,199.807,199.619Z" transform="translate(-157.855 -157.704)"/>
      </g>
    </g>
  </g>
</svg>
