<svg xmlns="http://www.w3.org/2000/svg" width="106" height="106" viewBox="0 0 106 106">
  <g id="Grupo_58639" data-name="Grupo 58639" transform="translate(-188 -1694)">
    <circle id="Elipse_4067" data-name="Elipse 4067" cx="53" cy="53" r="53" transform="translate(188 1694)" fill="#4dd0e1"/>
    <g id="torre" transform="translate(204.903 1703.153)">
      <path id="Trazado_100631" data-name="Trazado 100631" d="M112.645,127.958h-9.23L88.623,79.22,73.832,127.958H64.6L88.623,48.8Zm0,0" transform="translate(-53.377 -40.326)" fill="#4c5275"/>
      <path id="Trazado_100632" data-name="Trazado 100632" d="M175.988,14.779a7.154,7.154,0,1,1-7.155-7.154A7.154,7.154,0,0,1,175.988,14.779Zm0,0" transform="translate(-133.588 -6.3)" fill="#ffbd48"/>
      <path id="Trazado_100633" data-name="Trazado 100633" d="M199.932,16.949a7.16,7.16,0,0,1-4.635,6.7,7.157,7.157,0,0,1,0-13.4A7.158,7.158,0,0,1,199.932,16.949Zm0,0" transform="translate(-157.534 -8.469)" fill="#ffdb45"/>
      <path id="Trazado_100634" data-name="Trazado 100634" d="M352.531.87a1.325,1.325,0,0,0-1.874,1.874,22.581,22.581,0,0,1,0,31.9,1.325,1.325,0,0,0,1.874,1.874,25.234,25.234,0,0,0,0-35.645Zm0,0" transform="translate(-289.411 -0.399)"/>
      <path id="Trazado_100635" data-name="Trazado 100635" d="M330.657,39.194a16.345,16.345,0,0,1-4.812,11.637,1.325,1.325,0,1,0,1.874,1.874,19.128,19.128,0,0,0,0-27.023,1.325,1.325,0,1,0-1.874,1.874,16.347,16.347,0,0,1,4.812,11.637Zm0,0" transform="translate(-268.91 -20.9)"/>
      <path id="Trazado_100636" data-name="Trazado 100636" d="M301.034,68.9a1.325,1.325,0,0,0,1.874,0,13.026,13.026,0,0,0,0-18.4,1.325,1.325,0,0,0-1.874,1.874,10.372,10.372,0,0,1,0,14.653,1.326,1.326,0,0,0,0,1.874Zm0,0" transform="translate(-248.411 -41.402)"/>
      <path id="Trazado_100637" data-name="Trazado 100637" d="M276.221,85.087a1.325,1.325,0,0,0,1.874,0,6.921,6.921,0,0,0,0-9.779,1.325,1.325,0,0,0-1.874,1.874,4.269,4.269,0,0,1,0,6.031,1.325,1.325,0,0,0,0,1.873Zm0,0" transform="translate(-227.909 -61.904)"/>
      <path id="Trazado_100638" data-name="Trazado 100638" d="M2.65,18.693a22.4,22.4,0,0,1,6.6-15.949A1.325,1.325,0,0,0,7.371.872a25.23,25.23,0,0,0,0,35.644,1.325,1.325,0,0,0,1.874-1.874,22.4,22.4,0,0,1-6.6-15.949Zm0,0" transform="translate(0 -0.4)"/>
      <path id="Trazado_100639" data-name="Trazado 100639" d="M40.663,52.709a1.325,1.325,0,1,0,1.875-1.873,16.476,16.476,0,0,1,0-23.275,1.325,1.325,0,1,0-1.874-1.874,19.128,19.128,0,0,0,0,27.022Zm0,0" transform="translate(-28.981 -20.904)"/>
      <path id="Trazado_100640" data-name="Trazado 100640" d="M73.953,68.9a1.325,1.325,0,0,0,1.874-1.874,10.375,10.375,0,0,1,0-14.653A1.325,1.325,0,0,0,73.954,50.5a13.025,13.025,0,0,0,0,18.4Zm0,0" transform="translate(-57.96 -41.402)"/>
      <path id="Trazado_100641" data-name="Trazado 100641" d="M108.166,85.474a1.325,1.325,0,0,0,.937-2.261,4.266,4.266,0,0,1,0-6.032,1.325,1.325,0,1,0-1.873-1.874,6.913,6.913,0,0,0,0,9.779,1.317,1.317,0,0,0,.937.388Zm0,0" transform="translate(-86.925 -61.903)"/>
      <path id="Trazado_100642" data-name="Trazado 100642" d="M94.823,16.108,76.64,76.021a1.325,1.325,0,1,0,2.536.77L97.359,16.877a8.434,8.434,0,0,0,1.163.082,8.613,8.613,0,0,0,1.164-.079l6.405,21.1a1.326,1.326,0,0,0,1.267.941,1.311,1.311,0,0,0,.385-.058,1.325,1.325,0,0,0,.883-1.653l-6.405-21.106A8.481,8.481,0,0,0,101.507.541a8.48,8.48,0,0,0-6.684,15.567Zm3.7-13.458a5.785,5.785,0,0,1,2.05.371,5.833,5.833,0,0,1,0,10.917,5.776,5.776,0,0,1-2.05.371,5.83,5.83,0,1,1,0-11.66Zm0,0" transform="translate(-63.276 0)"/>
      <path id="Trazado_100643" data-name="Trazado 100643" d="M93.977,220.982a1.325,1.325,0,0,0-2.536.77l13.117,43.219H98.1l-14.506-47.8a1.325,1.325,0,0,0-2.536,0l-14.506,47.8H60.088l1.5-4.95a1.325,1.325,0,0,0-2.536-.77l-2.021,6.66a1.325,1.325,0,0,0,1.268,1.71h48.044a1.324,1.324,0,0,0,1.267-1.71ZM77.078,239.4h7.693L74.615,247.52ZM73.09,252.545H87.775L69.8,263.381Zm2.8-2.65,11.963-9.56,2.9,9.56Zm6.435-27.774,4.441,14.634H77.882Zm9.443,31.112,3.562,11.739H72.3Zm0,0" transform="translate(-47.077 -178.664)"/>
    </g>
  </g>
</svg>
