<svg xmlns="http://www.w3.org/2000/svg" width="114" height="114" viewBox="0 0 114 114">
  <g id="Grupo_58642" data-name="Grupo 58642" transform="translate(-603 -1840)">
    <circle id="Elipse_4072" data-name="Elipse 4072" cx="57" cy="57" r="57" transform="translate(603 1840)" fill="#4dd0e1"/>
    <g id="wifi" transform="translate(611.274 1840)">
      <g id="Grupo_54505" data-name="Grupo 54505" transform="translate(1.398 1.398)">
        <g id="Grupo_54500" data-name="Grupo 54500" transform="translate(4.419 0)">
          <g id="Grupo_54499" data-name="Grupo 54499" transform="translate(0 0)">
            <path id="Trazado_100673" data-name="Trazado 100673" d="M47.719,83.41l-9.809,1.4L31.22,21.636a2.628,2.628,0,0,1,5.2-.744Z" transform="translate(-31.206 -18.731)" fill="#bcd6f9"/>
          </g>
          <path id="Trazado_100674" data-name="Trazado 100674" d="M392.217,83.409l9.809,1.4,6.69-63.178a2.628,2.628,0,0,0-5.2-.744Z" transform="translate(-324.913 -18.73)" fill="#bcd6f9"/>
        </g>
        <g id="Grupo_54504" data-name="Grupo 54504" transform="translate(0 52.584)">
          <g id="Grupo_54501" data-name="Grupo 54501" transform="translate(9.9 25.168)">
            <path id="Trazado_100675" data-name="Trazado 100675" d="M65.992,446.5H62.578a1.977,1.977,0,0,1-1.977-1.977v-8.74h7.368v8.74A1.977,1.977,0,0,1,65.992,446.5Z" transform="translate(-60.601 -435.783)" fill="#756e78"/>
            <path id="Trazado_100676" data-name="Trazado 100676" d="M417.269,446.5h-3.413a1.977,1.977,0,0,1-1.977-1.977v-8.74h7.368v8.74A1.977,1.977,0,0,1,417.269,446.5Z" transform="translate(-346.389 -435.783)" fill="#756e78"/>
          </g>
          <g id="Grupo_54503" data-name="Grupo 54503">
            <g id="Grupo_54502" data-name="Grupo 54502" transform="translate(3.216)">
              <path id="Trazado_100677" data-name="Trazado 100677" d="M108.1,331.165H27.623a2.872,2.872,0,0,1-2.872-2.872V303.657a2.872,2.872,0,0,1,2.872-2.872H108.1a2.872,2.872,0,0,1,2.872,2.872v24.636A2.872,2.872,0,0,1,108.1,331.165Z" transform="translate(-24.751 -300.785)" fill="#c9e0fd"/>
            </g>
            <path id="Trazado_100678" data-name="Trazado 100678" d="M418.62,300.785h-12.2a2.872,2.872,0,0,1,2.872,2.872v24.636a2.872,2.872,0,0,1-2.872,2.872h12.2a2.872,2.872,0,0,0,2.872-2.872V303.657A2.872,2.872,0,0,0,418.62,300.785Z" transform="translate(-332.052 -300.785)" fill="#bcd6f9"/>
            <path id="Trazado_100679" data-name="Trazado 100679" d="M96.941,348.7H10.716A3.216,3.216,0,0,1,7.5,345.482V331.958a3.216,3.216,0,0,1,3.216-3.216H96.941a3.216,3.216,0,0,1,3.216,3.216v13.524A3.216,3.216,0,0,1,96.941,348.7Z" transform="translate(-7.5 -323.53)" fill="#eaf2ff"/>
            <path id="Trazado_100680" data-name="Trazado 100680" d="M434.027,328.742h-12.2a3.216,3.216,0,0,1,3.216,3.216v13.524a3.216,3.216,0,0,1-3.216,3.216h12.2a3.216,3.216,0,0,0,3.216-3.216V331.958A3.216,3.216,0,0,0,434.027,328.742Z" transform="translate(-344.587 -323.53)" fill="#dbe8f9"/>
          </g>
        </g>
        <ellipse id="Elipse_4076" data-name="Elipse 4076" cx="4.841" cy="4.841" rx="4.841" ry="4.841" transform="translate(8.779 62.932)" fill="#7fb2f9"/>
        <path id="Trazado_100681" data-name="Trazado 100681" d="M268.179,369.968H226.006a1.232,1.232,0,0,1-1.232-1.232V363.89a1.232,1.232,0,0,1,1.232-1.232h42.173a1.232,1.232,0,0,1,1.232,1.232v4.845A1.232,1.232,0,0,1,268.179,369.968Z" transform="translate(-184.267 -298.539)" fill="#a0f2bf"/>
        <path id="Trazado_100682" data-name="Trazado 100682" d="M442.532,362.659H439.08v7.309h3.452a1.232,1.232,0,0,0,1.232-1.232v-4.845A1.233,1.233,0,0,0,442.532,362.659Z" transform="translate(-358.62 -298.54)" fill="#86efa5"/>
      </g>
      <g id="Grupo_54506" data-name="Grupo 54506" transform="translate(0 0)">
        <path id="Trazado_100683" data-name="Trazado 100683" d="M161.863,116.51a22.073,22.073,0,0,1,31.216,0,1.4,1.4,0,0,0,1.977-1.977,24.87,24.87,0,0,0-35.171,0,1.4,1.4,0,0,0,1.978,1.977Z" transform="translate(-129.745 -89.348)"/>
        <path id="Trazado_100684" data-name="Trazado 100684" d="M215.276,159.612a1.4,1.4,0,0,0,0-1.977,16.369,16.369,0,0,0-23.15,0,1.4,1.4,0,1,0,1.977,1.977,13.573,13.573,0,0,1,19.2,0A1.4,1.4,0,0,0,215.276,159.612Z" transform="translate(-155.975 -126.439)"/>
        <path id="Trazado_100685" data-name="Trazado 100685" d="M224.366,200.739a1.4,1.4,0,1,0,1.977,1.977,5.073,5.073,0,0,1,7.174,0,1.4,1.4,0,1,0,1.977-1.977,7.869,7.869,0,0,0-11.129,0Z" transform="translate(-182.204 -163.533)"/>
        <path id="Trazado_100686" data-name="Trazado 100686" d="M92.237,69.241V68.083a4.275,4.275,0,0,0-4.27-4.27H85.914l5.1-48.133a4.026,4.026,0,0,0-7.966-1.14L74.14,63.812H21.314l-5.622-31.1a1.4,1.4,0,1,0-2.752.5l5.532,30.606H12.351L7.223,15.385a1.23,1.23,0,0,1,2.433-.348l2.12,11.726a1.4,1.4,0,1,0,2.752-.5L12.408,14.539a4.026,4.026,0,0,0-7.966,1.14l5.1,48.133H7.487a4.275,4.275,0,0,0-4.27,4.27v1.159A4.622,4.622,0,0,0,0,73.638V87.163a4.622,4.622,0,0,0,3.216,4.4v1.159a4.275,4.275,0,0,0,4.27,4.27H9.9v2.13a3.379,3.379,0,0,0,3.376,3.376h3.413a3.379,3.379,0,0,0,3.376-3.376v-2.13H75.389v2.13a3.379,3.379,0,0,0,3.376,3.376h3.413a3.379,3.379,0,0,0,3.376-3.376v-2.13h2.413a4.275,4.275,0,0,0,4.27-4.27V91.56a4.622,4.622,0,0,0,3.216-4.4V73.638A4.621,4.621,0,0,0,92.237,69.241Zm-6.44-54.2a1.23,1.23,0,0,1,2.433.348L83.1,63.812H76.981ZM6.013,68.083a1.476,1.476,0,0,1,1.474-1.474h80.48a1.476,1.476,0,0,1,1.474,1.474v.942H6.013ZM17.268,99.119a.58.58,0,0,1-.579.579H13.275a.58.58,0,0,1-.579-.579v-2.13h4.571Zm65.489,0a.58.58,0,0,1-.579.579H78.764a.58.58,0,0,1-.579-.579v-2.13h4.571Zm6.684-6.4a1.475,1.475,0,0,1-1.474,1.474H7.487a1.476,1.476,0,0,1-1.474-1.474v-.942H89.44v.942Zm3.216-5.556a1.82,1.82,0,0,1-1.818,1.818H4.614A1.82,1.82,0,0,1,2.8,87.163V73.638a1.82,1.82,0,0,1,1.818-1.818H90.839a1.82,1.82,0,0,1,1.818,1.818Z" transform="translate(0 -11.228)"/>
        <path id="Trazado_100687" data-name="Trazado 100687" d="M53.332,348.794a6.239,6.239,0,1,0,6.239,6.239A6.246,6.246,0,0,0,53.332,348.794Zm0,9.682a3.443,3.443,0,1,1,3.443-3.443A3.447,3.447,0,0,1,53.332,358.477Z" transform="translate(-38.313 -285.861)"/>
        <path id="Trazado_100688" data-name="Trazado 100688" d="M262.078,355.159H219.9a2.633,2.633,0,0,0-2.631,2.63v4.845a2.633,2.633,0,0,0,2.631,2.63h27.954a1.4,1.4,0,0,0,0-2.8H220.07v-4.513h41.841v4.513h-7.506a1.4,1.4,0,0,0,0,2.8h7.672a2.633,2.633,0,0,0,2.63-2.63v-4.845A2.633,2.633,0,0,0,262.078,355.159Z" transform="translate(-176.767 -291.04)"/>
      </g>
    </g>
  </g>
</svg>
