<svg xmlns="http://www.w3.org/2000/svg" width="113" height="114" viewBox="0 0 113 114">
  <g id="Grupo_58641" data-name="Grupo 58641" transform="translate(-1025 -1691)">
    <ellipse id="Elipse_4069" data-name="Elipse 4069" cx="56.5" cy="57" rx="56.5" ry="57" transform="translate(1025 1691)" fill="#4dd0e1"/>
    <g id="termometro" transform="translate(1042.615 1701)">
      <g id="Grupo_54536" data-name="Grupo 54536" transform="translate(1.555 1.555)">
        <g id="Grupo_54528" data-name="Grupo 54528" transform="translate(6.222 87.105)">
          <path id="Trazado_100712" data-name="Trazado 100712" d="M24.444,58H46.22a8.217,8.217,0,0,1-7.964,6.222H19.964A8.217,8.217,0,0,1,12,58Z" transform="translate(-12 -58)" fill="#aab2bd"/>
        </g>
        <g id="Grupo_54529" data-name="Grupo 54529" transform="translate(12.444)">
          <path id="Trazado_100713" data-name="Trazado 100713" d="M34.665,14.444V33.109a3.12,3.12,0,0,1-3.111,3.111H28.444V14.444A12.44,12.44,0,0,0,16,2h6.222A12.447,12.447,0,0,1,34.665,14.444Z" transform="translate(-16 -2)" fill="#aab2bd"/>
        </g>
        <g id="Grupo_54530" data-name="Grupo 54530" transform="translate(0 0)">
          <path id="Trazado_100714" data-name="Trazado 100714" d="M32.887,14.444V36.22H11.111A3.12,3.12,0,0,1,8,33.109V14.444a12.444,12.444,0,0,1,24.887,0Z" transform="translate(-8 -2)" fill="#e6e9ed"/>
        </g>
        <g id="Grupo_54531" data-name="Grupo 54531" transform="translate(6.222 9.333)">
          <path id="Trazado_100715" data-name="Trazado 100715" d="M24.444,9.555v9.333a1.56,1.56,0,0,1-1.555,1.555H13.555A1.56,1.56,0,0,1,12,18.888V9.555A1.56,1.56,0,0,1,13.555,8h9.333A1.56,1.56,0,0,1,24.444,9.555Z" transform="translate(-12 -8)" fill="#3bafda"/>
        </g>
        <g id="Grupo_54532" data-name="Grupo 54532" transform="translate(5.988 3.111)">
          <path id="Trazado_100716" data-name="Trazado 100716" d="M74.3,4V32.138L57.5,36.726A15.183,15.183,0,0,0,46.4,53.059l2.971,26.676c.031.327.047.638.047.964a8.74,8.74,0,0,1-1.462,4.822L46.3,87.994H24.527A65.012,65.012,0,0,1,37.313,54.35l1.835-2.442a4.669,4.669,0,0,0-3.733-7.466,6.4,6.4,0,0,0-2.94.7l-9.037,4.511a9.568,9.568,0,0,1-11.044-1.789l-.544-.544q.233-6.09.233-12.21H33.86A3.12,3.12,0,0,0,36.97,32V13.333A12.4,12.4,0,0,0,32.755,4Z" transform="translate(-11.85 -4)" fill="#e6e9ed"/>
        </g>
        <g id="Grupo_54533" data-name="Grupo 54533" transform="translate(3.111 43.552)">
          <path id="Trazado_100717" data-name="Trazado 100717" d="M11.307,54.887Q12.473,43.9,12.878,32.878l.544.544a9.568,9.568,0,0,0,11.044,1.789L33.5,30.7a6.4,6.4,0,0,1,2.94-.7,4.666,4.666,0,0,1,3.733,7.466L38.34,39.908A65.012,65.012,0,0,0,25.554,73.552H13.111l-1.68-2.52a8.362,8.362,0,0,1-1.369-3.7A7.579,7.579,0,0,1,10,66.3a8.042,8.042,0,0,1,.062-1.058l.529-4.137.016-.156q.373-3.033.7-6.066Z" transform="translate(-10 -30)" fill="#5cd6b3"/>
        </g>
        <g id="Grupo_54534" data-name="Grupo 54534" transform="translate(68.44 3.111)">
          <path id="Trazado_100718" data-name="Trazado 100718" d="M58.222,7.111V28.063a3.113,3.113,0,0,1-2.287,3L52,32.138V4h3.111a3.12,3.12,0,0,1,3.111,3.111Z" transform="translate(-52 -4)" fill="#5cd6b3"/>
        </g>
        <g id="Grupo_54535" data-name="Grupo 54535" transform="translate(37.331 9.333)">
          <path id="Trazado_100719" data-name="Trazado 100719" d="M56.887,11.111v5.257a3.115,3.115,0,0,1-2.458,3.049L35.406,23.492a2.546,2.546,0,0,1-.591.062A2.815,2.815,0,0,1,32,20.739V11.111A3.12,3.12,0,0,1,35.111,8H53.776A3.12,3.12,0,0,1,56.887,11.111Z" transform="translate(-32 -8)" fill="#5cd6b3"/>
        </g>
      </g>
      <path id="Trazado_100720" data-name="Trazado 100720" d="M14.111,22.554h9.333a3.114,3.114,0,0,0,3.111-3.111V10.111A3.114,3.114,0,0,0,23.444,7H14.111A3.114,3.114,0,0,0,11,10.111v9.333A3.114,3.114,0,0,0,14.111,22.554Zm0-12.444h9.333l0,9.333H14.111Z" transform="translate(-4.778 2.333)"/>
      <path id="Trazado_100721" data-name="Trazado 100721" d="M15,19h3.111v3.111H15Z" transform="translate(-2.556 8.998)"/>
      <path id="Trazado_100722" data-name="Trazado 100722" d="M19,19h3.111v3.111H19Z" transform="translate(-0.335 8.998)"/>
      <path id="Trazado_100723" data-name="Trazado 100723" d="M11,19h3.111v3.111H11Z" transform="translate(-4.778 8.998)"/>
      <path id="Trazado_100724" data-name="Trazado 100724" d="M11.666,38.331H13.2a324.573,324.573,0,0,1-2.472,38.536l-.537,4.3a10.168,10.168,0,0,0-.078,1.251A10.047,10.047,0,0,0,11.8,88l1.579,2.367a9.742,9.742,0,0,0,9.364,7.066H41.028a9.742,9.742,0,0,0,9.364-7.066l1.551-2.327a10.2,10.2,0,0,0,1.72-5.68,9.8,9.8,0,0,0-.064-1.131L50.635,54.551a13.939,13.939,0,0,1-.082-1.507A13.666,13.666,0,0,1,60.6,39.889l20.734-5.656a4.677,4.677,0,0,0,3.438-4.5V8.777A4.672,4.672,0,0,0,80.1,4.111H36A13.929,13.929,0,0,0,27.221,1H21A14.016,14.016,0,0,0,7,15V33.664a4.672,4.672,0,0,0,4.666,4.666ZM15.609,88.1l-1.218-1.826a6.9,6.9,0,0,1-.656-1.285h5.708V81.883H13.254c.008-.11.008-.222.02-.333l.348-2.778h8.931V75.661H13.987c.124-1.034.226-2.073.339-3.111H25.665V69.439h-11q.866-8.607,1.263-17.27a11.034,11.034,0,0,0,5.923,1.716,11.17,11.17,0,0,0,4.974-1.174L35.857,48.2a5.058,5.058,0,0,1,2.252-.532A3.111,3.111,0,0,1,40.6,52.641l-1.826,2.437A66.526,66.526,0,0,0,25.84,88.1Zm25.419,6.222H22.746a6.643,6.643,0,0,1-5.626-3.111H46.655A6.643,6.643,0,0,1,41.028,94.326ZM59.781,36.889a16.742,16.742,0,0,0-12.237,18l2.965,26.685a6.976,6.976,0,0,1,.044.785,7.1,7.1,0,0,1-1.2,3.955L48.165,88.1H28.971a63.427,63.427,0,0,1,12.288-31.16l1.828-2.437a6.222,6.222,0,0,0-4.977-9.955,8.188,8.188,0,0,0-3.643.86l-9.032,4.515a8.011,8.011,0,0,1-9.249-1.5l-.079-.079q.18-5.016.2-10.019H36.553a4.672,4.672,0,0,0,4.666-4.666V15a13.916,13.916,0,0,0-2.367-7.777H75.44v25.4ZM81.661,8.777V29.732a1.558,1.558,0,0,1-1.146,1.5l-1.965.537V7.222h1.555A1.558,1.558,0,0,1,81.661,8.777ZM38.109,15V33.664a1.558,1.558,0,0,1-1.555,1.555H35V15a13.97,13.97,0,0,0-4.682-10.44A10.908,10.908,0,0,1,38.109,15Zm-28,0a10.888,10.888,0,0,1,21.776,0V35.22H11.666a1.558,1.558,0,0,1-1.555-1.555Z" transform="translate(-7 -1)"/>
      <path id="Trazado_100725" data-name="Trazado 100725" d="M54.332,7H35.666A4.672,4.672,0,0,0,31,11.666V21.3a4.374,4.374,0,0,0,4.369,4.369,4.457,4.457,0,0,0,.915-.1L55.308,21.49A4.689,4.689,0,0,0,59,16.928V11.666A4.672,4.672,0,0,0,54.332,7Zm1.555,9.928a1.566,1.566,0,0,1-1.23,1.521L35.635,22.525A1.262,1.262,0,0,1,34.111,21.3v-9.63a1.558,1.558,0,0,1,1.555-1.555H54.332a1.558,1.558,0,0,1,1.555,1.555Z" transform="translate(6.331 2.333)"/>
      <path id="Trazado_100726" data-name="Trazado 100726" d="M35,11h3.111v3.111H35Z" transform="translate(8.552 4.554)"/>
      <path id="Trazado_100727" data-name="Trazado 100727" d="M39,11h3.111v3.111H39Z" transform="translate(10.774 4.554)"/>
      <path id="Trazado_100728" data-name="Trazado 100728" d="M43,11h3.111v3.111H43Z" transform="translate(12.996 4.554)"/>
    </g>
  </g>
</svg>
