<svg xmlns="http://www.w3.org/2000/svg" width="114" height="130.021" viewBox="0 0 114 130.021">
  <g id="Grupo_58646" data-name="Grupo 58646" transform="translate(-602 -990.979)">
    <circle id="Elipse_4068" data-name="Elipse 4068" cx="57" cy="57" r="57" transform="translate(602 1007)" fill="#ffa726"/>
    <g id="scanner" transform="translate(607 990.982)">
      <g id="Grupo_54540" data-name="Grupo 54540" transform="translate(1.436 1.429)">
        <path id="Trazado_100746" data-name="Trazado 100746" d="M1.75,95.688H103.879v14.1a4.922,4.922,0,0,1-4.922,4.922H1.75Z" transform="translate(-1.75 -18.624)" fill="#393444"/>
        <path id="Trazado_100747" data-name="Trazado 100747" d="M9.75,103.688H20.619v5.9H9.75Z" transform="translate(-3.188 -20.061)" fill="#d261e8"/>
        <path id="Trazado_100748" data-name="Trazado 100748" d="M1.75,118.877H96.266v5.95H1.75Z" transform="translate(-1.75 -22.79)" fill="#19cffc"/>
        <path id="Trazado_100749" data-name="Trazado 100749" d="M78.811,6.591l-3.4-3.407a4.922,4.922,0,0,0-6.96,0L4.874,66.758A10.664,10.664,0,0,0,1.75,74.305V78.81H6.595Z" transform="translate(-1.75 -1.743)" fill="#635a70"/>
        <path id="Trazado_100750" data-name="Trazado 100750" d="M113.147,103.688h-6.885v5.9h6.885a2.949,2.949,0,1,0,0-5.9Z" transform="translate(-20.53 -20.061)" fill="#19cffc"/>
        <path id="Trazado_100751" data-name="Trazado 100751" d="M97.222,103.688a2.949,2.949,0,1,0,0,5.9h6.886v-5.9Z" transform="translate(-18.375 -20.061)" fill="#fff04a"/>
        <path id="Trazado_100752" data-name="Trazado 100752" d="M25.625,87.563h82.544v6.665H25.625Z" transform="translate(-6.04 -17.164)" fill="#fff5f5"/>
        <g id="Grupo_54539" data-name="Grupo 54539" transform="translate(43.004 51.481)">
          <path id="Trazado_100753" data-name="Trazado 100753" d="M61.465,78.613a1.427,1.427,0,0,1-1-.41l-5.855-5.742a1.435,1.435,0,1,1,2.009-2.051l5.858,5.742a1.436,1.436,0,0,1-1,2.461Z" transform="translate(-54.175 -65.488)" fill="#fff04a"/>
          <path id="Trazado_100754" data-name="Trazado 100754" d="M88.5,78.613a1.436,1.436,0,0,1-1-2.461l5.857-5.742a1.436,1.436,0,0,1,2.01,2.051L89.5,78.2a1.428,1.428,0,0,1-1,.41Z" transform="translate(-60.084 -65.488)" fill="#fff04a"/>
          <path id="Trazado_100755" data-name="Trazado 100755" d="M75.623,74.754a1.436,1.436,0,0,1-1.436-1.436V65.936a1.436,1.436,0,0,1,2.871,0v7.383a1.435,1.435,0,0,1-1.436,1.436Z" transform="translate(-57.771 -64.5)" fill="#fff04a"/>
        </g>
      </g>
      <g id="Grupo_54541" data-name="Grupo 54541" transform="translate(0 -0.003)">
        <path id="Trazado_100756" data-name="Trazado 100756" d="M20.3,101.938H9.436A1.435,1.435,0,0,0,8,103.374v5.9a1.435,1.435,0,0,0,1.436,1.436H20.3a1.435,1.435,0,0,0,1.436-1.436v-5.9a1.435,1.435,0,0,0-1.436-1.436Zm-1.436,5.9h-8v-3.026h8Z" transform="translate(-1.437 -18.314)"/>
        <path id="Trazado_100757" data-name="Trazado 100757" d="M58.619,45.218l4.143-4.143a1.435,1.435,0,1,0-2.03-2.03L56.59,43.188a1.435,1.435,0,1,0,2.029,2.029Z" transform="translate(-10.093 -6.938)"/>
        <path id="Trazado_100758" data-name="Trazado 100758" d="M96.908,110.706h13.771a4.384,4.384,0,1,0,0-8.769H96.908a4.384,4.384,0,1,0,0,8.769Zm15.284-4.385a1.514,1.514,0,0,1-1.513,1.513h-5.449v-3.026h5.449a1.514,1.514,0,0,1,1.513,1.513Zm-15.284-1.513h5.45v3.026h-5.45a1.513,1.513,0,1,1,0-3.026Z" transform="translate(-16.625 -18.314)"/>
        <path id="Trazado_100759" data-name="Trazado 100759" d="M103.564,70.393H21.02a1.435,1.435,0,0,0-1.436,1.436v5.229H9.746L41.285,45.519a1.435,1.435,0,1,0-2.03-2.03L5.686,77.058H2.871V73.992a9.168,9.168,0,0,1,2.707-6.526L69.152,3.892a3.486,3.486,0,0,1,4.931,0L76.471,6.28,57.881,24.863a1.435,1.435,0,0,0,2.029,2.029l19.6-19.6a1.436,1.436,0,0,0,0-2.03l-3.4-3.4a6.355,6.355,0,0,0-8.991,0L3.543,65.434A12.02,12.02,0,0,0,0,73.992v29.474A1.435,1.435,0,0,0,1.436,104.9H95.951a1.436,1.436,0,0,0,1.436-1.436V98.954h1.256A6.365,6.365,0,0,0,105,92.6V71.828a1.435,1.435,0,0,0-1.436-1.436ZM22.456,73.264h79.673v3.794H22.456Zm79.673,19.33a3.49,3.49,0,0,1-3.486,3.486H72.854a1.436,1.436,0,0,0,0,2.871H94.516v3.079H2.871V98.951H60.856a1.436,1.436,0,1,0,0-2.871H2.871V79.929h99.258Z" transform="translate(0 0.003)"/>
        <path id="Trazado_100760" data-name="Trazado 100760" d="M54.582,70.431a1.436,1.436,0,0,0,.023,2.03L60.463,78.2a1.435,1.435,0,1,0,2.009-2.051L56.614,70.41A1.436,1.436,0,0,0,54.582,70.431Z" transform="translate(-9.734 -12.575)"/>
        <path id="Trazado_100761" data-name="Trazado 100761" d="M93.351,70.41l-5.857,5.742A1.435,1.435,0,1,0,89.5,78.2l5.858-5.742a1.436,1.436,0,0,0-2.01-2.051Z" transform="translate(-15.644 -12.576)"/>
        <path id="Trazado_100762" data-name="Trazado 100762" d="M74.187,65.936v7.383a1.436,1.436,0,0,0,2.871,0V65.936a1.436,1.436,0,0,0-2.871,0Z" transform="translate(-13.33 -11.587)"/>
      </g>
    </g>
  </g>
</svg>
