<svg xmlns="http://www.w3.org/2000/svg" width="113" height="130.021" viewBox="0 0 113 130.021">
  <g id="Grupo_58647" data-name="Grupo 58647" transform="translate(-1025 -990.979)">
    <ellipse id="Elipse_4069" data-name="Elipse 4069" cx="56.5" cy="57" rx="56.5" ry="57" transform="translate(1025 1007)" fill="#ffa726"/>
    <g id="disco-duro" transform="translate(1007.496 990.979)">
      <path id="Trazado_100763" data-name="Trazado 100763" d="M34.743,411.431H48.8v7.026H34.743Z" transform="translate(-11.812 -318.368)" fill="#e9f1ff"/>
      <g id="Grupo_54542" data-name="Grupo 54542" transform="translate(26.417 1.697)">
        <path id="Trazado_100764" data-name="Trazado 100764" d="M57.235,77.791h-7.08V32.122A24.646,24.646,0,0,1,74.773,7.5h3.513A24.646,24.646,0,0,1,102.9,32.122v3.5h-7.08v-3.5A17.558,17.558,0,0,0,78.286,14.584H74.773A17.558,17.558,0,0,0,57.235,32.122Z" transform="translate(-50.155 -7.504)" fill="#e9f1ff"/>
      </g>
      <g id="Grupo_54543" data-name="Grupo 54543" transform="translate(26.417 1.697)">
        <path id="Trazado_100765" data-name="Trazado 100765" d="M78.793,7.508q-.252-.005-.505-.005H74.774A24.646,24.646,0,0,0,50.156,32.121V77.79H54.68V32.121A24.647,24.647,0,0,1,78.793,7.508Z" transform="translate(-50.156 -7.503)" fill="#d7e4f7"/>
        <path id="Trazado_100766" data-name="Trazado 100766" d="M180.777,38.8h-3.513q-.253,0-.505.007a17.559,17.559,0,0,1,17.033,17.531v3.5h4.524v-3.5A17.558,17.558,0,0,0,180.777,38.8Z" transform="translate(-148.122 -31.723)" fill="#d7e4f7"/>
      </g>
      <path id="Trazado_100767" data-name="Trazado 100767" d="M236.648,131.827H250.7v7.026H236.648Z" transform="translate(-168.048 -102.009)" fill="#77d4f5"/>
      <path id="Trazado_100768" data-name="Trazado 100768" d="M236.648,131.827h6.786v7.026h-6.786Z" transform="translate(-168.048 -102.009)" fill="#68b3f3"/>
      <path id="Trazado_100769" data-name="Trazado 100769" d="M196.277,240.186H146.854a3.393,3.393,0,0,1-3.393-3.393V166.282a3.393,3.393,0,0,1,3.393-3.393h49.423a3.393,3.393,0,0,1,3.393,3.393v70.511A3.393,3.393,0,0,1,196.277,240.186Z" transform="translate(-95.939 -126.045)" fill="#3e4f55"/>
      <path id="Trazado_100770" data-name="Trazado 100770" d="M154.771,236.793V166.282a3.393,3.393,0,0,1,3.393-3.393h-11.31a3.393,3.393,0,0,0-3.393,3.393v70.511a3.393,3.393,0,0,0,3.393,3.393h11.31A3.393,3.393,0,0,1,154.771,236.793Z" transform="translate(-95.939 -126.045)" fill="#303d42"/>
      <path id="Trazado_100771" data-name="Trazado 100771" d="M26.978,349.125H44.543v14.083H26.978Z" transform="translate(-5.804 -270.155)" fill="#3e4f55"/>
      <path id="Trazado_100772" data-name="Trazado 100772" d="M26.978,349.125h6.786v14.083H26.978Z" transform="translate(-5.804 -270.155)" fill="#303d42"/>
      <path id="Trazado_100773" data-name="Trazado 100773" d="M42.353,318.245h10.61v6.985H42.353Z" transform="translate(-17.701 -246.26)" fill="#77d4f5"/>
      <path id="Trazado_100774" data-name="Trazado 100774" d="M42.353,318.245h6.786v6.985H42.353Z" transform="translate(-17.701 -246.26)" fill="#68b3f3"/>
      <path id="Trazado_100775" data-name="Trazado 100775" d="M230.176,200.977H209.1a3.513,3.513,0,1,1,0-7.026h21.078a3.513,3.513,0,1,1,0,7.026Z" transform="translate(-144.011 -150.081)" fill="#77d4f5"/>
      <path id="Trazado_100776" data-name="Trazado 100776" d="M330.39,256.007H309.312l-10.539,7.026v19.938a30.826,30.826,0,0,0,21.078,29.244,30.826,30.826,0,0,0,21.078-29.244V263.033Z" transform="translate(-216.121 -198.1)" fill="#e9f1ff"/>
      <path id="Trazado_100777" data-name="Trazado 100777" d="M310.083,282.971V263.033l10.539-7.026h-11.31l-10.539,7.026v19.938a30.826,30.826,0,0,0,21.078,29.244,30.849,30.849,0,0,0,5.655-2.54A30.83,30.83,0,0,1,310.083,282.971Z" transform="translate(-216.12 -198.1)" fill="#d7e4f7"/>
      <path id="Trazado_100778" data-name="Trazado 100778" d="M344.071,328.846a23.712,23.712,0,0,1-14-21.655V291.042l5.6-3.735h16.791l5.6,3.735v16.149A23.713,23.713,0,0,1,344.071,328.846Z" transform="translate(-240.34 -222.32)" fill="#82d65f"/>
      <path id="Trazado_100779" data-name="Trazado 100779" d="M334.3,291.353l-4.23,2.82v16.149A23.713,23.713,0,0,0,342.4,331.145a30.806,30.806,0,0,1-8.1-20.823Z" transform="translate(-240.34 -225.451)" fill="#77bf51"/>
      <g id="Grupo_54544" data-name="Grupo 54544" transform="translate(19.478 0)">
        <path id="Trazado_100780" data-name="Trazado 100780" d="M229.582,191.66a5.215,5.215,0,0,0-5.209-5.209H203.294a5.209,5.209,0,1,0,0,10.419h21.078A5.215,5.215,0,0,0,229.582,191.66Zm-28.1,0a1.819,1.819,0,0,1,1.817-1.817h21.078a1.817,1.817,0,0,1,0,3.633H203.294A1.819,1.819,0,0,1,201.478,191.66Z" transform="translate(-157.685 -144.277)"/>
        <path id="Trazado_100781" data-name="Trazado 100781" d="M124.808,74.519a1.7,1.7,0,0,0,1.7-1.7v-7.89a1.7,1.7,0,0,0-.755-1.411L115.21,56.5a1.7,1.7,0,0,0-.941-.285h-8.842V40.237a5.1,5.1,0,0,0-5.089-5.089H84.349v-5.33a1.7,1.7,0,0,0-1.7-1.7H80.863V26.315A26.345,26.345,0,0,0,54.548,0H51.035A26.345,26.345,0,0,0,24.72,26.315V70.288h-.068a1.7,1.7,0,0,0-1.7,1.7v5.289H21.174a1.7,1.7,0,0,0-1.7,1.7V93.053a1.7,1.7,0,0,0,1.7,1.7h.06v5.34a1.7,1.7,0,0,0,1.7,1.7H36.983a1.7,1.7,0,0,0,1.7-1.7v-5.34h.06a1.7,1.7,0,0,0,1.7-1.7V78.97a1.7,1.7,0,0,0-1.7-1.7H36.958V71.985a1.7,1.7,0,0,0-1.7-1.7h-.069v-15.7a1.7,1.7,0,0,0-3.393,0v15.7H28.113V26.315A22.948,22.948,0,0,1,51.035,3.393h3.513A22.948,22.948,0,0,1,77.47,26.315v1.806H73.783V26.315A19.257,19.257,0,0,0,54.548,7.08H51.035A19.257,19.257,0,0,0,31.8,26.315V47.2a1.7,1.7,0,0,0,3.393,0V26.315A15.861,15.861,0,0,1,51.035,10.473h3.513A15.861,15.861,0,0,1,70.39,26.315v1.806H68.6a1.7,1.7,0,0,0-1.7,1.7v5.33H50.915a5.1,5.1,0,0,0-5.089,5.089v70.511a5.1,5.1,0,0,0,5.089,5.089H70.35a1.7,1.7,0,0,0,0-3.393H50.915a1.7,1.7,0,0,1-1.7-1.7V40.237a1.7,1.7,0,0,1,1.7-1.7h49.423a1.7,1.7,0,0,1,1.7,1.7V56.211H93.19a1.7,1.7,0,0,0-.941.285L81.711,63.522a1.7,1.7,0,0,0-.755,1.411V84.872a32.477,32.477,0,0,0,15.269,27.573H77.744a1.7,1.7,0,0,0,0,3.393h22.595a5.069,5.069,0,0,0,2.005-.411q.422.154.851.3a1.7,1.7,0,0,0,1.073,0A32.931,32.931,0,0,0,126.5,84.872V80.217a1.7,1.7,0,0,0-3.393,0v4.655a29.374,29.374,0,0,1-19.38,27.448A29.471,29.471,0,0,1,84.348,84.872V65.841L93.7,59.6h20.052l9.355,6.237v6.982a1.7,1.7,0,0,0,1.7,1.7ZM24.628,94.759h3.633v3.633H24.628Zm10.659,3.633H31.654V94.759h3.633Zm1.756-7.036H22.871V80.666H37.043ZM26.349,77.273V73.681h7.217v3.592ZM70.3,31.515H80.956v3.633H70.3Z" transform="translate(-19.478 0)"/>
        <path id="Trazado_100782" data-name="Trazado 100782" d="M347.6,280.091a1.7,1.7,0,0,0-.941-.285H329.871a1.7,1.7,0,0,0-.941.285l-5.6,3.735a1.7,1.7,0,0,0-.755,1.411v16.149a25.464,25.464,0,0,0,15,23.2,1.7,1.7,0,0,0,1.39,0,25.464,25.464,0,0,0,15-23.2V285.238a1.7,1.7,0,0,0-.755-1.411Zm2.965,21.3a22.07,22.07,0,0,1-12.3,19.78,22.071,22.071,0,0,1-12.3-19.78V286.146l4.42-2.947h15.764l4.42,2.947v15.241Z" transform="translate(-254.014 -216.516)"/>
        <path id="Trazado_100783" data-name="Trazado 100783" d="M367.8,345.467l-7.337,9.542-4.171-4.171a1.7,1.7,0,1,0-2.4,2.4l5.537,5.537a1.7,1.7,0,0,0,2.544-.165l8.515-11.074a1.7,1.7,0,1,0-2.69-2.068Z" transform="translate(-277.867 -266.812)"/>
      </g>
    </g>
  </g>
</svg>
