<svg xmlns="http://www.w3.org/2000/svg" width="114" height="114" viewBox="0 0 114 114">
  <g id="Grupo_58643" data-name="Grupo 58643" transform="translate(-180 -1840)">
    <circle id="Elipse_4071" data-name="Elipse 4071" cx="57" cy="57" r="57" transform="translate(180 1840)" fill="#4dd0e1"/>
    <g id="bluetooth" transform="translate(187.842 1847.834)">
      <g id="Grupo_54526" data-name="Grupo 54526" transform="translate(1.44 1.44)">
        <ellipse id="Elipse_4078" data-name="Elipse 4078" cx="47.718" cy="47.726" rx="47.718" ry="47.726" fill="#407fff"/>
        <path id="Trazado_100701" data-name="Trazado 100701" d="M129.421,62.3a47.72,47.72,0,0,1-67.085,67.1,47.72,47.72,0,1,0,67.085-67.1Z" transform="translate(-51.812 -51.778)" fill="#406aef"/>
        <g id="Grupo_54525" data-name="Grupo 54525" transform="translate(27.645 20.579)">
          <g id="Grupo_54520" data-name="Grupo 54520" transform="translate(13.375)">
            <path id="Trazado_100702" data-name="Trazado 100702" d="M224.315,144.989a3.192,3.192,0,0,1-3.191-3.192v-22.05a5.1,5.1,0,0,1,7.647-4.416l16.054,9.27a5.218,5.218,0,0,1,0,9.038l-18.914,10.922A3.185,3.185,0,0,1,224.315,144.989Zm3.191-23.018v14.3l12.38-7.149Z" transform="translate(-221.124 -114.65)" fill="#e3faff"/>
          </g>
          <g id="Grupo_54521" data-name="Grupo 54521" transform="translate(13.375 23.955)">
            <path id="Trazado_100703" data-name="Trazado 100703" d="M226.222,269.721a5.094,5.094,0,0,1-5.1-5.1v-22.05a3.191,3.191,0,0,1,4.787-2.764l18.915,10.922a5.218,5.218,0,0,1,0,9.038l-16.054,9.27A5.1,5.1,0,0,1,226.222,269.721Zm1.284-21.619v14.3l12.38-7.149Z" transform="translate(-221.124 -239.382)" fill="#e3faff"/>
          </g>
          <g id="Grupo_54522" data-name="Grupo 54522" transform="translate(16.534 27.15)">
            <path id="Trazado_100704" data-name="Trazado 100704" d="M243.989,256.015a1.943,1.943,0,0,0,.713,2.652l9.531,5.5a5.218,5.218,0,0,1,0,9.038l-16.054,9.27a5.034,5.034,0,0,1-.609.3,5.115,5.115,0,0,0,4.489-.3l16.054-9.27a5.218,5.218,0,0,0,0-9.038l-14.123-8.155Z" transform="translate(-237.569 -256.015)" fill="#ccf4ff"/>
          </g>
          <path id="Trazado_100705" data-name="Trazado 100705" d="M244.177,141.808l14.123-8.161a5.209,5.209,0,0,0,0-9.027l-16.289-9.406a5.115,5.115,0,0,0-4.21-.191l16.618,9.6a5.218,5.218,0,0,1,0,9.038l-9.52,5.5a1.952,1.952,0,0,0-.723,2.648Z" transform="translate(-221.223 -114.658)" fill="#ccf4ff"/>
          <g id="Grupo_54523" data-name="Grupo 54523" transform="translate(0 21.635)">
            <path id="Trazado_100706" data-name="Trazado 100706" d="M174.434,232.815l-18.155,10.594a3.191,3.191,0,0,1-3.214-5.515L171.221,227.3" transform="translate(-151.481 -227.3)" fill="#e3faff"/>
          </g>
          <path id="Trazado_100707" data-name="Trazado 100707" d="M204.451,244.554v7.388l11.2-6.526-6.367-3.677Z" transform="translate(-194.278 -217.331)" fill="#ccf4ff"/>
          <g id="Grupo_54524" data-name="Grupo 54524" transform="translate(0 16.205)">
            <path id="Trazado_100708" data-name="Trazado 100708" d="M171.239,215.5,153.075,204.98a3.191,3.191,0,0,1,3.2-5.525l18.164,10.516" transform="translate(-151.482 -199.026)" fill="#e3faff"/>
          </g>
        </g>
      </g>
      <g id="Grupo_54527" data-name="Grupo 54527" transform="translate(0)">
        <path id="Trazado_100709" data-name="Trazado 100709" d="M81.21,283.368A46.278,46.278,0,0,1,2.922,249.94a1.44,1.44,0,1,0-2.881,0A49.158,49.158,0,0,0,83.2,285.448a1.44,1.44,0,1,0-1.993-2.08Z" transform="translate(-0.041 -200.774)"/>
        <path id="Trazado_100710" data-name="Trazado 100710" d="M85.836,14.4A49.164,49.164,0,0,0,2.376,42.417a1.44,1.44,0,0,0,2.854.392,46.28,46.28,0,0,1,92.122,6.357A45.79,45.79,0,0,1,87.239,78.05a1.441,1.441,0,1,0,2.25,1.8A49.178,49.178,0,0,0,85.836,14.4Z" transform="translate(-1.917)"/>
        <path id="Trazado_100711" data-name="Trazado 100711" d="M162.06,110.518a3.66,3.66,0,0,1,3.656,0l5.238,3.024a1.44,1.44,0,0,0,1.44-2.495l-5.237-3.024a6.539,6.539,0,0,0-9.809,5.663v14.008l-6.424-3.717A4.632,4.632,0,0,0,146.287,132l6.517,3.772-6.53,3.806a4.632,4.632,0,1,0,4.665,8l6.411-3.737v13.945a6.541,6.541,0,0,0,9.809,5.663l16.052-9.269a6.657,6.657,0,0,0,0-11.533l-10.1-5.833-1.86-1.076,1.145-.668,0,0,10.809-6.244a6.657,6.657,0,0,0,0-11.533l-4.938-2.851a1.44,1.44,0,0,0-1.44,2.495l4.938,2.851a3.776,3.776,0,0,1,0,6.542l-13.4,7.741-3.479-2.013,4.16-2.425.042-.024,9.181-5.3a1.44,1.44,0,0,0,0-2.495l-12.381-7.149a1.44,1.44,0,0,0-2.161,1.247V129.4l-1.712,1-1.789-1.035V113.687A3.668,3.668,0,0,1,162.06,110.518Zm4.551,17.2v-9.309l8.06,4.654-6.926,4-.017.009-.179.1Zm-17.122,17.374a1.734,1.734,0,0,1-.881.24,1.752,1.752,0,0,1-.885-3.265l7.951-4.634,2.387,1.381.007,0,.4.23.7.4Zm34.17,3.325a3.787,3.787,0,0,1-1.89,3.272l-16.053,9.269a3.659,3.659,0,0,1-5.487-3.168V142.163l1.807-1.054,1.694.98v13.473a1.44,1.44,0,0,0,2.161,1.247l12.381-7.149a1.44,1.44,0,0,0,0-2.495L147.73,129.5a1.751,1.751,0,1,1,1.752-3.032l32.288,18.672A3.786,3.786,0,0,1,183.659,148.413Zm-17.048-4.654,2.349,1.356.01.006,5.7,3.291-8.06,4.654v-9.308Z" transform="translate(-116.329 -86.57)"/>
      </g>
    </g>
  </g>
</svg>
