<svg xmlns="http://www.w3.org/2000/svg" width="114" height="132.184" viewBox="0 0 114 132.184">
  <g id="Grupo_58645" data-name="Grupo 58645" transform="translate(-180 -988.816)">
    <circle id="Elipse_4067" data-name="Elipse 4067" cx="57" cy="57" r="57" transform="translate(180 1007)" fill="#ffa726"/>
    <g id="impresora" transform="translate(179.914 988.816)">
      <g id="Grupo_54537" data-name="Grupo 54537" transform="translate(1.697 1.611)">
        <path id="Trazado_100729" data-name="Trazado 100729" d="M147.371,105.666H65.527V77.532a3.222,3.222,0,0,1,3.222-3.222h75.4a3.222,3.222,0,0,1,3.222,3.222Z" transform="translate(-53.079 -59.956)" fill="#444"/>
        <path id="Trazado_100730" data-name="Trazado 100730" d="M171.908,50.49H108.551V9.648A2.148,2.148,0,0,1,110.7,7.5H169.76a2.148,2.148,0,0,1,2.148,2.148V50.49Z" transform="translate(-86.859 -7.5)" fill="#d3e1f5"/>
        <path id="Trazado_100731" data-name="Trazado 100731" d="M108.313,249.98H13.6a6.013,6.013,0,0,1-6.013-6.013V207.6h106.74v36.369a6.014,6.014,0,0,1-6.013,6.013Z" transform="translate(-7.586 -164.608)" fill="#bfbfbf"/>
        <path id="Trazado_100732" data-name="Trazado 100732" d="M71.064,307.538V283.482a2.577,2.577,0,0,1,2.577-2.577h74.31a2.577,2.577,0,0,1,2.577,2.577v24.055Z" transform="translate(-57.426 -222.166)" fill="#5a5a5a"/>
        <path id="Trazado_100733" data-name="Trazado 100733" d="M169.76,355.184H110.7a2.148,2.148,0,0,1-2.148-2.148v-38.71h63.357v38.71A2.148,2.148,0,0,1,169.76,355.184Z" transform="translate(-86.859 -248.406)" fill="#d3e1f5"/>
        <path id="Trazado_100734" data-name="Trazado 100734" d="M172.667,406.882H159.351a1.074,1.074,0,0,1-1.074-1.074V392.493a1.074,1.074,0,0,1,1.074-1.074h13.316a1.074,1.074,0,0,1,1.074,1.074v13.316A1.074,1.074,0,0,1,172.667,406.882Z" transform="translate(-125.902 -308.936)" fill="#528fd8"/>
        <path id="Trazado_100735" data-name="Trazado 100735" d="M442.767,207.6v36.369a6.013,6.013,0,0,1-6.013,6.013h8.523a6.013,6.013,0,0,0,6.013-6.013V207.6Z" transform="translate(-344.549 -164.607)" fill="#acacac"/>
        <path id="Trazado_100736" data-name="Trazado 100736" d="M114.326,173.611H7.586V162.3a6.013,6.013,0,0,1,6.013-6.013h94.713a6.013,6.013,0,0,1,6.013,6.013Z" transform="translate(-7.586 -124.322)" fill="#838383"/>
        <path id="Trazado_100737" data-name="Trazado 100737" d="M445.276,156.287h-8.523a6.013,6.013,0,0,1,6.013,6.013v11.31h8.523V162.3A6.014,6.014,0,0,0,445.276,156.287Z" transform="translate(-344.549 -124.321)" fill="#5a5a5a"/>
        <path id="Trazado_100738" data-name="Trazado 100738" d="M411.111,188.622h-7.839a3.007,3.007,0,1,1,0-6.013h7.839a3.007,3.007,0,1,1,0,6.013Z" transform="translate(-315.9 -144.988)" fill="#e94444"/>
      </g>
      <g id="Grupo_54538" data-name="Grupo 54538" transform="translate(0.086 0)">
        <path id="Trazado_100739" data-name="Trazado 100739" d="M102.424,31.966H97.6V19.187a4.838,4.838,0,0,0-4.833-4.833H88.358V3.759A3.764,3.764,0,0,0,84.6,0H25.537a3.763,3.763,0,0,0-3.759,3.759V14.354h-4.41a4.838,4.838,0,0,0-4.833,4.833V31.966H7.711A7.634,7.634,0,0,0,.086,39.591V80.97a7.634,7.634,0,0,0,7.625,7.625H21.778v3.384a1.611,1.611,0,0,0,3.223,0V69.142H85.135v37.1a.537.537,0,0,1-.536.536H25.537a.537.537,0,0,1-.536-.536V99.5a1.611,1.611,0,0,0-3.223,0v6.743A3.763,3.763,0,0,0,25.537,110H84.6a3.763,3.763,0,0,0,3.759-3.759V88.595h14.067a7.634,7.634,0,0,0,7.625-7.625V72.345a1.611,1.611,0,0,0-3.223,0V80.97a4.407,4.407,0,0,1-4.4,4.4H96.411V62.928a4.193,4.193,0,0,0-4.189-4.189H17.913a4.193,4.193,0,0,0-4.189,4.189V85.372H7.711a4.407,4.407,0,0,1-4.4-4.4V52.512H106.826V64.826a1.611,1.611,0,0,0,3.223,0V39.591a7.634,7.634,0,0,0-7.625-7.625ZM16.947,62.928a.967.967,0,0,1,.966-.966h74.31a.967.967,0,0,1,.966.966V85.372H88.357V67.531a1.611,1.611,0,0,0-1.611-1.611H23.389a1.611,1.611,0,0,0-1.611,1.611V85.372H16.947ZM88.357,17.576h4.411a1.612,1.612,0,0,1,1.61,1.61V31.966H88.357ZM25,15.965V3.759a.537.537,0,0,1,.536-.536H84.6a.537.537,0,0,1,.536.536V31.966H25Zm-9.243,3.222a1.612,1.612,0,0,1,1.61-1.61h4.411v14.39H15.757Zm91.069,30.1H3.309v-9.7a4.407,4.407,0,0,1,4.4-4.4h94.713a4.407,4.407,0,0,1,4.4,4.4Z" transform="translate(-0.086 0)"/>
        <path id="Trazado_100740" data-name="Trazado 100740" d="M194.379,347.932h-41.99a1.611,1.611,0,1,0,0,3.223h41.99a1.611,1.611,0,0,0,0-3.223Z" transform="translate(-118.402 -273.181)"/>
        <path id="Trazado_100741" data-name="Trazado 100741" d="M275.816,383.919H256.109a1.611,1.611,0,0,0,0,3.223h19.707a1.611,1.611,0,0,0,0-3.223Z" transform="translate(-199.839 -301.436)"/>
        <path id="Trazado_100742" data-name="Trazado 100742" d="M275.816,419.907H256.109a1.611,1.611,0,1,0,0,3.223h19.707a1.611,1.611,0,0,0,0-3.223Z" transform="translate(-199.839 -329.693)"/>
        <path id="Trazado_100743" data-name="Trazado 100743" d="M275.816,455.895H256.109a1.611,1.611,0,1,0,0,3.223h19.707a1.611,1.611,0,0,0,0-3.223Z" transform="translate(-199.839 -357.949)"/>
        <path id="Trazado_100744" data-name="Trazado 100744" d="M150.777,399.92a2.688,2.688,0,0,0,2.685,2.685h13.316a2.688,2.688,0,0,0,2.685-2.685V386.6a2.688,2.688,0,0,0-2.685-2.685H153.462a2.688,2.688,0,0,0-2.685,2.685ZM154,387.142H166.24v12.241H154Z" transform="translate(-118.402 -301.436)"/>
        <path id="Trazado_100745" data-name="Trazado 100745" d="M405.222,175.109h-7.839a4.618,4.618,0,1,0,0,9.236h7.839a4.618,4.618,0,1,0,0-9.236Zm0,6.013h-7.839a1.4,1.4,0,1,1,0-2.791h7.839a1.4,1.4,0,1,1,0,2.791Z" transform="translate(-308.4 -137.488)"/>
      </g>
    </g>
  </g>
</svg>
