<svg xmlns="http://www.w3.org/2000/svg" width="108.347" height="114" viewBox="0 0 108.347 114">
  <g id="Grupo_58648" data-name="Grupo 58648" transform="translate(-821 -1312.184)">
    <circle id="Elipse_4072" data-name="Elipse 4072" cx="53.702" cy="53.702" r="53.702" transform="translate(821.942 1318.778)" fill="#4dd0e1"/>
    <g id="almacenamiento-de-base-de-datos" transform="translate(821 1312.184)">
      <g id="Grupo_54556" data-name="Grupo 54556" transform="translate(1.596 1.596)">
        <g id="Grupo_54546" data-name="Grupo 54546" transform="translate(12.765 28.72)">
          <path id="Trazado_100789" data-name="Trazado 100789" d="M61.058,20V32.765c0,3.526-11.424,6.382-25.529,6.382S10,36.291,10,32.765V20c0,3.526,11.424,6.382,25.529,6.382S61.058,23.526,61.058,20Z" transform="translate(-10 -20)" fill="#fcd770"/>
        </g>
        <g id="Grupo_54547" data-name="Grupo 54547" transform="translate(39.347 54.25)">
          <path id="Trazado_100790" data-name="Trazado 100790" d="M51.136,36V48.765c0,2.968-8.137,5.457-19.147,6.175V50.36l-4.1-1.037a19,19,0,0,0-1.229-2.936l2.17-3.654C41.579,42.382,51.136,39.287,51.136,36Z" transform="translate(-26.66 -36)" fill="#fcd770"/>
        </g>
        <g id="Grupo_54548" data-name="Grupo 54548" transform="translate(12.765 41.485)">
          <path id="Trazado_100791" data-name="Trazado 100791" d="M10,28c0,3.526,11.424,6.382,25.529,6.382S61.058,31.526,61.058,28V40.765c0,3.287-9.557,6.382-22.306,6.733l-6.765-6.765L28.333,42.9A19,19,0,0,0,25.4,41.674l-1.037-4.1H14.787l-1.037,4.1A19,19,0,0,0,10.814,42.9L10,42.424Z" transform="translate(-10 -28)" fill="#ffeaa7"/>
        </g>
        <g id="Grupo_54549" data-name="Grupo 54549" transform="translate(12.422 22.567)">
          <ellipse id="Elipse_4081" data-name="Elipse 4081" cx="25.7" cy="6.23" rx="25.7" ry="6.23" transform="translate(0 0)" fill="#ffeaa7"/>
        </g>
        <g id="Grupo_54550" data-name="Grupo 54550" transform="translate(0 51.058)">
          <path id="Trazado_100792" data-name="Trazado 100792" d="M46.676,56.131v4.994l-4.1,1.037A19,19,0,0,1,41.347,65.1l2.17,3.654-6.765,6.765L33.1,73.347a19,19,0,0,1-2.936,1.229l-1.037,4.1H19.551l-1.037-4.1a19,19,0,0,1-2.936-1.229l-3.654,2.17L5.159,68.752,7.329,65.1A19,19,0,0,1,6.1,62.162L2,61.125V51.551l4.1-1.037a19,19,0,0,1,1.229-2.936l-2.17-3.654,6.765-6.765,2.84,1.691.814.479A19,19,0,0,1,18.514,38.1L19.551,34h9.573l1.037,4.1A19,19,0,0,1,33.1,39.329l3.654-2.17,6.765,6.765-2.17,3.654a19,19,0,0,1,1.229,2.936l4.1,1.037Zm-9.573.207A12.765,12.765,0,1,0,24.338,69.1,12.761,12.761,0,0,0,37.1,56.338Z" transform="translate(-2 -34)" fill="#ffc729"/>
        </g>
        <g id="Grupo_54551" data-name="Grupo 54551" transform="translate(9.573 60.632)">
          <path id="Trazado_100793" data-name="Trazado 100793" d="M20.765,40A12.765,12.765,0,1,1,8,52.765,12.761,12.761,0,0,1,20.765,40Zm6.382,12.765a6.382,6.382,0,1,0-6.382,6.382A6.381,6.381,0,0,0,27.147,52.765Z" transform="translate(-8 -40)" fill="#fcd770"/>
        </g>
        <g id="Grupo_54552" data-name="Grupo 54552" transform="translate(73.396)">
          <path id="Trazado_100794" data-name="Trazado 100794" d="M70.338,2V33.911H48V2Z" transform="translate(-48 -2)" fill="#e6e9ed"/>
        </g>
        <g id="Grupo_54553" data-name="Grupo 54553" transform="translate(73.396 63.823)">
          <path id="Trazado_100795" data-name="Trazado 100795" d="M70.338,42V73.911H48V42H70.338Z" transform="translate(-48 -42)" fill="#e6e9ed"/>
        </g>
        <g id="Grupo_54554" data-name="Grupo 54554" transform="translate(79.779 82.97)">
          <path id="Trazado_100796" data-name="Trazado 100796" d="M52,54h9.573v6.382H52Z" transform="translate(-52 -54)" fill="#b4dd7f"/>
        </g>
        <g id="Grupo_54555" data-name="Grupo 54555" transform="translate(79.398 42.816)">
          <circle id="Elipse_4082" data-name="Elipse 4082" cx="5.062" cy="5.062" r="5.062" transform="translate(0 0)" fill="#ff826e"/>
        </g>
      </g>
      <g id="Grupo_54563" data-name="Grupo 54563" transform="translate(0 0)">
        <g id="Grupo_54557" data-name="Grupo 54557" transform="translate(12.765 30.316)">
          <path id="Trazado_100797" data-name="Trazado 100797" d="M9,20h3.191V47.182H9Z" transform="translate(-9 -20)"/>
        </g>
        <g id="Grupo_54558" data-name="Grupo 54558" transform="translate(46.168 30.316)">
          <path id="Trazado_100798" data-name="Trazado 100798" d="M30.141,66.059l-.206-3.185c12.4-.8,17.655-3.6,17.655-4.581V20h3.191V58.294C50.781,64.263,34.983,65.747,30.141,66.059Z" transform="translate(-29.935 -20)"/>
        </g>
        <g id="Grupo_54559" data-name="Grupo 54559" transform="translate(9.573 60.632)">
          <path id="Trazado_100799" data-name="Trazado 100799" d="M21.36,67.72A14.36,14.36,0,1,1,35.72,53.36,14.377,14.377,0,0,1,21.36,67.72Zm0-25.529A11.169,11.169,0,1,0,32.529,53.36,11.182,11.182,0,0,0,21.36,42.191Z" transform="translate(-7 -39)"/>
        </g>
        <g id="Grupo_54560" data-name="Grupo 54560" transform="translate(0 51.058)">
          <path id="Trazado_100800" data-name="Trazado 100800" d="M30.96,80.867H18.906L17.768,76.4c-.509-.19-1.02-.4-1.525-.638l-3.971,2.36L3.748,69.595l2.361-3.971c-.235-.506-.448-1.018-.638-1.525L1,62.96V50.906l4.471-1.138c.19-.507.4-1.02.638-1.525L3.748,44.271l8.524-8.524,3.971,2.36c.506-.235,1.016-.448,1.525-.638L18.907,33H30.962L32.1,37.471c.509.19,1.02.4,1.525.638l3.971-2.36,8.524,8.524-2.361,3.971c.235.506.448,1.018.638,1.525l4.471,1.138V62.962L44.4,64.1c-.19.507-.4,1.02-.638,1.525L46.12,69.6,37.6,78.12l-3.971-2.36c-.506.235-1.016.448-1.525.638Zm-9.573-3.191h7.092l.956-3.756.842-.268a17.56,17.56,0,0,0,2.685-1.123l.787-.408,3.344,1.988,5.015-5.015L40.12,65.751l.405-.785a17.516,17.516,0,0,0,1.123-2.69l.27-.842,3.758-.953V53.388l-3.756-.954-.27-.842a17.516,17.516,0,0,0-1.123-2.69l-.405-.785,1.988-3.343L37.1,39.759l-3.344,1.988-.787-.408a17.56,17.56,0,0,0-2.685-1.123l-.842-.268-.956-3.756H21.388l-.956,3.756-.842.268A17.56,17.56,0,0,0,16.9,41.338l-.787.408-3.344-1.988L7.759,44.774l1.988,3.343-.405.785a17.516,17.516,0,0,0-1.123,2.69l-.271.842-3.756.953v7.092l3.756.954.27.842a17.516,17.516,0,0,0,1.123,2.69l.405.785L7.757,69.093l5.015,5.015,3.344-1.988.787.408a17.56,17.56,0,0,0,2.685,1.123l.842.268Z" transform="translate(-1 -33)"/>
        </g>
        <g id="Grupo_54561" data-name="Grupo 54561" transform="translate(15.956 67.014)">
          <path id="Trazado_100801" data-name="Trazado 100801" d="M18.978,58.956a7.978,7.978,0,1,1,7.978-7.978A7.987,7.987,0,0,1,18.978,58.956Zm0-12.765a4.787,4.787,0,1,0,4.787,4.787A4.793,4.793,0,0,0,18.978,46.191Z" transform="translate(-11 -43)"/>
        </g>
        <g id="Grupo_54562" data-name="Grupo 54562" transform="translate(12.765)">
          <path id="Trazado_100802" data-name="Trazado 100802" d="M36.125,30.956c9.382,0,27.125-1.667,27.125-7.978S45.507,15,36.125,15,9,16.667,9,22.978,26.743,30.956,36.125,30.956Zm0-12.765c15.547,0,23.934,3.4,23.934,4.787s-8.386,4.787-23.934,4.787-23.934-3.4-23.934-4.787S20.577,18.191,36.125,18.191Z" transform="translate(-9 7.338)"/>
          <path id="Trazado_100803" data-name="Trazado 100803" d="M29.206,30.192c1.058-.041,2.14-.1,3.237-.182l-.23-3.182c-1.063.077-2.113.134-3.137.176Z" transform="translate(2.957 14.383)"/>
          <path id="Trazado_100804" data-name="Trazado 100804" d="M33.345,29.974c1.08-.118,2.162-.257,3.233-.421L36.094,26.4c-1.026.158-2.061.29-3.1.4Z" transform="translate(5.293 14.126)"/>
          <path id="Trazado_100805" data-name="Trazado 100805" d="M37.509,29.451c1.117-.233,2.2-.5,3.21-.791l-.881-3.067c-.938.27-1.943.515-2.985.736Z" transform="translate(7.589 13.647)"/>
          <path id="Trazado_100806" data-name="Trazado 100806" d="M33,42.86l.346,3.172c1.08-.118,2.162-.257,3.233-.421L36.1,42.456c-1.026.16-2.061.292-3.1.4Z" transform="translate(5.294 23.69)"/>
          <path id="Trazado_100807" data-name="Trazado 100807" d="M36.853,42.385l.656,3.123c1.13-.236,2.21-.5,3.21-.79l-.881-3.067c-.925.265-1.929.514-2.985.734Z" transform="translate(7.589 23.211)"/>
          <path id="Trazado_100808" data-name="Trazado 100808" d="M63.25,28H60.058c0,1.39-8.386,4.787-23.934,4.787S12.191,29.39,12.191,28H9c0,6.311,17.743,7.978,27.125,7.978S63.25,34.311,63.25,28Z" transform="translate(-9 15.081)"/>
          <path id="Trazado_100809" data-name="Trazado 100809" d="M27.993,41.141l.089,3.191C39.572,44.01,51.938,41.265,51.938,36H48.747C48.747,37.363,41.686,40.756,27.993,41.141Z" transform="translate(2.312 19.845)"/>
          <path id="Trazado_100810" data-name="Trazado 100810" d="M75.507,36.1V1H49.978V36.1H61.147v8.2a6.374,6.374,0,0,0-4.56,4.56H42v3.191H56.587a6.374,6.374,0,0,0,4.56,4.56v8.2H49.978v35.1H75.507v-35.1H64.338v-8.2a6.351,6.351,0,0,0,0-12.311V36.1ZM72.316,96.734H53.169V68.014H72.316ZM65.934,50.463a3.191,3.191,0,1,1-3.191-3.191A3.194,3.194,0,0,1,65.934,50.463ZM53.169,4.191H72.316v28.72H53.169Z" transform="translate(10.654 -1)"/>
          <path id="Trazado_100811" data-name="Trazado 100811" d="M51,45H63.765v3.191H51Z" transform="translate(16.014 25.205)"/>
          <path id="Trazado_100812" data-name="Trazado 100812" d="M63.765,53H51v9.573H63.765Zm-3.191,6.382H54.191V56.191h6.382Z" transform="translate(16.014 29.97)"/>
          <path id="Trazado_100813" data-name="Trazado 100813" d="M51,5H63.765V8.191H51Z" transform="translate(16.014 1.382)"/>
          <path id="Trazado_100814" data-name="Trazado 100814" d="M51,9H63.765v3.191H51Z" transform="translate(16.014 3.765)"/>
          <path id="Trazado_100815" data-name="Trazado 100815" d="M51,13H63.765v3.191H51Z" transform="translate(16.014 6.147)"/>
          <path id="Trazado_100816" data-name="Trazado 100816" d="M51,17H63.765v3.191H51Z" transform="translate(16.014 8.529)"/>
          <path id="Trazado_100817" data-name="Trazado 100817" d="M51,49H63.765v3.191H51Z" transform="translate(16.014 27.588)"/>
          <path id="Trazado_100818" data-name="Trazado 100818" d="M27,19h3.191v3.191H27Z" transform="translate(1.72 9.72)"/>
          <path id="Trazado_100819" data-name="Trazado 100819" d="M31,19h3.191v3.191H31Z" transform="translate(4.103 9.72)"/>
          <path id="Trazado_100820" data-name="Trazado 100820" d="M35,19h3.191v3.191H35Z" transform="translate(6.485 9.72)"/>
          <path id="Trazado_100821" data-name="Trazado 100821" d="M15,19h3.191v3.191H15Z" transform="translate(-5.427 9.72)"/>
          <path id="Trazado_100822" data-name="Trazado 100822" d="M19,19h3.191v3.191H19Z" transform="translate(-3.044 9.72)"/>
          <path id="Trazado_100823" data-name="Trazado 100823" d="M23,19h3.191v3.191H23Z" transform="translate(-0.662 9.72)"/>
        </g>
      </g>
    </g>
  </g>
</svg>
