<svg xmlns="http://www.w3.org/2000/svg" width="100.667" height="106.848" viewBox="0 0 100.667 106.848">
  <g id="Grupo_58624" data-name="Grupo 58624" transform="translate(-391 -1478.184)">
    <circle id="Elipse_4080" data-name="Elipse 4080" cx="50.333" cy="50.333" r="50.333" transform="translate(391 1484.365)" fill="#4dd0e1"/>
    <g id="digital" transform="translate(395.415 1478.184)">
      <path id="Trazado_100824" data-name="Trazado 100824" d="M67.909,29.928H49.964a3,3,0,0,0-2.991,2.991v2.991H38V6H64.918a3,3,0,0,1,2.991,2.991Z" transform="translate(17.332 1.477)" fill="#e6e9ed"/>
      <path id="Trazado_100825" data-name="Trazado 100825" d="M59.946,15.1v.269a5.107,5.107,0,0,1-1.5,3.6L50.973,26.45,43.5,18.973a5.107,5.107,0,0,1-1.5-3.6V15.1A5.106,5.106,0,0,1,47.1,10h.269a5.107,5.107,0,0,1,3.6,1.5,5.107,5.107,0,0,1,3.6-1.5h.269A5.106,5.106,0,0,1,59.946,15.1Z" transform="translate(19.314 3.459)" fill="#ff826e"/>
      <path id="Trazado_100826" data-name="Trazado 100826" d="M61.946,45.928H44V24.991A3,3,0,0,1,46.991,22H67.928a3,3,0,0,1,2.991,2.991V45.928a3,3,0,0,1-2.991,2.991H64.937A3,3,0,0,0,61.946,45.928Z" transform="translate(20.305 9.405)" fill="#ffeaa7"/>
      <path id="Trazado_100827" data-name="Trazado 100827" d="M62.955,33.477,48,40.955V26Z" transform="translate(22.287 11.387)" fill="#ff826e"/>
      <path id="Trazado_100828" data-name="Trazado 100828" d="M67.909,40.991V64.918a3,3,0,0,1-2.991,2.991H38V38H64.918A3,3,0,0,1,67.909,40.991Z" transform="translate(17.332 17.332)" fill="#b4dd7f"/>
      <circle id="Elipse_4083" data-name="Elipse 4083" cx="3.028" cy="3.028" r="3.028" transform="translate(61.308 73.04)" fill="#fcd770"/>
      <path id="Trazado_100829" data-name="Trazado 100829" d="M55.837,55.837V85.746a5.98,5.98,0,0,1-5.982,5.982H7.982A5.98,5.98,0,0,1,2,85.746V7.982A5.98,5.98,0,0,1,7.982,2H49.855a5.98,5.98,0,0,1,5.982,5.982V55.837Z" transform="translate(-0.505 -0.505)" fill="#aab2bd"/>
      <path id="Trazado_100830" data-name="Trazado 100830" d="M47.873,11.5v62.81a1.5,1.5,0,0,1-1.5,1.5H7.5a1.5,1.5,0,0,1-1.5-1.5V11.5A1.5,1.5,0,0,1,7.5,10H46.378A1.5,1.5,0,0,1,47.873,11.5Z" transform="translate(1.477 3.459)" fill="#69d6f4"/>
      <path id="Trazado_100831" data-name="Trazado 100831" d="M10,22h5.982v5.982H10Z" transform="translate(3.459 9.405)" fill="#fcd770"/>
      <path id="Trazado_100832" data-name="Trazado 100832" d="M18,14h5.982v5.982H18Z" transform="translate(7.423 5.441)" fill="#fcd770"/>
      <path id="Trazado_100833" data-name="Trazado 100833" d="M26,14h5.982v5.982H26Z" transform="translate(11.387 5.441)" fill="#e6e9ed"/>
      <g id="Grupo_54564" data-name="Grupo 54564" transform="translate(13.459 19.441)">
        <path id="Trazado_100834" data-name="Trazado 100834" d="M26,22h5.982v5.982H26Z" transform="translate(-2.072 -10.036)" fill="#ff826e"/>
        <path id="Trazado_100835" data-name="Trazado 100835" d="M18,22h5.982v5.982H18Z" transform="translate(-6.036 -10.036)" fill="#ff826e"/>
        <path id="Trazado_100836" data-name="Trazado 100836" d="M10,14h5.982v5.982H10Z" transform="translate(-10 -14)" fill="#ff826e"/>
      </g>
      <path id="Trazado_100837" data-name="Trazado 100837" d="M36.773,38v1.5L33.782,49.964H17.332L16.33,38Z" transform="translate(6.596 17.332)" fill="#fcd770"/>
      <circle id="Elipse_4084" data-name="Elipse 4084" cx="3.028" cy="3.028" r="3.028" transform="translate(37.088 66.985)" fill="#aab2bd"/>
      <circle id="Elipse_4085" data-name="Elipse 4085" cx="3.028" cy="3.028" r="3.028" transform="translate(21.193 66.985)" fill="#aab2bd"/>
      <path id="Trazado_100838" data-name="Trazado 100838" d="M18.973,34.991l.254,2.991H12.991A3.013,3.013,0,0,1,10,34.991,3,3,0,0,1,12.991,32h2.991A3,3,0,0,1,18.973,34.991Z" transform="translate(3.459 14.36)" fill="#aab2bd"/>
      <path id="Trazado_100839" data-name="Trazado 100839" d="M46.873,9H7.991A2.994,2.994,0,0,0,5,11.991V74.8a2.994,2.994,0,0,0,2.991,2.991H46.873A2.994,2.994,0,0,0,49.864,74.8V11.991A2.994,2.994,0,0,0,46.873,9ZM7.991,74.8V11.991H46.873V74.8Z" transform="translate(0.982 2.964)"/>
      <path id="Trazado_100840" data-name="Trazado 100840" d="M19,5h8.973V7.991H19Z" transform="translate(7.918 0.982)"/>
      <path id="Trazado_100841" data-name="Trazado 100841" d="M15,5h2.991V7.991H15Z" transform="translate(5.937 0.982)"/>
      <path id="Trazado_100842" data-name="Trazado 100842" d="M15,57H29.955v2.991H15Z" transform="translate(5.937 26.746)"/>
      <path id="Trazado_100843" data-name="Trazado 100843" d="M41.9,39.973H21.339l-.375-4.486A4.492,4.492,0,0,0,16.477,31H13.486a4.486,4.486,0,0,0,0,8.973h4.856l1.023,12.272a4.481,4.481,0,1,0,6.085,4.178,4.436,4.436,0,0,0-.275-1.5H33.2a4.4,4.4,0,0,0-.277,1.5,4.486,4.486,0,1,0,6.35-4.069l2.566-8.979ZM13.486,36.982a1.5,1.5,0,0,1,0-2.991h2.991a1.536,1.536,0,0,1,1.5,1.62l.115,1.371ZM38.85,42.964l-2.563,8.973H22.34l-.751-8.973ZM22.459,56.423a1.5,1.5,0,1,1-1.5-1.5A1.5,1.5,0,0,1,22.459,56.423Zm14.955,1.5a1.5,1.5,0,1,1,1.5-1.5A1.5,1.5,0,0,1,37.414,57.918Z" transform="translate(2.964 13.864)"/>
      <path id="Trazado_100844" data-name="Trazado 100844" d="M17.973,13H9v8.973h8.973Zm-2.991,5.982H11.991V15.991h2.991Z" transform="translate(2.964 4.946)"/>
      <path id="Trazado_100845" data-name="Trazado 100845" d="M25.973,13H17v8.973h8.973Zm-2.991,5.982H19.991V15.991h2.991Z" transform="translate(6.928 4.946)"/>
      <path id="Trazado_100846" data-name="Trazado 100846" d="M25,21.973h8.973V13H25Zm2.991-5.982h2.991v2.991H27.991Z" transform="translate(10.891 4.946)"/>
      <path id="Trazado_100847" data-name="Trazado 100847" d="M17.973,21H9v8.973h8.973Zm-2.991,5.982H11.991V23.991h2.991Z" transform="translate(2.964 8.909)"/>
      <path id="Trazado_100848" data-name="Trazado 100848" d="M25.973,21H17v8.973h8.973Zm-2.991,5.982H19.991V23.991h2.991Z" transform="translate(6.928 8.909)"/>
      <path id="Trazado_100849" data-name="Trazado 100849" d="M25,29.973h8.973V21H25Zm2.991-5.982h2.991v2.991H27.991Z" transform="translate(10.891 8.909)"/>
      <path id="Trazado_100850" data-name="Trazado 100850" d="M45.486,49a4.486,4.486,0,1,0,4.486,4.486A4.492,4.492,0,0,0,45.486,49Zm0,5.982a1.5,1.5,0,1,1,1.5-1.5A1.5,1.5,0,0,1,45.486,54.982Z" transform="translate(18.819 22.783)"/>
      <path id="Trazado_100851" data-name="Trazado 100851" d="M44,45v2.991a7.486,7.486,0,0,1,7.477,7.477h2.991A10.48,10.48,0,0,0,44,45Z" transform="translate(20.305 20.801)"/>
      <path id="Trazado_100852" data-name="Trazado 100852" d="M44,41v2.991A13.476,13.476,0,0,1,57.459,57.45H60.45A16.47,16.47,0,0,0,44,41Z" transform="translate(20.305 18.819)"/>
      <path id="Trazado_100853" data-name="Trazado 100853" d="M89.233,30.909h-1.5V11.468a4.492,4.492,0,0,0-4.486-4.486H57.677A7.491,7.491,0,0,0,50.351,1H8.477A7.486,7.486,0,0,0,1,8.477V86.242a7.486,7.486,0,0,0,7.477,7.477H50.351a7.491,7.491,0,0,0,7.326-5.982H83.251a4.492,4.492,0,0,0,4.486-4.486V60.819h1.5a4.492,4.492,0,0,0,4.486-4.486V35.4A4.492,4.492,0,0,0,89.233,30.909Zm-34.4,55.332a4.492,4.492,0,0,1-4.486,4.486H8.477a4.492,4.492,0,0,1-4.486-4.486V8.477A4.492,4.492,0,0,1,8.477,3.991H50.351a4.492,4.492,0,0,1,4.486,4.486ZM84.746,11.468V30.909H73.4l6.42-6.42a6.554,6.554,0,0,0,1.934-4.667v-.257a6.608,6.608,0,0,0-6.6-6.6H74.9a6.547,6.547,0,0,0-3.61,1.072,6.547,6.547,0,0,0-3.61-1.072H67.42a6.608,6.608,0,0,0-6.6,6.6v.257a6.554,6.554,0,0,0,1.934,4.667l6.42,6.42H68.3A4.492,4.492,0,0,0,63.81,35.4v1.5H57.828V9.973H83.251a1.5,1.5,0,0,1,1.5,1.5ZM71.287,28.795l-6.42-6.42a3.638,3.638,0,0,1-1.057-2.553v-.257a3.614,3.614,0,0,1,3.61-3.61h.257a3.638,3.638,0,0,1,2.553,1.057l1.057,1.057,1.057-1.057A3.638,3.638,0,0,1,74.9,15.955h.257a3.614,3.614,0,0,1,3.61,3.61v.257a3.638,3.638,0,0,1-1.057,2.553ZM57.828,54.837V39.882H63.81V54.837ZM84.746,83.251a1.5,1.5,0,0,1-1.5,1.5H57.828V57.828H83.251a1.5,1.5,0,0,1,1.5,1.5Zm5.982-26.919a1.5,1.5,0,0,1-1.5,1.5H87.462a4.48,4.48,0,0,0-4.211-2.991H71.64l17.946-8.973-19.794-9.9v18.87H66.8V35.4a1.5,1.5,0,0,1,1.5-1.5H89.233a1.5,1.5,0,0,1,1.5,1.5ZM72.783,50.922V40.806L82.9,45.864Z" transform="translate(-1 -1)"/>
    </g>
  </g>
</svg>
