<svg xmlns="http://www.w3.org/2000/svg" width="99.333" height="105.433" viewBox="0 0 99.333 105.433">
  <g id="Grupo_58623" data-name="Grupo 58623" transform="translate(-401.667 -1312.184)">
    <ellipse id="Elipse_4071" data-name="Elipse 4071" cx="49.667" cy="49.667" rx="49.667" ry="49.667" transform="translate(401.667 1318.283)" fill="#4dd0e1"/>
    <g id="carpeta" transform="translate(406.023 1312.184)">
      <g id="Grupo_54545" data-name="Grupo 54545" transform="translate(1.34 1.341)">
        <path id="Trazado_100784" data-name="Trazado 100784" d="M108.247,7.5H48.763A8.764,8.764,0,0,0,40,16.264V56.346h77.012V16.264A8.764,8.764,0,0,0,108.247,7.5Z" transform="translate(-34.192 -7.5)" fill="#dddaec"/>
        <path id="Trazado_100785" data-name="Trazado 100785" d="M108.247,60.19H48.763A8.764,8.764,0,0,0,40,68.954v40.081h77.012V68.954A8.764,8.764,0,0,0,108.247,60.19Z" transform="translate(-34.192 -50.775)" fill="#f9f6f9"/>
        <path id="Trazado_100786" data-name="Trazado 100786" d="M96.311,134.707v29.985a12.583,12.583,0,0,1-12.583,12.583H20.083A12.583,12.583,0,0,1,7.5,164.693V122.125A16.045,16.045,0,0,1,23.545,106.08H35.666a16.045,16.045,0,0,1,16.045,16.045H83.728A12.583,12.583,0,0,1,96.311,134.707Z" transform="translate(-7.5 -88.464)" fill="#ffe07d"/>
        <path id="Trazado_100787" data-name="Trazado 100787" d="M32.6,177.275H20.084A12.584,12.584,0,0,1,7.5,164.693V122.125A16.045,16.045,0,0,1,23.545,106.08H35.666c.066,0,.132,0,.2,0a16.044,16.044,0,0,0-15.847,16.043v42.568A12.584,12.584,0,0,0,32.6,177.275Z" transform="translate(-7.5 -88.464)" fill="#ffd064"/>
      </g>
      <path id="Trazado_100788" data-name="Trazado 100788" d="M85.5,36.15V10.105A10.116,10.116,0,0,0,75.4,0H15.913A10.117,10.117,0,0,0,5.808,10.105V22.043A17.346,17.346,0,0,0,0,35V72.208a1.34,1.34,0,1,0,2.68,0V35a14.721,14.721,0,0,1,14.7-14.7H29.506A14.721,14.721,0,0,1,44.211,35a1.34,1.34,0,0,0,1.34,1.34H77.569A11.254,11.254,0,0,1,88.811,47.583V77.569A11.254,11.254,0,0,1,77.569,88.811H13.922A11.254,11.254,0,0,1,2.68,77.569a1.34,1.34,0,0,0-2.68,0A13.938,13.938,0,0,0,13.922,91.491H77.569A13.938,13.938,0,0,0,91.491,77.569V47.583A13.914,13.914,0,0,0,85.5,36.15ZM46.84,33.661A17.409,17.409,0,0,0,29.506,17.616H17.385a17.277,17.277,0,0,0-8.9,2.455v-.55A7.433,7.433,0,0,1,15.913,12.1h56.8a1.34,1.34,0,0,0,0-2.68h-56.8a10.079,10.079,0,0,0-7.425,3.26v-2.57A7.433,7.433,0,0,1,15.913,2.68H75.4a7.432,7.432,0,0,1,7.423,7.425v2.546a10.093,10.093,0,0,0-4.368-2.764,1.34,1.34,0,1,0-.809,2.555,7.394,7.394,0,0,1,5.178,7.078V34.692a13.842,13.842,0,0,0-5.25-1.031Z" transform="translate(0 0)"/>
    </g>
  </g>
</svg>
