<svg xmlns="http://www.w3.org/2000/svg" width="107" height="114.039" viewBox="0 0 107 114.039">
  <g id="Grupo_58649" data-name="Grupo 58649" transform="translate(-821 -1482.088)">
    <circle id="Elipse_4079" data-name="Elipse 4079" cx="53.5" cy="53.5" r="53.5" transform="translate(821 1489.127)" fill="#4dd0e1"/>
    <g id="servicios-de-apoyo" transform="translate(824.927 1482.088)">
      <path id="Trazado_100854" data-name="Trazado 100854" d="M72.835,17.184H44L52.474,8.71a9.567,9.567,0,0,0,5.943,2.066A9.615,9.615,0,0,0,62.71,9.767,9.011,9.011,0,0,0,64.36,8.71Z" transform="translate(24.882 3.641)" fill="#d3a06c"/>
      <path id="Trazado_100855" data-name="Trazado 100855" d="M65.184,2V21.223L56.71,12.749a8.361,8.361,0,0,0,1.746-1.778Z" transform="translate(32.533 -0.398)" fill="#dfb28b"/>
      <path id="Trazado_100856" data-name="Trazado 100856" d="M52.474,12.749,44,21.223V2l6.728,8.971A8.361,8.361,0,0,0,52.474,12.749Z" transform="translate(24.882 -0.398)" fill="#dfb28b"/>
      <path id="Trazado_100857" data-name="Trazado 100857" d="M72.835,2l-6.728,8.971a8.361,8.361,0,0,1-1.746,1.778,9.011,9.011,0,0,1-1.65,1.057,9.6,9.6,0,0,1-10.236-1.057,8.361,8.361,0,0,1-1.746-1.778L44,2Z" transform="translate(24.882 -0.398)" fill="#cf9e76"/>
      <path id="Trazado_100858" data-name="Trazado 100858" d="M13.213,2A11.213,11.213,0,1,1,2,13.213,11.205,11.205,0,0,1,13.213,2Z" transform="translate(-0.398 -0.398)" fill="#69d6f4"/>
      <g id="Grupo_54565" data-name="Grupo 54565" transform="translate(1.877 30.802)">
        <ellipse id="Elipse_4086" data-name="Elipse 4086" cx="3.285" cy="2.816" rx="3.285" ry="2.816" transform="translate(0.939 0)" fill="#ff826e"/>
        <ellipse id="Elipse_4087" data-name="Elipse 4087" cx="3.285" cy="2.816" rx="3.285" ry="2.816" transform="translate(0.939 31.912)" fill="#ff826e"/>
        <ellipse id="Elipse_4088" data-name="Elipse 4088" cx="3.285" cy="3.754" rx="3.285" ry="3.754" transform="translate(0 15.018)" fill="#ff826e"/>
        <ellipse id="Elipse_4089" data-name="Elipse 4089" cx="3.285" cy="3.754" rx="3.285" ry="3.754" transform="translate(89.167 15.018)" fill="#ff826e"/>
        <ellipse id="Elipse_4090" data-name="Elipse 4090" cx="3.285" cy="2.816" rx="3.285" ry="2.816" transform="translate(88.228 0)" fill="#ff826e"/>
        <ellipse id="Elipse_4091" data-name="Elipse 4091" cx="3.285" cy="2.816" rx="3.285" ry="2.816" transform="translate(88.228 31.912)" fill="#ff826e"/>
      </g>
      <path id="Trazado_100859" data-name="Trazado 100859" d="M63.223,50a9.619,9.619,0,0,1,9.611,9.612,9.626,9.626,0,0,1-9.611,9.611H53.612A9.619,9.619,0,0,1,44,59.611V50H63.223Z" transform="translate(24.882 28.494)" fill="#e6e9ed"/>
      <path id="Trazado_100860" data-name="Trazado 100860" d="M26.141,52.023,25.084,54.3c.064.144.112.3.176.449l2.371.865v6.408l-2.371.865c-.064.144-.112.3-.176.449l1.057,2.275-4.533,4.533-2.275-1.057c-.144.064-.3.112-.449.176l-.865,2.371H11.612l-.865-2.371c-.144-.064-.3-.112-.449-.176L8.023,70.141,3.49,65.607l1.057-2.275c-.064-.144-.112-.3-.176-.449L2,62.019V55.611l2.371-.865c.064-.144.112-.3.176-.449L3.49,52.023,8.023,47.49,10.3,48.547c.144-.064.3-.112.449-.176L11.612,46h6.408l.865,2.371c.144.064.3.112.449.176l2.275-1.057Zm-4.918,6.792a6.408,6.408,0,1,0-6.408,6.408A6.406,6.406,0,0,0,21.223,58.815Z" transform="translate(-0.398 26.086)" fill="#fcd770"/>
      <circle id="Elipse_4092" data-name="Elipse 4092" cx="29.096" cy="29.096" r="29.096" transform="translate(20.649 20.477)" fill="#b4dd7f"/>
      <path id="Trazado_100861" data-name="Trazado 100861" d="M25.883,55.844a28.136,28.136,0,0,1-5.975-4.565c-.593-.593-1.153-1.217-1.7-1.858A22.353,22.353,0,0,1,25.8,36.2a21.464,21.464,0,0,1,3.364-2.355l6.3,14.626L40.3,59.721A28.734,28.734,0,0,1,25.883,55.86Z" transform="translate(9.359 18.773)" fill="#ff826e"/>
      <path id="Trazado_100862" data-name="Trazado 100862" d="M46.417,55.844v.016A28.734,28.734,0,0,1,32,59.721l4.838-11.245,6.3-14.626A22.463,22.463,0,0,1,54.09,49.421,28.722,28.722,0,0,1,46.417,55.844Z" transform="translate(17.659 18.773)" fill="#ff826e"/>
      <path id="Trazado_100863" data-name="Trazado 100863" d="M35.756,32.08l2.9,17.509L33.818,60.835,28.98,49.589l2.9-17.509c.641-.048,1.282-.08,1.938-.08S35.115,32.032,35.756,32.08Z" transform="translate(15.842 17.659)" fill="#fcd770"/>
      <path id="Trazado_100864" data-name="Trazado 100864" d="M42.405,34.933l-6.3,14.626L33.21,32.05a22.13,22.13,0,0,1,9.2,2.883Z" transform="translate(18.388 17.69)" fill="#ccd1d9"/>
      <path id="Trazado_100865" data-name="Trazado 100865" d="M34.245,32.05l-2.9,17.509-6.3-14.626A22.13,22.13,0,0,1,34.245,32.05Z" transform="translate(13.476 17.69)" fill="#ccd1d9"/>
      <circle id="Elipse_4093" data-name="Elipse 4093" cx="10.794" cy="10.794" r="10.794" transform="translate(38.482 27.986)" fill="#f0d0b4"/>
      <path id="Trazado_100866" data-name="Trazado 100866" d="M11.2,7H8v3.867l3.673,3.673,2.265-2.265L11.2,9.541Z" transform="translate(3.213 2.612)"/>
      <path id="Trazado_100867" data-name="Trazado 100867" d="M47,53h3.2v3.2H47Z" transform="translate(26.688 30.3)"/>
      <path id="Trazado_100868" data-name="Trazado 100868" d="M51,53H63.815v3.2H51Z" transform="translate(29.096 30.3)"/>
      <path id="Trazado_100869" data-name="Trazado 100869" d="M47,57H66.223v3.2H47Z" transform="translate(26.688 32.707)"/>
      <path id="Trazado_100870" data-name="Trazado 100870" d="M13.01,49a8.01,8.01,0,1,0,8.01,8.01A8.019,8.019,0,0,0,13.01,49Zm0,12.815a4.806,4.806,0,1,1,4.806-4.806A4.812,4.812,0,0,1,13.01,61.815Z" transform="translate(1.408 27.892)"/>
      <path id="Trazado_100871" data-name="Trazado 100871" d="M80.157,23.427h20.162V1H68.281V23.427h7.346l-4.642,4.642a30.249,30.249,0,0,0-40.65,0l-6.408-6.408a12.857,12.857,0,1,0-2.265,2.265l6.408,6.408A30.376,30.376,0,0,0,21.328,42.65H20.223a1.6,1.6,0,0,1-1.6-1.6v-3.2a4.812,4.812,0,0,0-4.806-4.806h-1.9a4.806,4.806,0,1,0,0,3.2h1.9a1.6,1.6,0,0,1,1.6,1.6v3.2a4.812,4.812,0,0,0,4.806,4.806h.418a30.514,30.514,0,0,0-.336,3.2H10.317a4.806,4.806,0,1,0,0,3.2H20.3a30.514,30.514,0,0,0,.336,3.2h-.418a4.812,4.812,0,0,0-4.806,4.806v3.2a1.6,1.6,0,0,1-1.6,1.6h-1.9a4.806,4.806,0,1,0,0,3.2h1.9a4.812,4.812,0,0,0,4.806-4.806v-3.2a1.6,1.6,0,0,1,1.6-1.6h1.105a30.376,30.376,0,0,0,6.741,12.316l-3.59,3.59-1.927-1.927-2.039.955-.769-2.118H11.09L10.323,73.6l-2.039-.955L2.165,78.765,3.119,80.8,1,81.575v8.654L3.116,91l-.955,2.039,6.119,6.119L10.32,98.2l.771,2.119h8.654l.767-2.116,2.039.955,6.119-6.119L27.715,91l2.119-.771V81.575l-2.116-.767.955-2.039-1.927-1.927,3.59-3.59a30.249,30.249,0,0,0,40.649,0l4.642,4.642H68.281V89.105a11.228,11.228,0,0,0,11.213,11.213h9.612a11.213,11.213,0,1,0,0-22.427H80.157L73.25,70.985a30.376,30.376,0,0,0,6.741-12.316H81.1a1.6,1.6,0,0,1,1.6,1.6v3.2A4.812,4.812,0,0,0,87.5,68.281h1.9a4.806,4.806,0,1,0,0-3.2H87.5a1.6,1.6,0,0,1-1.6-1.6v-3.2A4.812,4.812,0,0,0,81.1,55.465h-.418a30.516,30.516,0,0,0,.336-3.2H91a4.806,4.806,0,1,0,0-3.2H81.014a30.516,30.516,0,0,0-.336-3.2H81.1A4.812,4.812,0,0,0,85.9,41.048v-3.2a1.6,1.6,0,0,1,1.6-1.6h1.9a4.806,4.806,0,1,0,0-3.2H87.5A4.812,4.812,0,0,0,82.7,37.844v3.2a1.6,1.6,0,0,1-1.6,1.6H79.991A30.376,30.376,0,0,0,73.25,30.334ZM92.545,13.388a10.914,10.914,0,0,0,.724-.855l3.845-5.126V17.958Zm-1.837-2.776a8.01,8.01,0,0,1-12.815,0L73.086,4.2H95.513ZM75.329,12.532a10.915,10.915,0,0,0,.724.855l-4.569,4.57V7.406Zm3.231,2.88a11.055,11.055,0,0,0,11.479,0l4.811,4.811h-21.1ZM7.408,36.242a1.6,1.6,0,1,1,1.6-1.6A1.6,1.6,0,0,1,7.408,36.242Zm0,32.038a1.6,1.6,0,1,1,1.6-1.6A1.6,1.6,0,0,1,7.408,68.281Zm19.223,19.7-1.318.481-.708.324-.684,1.652.9,1.919L21.875,95.3l-1.919-.9-1.73.714-.727,2H13.336L12.856,95.8l-.324-.708L10.881,94.4l-1.919.9L6.017,92.357l.9-1.919L6.2,88.708l-2-.726V83.821l1.318-.481.708-.324.684-1.652-.9-1.919L8.962,76.5l1.919.9,1.73-.714.726-2H17.5l.481,1.318.324.708,1.652.684,1.919-.9,2.944,2.944-.9,1.919.714,1.73,2,.727Zm70.484,1.123a8.019,8.019,0,0,1-8.01,8.01H79.494a8.019,8.019,0,0,1-8.01-8.01V81.1H89.105A8.019,8.019,0,0,1,97.115,89.105Zm-3.2-24.029a1.6,1.6,0,1,1-1.6,1.6A1.6,1.6,0,0,1,93.911,65.077Zm0-32.038a1.6,1.6,0,1,1-1.6,1.6A1.6,1.6,0,0,1,93.911,33.038ZM15.417,23.283v-3.06h-3.2v3.06a9.625,9.625,0,0,1-7.865-7.865h3.06v-3.2H4.348a9.625,9.625,0,0,1,7.865-7.865v3.06h3.2V4.348a9.623,9.623,0,0,1,7.865,7.865h-3.06v3.2h3.06A9.625,9.625,0,0,1,15.417,23.283ZM5.806,52.261a1.6,1.6,0,1,1,1.6-1.6A1.6,1.6,0,0,1,5.806,52.261ZM30.317,68.7A20.727,20.727,0,0,1,38.8,55.959l9.376,21.807a27.032,27.032,0,0,1-10.329-3.092v-9.6h-3.2v7.556A27.418,27.418,0,0,1,30.317,68.7ZM41.048,39.446a9.612,9.612,0,1,1,9.612,9.612,9.621,9.621,0,0,1-9.612-9.612Zm9.612,12.815c.192,0,.378.021.569.026l2.611,15.756-3.18,7.394-3.18-7.4,2.611-15.756C50.281,52.282,50.467,52.261,50.659,52.261Zm5.523,10.331-1.652-9.967a20.734,20.734,0,0,1,5.2,1.711Zm-11.047,0-3.55-8.256a20.755,20.755,0,0,1,5.2-1.711ZM66.679,72.633V65.077h-3.2v9.6a27.023,27.023,0,0,1-10.329,3.092L62.522,55.96A20.727,20.727,0,0,1,71,68.7a27.344,27.344,0,0,1-4.322,3.93ZM95.513,49.058a1.6,1.6,0,1,1-1.6,1.6A1.6,1.6,0,0,1,95.513,49.058Zm-22.06,16.46A23.938,23.938,0,0,0,57.721,50.131a12.817,12.817,0,1,0-14.123,0A23.939,23.939,0,0,0,27.866,65.516a27.232,27.232,0,1,1,45.587,0Z" transform="translate(-1 -1)"/>
      <path id="Trazado_100872" data-name="Trazado 100872" d="M45.753,35.87a21.04,21.04,0,0,1-.479,4.465l3.129.682a24.094,24.094,0,0,0,.554-5.147,23.821,23.821,0,0,0-2.313-10.3l-2.895,1.376a20.633,20.633,0,0,1,2,8.924Z" transform="translate(24.731 13.789)"/>
      <path id="Trazado_100873" data-name="Trazado 100873" d="M41.286,23.745A20.8,20.8,0,0,1,43.5,26.419l2.629-1.831A23.942,23.942,0,0,0,43.574,21.5Z" transform="translate(23.249 11.34)"/>
      <path id="Trazado_100874" data-name="Trazado 100874" d="M20.648,29.507l-3.132-.673a24.378,24.378,0,0,0-.481,3.4l3.2.223a20.932,20.932,0,0,1,.415-2.946Z" transform="translate(8.652 15.754)"/>
      <path id="Trazado_100875" data-name="Trazado 100875" d="M17.04,33.18a23.474,23.474,0,0,0,.49,3.4l3.129-.686a20.76,20.76,0,0,1-.425-2.94Z" transform="translate(8.655 18.232)"/>
      <path id="Trazado_100876" data-name="Trazado 100876" d="M17.935,27.952l3,1.113a20.852,20.852,0,0,1,1.232-2.7l-2.813-1.533a23.729,23.729,0,0,0-1.423,3.124Z" transform="translate(9.193 13.342)"/>
    </g>
  </g>
</svg>
