<svg xmlns="http://www.w3.org/2000/svg" width="104" height="104" viewBox="0 0 104 104">
  <g id="Grupo_58627" data-name="Grupo 58627" transform="translate(-212 -1058)">
    <path id="Trazado_105870" data-name="Trazado 105870" d="M52,0A52,52,0,1,1,0,52,52,52,0,0,1,52,0Z" transform="translate(212 1058)" fill="#e30613"/>
    <g id="Grupo_53767" data-name="Grupo 53767" transform="translate(230.081 1081.473)">
      <g id="Grupo_53766" data-name="Grupo 53766" transform="translate(0 0)">
        <path id="Trazado_100499" data-name="Trazado 100499" d="M1359.3,1598.932a34.791,34.791,0,0,0,4.517.177l3.284.027v7.351h-5.853l-.02-.8-.021-.8-.409-.163a12.757,12.757,0,0,0-4.5-.722c-1.724,0-2.5.15-3.243.647a1.364,1.364,0,0,0-.239,2.139c.661.668,1.472.879,5.082,1.329a21.8,21.8,0,0,1,5.839,1.24,8.923,8.923,0,0,1,2.221,1.308,6.139,6.139,0,0,1,1.86,3.086,10.681,10.681,0,0,1,.136,3.6,6.463,6.463,0,0,1-1.989,3.781,9.731,9.731,0,0,1-4.817,2.344,28.654,28.654,0,0,1-8.911.232,38.907,38.907,0,0,0-4.5-.17l-3.189-.027v-7.283h5.859v1.5l.266.136a12.259,12.259,0,0,0,4.517.8c3.229.082,4.681-.491,4.687-1.853a1.187,1.187,0,0,0-.6-1.131c-.654-.463-1.574-.675-4.51-1.049-3.529-.457-4.926-.777-6.459-1.5a6.333,6.333,0,0,1-3.9-5.7,7.611,7.611,0,0,1,.682-4.047c1.3-2.691,4.278-4.238,8.891-4.619A44.88,44.88,0,0,1,1359.3,1598.932Z" transform="translate(-1327.044 -1583.296)" fill="#fff"/>
        <path id="Trazado_100500" data-name="Trazado 100500" d="M1196.556,1606.12v3.032H1192.6v12.263h3.952v6.064l-7.849-.014-7.855-.021-.021-3.018-.014-3.011h3.952v-12.263l-1.955-.014-1.962-.021-.021-3.018-.014-3.011h15.738Z" transform="translate(-1180.818 -1587.187)" fill="#fff"/>
        <path id="Trazado_100501" data-name="Trazado 100501" d="M1303.055,1453.119a27.34,27.34,0,0,1,6.254,1.029,28.388,28.388,0,0,1,15.534,11.249,3.94,3.94,0,0,1,.388.634c0,.054-.307.075-.981.075h-.981l-.313-.443a30.949,30.949,0,0,0-3.666-4.067l-.477-.423-1.165.293a57.931,57.931,0,0,1-6.67,1.206,6.081,6.081,0,0,0-.94.164c0,.027.1.354.211.722.266.879.675,2.351.675,2.46,0,.068-.211.089-.852.089h-.845l-.116-.4c-.054-.211-.17-.606-.239-.865a18.554,18.554,0,0,0-.606-1.826,4.194,4.194,0,0,0-.995.014c-.511.041-1.962.109-3.216.156A78.57,78.57,0,0,1,1296,1463a6.441,6.441,0,0,0-1.1-.041c-.055.055-.545,1.588-.777,2.453l-.184.688h-.838c-.77,0-.845-.014-.845-.123,0-.15.388-1.594.681-2.527a1.9,1.9,0,0,0,.15-.7,4.57,4.57,0,0,0-.763-.123,60.1,60.1,0,0,1-6.622-1.213l-1.274-.313-.361.306a29.993,29.993,0,0,0-3.768,4.122l-.409.566h-1a6.55,6.55,0,0,1-1.008-.041,27.548,27.548,0,0,1,1.7-2.378,28.051,28.051,0,0,1,9.607-7.726,27.534,27.534,0,0,1,9.027-2.7,33.828,33.828,0,0,1,3.577-.191C1301.924,1453.078,1302.5,1453.1,1303.055,1453.119Zm-2.425,1.7c-1.574.538-3.073,2.242-4.449,5.055-.313.634-.586,1.213-.606,1.274-.034.1.021.123.313.157a80.294,80.294,0,0,0,8.53.177c2.9-.123,3.168-.143,3.168-.273a22.271,22.271,0,0,0-1.458-2.916,9.548,9.548,0,0,0-2.664-3.018A3.18,3.18,0,0,0,1300.63,1454.815Zm-3.809.266a27.194,27.194,0,0,0-9.756,4.047c-.763.5-1.008.709-.818.709.027,0,.463.1.968.2,1.649.375,5.089.94,6.288,1.036l.259.02.286-.681a19.628,19.628,0,0,1,3.175-5.164c.232-.245.232-.252.075-.245A3.433,3.433,0,0,0,1296.821,1455.081Zm9.164.2a22.867,22.867,0,0,1,1.642,2.248,24.07,24.07,0,0,1,1.526,3.011l.238.593.443-.041a51.476,51.476,0,0,0,7.222-1.274,7.221,7.221,0,0,0-.968-.7,27.387,27.387,0,0,0-9.313-3.952C1305.678,1454.945,1305.685,1454.945,1305.985,1455.285Z" transform="translate(-1267.593 -1453.065)" fill="#fff"/>
        <path id="Trazado_100502" data-name="Trazado 100502" d="M1594.031,1598.894a12.676,12.676,0,0,1,7.331,3.468,11.977,11.977,0,0,1,3.379,8.966,13.7,13.7,0,0,1-.668,4.565c-1.6,4.81-5.75,7.685-11.589,8.033a16.279,16.279,0,0,1-8.4-1.642,12.109,12.109,0,0,1-3.972-3.563,12.657,12.657,0,0,1-1.955-5.553,23.3,23.3,0,0,1,.034-3.9,11.3,11.3,0,0,1,6.459-9.15,15.626,15.626,0,0,1,5.192-1.356A32.3,32.3,0,0,1,1594.031,1598.894Zm-3.536,5.628c-2.269.348-3.59,1.962-4,4.878a18.847,18.847,0,0,0,.1,4.538c.647,2.984,2.316,4.38,5.076,4.251a4.011,4.011,0,0,0,3.073-1.24c1.186-1.179,1.663-2.807,1.669-5.621a8.542,8.542,0,0,0-1.138-4.987,4.158,4.158,0,0,0-2.473-1.724A8.2,8.2,0,0,0,1590.495,1604.522Z" transform="translate(-1535.984 -1583.3)" fill="#fff"/>
        <path id="Trazado_100503" data-name="Trazado 100503" d="M1280.434,1860.529a31.092,31.092,0,0,0,3.829,4.258l.388.334,1.111-.272a53.993,53.993,0,0,1,6.425-1.179c.675-.082,1.233-.157,1.247-.164a5.374,5.374,0,0,0-.191-.688c-.279-.879-.682-2.337-.682-2.487,0-.109.082-.122.845-.122h.838l.184.661c.1.368.313,1.076.463,1.581l.286.906.382-.041a92.55,92.55,0,0,1,10.628-.109c.845.054,1.731.1,1.969.1h.443l.232-.715c.129-.4.334-1.084.457-1.533l.225-.817.858-.021c.572-.013.859.007.859.055,0,.116-.593,2.242-.777,2.773l-.17.49.218.034c.123.021.6.089,1.069.143a57.627,57.627,0,0,1,6.357,1.2c.974.252,1.09.266,1.226.177a28.274,28.274,0,0,0,2.507-2.48c.409-.47,1.008-1.2,1.328-1.628l.593-.776h.974a4.716,4.716,0,0,1,.981.054,20.186,20.186,0,0,1-1.424,2.057,28.337,28.337,0,0,1-19.322,10.778,43.812,43.812,0,0,1-6.132-.034,28.075,28.075,0,0,1-16.045-7.495,28.625,28.625,0,0,1-4.388-5.28c-.041-.061.17-.082.968-.082h1.015Zm18.531,4.285c-1.84.1-3.1.177-3.12.2a18.815,18.815,0,0,0,1.254,2.6,9.945,9.945,0,0,0,2.9,3.42,3.149,3.149,0,0,0,1.662.606,2.975,2.975,0,0,0,1.765-.409,8.856,8.856,0,0,0,2.684-2.7,25.235,25.235,0,0,0,1.778-3.393c0-.109-.143-.129-1.465-.218C1305.308,1864.835,1299.865,1864.767,1298.965,1864.815Zm-5.621.415c-.109.014-.763.1-1.451.2-1.635.225-2.916.443-4.354.749-.913.2-1.158.273-1.1.34a28.454,28.454,0,0,0,2.814,1.8,26.448,26.448,0,0,0,7.4,2.794c.525.116.988.2,1.029.2s-.089-.191-.293-.429a19.263,19.263,0,0,1-2.991-4.919l-.327-.749-.259-.007A2.523,2.523,0,0,0,1293.345,1865.23Zm16.188.382a29.813,29.813,0,0,1-1.54,3.045,16.414,16.414,0,0,1-1.56,2.173,2.193,2.193,0,0,0-.354.47,23.927,23.927,0,0,0,3.631-.879,29.54,29.54,0,0,0,7.065-3.5l.6-.416-.361-.082c-1.826-.423-4.013-.818-5.75-1.043-.6-.075-1.2-.15-1.328-.17C1309.7,1865.189,1309.7,1865.189,1309.532,1865.612Z" transform="translate(-1267.898 -1817.056)" fill="#fff"/>
      </g>
    </g>
  </g>
</svg>
