<svg xmlns="http://www.w3.org/2000/svg" width="110" height="110" viewBox="0 0 110 110">
  <g id="Grupo_58630" data-name="Grupo 58630" transform="translate(-847 -1216)">
    <circle id="Elipse_4118" data-name="Elipse 4118" cx="55" cy="55" r="55" transform="translate(847 1216)" fill="#103a79"/>
    <g id="layer1" transform="translate(855.063 1257.009)">
      <g id="g4926" transform="translate(0 0)">
        <path id="path5491" d="M1048.217,2594.6l-1.2,4.2.566-.175,1.224.408,14.092-4.431Zm18.023,0-17.432,5.472-1.224,1.166-1.391.433-.608,2.14,6.188-1.924,1.224.4,18.864-5.914.508-1.774Zm5.289,2.923L1053,2603.333l-1.224,1.158-7.013,2.174-.608,2.157,11.843-3.673,1.216.4,13.2-4.14Zm-1.449,5.047-12.868,4.031-1.216,1.158-12.668,3.931-.608,2.141.883-.275,16.607-5.139,1.224.4,7.529-2.365Zm-1.449,5.031-7.2,2.265-1.224,1.158-16.607,5.148-1.707.533-.308,1.083h3.14l3.1-.967,16.607-5.139,1.224.4,1.858-.583Zm-1.449,5.039-1.524.483-1.224,1.166-11.285,3.5h12.56Z" transform="translate(-1041.587 -2594.597)" fill="#fff"/>
        <path id="path5617" d="M1554.139,2597.37l-6.313,22.929h16.049l2.815-3.647h8.337l.45,3.647h9.711l-.891-4.514h3.515l2.082-4.989h-20.047l.516-.8h-.142l3.315-4.972h.05l.358,3.714h8.961l-2.232-11.368h-10.9l-11.785,18.989,5.322-18.989Z" transform="translate(-1496.139 -2597.087)" fill="#fff"/>
        <path id="path5638" d="M1340.753,2597.37l-1.757,6.38h18.814l3.74-6.38Zm-2.34,8.5-3.981,14.434h18.814l3.74-6.388h-10.927l.633-2.257h4.855l2.915-5.788Z" transform="translate(-1304.532 -2597.087)" fill="#fff"/>
      </g>
    </g>
  </g>
</svg>
